<?xml version="1.0" encoding="iso-8859-1"?>
<!-- Generator: Adobe Illustrator 16.0.0, SVG Export Plug-In . SVG Version: 6.00 Build 0)  -->
<!DOCTYPE svg PUBLIC "-//W3C//DTD SVG 1.1//EN" "http://www.w3.org/Graphics/SVG/1.1/DTD/svg11.dtd">
<svg version="1.1" id="Capa_1" xmlns="http://www.w3.org/2000/svg" xmlns:xlink="http://www.w3.org/1999/xlink" x="0px" y="0px"
	 width="79.538px" height="79.539px" viewBox="0 0 79.538 79.539" style="enable-background:new 0 0 79.538 79.539;"
	 xml:space="preserve">
<g>
	<path style="fill:#010002;" d="M71.476,26.524c0,4.751-3.862,8.585-8.585,8.585c-4.759,0-8.606-3.84-8.606-8.585
		c0-4.746,3.848-8.591,8.606-8.591C67.623,17.933,71.476,21.778,71.476,26.524z M63.714,37.133h-0.818h-0.818
		c-8.025,0-11.283,2.605-13.385,6.913c-0.643,1.3-1.699,11.584-2.434,19.562h5.866l1.279-13.266l0.403,13.266h18.155l0.403-13.266
		l1.284,13.266h5.888c-0.751-7.984-1.797-18.263-2.434-19.562C75.002,39.738,71.725,37.133,63.714,37.133z M18.771,25.698
		c0.08-0.389,0.08-0.813,0.196-1.188h16.314c0.267,0.831,0.445,1.706,0.445,2.62c0,4.748-3.847,8.606-8.593,8.606
		c-3.824,0-7.037-2.515-8.161-5.96C19.904,28.528,19.788,26.842,18.771,25.698z M13.134,63.609h4.179l-0.145-4.639L13.134,63.609z
		 M41.362,44.683c0.621,1.264,1.623,11.04,2.385,18.926h-5.893L36.63,50.964l-0.399,12.645H18.027l-0.391-12.645
		c0,0-0.085-1.678-0.394-3.2l-14.74-0.165c-0.965,0-1.846-0.57-2.25-1.445c-0.435-0.875-0.295-1.921,0.313-2.677l0.886-1.093
		c0.07-0.171,0.187-0.334,0.303-0.495l12.689-15.646c0.865-1.092,2.47-1.253,3.547-0.373c1.087,0.875,1.25,2.459,0.37,3.552v0.016
		L9.794,40.083l9.23-1.284c0.016-0.005,0.044,0.01,0.065,0c1.867-0.684,4.21-1.049,7.221-1.049h0.818h0.836
		C35.982,37.75,39.252,40.368,41.362,44.683z M36.296,40.124c-0.966-0.521-2.1-0.932-3.464-1.209L19.089,63.496h4.135L36.296,40.124
		z M33.828,15.929H20.425l-1.458,7.249h16.314L33.828,15.929z M43.794,35.676l-0.28-0.282l4.091-4.109l0.306,0.288l1.828-1.862
		l-0.994-0.981l-1.854,1.851l0.13,0.127l-4.086,4.109l-0.864-0.865l-1.352-1.347l-0.657,0.653l1.372,1.362l-3.896,3.899
		l-0.647-0.251l-0.37,0.363c1.113,0.551,2.094,1.261,2.946,2.13L43.794,35.676z"/>
</g>
<g>
</g>
<g>
</g>
<g>
</g>
<g>
</g>
<g>
</g>
<g>
</g>
<g>
</g>
<g>
</g>
<g>
</g>
<g>
</g>
<g>
</g>
<g>
</g>
<g>
</g>
<g>
</g>
<g>
</g>
</svg>
