<?xml version="1.0" encoding="iso-8859-1"?>
<!-- Generator: Adobe Illustrator 16.0.0, SVG Export Plug-In . SVG Version: 6.00 Build 0)  -->
<!DOCTYPE svg PUBLIC "-//W3C//DTD SVG 1.1//EN" "http://www.w3.org/Graphics/SVG/1.1/DTD/svg11.dtd">
<svg version="1.1" id="Capa_1" xmlns="http://www.w3.org/2000/svg" xmlns:xlink="http://www.w3.org/1999/xlink" x="0px" y="0px"
	 width="106.048px" height="106.048px" viewBox="0 0 106.048 106.048" style="enable-background:new 0 0 106.048 106.048;"
	 xml:space="preserve">
<g>
	<path style="fill:#010002;" d="M84.838,0H21.209C9.543,0,0,9.538,0,21.209v63.629c0,11.661,9.543,21.21,21.209,21.21h63.628
		c11.667,0,21.21-9.549,21.21-21.21V21.209C106.048,9.538,96.505,0,84.838,0z M45.081,13.256c4.507,0,8.156,3.648,8.156,8.15
		c0,4.5-3.648,8.161-8.156,8.161s-8.155-3.653-8.155-8.161C36.925,16.898,40.573,13.256,45.081,13.256z M45.277,92.792
		c-13.696,0-24.832-11.144-24.832-24.835c0-10.268,6.268-19.102,15.169-22.866v5.913c-5.906,3.377-9.947,9.673-9.947,16.953
		c0,10.812,8.792,19.604,19.604,19.604c8.767,0,16.114-5.825,18.61-13.784l2.688,6.722C62.251,87.811,54.365,92.792,45.277,92.792z
		 M81.689,83.461H71.271l-5.8-14.51H48.024c-0.14,0-0.262-0.066-0.389-0.072c-0.132,0-0.248,0.072-0.386,0.072
		c-4.608,0-8.357-3.748-8.357-8.367V39.636c0-4.614,1.58-8.357,6.193-8.357c6.739,0,7.519,11.868,7.519,11.868h13.571
		c1.803,0,3.263,1.468,3.263,3.27c0,1.802-1.46,3.251-3.263,3.251H52.6v10.004h14.307c2.01,0,3.682,1.301,4.324,3.087
		c0.994,2.702,4.562,12.883,4.562,12.883h5.888c2.154,0,3.914,1.74,3.914,3.904C85.604,81.705,83.844,83.461,81.689,83.461z"/>
</g>
<g>
</g>
<g>
</g>
<g>
</g>
<g>
</g>
<g>
</g>
<g>
</g>
<g>
</g>
<g>
</g>
<g>
</g>
<g>
</g>
<g>
</g>
<g>
</g>
<g>
</g>
<g>
</g>
<g>
</g>
</svg>
