<?xml version="1.0" encoding="iso-8859-1"?>
<!-- Generator: Adobe Illustrator 16.0.0, SVG Export Plug-In . SVG Version: 6.00 Build 0)  -->
<!DOCTYPE svg PUBLIC "-//W3C//DTD SVG 1.1//EN" "http://www.w3.org/Graphics/SVG/1.1/DTD/svg11.dtd">
<svg version="1.1" id="Capa_1" xmlns="http://www.w3.org/2000/svg" xmlns:xlink="http://www.w3.org/1999/xlink" x="0px" y="0px"
	 width="106.048px" height="106.048px" viewBox="0 0 106.048 106.048" style="enable-background:new 0 0 106.048 106.048;"
	 xml:space="preserve">
<g>
	<path style="fill:#010002;" d="M21.209,106.048h63.628c11.667,0,21.21-9.544,21.21-21.21V21.209C106.048,9.543,96.505,0,84.838,0
		H21.209C9.543,0,0,9.543,0,21.209v63.629C0,96.504,9.543,106.048,21.209,106.048z M12.562,27.503
		c0-9.329,7.635-16.963,16.961-16.963h8.495c5.191,0,9.811,2.418,12.928,6.131c0.132-0.829,0.424-1.587,1.018-2.227
		c0.773-0.839,1.703-1.253,2.816-1.253h0.207c1.104,0,2.098,0.415,2.921,1.253c0.823,0.82,1.253,1.802,1.253,2.915v24.567
		l34.548,21.66v8.523L59.16,60.874v18.537l7.472,7.498v5.82l-11.646-3.542l-11.874,3.531v-5.81l7.706-7.498V60.874L16.251,72.11
		v-8.523l16.953-10.628h-3.682c-9.326,0-16.961-7.635-16.961-16.961V27.503z M29.523,50.833h8.495
		c8.182,0,14.844-6.659,14.844-14.84v-8.49c0-8.182-6.662-14.84-14.844-14.84h-8.495c-8.181,0-14.84,6.659-14.84,14.84v8.495
		C14.688,44.174,21.342,50.833,29.523,50.833z M21.396,23.117l3.749-3.749l8.626,8.63l8.627-8.63l3.749,3.749l-8.627,8.627
		l8.627,8.629l-3.749,3.747l-8.627-8.627l-8.626,8.627l-3.749-3.747l8.626-8.629L21.396,23.117z"/>
</g>
<g>
</g>
<g>
</g>
<g>
</g>
<g>
</g>
<g>
</g>
<g>
</g>
<g>
</g>
<g>
</g>
<g>
</g>
<g>
</g>
<g>
</g>
<g>
</g>
<g>
</g>
<g>
</g>
<g>
</g>
</svg>
