<?xml version="1.0" encoding="iso-8859-1"?>
<!-- Generator: Adobe Illustrator 16.0.0, SVG Export Plug-In . SVG Version: 6.00 Build 0)  -->
<!DOCTYPE svg PUBLIC "-//W3C//DTD SVG 1.1//EN" "http://www.w3.org/Graphics/SVG/1.1/DTD/svg11.dtd">
<svg version="1.1" id="Capa_1" xmlns="http://www.w3.org/2000/svg" xmlns:xlink="http://www.w3.org/1999/xlink" x="0px" y="0px"
	 width="106.048px" height="106.048px" viewBox="0 0 106.048 106.048" style="enable-background:new 0 0 106.048 106.048;"
	 xml:space="preserve">
<g>
	<path style="fill:#010002;" d="M53.023,30.509v-1.616c0-3.13-0.916-6.03-2.407-8.549c0.737-0.37,1.527-0.632,2.407-0.632
		c2.983,0,5.406,2.418,5.406,5.398C58.43,28.091,56.007,30.509,53.023,30.509z M50.903,28.894v8.492
		c0,8.182-6.659,14.843-14.843,14.843h-8.492c-8.184,0-14.843-6.661-14.843-14.843v-8.492c0-8.182,6.659-14.843,14.843-14.843h8.492
		C44.244,14.051,50.903,20.712,50.903,28.894z M46.665,30.494H16.963v5.302h29.702V30.494z M106.048,21.209v63.629
		c0,11.666-9.543,21.21-21.21,21.21H21.209C9.543,106.048,0,96.504,0,84.838V21.209C0,9.543,9.543,0,21.209,0h63.628
		C96.505,0,106.048,9.543,106.048,21.209z M87.396,71.976l-3.205-13.091l-9.735,9.311l2.957,0.859
		C73.177,76.01,65.534,79.069,56.819,79.67V44.407h8.073c0.684,0.679,1.615,1.093,2.641,1.093c2.056,0,3.729-1.66,3.729-3.718
		c0-2.056-1.673-3.724-3.729-3.724c-1.025,0-1.957,0.42-2.641,1.098h-8.073v-4.251c3.931-1.532,6.737-5.333,6.737-9.799
		c0-5.799-4.723-10.525-10.533-10.525c-2.115,0-4.082,0.643-5.731,1.72c-3.001-2.686-6.913-4.371-11.231-4.371h-8.492
		c-9.329,0-16.964,7.635-16.964,16.963v8.492c0,9.328,7.635,16.964,16.964,16.964h8.492c5.807,0,10.952-2.965,14.015-7.444v32.744
		c-9.179-0.684-17.189-4.251-21.21-11.785l2.944-0.652l-9.103-9.921l-4.052,12.841l3.43-0.767
		c5.015,10.988,16.449,19.838,29.36,20.692l2.004,4.06l1.999-4.049c12.282-0.824,23.208-8.896,28.614-19.066L87.396,71.976z"/>
</g>
<g>
</g>
<g>
</g>
<g>
</g>
<g>
</g>
<g>
</g>
<g>
</g>
<g>
</g>
<g>
</g>
<g>
</g>
<g>
</g>
<g>
</g>
<g>
</g>
<g>
</g>
<g>
</g>
<g>
</g>
</svg>
