<?xml version="1.0" encoding="iso-8859-1"?>
<!-- Generator: Adobe Illustrator 16.0.0, SVG Export Plug-In . SVG Version: 6.00 Build 0)  -->
<!DOCTYPE svg PUBLIC "-//W3C//DTD SVG 1.1//EN" "http://www.w3.org/Graphics/SVG/1.1/DTD/svg11.dtd">
<svg version="1.1" id="Capa_1" xmlns="http://www.w3.org/2000/svg" xmlns:xlink="http://www.w3.org/1999/xlink" x="0px" y="0px"
	 width="106.048px" height="106.048px" viewBox="0 0 106.048 106.048" style="enable-background:new 0 0 106.048 106.048;"
	 xml:space="preserve">
<g>
	<path style="fill:#010002;" d="M53.023,29.184c-2.979,0-5.403-2.423-5.403-5.403s2.424-5.393,5.403-5.393
		c2.983,0,5.406,2.418,5.406,5.398C58.43,26.766,56.007,29.184,53.023,29.184z M106.048,21.209v63.629
		c0,11.666-9.543,21.21-21.21,21.21H21.209C9.543,106.048,0,96.504,0,84.838V21.209C0,9.543,9.543,0,21.209,0h63.628
		C96.505,0,106.048,9.543,106.048,21.209z M87.396,70.65L84.191,57.56l-9.735,9.311l2.957,0.859
		c-4.236,6.954-11.879,10.015-20.589,10.615V43.082h8.078c0.674,0.678,1.605,1.092,2.631,1.092c2.056,0,3.729-1.66,3.729-3.718
		c0-2.056-1.673-3.723-3.729-3.723c-1.025,0-1.957,0.419-2.631,1.098h-8.078V33.58c3.926-1.533,6.732-5.334,6.732-9.8
		c0-5.794-4.723-10.524-10.533-10.524c-5.812,0-10.529,4.73-10.529,10.524c0,4.771,3.213,8.777,7.581,10.059v3.987h-8.93
		c-0.679-0.673-1.61-1.093-2.639-1.093c-2.053,0-3.723,1.667-3.723,3.723c0,2.059,1.67,3.718,3.723,3.718
		c1.028,0,1.96-0.415,2.639-1.092h8.93v35.242c-9.179-0.684-17.189-4.257-21.21-11.791l2.944-0.652l-9.103-9.926l-4.052,12.841
		l3.43-0.761c5.015,10.982,16.449,19.837,29.36,20.687l2.004,4.07l1.999-4.05c12.282-0.823,23.208-8.896,28.614-19.065L87.396,70.65
		z"/>
</g>
<g>
</g>
<g>
</g>
<g>
</g>
<g>
</g>
<g>
</g>
<g>
</g>
<g>
</g>
<g>
</g>
<g>
</g>
<g>
</g>
<g>
</g>
<g>
</g>
<g>
</g>
<g>
</g>
<g>
</g>
</svg>
