<?xml version="1.0" encoding="iso-8859-1"?>
<!-- Generator: Adobe Illustrator 16.0.0, SVG Export Plug-In . SVG Version: 6.00 Build 0)  -->
<!DOCTYPE svg PUBLIC "-//W3C//DTD SVG 1.1//EN" "http://www.w3.org/Graphics/SVG/1.1/DTD/svg11.dtd">
<svg version="1.1" id="Capa_1" xmlns="http://www.w3.org/2000/svg" xmlns:xlink="http://www.w3.org/1999/xlink" x="0px" y="0px"
	 width="82.187px" height="82.188px" viewBox="0 0 82.187 82.188" style="enable-background:new 0 0 82.187 82.188;"
	 xml:space="preserve">
<g>
	<path style="fill:#010002;" d="M76.29,46.955l-9.735,9.311l2.952,0.859c-4.23,6.954-11.879,10.015-20.589,10.615V32.478h8.078
		c0.679,0.678,1.61,1.092,2.641,1.092c2.051,0,3.719-1.66,3.719-3.718c0-2.056-1.668-3.723-3.719-3.723
		c-1.03,0-1.962,0.419-2.641,1.098h-8.078v-4.251c3.931-1.533,6.732-5.334,6.732-9.8c0-5.794-4.723-10.524-10.533-10.524
		c-2.115,0-4.082,0.642-5.731,1.719C36.384,1.686,32.472,0,28.154,0h-8.492C10.333,0,2.698,7.635,2.698,16.964v8.492
		c0,9.329,7.635,16.963,16.964,16.963h8.492c5.807,0,10.952-2.964,14.015-7.443V67.72c-9.179-0.684-17.189-4.252-21.21-11.785
		l2.944-0.652l-9.111-9.922l-4.049,12.842l3.431-0.767c5.015,10.988,16.448,19.838,29.36,20.692l2.009,4.06l1.999-4.05
		c12.282-0.823,23.208-8.896,28.614-19.065l3.335,0.974L76.29,46.955z M42.997,25.456c0,8.182-6.659,14.843-14.843,14.843h-8.492
		c-8.184,0-14.843-6.662-14.843-14.843v-8.492c0-8.182,6.659-14.844,14.843-14.844h8.492c8.184,0,14.843,6.662,14.843,14.844V25.456
		z M45.117,18.579v-1.615c0-3.131-0.916-6.03-2.407-8.549c0.737-0.371,1.527-0.632,2.407-0.632c2.983,0,5.406,2.418,5.406,5.398
		C50.523,16.161,48.1,18.579,45.117,18.579z M9.057,18.563h29.702v5.303H9.057V18.563z"/>
</g>
<g>
</g>
<g>
</g>
<g>
</g>
<g>
</g>
<g>
</g>
<g>
</g>
<g>
</g>
<g>
</g>
<g>
</g>
<g>
</g>
<g>
</g>
<g>
</g>
<g>
</g>
<g>
</g>
<g>
</g>
</svg>
