<?xml version="1.0" encoding="iso-8859-1"?>
<!-- Generator: Adobe Illustrator 16.0.0, SVG Export Plug-In . SVG Version: 6.00 Build 0)  -->
<!DOCTYPE svg PUBLIC "-//W3C//DTD SVG 1.1//EN" "http://www.w3.org/Graphics/SVG/1.1/DTD/svg11.dtd">
<svg version="1.1" id="Capa_1" xmlns="http://www.w3.org/2000/svg" xmlns:xlink="http://www.w3.org/1999/xlink" x="0px" y="0px"
	 width="106.048px" height="106.048px" viewBox="0 0 106.048 106.048" style="enable-background:new 0 0 106.048 106.048;"
	 xml:space="preserve">
<g>
	<path style="fill:#010002;" d="M84.838,0H21.209C9.543,0,0,9.543,0,21.209v63.629c0,11.666,9.543,21.21,21.209,21.21h63.628
		c11.667,0,21.21-9.544,21.21-21.21V21.209C106.048,9.543,96.505,0,84.838,0z M92.792,88.333H76.595
		c0.057-0.652,0.104-1.315,0.104-1.988c0-13.214-10.708-23.928-23.918-23.928c-13.209,0-23.92,10.714-23.92,23.928
		c0,0.673,0.049,1.336,0.101,1.988H13.256V54.521h1.675c0.137,0.149,0.334,0.29,0.5,0.435c-2.97-3.061-4.826-7.213-4.826-11.783
		v-8.495c0-9.326,7.635-16.964,16.964-16.964h8.492c8.389,0,15.355,6.193,16.682,14.222c2.705,0,5.429,0,5.667,0
		c1.812,0,4.945,6.856,5.618,8.039c0,0,7.379,0.303,11.656,0.891c0,0,2.926,0.567,2.926,5.251h0.927v3.604h-4.34
		c0-3.272-2.661-5.934-5.934-5.934c-3.263,0-5.908,2.661-5.908,5.934H51.698c-0.759,1.792-1.851,3.387-3.138,4.806h20.691
		c-2.641,0-4.805-2.165-4.805-4.806c0-2.661,2.164-4.815,4.805-4.815c2.662,0,4.815,2.154,4.815,4.815
		c0,2.641-2.153,4.806-4.815,4.806h23.54V88.333z M53.023,34.678c0-0.632-0.116-1.23-0.186-1.846c1.646,0,4.334,0,5.105,0
		c1.222,0,3.936,5.642,4.691,7.097h-9.611V34.678z M71.852,49.715c0,1.421-1.154,2.589-2.589,2.589
		c-1.424,0-2.589-1.173-2.589-2.589c0-1.447,1.17-2.586,2.589-2.586C70.697,47.128,71.852,48.268,71.852,49.715z M50.903,34.678
		c0-8.182-6.659-14.841-14.843-14.841h-8.492c-8.184,0-14.843,6.659-14.843,14.841v8.495c0,8.181,6.659,14.843,14.843,14.843h8.492
		c8.184,0,14.843-6.662,14.843-14.843V34.678z M28.454,50.717L17.212,39.48l3.749-3.747l7.493,7.485l14.214-14.216l3.749,3.749
		L28.454,50.717z"/>
</g>
<g>
</g>
<g>
</g>
<g>
</g>
<g>
</g>
<g>
</g>
<g>
</g>
<g>
</g>
<g>
</g>
<g>
</g>
<g>
</g>
<g>
</g>
<g>
</g>
<g>
</g>
<g>
</g>
<g>
</g>
</svg>
