<?xml version="1.0" encoding="iso-8859-1"?>
<!-- Generator: Adobe Illustrator 16.0.0, SVG Export Plug-In . SVG Version: 6.00 Build 0)  -->
<!DOCTYPE svg PUBLIC "-//W3C//DTD SVG 1.1//EN" "http://www.w3.org/Graphics/SVG/1.1/DTD/svg11.dtd">
<svg version="1.1" id="Capa_1" xmlns="http://www.w3.org/2000/svg" xmlns:xlink="http://www.w3.org/1999/xlink" x="0px" y="0px"
	 width="53.024px" height="53.024px" viewBox="0 0 53.024 53.024" style="enable-background:new 0 0 53.024 53.024;"
	 xml:space="preserve">
<g>
	<g>
		<g>
			<path style="fill:#010002;" d="M21.21,51.699c-10.96,0-19.884-8.927-19.884-19.884V21.21c0-10.959,8.924-19.884,19.884-19.884
				h10.604c10.957,0,19.884,8.924,19.884,19.884v10.605c0,10.957-8.927,19.884-19.884,19.884H21.21z"/>
			<path style="fill:#010002;" d="M31.814,2.652c10.232,0,18.559,8.324,18.559,18.558v10.605c0,10.232-8.326,18.559-18.559,18.559
				H21.21c-10.235,0-18.559-8.326-18.559-18.559V21.21c0-10.234,8.324-18.558,18.559-18.558H31.814 M31.814,0H21.21
				C9.543,0,0,9.543,0,21.21v10.605c0,11.666,9.543,21.209,21.21,21.209h10.604c11.666,0,21.21-9.543,21.21-21.209V21.21
				C53.024,9.543,43.48,0,31.814,0L31.814,0z"/>
		</g>
		<g>
			<polyline style="fill:#010002;" points="10.605,24.863 22.308,36.569 42.419,16.459 			"/>
			<polygon style="fill:#FFFFFF;" points="22.308,40.318 8.73,26.738 12.48,22.989 22.308,32.82 40.544,14.584 44.294,18.334 			"/>
		</g>
	</g>
</g>
<g>
</g>
<g>
</g>
<g>
</g>
<g>
</g>
<g>
</g>
<g>
</g>
<g>
</g>
<g>
</g>
<g>
</g>
<g>
</g>
<g>
</g>
<g>
</g>
<g>
</g>
<g>
</g>
<g>
</g>
</svg>
