<?xml version="1.0" encoding="iso-8859-1"?>
<!-- Generator: Adobe Illustrator 16.0.0, SVG Export Plug-In . SVG Version: 6.00 Build 0)  -->
<!DOCTYPE svg PUBLIC "-//W3C//DTD SVG 1.1//EN" "http://www.w3.org/Graphics/SVG/1.1/DTD/svg11.dtd">
<svg version="1.1" id="Capa_1" xmlns="http://www.w3.org/2000/svg" xmlns:xlink="http://www.w3.org/1999/xlink" x="0px" y="0px"
	 width="82.188px" height="82.188px" viewBox="0 0 82.188 82.188" style="enable-background:new 0 0 82.188 82.188;"
	 xml:space="preserve">
<g>
	<path style="fill:#010002;" d="M82.188,82.188L60.978,2.651H34.45C31.83,0.997,28.76,0,25.456,0h-8.492C7.635,0,0,7.635,0,16.964
		v8.492c0,8.088,5.753,14.895,13.368,16.56L2.651,82.188H82.188z M45.07,79.282h-5.302V68.667h5.302V79.282z M45.07,58.058h-5.302
		v-10.61h5.302V58.058z M45.07,36.829h-5.302V34.45c1.521-2.408,2.434-5.212,2.57-8.23h2.731V36.829z M39.769,5h5.302v10.61h-2.788
		c-0.223-2.788-1.088-5.388-2.514-7.64V5z M2.121,25.456v-8.492C2.121,8.782,8.78,2.12,16.964,2.12h8.492
		c8.184,0,14.843,6.662,14.843,14.844v8.492c0,8.182-6.659,14.843-14.843,14.843h-8.492C8.78,40.299,2.121,33.637,2.121,25.456z
		 M17.849,33.008L6.607,21.771l3.749-3.749l7.493,7.487l14.214-14.222l3.749,3.749L17.849,33.008z"/>
</g>
<g>
</g>
<g>
</g>
<g>
</g>
<g>
</g>
<g>
</g>
<g>
</g>
<g>
</g>
<g>
</g>
<g>
</g>
<g>
</g>
<g>
</g>
<g>
</g>
<g>
</g>
<g>
</g>
<g>
</g>
</svg>
