<?xml version="1.0" encoding="iso-8859-1"?>
<!-- Generator: Adobe Illustrator 16.0.0, SVG Export Plug-In . SVG Version: 6.00 Build 0)  -->
<!DOCTYPE svg PUBLIC "-//W3C//DTD SVG 1.1//EN" "http://www.w3.org/Graphics/SVG/1.1/DTD/svg11.dtd">
<svg version="1.1" id="Capa_1" xmlns="http://www.w3.org/2000/svg" xmlns:xlink="http://www.w3.org/1999/xlink" x="0px" y="0px"
	 width="106.048px" height="106.048px" viewBox="0 0 106.048 106.048" style="enable-background:new 0 0 106.048 106.048;"
	 xml:space="preserve">
<g>
	<path style="fill:#010002;" d="M65.752,51.646c2.185,0.44,3.997,1.108,5.54,1.937L50.398,90.959h-6.617L65.752,51.646z
		 M106.048,21.209v63.629c0,11.661-9.543,21.21-21.21,21.21H21.209C9.543,106.048,0,96.499,0,84.838V21.209
		C0,9.538,9.543,0,21.209,0h63.628C96.505,0,106.048,9.538,106.048,21.209z M43.592,26.491h26.085l-2.319-11.592H45.914
		L43.592,26.491z M43.273,30.52c1.626,1.825,1.817,4.518,0.329,6.517c1.792,5.515,6.941,9.525,13.046,9.525
		c7.592,0,13.743-6.152,13.743-13.756c0-1.468-0.28-2.869-0.715-4.194H43.592C43.4,29.215,43.4,29.891,43.273,30.52z M40.941,91.145
		l-0.223-7.425l-6.46,7.425H40.941z M83.202,91.145c-1.196-12.613-2.807-28.252-3.801-30.281
		c-3.382-6.887-8.606-11.084-21.427-11.084h-1.336h-1.315c-4.808,0-8.562,0.588-11.547,1.686c-0.031,0.011-0.073-0.01-0.106-0.005
		l-14.761,2.056L42.616,36.49v-0.021c1.417-1.74,1.145-4.285-0.59-5.678c-1.722-1.411-4.292-1.152-5.678,0.598L16.055,56.41
		c-0.189,0.248-0.37,0.518-0.481,0.797l-1.417,1.751c-0.976,1.201-1.199,2.868-0.502,4.267c0.645,1.398,2.056,2.299,3.599,2.32
		l23.576,0.284c0.487,2.418,0.624,5.096,0.624,5.096l0.627,20.22h29.108l0.632-20.22l1.957,20.22H83.202L83.202,91.145z
		 M92.792,36.93l-1.574-1.569l-2.962,2.959l0.197,0.207l-6.535,6.563l-1.388-1.372l-2.165-2.159l-1.051,1.046l2.195,2.172
		l-6.229,6.227l-1.036-0.383l-0.591,0.58c1.781,0.88,3.346,2.024,4.713,3.407l6.928-8.138l-0.455-0.45l6.545-6.571l0.486,0.445
		L92.792,36.93z"/>
</g>
<g>
</g>
<g>
</g>
<g>
</g>
<g>
</g>
<g>
</g>
<g>
</g>
<g>
</g>
<g>
</g>
<g>
</g>
<g>
</g>
<g>
</g>
<g>
</g>
<g>
</g>
<g>
</g>
<g>
</g>
</svg>
