<?xml version="1.0" encoding="iso-8859-1"?>
<!-- Generator: Adobe Illustrator 16.0.0, SVG Export Plug-In . SVG Version: 6.00 Build 0)  -->
<!DOCTYPE svg PUBLIC "-//W3C//DTD SVG 1.1//EN" "http://www.w3.org/Graphics/SVG/1.1/DTD/svg11.dtd">
<svg version="1.1" id="Capa_1" xmlns="http://www.w3.org/2000/svg" xmlns:xlink="http://www.w3.org/1999/xlink" x="0px" y="0px"
	 width="95.443px" height="95.443px" viewBox="0 0 95.443 95.443" style="enable-background:new 0 0 95.443 95.443;"
	 xml:space="preserve">
<g>
	<path style="fill:#010002;" d="M88.484,68.527V18.507H73.545v50.021h-3.962V31.934H56.638v36.583H0v8.42h95.443v-8.409H88.484z
		 M61.423,38.567h-2.905v-3.85h2.905V38.567z M67.678,38.567h-2.899v-3.85h2.899V38.567z M79.805,30.284h-4.712v-3.262h4.712V30.284
		z M79.805,25.14h-4.712v-3.265h4.712V25.14z M86.941,30.284h-4.743v-3.262h4.743V30.284z M86.941,25.14h-4.743v-3.265h4.743V25.14z
		 M24.058,60.739v-5.219H0V44.913h24.058v-5.328l18.315,10.571L24.058,60.739z"/>
</g>
<g>
</g>
<g>
</g>
<g>
</g>
<g>
</g>
<g>
</g>
<g>
</g>
<g>
</g>
<g>
</g>
<g>
</g>
<g>
</g>
<g>
</g>
<g>
</g>
<g>
</g>
<g>
</g>
<g>
</g>
</svg>
