<?xml version="1.0" encoding="iso-8859-1"?>
<!-- Generator: Adobe Illustrator 16.0.0, SVG Export Plug-In . SVG Version: 6.00 Build 0)  -->
<!DOCTYPE svg PUBLIC "-//W3C//DTD SVG 1.1//EN" "http://www.w3.org/Graphics/SVG/1.1/DTD/svg11.dtd">
<svg version="1.1" id="Capa_1" xmlns="http://www.w3.org/2000/svg" xmlns:xlink="http://www.w3.org/1999/xlink" x="0px" y="0px"
	 width="79.536px" height="79.536px" viewBox="0 0 79.536 79.536" style="enable-background:new 0 0 79.536 79.536;"
	 xml:space="preserve">
<g>
	<path style="fill:#010002;" d="M79.511,0.005L0,0.026l0.011,79.505l79.525-0.021L79.511,0.005z M74.348,74.43H57.399V57.379
		l16.948-0.011V74.43z M5.251,5.005h16.961v17.049h-8.479H5.256L5.251,5.005z M22.642,39.926h7.555l-7.555,15.133V39.926z
		 M22.642,39.509l-0.005-8.518v-8.521l16.946-0.01v2.656c-0.218-0.036-0.417-0.122-0.658-0.106c-0.831,0.07-1.568,0.58-1.944,1.331
		l-6.581,13.168H22.642z M40.007,32.609l5.178,6.9h-5.173L40.007,32.609z M56.97,39.926v3.917l-0.823,2.195l-4.583-6.112H56.97z
		 M56.97,22.46v17.049h-5.727L41.089,25.966c-0.287-0.375-0.663-0.622-1.093-0.769V22.46h8.492H56.97z M39.556,32.017l0.026,0.031
		l0.01,7.462h-3.774L39.556,32.017z M45.5,39.926l9.43,12.564c0.481,0.632,1.264,0.938,2.056,0.911v3.562l-16.969,0.011V39.926H45.5
		z M57.39,39.926h1.051l-1.051,2.799V39.926z M57.39,39.509V22.46h7.591l-6.38,17.049H57.39z M57.39,22.043l-0.006-8.549l-0.01-8.5
		l14.146-0.011l-6.39,17.06H57.39z M56.97,22.043h-8.481h-8.492V4.995h16.958l0.006,8.5L56.97,22.043z M39.582,22.043l-16.946,0.01
		V5.005l16.946-0.01V22.043z M22.212,22.471v8.515l0.005,8.523L5.256,39.52V22.471h8.477H22.212z M22.217,39.926v15.967
		l-0.541,1.082h-7.938l-8.471,0.01L5.256,39.939L22.217,39.926z M21.469,57.395l-1.893,3.79l-14.31,9.554V57.405L21.469,57.395z
		 M22.222,65.239v0.705l0.01,8.502H8.436L22.222,65.239z M35.605,39.926h3.982v17.049H27.095L35.605,39.926z M57.399,56.964V53.35
		c0.782-0.176,1.445-0.709,1.735-1.465l4.479-11.97h10.734v17.039L57.399,56.964z M63.774,39.499l6.379-17.049h4.184l0.011,17.049
		H63.774z M70.319,22.043l4.018-10.766v10.753L70.319,22.043z M22.646,65.944v-0.979l0.153-0.099
		c0.352-0.238,0.631-0.564,0.823-0.942l3.265-6.529h12.704l0.014,8.518l0.005,8.513l-16.953,0.011L22.646,65.944z M40.012,57.395
		l16.969-0.016V74.43H40.027l-0.005-8.518L40.012,57.395z"/>
</g>
<g>
</g>
<g>
</g>
<g>
</g>
<g>
</g>
<g>
</g>
<g>
</g>
<g>
</g>
<g>
</g>
<g>
</g>
<g>
</g>
<g>
</g>
<g>
</g>
<g>
</g>
<g>
</g>
<g>
</g>
</svg>
