<?xml version="1.0" encoding="iso-8859-1"?>
<!-- Generator: Adobe Illustrator 16.0.0, SVG Export Plug-In . SVG Version: 6.00 Build 0)  -->
<!DOCTYPE svg PUBLIC "-//W3C//DTD SVG 1.1//EN" "http://www.w3.org/Graphics/SVG/1.1/DTD/svg11.dtd">
<svg version="1.1" id="Capa_1" xmlns="http://www.w3.org/2000/svg" xmlns:xlink="http://www.w3.org/1999/xlink" x="0px" y="0px"
	 width="106.048px" height="106.048px" viewBox="0 0 106.048 106.048" style="enable-background:new 0 0 106.048 106.048;"
	 xml:space="preserve">
<g>
	<path style="fill:#010002;" d="M84.838,0H21.209C9.543,0,0,9.543,0,21.209v63.629c0,11.661,9.543,21.21,21.209,21.21h63.628
		c11.667,0,21.21-9.549,21.21-21.21V21.209C106.048,9.543,96.505,0,84.838,0z M53.034,13.256c6.09,0,11.029,4.932,11.029,11.014
		c0,6.113-4.939,11.045-11.029,11.045c-6.097,0-11.045-4.927-11.045-11.045C41.989,18.188,46.937,13.256,53.034,13.256z
		 M44.459,91.373L33.813,80.322c-2.273-2.335-2.9-6.627-0.456-9.071c0-0.011,7.588-7.622,7.588-7.622l8.94,8.938l-6.54,6.534
		l6.719,6.731C54.018,89.788,48.537,95.453,44.459,91.373z M71.707,80.322L61.102,91.373c-4.091,4.086-9.566-1.585-5.592-5.541
		l6.731-6.731l-6.587-6.534l8.938-8.938c0,0,7.602,7.611,7.622,7.622C74.638,73.695,74.011,77.987,71.707,80.322z M79.836,60.056
		c-0.771,0.818-1.817,1.232-2.858,1.232c-0.958,0-1.91-0.337-2.661-1.046l-9.171-8.549l-0.16,7.524H41.062l-0.161-7.524
		l-9.168,8.549c-0.753,0.709-1.706,1.046-2.667,1.046c-1.038,0-2.089-0.414-2.854-1.232c-1.473-1.585-1.388-4.05,0.187-5.521
		c0,0,10.509-11.422,12.021-12.753c2.798-2.48,6.902-3.881,13.559-3.881h2.095c6.653,0,10.755,1.406,13.556,3.881
		c1.508,1.331,12.019,12.753,12.019,12.753C81.214,56.006,81.307,58.471,79.836,60.056z"/>
</g>
<g>
</g>
<g>
</g>
<g>
</g>
<g>
</g>
<g>
</g>
<g>
</g>
<g>
</g>
<g>
</g>
<g>
</g>
<g>
</g>
<g>
</g>
<g>
</g>
<g>
</g>
<g>
</g>
<g>
</g>
</svg>
