<?xml version="1.0" encoding="iso-8859-1"?>
<!-- Generator: Adobe Illustrator 16.0.0, SVG Export Plug-In . SVG Version: 6.00 Build 0)  -->
<!DOCTYPE svg PUBLIC "-//W3C//DTD SVG 1.1//EN" "http://www.w3.org/Graphics/SVG/1.1/DTD/svg11.dtd">
<svg version="1.1" id="Capa_1" xmlns="http://www.w3.org/2000/svg" xmlns:xlink="http://www.w3.org/1999/xlink" x="0px" y="0px"
	 width="106.048px" height="106.048px" viewBox="0 0 106.048 106.048" style="enable-background:new 0 0 106.048 106.048;"
	 xml:space="preserve">
<g>
	<path style="fill:#010002;" d="M63.557,42.333l4.986,8.292l-11.33,0.303l-5.154-8.241L63.557,42.333z M106.048,21.209v63.629
		c0,11.666-9.543,21.21-21.21,21.21H21.209C9.543,106.048,0,96.504,0,84.838V21.209C0,9.543,9.543,0,21.209,0h63.628
		C96.505,0,106.048,9.543,106.048,21.209z M92.585,50.093l-20.236,0.539l-7.353-12.158l-25.487,0.466v3.914l6.007-0.165l4.909,8.412
		L13.95,51.978c0,0-0.805-0.041-0.684,0.728l5.652,15.48c0.445,0.093,58.867,0.217,58.867,0.217c2.258,0,5.593-3.925,5.593-3.925
		l9.14-13.681C92.512,50.797,93.092,49.979,92.585,50.093z"/>
</g>
<g>
</g>
<g>
</g>
<g>
</g>
<g>
</g>
<g>
</g>
<g>
</g>
<g>
</g>
<g>
</g>
<g>
</g>
<g>
</g>
<g>
</g>
<g>
</g>
<g>
</g>
<g>
</g>
<g>
</g>
</svg>
