<?xml version="1.0" encoding="iso-8859-1"?>
<!-- Generator: Adobe Illustrator 16.0.0, SVG Export Plug-In . SVG Version: 6.00 Build 0)  -->
<!DOCTYPE svg PUBLIC "-//W3C//DTD SVG 1.1//EN" "http://www.w3.org/Graphics/SVG/1.1/DTD/svg11.dtd">
<svg version="1.1" id="Capa_1" xmlns="http://www.w3.org/2000/svg" xmlns:xlink="http://www.w3.org/1999/xlink" x="0px" y="0px"
	 width="106.048px" height="106.048px" viewBox="0 0 106.048 106.048" style="enable-background:new 0 0 106.048 106.048;"
	 xml:space="preserve">
<g>
	<path style="fill:#010002;" d="M50.484,39.402v37.202c0-1.75-15.372-11.981-33.125-0.817V32.477
		c3.516-2.014,8.246-3.249,13.463-3.249C41.681,29.22,50.484,32.79,50.484,39.402z M106.048,21.209v63.629
		c0,11.666-9.543,21.21-21.21,21.21H21.209C9.543,106.048,0,96.504,0,84.838V21.209C0,9.543,9.543,0,21.209,0h63.628
		C96.505,0,106.048,9.543,106.048,21.209z M92.792,28.707c-20.723-9.137-37.282,0.531-39.374,2.455
		c-2.748-2.63-18.543-11.765-40.162-2.455c0,0.138,0,2.719,0,6.654v44.418h32.741c1.126,0.968,3.798,1.651,6.926,1.651
		c3.114,0,5.797-0.684,6.926-1.651h32.943V35.361C92.792,31.426,92.792,28.845,92.792,28.707z M55.83,39.402v37.202
		c0-1.75,15.358-11.981,33.119-0.817V32.477c-3.521-2.014-8.243-3.249-13.463-3.249C64.623,29.22,55.83,32.79,55.83,39.402z"/>
</g>
<g>
</g>
<g>
</g>
<g>
</g>
<g>
</g>
<g>
</g>
<g>
</g>
<g>
</g>
<g>
</g>
<g>
</g>
<g>
</g>
<g>
</g>
<g>
</g>
<g>
</g>
<g>
</g>
<g>
</g>
</svg>
