<?xml version="1.0" encoding="iso-8859-1"?>
<!-- Generator: Adobe Illustrator 16.0.0, SVG Export Plug-In . SVG Version: 6.00 Build 0)  -->
<!DOCTYPE svg PUBLIC "-//W3C//DTD SVG 1.1//EN" "http://www.w3.org/Graphics/SVG/1.1/DTD/svg11.dtd">
<svg version="1.1" id="Capa_1" xmlns="http://www.w3.org/2000/svg" xmlns:xlink="http://www.w3.org/1999/xlink" x="0px" y="0px"
	 width="106.048px" height="106.048px" viewBox="0 0 106.048 106.048" style="enable-background:new 0 0 106.048 106.048;"
	 xml:space="preserve">
<g>
	<path style="fill:#010002;" d="M84.838,0H21.209C9.543,0,0,9.543,0,21.209v63.629c0,11.666,9.543,21.21,21.209,21.21h63.628
		c11.667,0,21.21-9.544,21.21-21.21V21.209C106.048,9.543,96.505,0,84.838,0z M38.994,32.42c1.771-3.019,4.153-5.271,7.115-6.757
		v-5.991H44.7c-1.194,0-2.149-1.077-2.149-2.397v-1.621c-0.005-1.32,0.955-2.397,2.149-2.397h16.65c1.19,0,2.144,1.077,2.144,2.397
		v1.621c0,1.32-0.958,2.397-2.144,2.397h-1.306v5.991c4.671,2.34,7.597,5.923,8.881,10.674H37.334
		C37.759,34.996,38.256,33.676,38.994,32.42z M36.327,42.258c0-0.205,0.08-0.407,0.08-0.619h33.249
		c0.01,0.223,0.072,0.404,0.072,0.619v4.477H36.327V42.258z M36.327,52.042h33.401v5.092H36.327V52.042z M63.049,92.792H41.645
		c-5.859,0-5.318-6.359-5.318-6.359V62.458h33.401v23.1C69.718,85.558,70.401,92.792,63.049,92.792z"/>
</g>
<g>
</g>
<g>
</g>
<g>
</g>
<g>
</g>
<g>
</g>
<g>
</g>
<g>
</g>
<g>
</g>
<g>
</g>
<g>
</g>
<g>
</g>
<g>
</g>
<g>
</g>
<g>
</g>
<g>
</g>
</svg>
