<?xml version="1.0" encoding="iso-8859-1"?>
<!-- Generator: Adobe Illustrator 16.0.0, SVG Export Plug-In . SVG Version: 6.00 Build 0)  -->
<!DOCTYPE svg PUBLIC "-//W3C//DTD SVG 1.1//EN" "http://www.w3.org/Graphics/SVG/1.1/DTD/svg11.dtd">
<svg version="1.1" id="Capa_1" xmlns="http://www.w3.org/2000/svg" xmlns:xlink="http://www.w3.org/1999/xlink" x="0px" y="0px"
	 width="106.048px" height="106.048px" viewBox="0 0 106.048 106.048" style="enable-background:new 0 0 106.048 106.048;"
	 xml:space="preserve">
<g>
	<path style="fill:#010002;" d="M84.838,0H21.209C9.543,0,0,9.543,0,21.209v63.629c0,11.666,9.543,21.21,21.209,21.21h63.628
		c11.667,0,21.21-9.544,21.21-21.21V21.209C106.048,9.543,96.505,0,84.838,0z M63.919,76.921c0.595,2.729,1.636,5.934,0.626,10.791
		c-0.947,4.53-4.406,5.08-4.406,5.08H45.909c0,0-3.459-0.55-4.407-5.08c-1.02-4.857,0.031-8.062,0.614-10.791
		c0.601-2.734,0.394-4.116-0.502-8.528c-1.447-7.084-1.331-19.335-0.551-25.226c0.779-5.89,3.604-9.587,4.963-12.37
		c2.237-4.578,2.258-10.261,2.258-10.261h-1.25v-2.18l0.461-0.334V13.61c0,0,2.03-0.45,5.53-0.334
		c3.501-0.111,5.53,0.334,5.53,0.334v4.407l0.451,0.334v2.18h-1.248c0,0,0.031,5.678,2.268,10.26
		c1.362,2.783,4.174,6.486,4.966,12.371c0.771,5.885,0.896,18.137-0.554,25.23C63.525,72.805,63.328,74.187,63.919,76.921z"/>
</g>
<g>
</g>
<g>
</g>
<g>
</g>
<g>
</g>
<g>
</g>
<g>
</g>
<g>
</g>
<g>
</g>
<g>
</g>
<g>
</g>
<g>
</g>
<g>
</g>
<g>
</g>
<g>
</g>
<g>
</g>
</svg>
