<?xml version="1.0" encoding="iso-8859-1"?>
<!-- Generator: Adobe Illustrator 16.0.0, SVG Export Plug-In . SVG Version: 6.00 Build 0)  -->
<!DOCTYPE svg PUBLIC "-//W3C//DTD SVG 1.1//EN" "http://www.w3.org/Graphics/SVG/1.1/DTD/svg11.dtd">
<svg version="1.1" id="Capa_1" xmlns="http://www.w3.org/2000/svg" xmlns:xlink="http://www.w3.org/1999/xlink" x="0px" y="0px"
	 width="79.536px" height="79.536px" viewBox="0 0 79.536 79.536" style="enable-background:new 0 0 79.536 79.536;"
	 xml:space="preserve">
<g>
	<path style="fill:#010002;" d="M23.146,28.384H56.4c0,0.223,0.067,0.404,0.067,0.619v4.477H23.065v-4.477
		C23.065,28.798,23.146,28.596,23.146,28.384z M23.065,43.88h33.402v-5.093H23.065V43.88z M46.784,12.407V6.416h1.305
		c1.191,0,2.149-1.077,2.149-2.397V2.397c0-1.32-0.963-2.397-2.149-2.397h-16.65c-1.194,0-2.149,1.077-2.149,2.397v1.621
		c0,1.32,0.96,2.397,2.149,2.397h1.416v5.991c-2.969,1.486-5.352,3.739-7.123,6.757c-0.735,1.256-1.235,2.576-1.659,3.917h31.586
		C54.38,18.331,51.449,14.747,46.784,12.407z M23.065,73.177c0,0-0.546,6.359,5.318,6.359h21.409c7.357,0,6.675-7.234,6.675-7.234
		V49.192H23.065V73.177z"/>
</g>
<g>
</g>
<g>
</g>
<g>
</g>
<g>
</g>
<g>
</g>
<g>
</g>
<g>
</g>
<g>
</g>
<g>
</g>
<g>
</g>
<g>
</g>
<g>
</g>
<g>
</g>
<g>
</g>
<g>
</g>
</svg>
