<?xml version="1.0" encoding="iso-8859-1"?>
<!-- Generator: Adobe Illustrator 16.0.0, SVG Export Plug-In . SVG Version: 6.00 Build 0)  -->
<!DOCTYPE svg PUBLIC "-//W3C//DTD SVG 1.1//EN" "http://www.w3.org/Graphics/SVG/1.1/DTD/svg11.dtd">
<svg version="1.1" id="Capa_1" xmlns="http://www.w3.org/2000/svg" xmlns:xlink="http://www.w3.org/1999/xlink" x="0px" y="0px"
	 width="106.048px" height="106.048px" viewBox="0 0 106.048 106.048" style="enable-background:new 0 0 106.048 106.048;"
	 xml:space="preserve">
<g>
	<path style="fill:#010002;" d="M84.838,0H21.209C9.543,0,0,9.543,0,21.209v63.629c0,11.666,9.543,21.21,21.209,21.21h63.628
		c11.667,0,21.21-9.544,21.21-21.21V21.209C106.048,9.543,96.505,0,84.838,0z M33.803,53.8c0.986-4.161,3.065-7.627,6.273-10.426
		c3.164-2.726,6.941-4.295,11.247-4.714h0.163V13.256h2.843v2.19c2.319-0.922,4.505-1.422,6.534-1.422
		c0.611,0,1.336,0.106,2.206,0.318c0.859,0.197,1.792,0.43,2.775,0.741c1.025,0.308,1.947,0.58,2.833,0.759
		c0.844,0.225,1.59,0.318,2.18,0.318c1.129,0,2.123-0.217,3.045-0.608V27.55c-1.108,0.298-2.107,0.43-3.045,0.43
		c-0.59,0-1.336-0.085-2.18-0.285c-0.886-0.207-1.808-0.451-2.833-0.774c-0.983-0.282-1.957-0.531-2.868-0.759
		c-0.896-0.202-1.668-0.303-2.269-0.303c-0.311,0-0.781,0.07-1.439,0.228c-0.668,0.146-1.347,0.35-2.051,0.601
		c-0.725,0.259-1.336,0.497-1.905,0.705c-0.414,0.147-0.725,0.186-0.994,0.233v11.04h0.311c4.345,0.419,8.094,1.988,11.258,4.714
		c3.267,2.793,5.344,6.266,6.266,10.421c0,0,3.36-0.129,3.36,2.92H30.732C30.732,53.288,33.803,53.8,33.803,53.8z M86.65,92.792
		H63.422v-5.976H42.333v5.976H19.397V59.854H86.65V92.792z"/>
</g>
<g>
</g>
<g>
</g>
<g>
</g>
<g>
</g>
<g>
</g>
<g>
</g>
<g>
</g>
<g>
</g>
<g>
</g>
<g>
</g>
<g>
</g>
<g>
</g>
<g>
</g>
<g>
</g>
<g>
</g>
</svg>
