<?xml version="1.0" encoding="iso-8859-1"?>
<!-- Generator: Adobe Illustrator 16.0.0, SVG Export Plug-In . SVG Version: 6.00 Build 0)  -->
<!DOCTYPE svg PUBLIC "-//W3C//DTD SVG 1.1//EN" "http://www.w3.org/Graphics/SVG/1.1/DTD/svg11.dtd">
<svg version="1.1" id="Capa_1" xmlns="http://www.w3.org/2000/svg" xmlns:xlink="http://www.w3.org/1999/xlink" x="0px" y="0px"
	 width="106.048px" height="106.048px" viewBox="0 0 106.048 106.048" style="enable-background:new 0 0 106.048 106.048;"
	 xml:space="preserve">
<g>
	<path style="fill:#010002;" d="M74.233,64.954H63.629V49.047h10.604V64.954z M106.048,21.209v63.629
		c0,11.666-9.543,21.21-21.21,21.21H21.209C9.543,106.048,0,96.504,0,84.838V21.209C0,9.543,9.543,0,21.209,0h63.628
		C96.505,0,106.048,9.543,106.048,21.209z M79.536,14.581H45.055c-2.62-1.654-5.69-2.651-8.994-2.651h-8.492
		c-9.329,0-16.964,7.635-16.964,16.963v8.492c0,8.963,7.079,16.296,15.907,16.86v39.876h21.21V78.215h10.604v15.907h21.21V14.581z
		 M53.023,37.386c0,0.362-0.085,0.702-0.111,1.057h5.414V22.535h-6.568c0.8,1.968,1.266,4.108,1.266,6.358V37.386z M36.061,14.051
		c8.184,0,14.843,6.661,14.843,14.843v8.492c0,8.182-6.659,14.843-14.843,14.843h-8.492c-8.184,0-14.843-6.661-14.843-14.843v-8.492
		c0-8.182,6.659-14.843,14.843-14.843H36.061z M40.441,20.764l-8.626,8.627l-8.627-8.627l-3.749,3.749l8.627,8.627l-8.627,8.627
		l3.749,3.749l8.627-8.627l8.626,8.627l3.749-3.749l-8.626-8.627l8.626-8.627L40.441,20.764z M74.233,22.535H63.629v15.907h10.604
		V22.535z M47.722,49.624v15.33h10.604V49.047H48.299C48.109,49.244,47.918,49.44,47.722,49.624z M31.814,54.35v10.604h10.604
		V53.081c-1.968,0.803-4.108,1.269-6.358,1.269H31.814z"/>
</g>
<g>
</g>
<g>
</g>
<g>
</g>
<g>
</g>
<g>
</g>
<g>
</g>
<g>
</g>
<g>
</g>
<g>
</g>
<g>
</g>
<g>
</g>
<g>
</g>
<g>
</g>
<g>
</g>
<g>
</g>
</svg>
