<?xml version="1.0" encoding="iso-8859-1"?>
<!-- Generator: Adobe Illustrator 16.0.0, SVG Export Plug-In . SVG Version: 6.00 Build 0)  -->
<!DOCTYPE svg PUBLIC "-//W3C//DTD SVG 1.1//EN" "http://www.w3.org/Graphics/SVG/1.1/DTD/svg11.dtd">
<svg version="1.1" id="Capa_1" xmlns="http://www.w3.org/2000/svg" xmlns:xlink="http://www.w3.org/1999/xlink" x="0px" y="0px"
	 width="79.536px" height="79.536px" viewBox="0 0 79.536 79.536" style="enable-background:new 0 0 79.536 79.536;"
	 xml:space="preserve">
<g>
	<path style="fill:#010002;" d="M0,0v79.536h79.536V0H0z M74.099,74.099H5.435V20.254h68.664V74.099L74.099,74.099z M31.009,64.136
		h-6.718v-25.31c-2.449,2.299-5.344,3.987-8.682,5.084v-6.089c1.75-0.578,3.659-1.655,5.717-3.26
		c2.053-1.598,3.462-3.475,4.23-5.605h5.448v35.18H31.009z M41.194,56.027l6.502-0.704c0.16,1.315,0.574,2.299,1.237,2.931
		c0.673,0.642,1.554,0.963,2.661,0.963c1.383,0,2.563-0.642,3.542-1.916c0.974-1.273,1.595-3.914,1.864-7.942
		c-1.698,1.967-3.821,2.94-6.349,2.94c-2.755,0-5.131-1.056-7.13-3.194c-2.004-2.118-2.996-4.883-2.996-8.304
		c0-3.552,1.049-6.41,3.172-8.583c2.107-2.175,4.79-3.262,8.062-3.262c3.562,0,6.473,1.367,8.746,4.119
		c2.283,2.747,3.423,7.271,3.423,13.559c0,6.411-1.187,11.04-3.553,13.867c-2.382,2.838-5.479,4.257-9.289,4.257
		c-2.734,0-4.95-0.726-6.644-2.186S41.666,58.938,41.194,56.027z M56.4,41.363c0-2.172-0.502-3.853-1.491-5.041
		c-1.005-1.204-2.149-1.805-3.459-1.805c-1.243,0-2.278,0.5-3.097,1.471c-0.818,0.986-1.232,2.586-1.232,4.812
		c0,2.271,0.445,3.928,1.347,4.989c0.891,1.057,1.998,1.59,3.345,1.59c1.284,0,2.366-0.513,3.252-1.522
		C55.955,44.832,56.4,43.341,56.4,41.363z"/>
</g>
<g>
</g>
<g>
</g>
<g>
</g>
<g>
</g>
<g>
</g>
<g>
</g>
<g>
</g>
<g>
</g>
<g>
</g>
<g>
</g>
<g>
</g>
<g>
</g>
<g>
</g>
<g>
</g>
<g>
</g>
</svg>
