<?xml version="1.0" encoding="iso-8859-1"?>
<!-- Generator: Adobe Illustrator 16.0.0, SVG Export Plug-In . SVG Version: 6.00 Build 0)  -->
<!DOCTYPE svg PUBLIC "-//W3C//DTD SVG 1.1//EN" "http://www.w3.org/Graphics/SVG/1.1/DTD/svg11.dtd">
<svg version="1.1" id="Capa_1" xmlns="http://www.w3.org/2000/svg" xmlns:xlink="http://www.w3.org/1999/xlink" x="0px" y="0px"
	 width="79.536px" height="79.536px" viewBox="0 0 79.536 79.536" style="enable-background:new 0 0 79.536 79.536;"
	 xml:space="preserve">
<g>
	<path style="fill:#010002;" d="M76.228,26.447L39.769,8.324L3.309,26.447L0,19.788L39.717,0.042L39.731,0l0.037,0.021L39.805,0
		l0.016,0.047l39.716,19.741L76.228,26.447z M47.794,68.062c-1.978,1.75-4.35,2.625-7.099,2.625c-3.726,0-6.76-1.372-9.093-4.127
		c-2.333-2.755-3.496-7.368-3.496-13.846c0-6.111,1.183-10.527,3.55-13.259c2.364-2.731,5.45-4.088,9.25-4.088
		c2.755,0,5.085,0.774,7.006,2.307c1.932,1.538,3.195,3.632,3.801,6.289l10.248-2.443c-1.165-4.099-2.91-7.25-5.251-9.445
		c-3.909-3.705-9.01-5.562-15.283-5.562c-7.18,0-12.979,2.359-17.386,7.084c-4.406,4.725-6.607,11.351-6.607,19.884
		c0,8.067,2.19,14.427,6.574,19.076c4.38,4.66,9.98,6.98,16.787,6.98c5.507,0,10.049-1.357,13.626-4.08
		c3.573-2.714,6.137-6.867,7.675-12.464l-10.046-3.195C51.201,63.566,49.782,66.316,47.794,68.062z"/>
</g>
<g>
</g>
<g>
</g>
<g>
</g>
<g>
</g>
<g>
</g>
<g>
</g>
<g>
</g>
<g>
</g>
<g>
</g>
<g>
</g>
<g>
</g>
<g>
</g>
<g>
</g>
<g>
</g>
<g>
</g>
</svg>
