<?xml version="1.0" encoding="iso-8859-1"?>
<!-- Generator: Adobe Illustrator 16.0.0, SVG Export Plug-In . SVG Version: 6.00 Build 0)  -->
<!DOCTYPE svg PUBLIC "-//W3C//DTD SVG 1.1//EN" "http://www.w3.org/Graphics/SVG/1.1/DTD/svg11.dtd">
<svg version="1.1" id="Capa_1" xmlns="http://www.w3.org/2000/svg" xmlns:xlink="http://www.w3.org/1999/xlink" x="0px" y="0px"
	 width="106.048px" height="106.048px" viewBox="0 0 106.048 106.048" style="enable-background:new 0 0 106.048 106.048;"
	 xml:space="preserve">
<g>
	<path style="fill:#010002;" d="M84.838,0H21.209C9.543,0,0,9.548,0,21.209v63.629c0,11.672,9.543,21.21,21.209,21.21h63.628
		c11.667,0,21.21-9.538,21.21-21.21V21.209C106.048,9.548,96.505,0,84.838,0z M67.678,88.711c-3.578,2.725-8.119,4.081-13.618,4.081
		c-6.81,0-12.409-2.32-16.79-6.98c-4.383-4.649-6.574-11.009-6.574-19.076c0-8.533,2.201-15.159,6.607-19.884
		c4.407-4.726,10.201-7.084,17.377-7.084c6.276,0,11.377,1.856,15.286,5.562c2.33,2.195,4.086,5.346,5.25,9.444l-10.252,2.444
		c-0.601-2.656-1.875-4.751-3.801-6.299c-1.921-1.533-4.257-2.307-7.006-2.307c-3.801,0-6.887,1.362-9.251,4.088
		c-2.366,2.726-3.55,7.148-3.55,13.259c0,6.482,1.163,11.097,3.495,13.846c2.328,2.755,5.367,4.127,9.093,4.127
		c2.755,0,5.127-0.875,7.104-2.625c1.979-1.745,3.407-4.494,4.267-8.254l10.041,3.189C73.819,81.846,71.251,86.003,67.678,88.711z
		 M89.483,39.703L53.023,21.58L16.564,39.703l-3.309-6.659l39.717-19.747l0.015-0.041l0.036,0.021l0.037-0.021l0.016,0.046
		l39.716,19.747L89.483,39.703z"/>
</g>
<g>
</g>
<g>
</g>
<g>
</g>
<g>
</g>
<g>
</g>
<g>
</g>
<g>
</g>
<g>
</g>
<g>
</g>
<g>
</g>
<g>
</g>
<g>
</g>
<g>
</g>
<g>
</g>
<g>
</g>
</svg>
