<?xml version="1.0" encoding="iso-8859-1"?>
<!-- Generator: Adobe Illustrator 16.0.0, SVG Export Plug-In . SVG Version: 6.00 Build 0)  -->
<!DOCTYPE svg PUBLIC "-//W3C//DTD SVG 1.1//EN" "http://www.w3.org/Graphics/SVG/1.1/DTD/svg11.dtd">
<svg version="1.1" id="Capa_1" xmlns="http://www.w3.org/2000/svg" xmlns:xlink="http://www.w3.org/1999/xlink" x="0px" y="0px"
	 width="79.536px" height="79.536px" viewBox="0 0 79.536 79.536" style="enable-background:new 0 0 79.536 79.536;"
	 xml:space="preserve">
<g>
	<path style="fill:#010002;" d="M59.336,79.536H20.2V60.361h39.136V79.536z M64.768,30.52c-1.077,0-1.941-0.562-2.589-1.711
		c-0.254,5.37-2.201,10.048-5.836,14.02c0.528-0.119,0.927-0.191,1.196-0.191c1.797,0,2.688,0.927,2.688,2.765
		c0,1.864-0.927,2.771-2.786,2.771c-1.863,0-2.796-0.88-2.796-2.656c0-0.264,0.072-0.657,0.187-1.16
		c-3.967,3.604-8.632,5.525-13.999,5.779c1.154,0.668,1.729,1.543,1.729,2.589c0,1.849-0.935,2.771-2.791,2.771
		c-1.864,0-2.789-0.927-2.789-2.771c0-1.082,0.562-1.937,1.691-2.589c-5.057,0-9.712-1.947-13.966-5.82
		c0.127,0.533,0.202,0.938,0.202,1.237c0,1.756-0.935,2.615-2.799,2.615c-1.867,0-2.786-0.911-2.786-2.766
		c0-1.848,0.885-2.77,2.674-2.77c0.274,0,0.668,0.067,1.176,0.191c-3.627-4.052-5.562-8.718-5.81-14.015
		c-0.622,1.145-1.486,1.711-2.594,1.711c-1.846,0-2.773-0.921-2.773-2.772c0-1.833,0.927-2.747,2.773-2.747
		c1.108,0,1.968,0.575,2.589,1.698c0.249-5.302,2.183-9.98,5.805-14.03c-0.51,0.122-0.901,0.184-1.178,0.184
		c-1.787,0-2.672-0.921-2.672-2.778s0.929-2.758,2.788-2.758c1.872,0,2.802,0.881,2.802,2.657c0,0.282-0.075,0.683-0.202,1.199
		c4.254-3.892,8.909-5.849,13.965-5.849c-1.128-0.642-1.69-1.499-1.69-2.571c0-1.841,0.93-2.752,2.789-2.752
		c1.861,0,2.791,0.911,2.791,2.752c0,1.044-0.575,1.903-1.729,2.571c5.367,0.243,10.032,2.19,13.999,5.849
		c-0.119-0.492-0.187-0.891-0.187-1.16c0-1.799,0.938-2.695,2.801-2.695c1.859,0,2.786,0.906,2.786,2.763s-0.891,2.783-2.688,2.783
		c-0.27,0-0.668-0.062-1.196-0.184c3.635,3.972,5.582,8.643,5.836,14.025c0.647-1.124,1.512-1.699,2.589-1.699
		c1.854,0,2.771,0.914,2.771,2.747C67.538,29.598,66.622,30.52,64.768,30.52L64.768,30.52z M31.892,24.974
		c0.297,0,0.704,0.09,1.229,0.223l0.117-0.308c-1.002-0.577-1.559-1.452-1.686-2.612c-1.67-0.171-2.592-1.087-2.757-2.763
		c-1.178-0.15-2.04-0.717-2.586-1.729c-1.512,2.266-2.529,4.73-3.081,7.413c0.513-0.132,0.942-0.223,1.276-0.223
		c0.51,0,1.087,0.277,1.755,0.829c0.712-0.552,1.37-0.829,1.989-0.829c0.616,0,1.279,0.277,1.947,0.829
		C30.769,25.251,31.356,24.974,31.892,24.974L31.892,24.974z M33.122,30.292c-0.531,0.15-0.937,0.228-1.229,0.228
		c-0.497,0-1.098-0.274-1.797-0.815c-0.668,0.541-1.331,0.815-1.947,0.815c-0.619,0-1.277-0.274-1.989-0.815
		c-0.668,0.541-1.266,0.815-1.797,0.815c-0.292,0-0.722-0.046-1.235-0.173c0.552,2.646,1.569,5.1,3.081,7.332
		c0.551-0.997,1.414-1.585,2.586-1.717c0.161-1.672,1.083-2.594,2.757-2.77c0.127-1.155,0.688-2.014,1.69-2.55L33.122,30.292z
		 M34.32,19.519c1.134,0.111,1.994,0.699,2.54,1.722l0.303-0.153c-0.127-0.515-0.187-0.935-0.187-1.229
		c0-0.505,0.267-1.098,0.79-1.81c-0.531-0.668-0.79-1.307-0.79-1.929c0-0.621,0.267-1.294,0.79-1.988
		c-0.531-0.668-0.79-1.269-0.79-1.755c0-0.329,0.06-0.743,0.187-1.24c-2.641,0.53-5.085,1.543-7.33,3.076
		c0.976,0.531,1.543,1.362,1.714,2.54C33.166,16.945,34.098,17.859,34.32,19.519L34.32,19.519z M36.86,34.274
		c-0.546,1.002-1.406,1.559-2.54,1.688c-0.223,1.657-1.154,2.587-2.768,2.783c-0.171,1.176-0.743,2.02-1.711,2.576
		c2.242,1.507,4.686,2.527,7.327,3.04c-0.132-0.503-0.192-0.896-0.192-1.207c0-0.518,0.267-1.124,0.79-1.792
		c-0.531-0.694-0.79-1.372-0.79-1.988c0-0.629,0.267-1.271,0.79-1.944c-0.531-0.712-0.79-1.3-0.79-1.81
		c0-0.29,0.06-0.709,0.187-1.235L36.86,34.274z M43.499,27.727c0-1.023-0.36-1.903-1.098-2.62c-0.721-0.699-1.596-1.075-2.636-1.075
		c-1.038,0-1.903,0.375-2.633,1.075c-0.722,0.717-1.093,1.597-1.093,2.62c0,1.033,0.365,1.918,1.093,2.646
		c0.73,0.733,1.6,1.083,2.633,1.083c1.035,0,1.91-0.35,2.636-1.083C43.139,29.65,43.499,28.765,43.499,27.727z M42.562,19.858
		c0,0.295-0.07,0.714-0.223,1.225l0.339,0.111c0.547-1.007,1.398-1.569,2.543-1.72c0.196-1.654,1.118-2.565,2.76-2.768
		c0.15-1.113,0.729-1.973,1.725-2.54c-2.248-1.488-4.702-2.501-7.366-3.031c0.152,0.502,0.223,0.911,0.223,1.24
		c0,0.476-0.277,1.056-0.823,1.755c0.552,0.694,0.823,1.326,0.823,1.903c0,0.673-0.277,1.346-0.823,2.014
		C42.284,18.76,42.562,19.354,42.562,19.858L42.562,19.858z M42.339,34.414c0.152,0.507,0.223,0.927,0.223,1.24
		c0,0.476-0.277,1.059-0.823,1.771c0.552,0.673,0.823,1.315,0.823,1.944c0,0.652-0.277,1.32-0.823,1.988
		c0.552,0.697,0.823,1.29,0.823,1.797c0,0.311-0.07,0.704-0.223,1.207c2.664-0.523,5.129-1.533,7.376-3.04
		c-1.005-0.577-1.584-1.416-1.734-2.55c-1.642-0.192-2.553-1.113-2.76-2.768c-1.145-0.155-1.996-0.728-2.543-1.729L42.339,34.414z
		 M48.021,22.276c-0.14,1.16-0.714,2.02-1.714,2.586l0.104,0.329c0.528-0.127,0.938-0.217,1.243-0.217
		c0.497,0,1.087,0.277,1.75,0.829c0.725-0.552,1.378-0.829,1.988-0.829c0.622,0,1.274,0.277,1.979,0.829
		c0.704-0.552,1.3-0.829,1.802-0.829c0.301,0,0.704,0.09,1.212,0.223c-0.539-2.682-1.543-5.147-3.061-7.413
		c-0.544,1.013-1.403,1.569-2.573,1.696C50.574,21.135,49.663,22.074,48.021,22.276L48.021,22.276z M46.308,30.637
		c1,0.585,1.574,1.441,1.714,2.578c1.652,0.194,2.553,1.119,2.729,2.783c1.17,0.127,2.029,0.684,2.573,1.681
		c1.518-2.232,2.521-4.687,3.055-7.332c-0.513,0.142-0.911,0.212-1.206,0.212c-0.508,0-1.108-0.277-1.808-0.818
		c-0.698,0.516-1.341,0.779-1.941,0.779c-0.611,0-1.284-0.264-2.02-0.779c-0.663,0.516-1.253,0.779-1.75,0.779
		c-0.306,0-0.715-0.046-1.243-0.173L46.308,30.637z"/>
</g>
<g>
</g>
<g>
</g>
<g>
</g>
<g>
</g>
<g>
</g>
<g>
</g>
<g>
</g>
<g>
</g>
<g>
</g>
<g>
</g>
<g>
</g>
<g>
</g>
<g>
</g>
<g>
</g>
<g>
</g>
</svg>
