<?xml version="1.0" encoding="iso-8859-1"?>
<!-- Generator: Adobe Illustrator 16.0.0, SVG Export Plug-In . SVG Version: 6.00 Build 0)  -->
<!DOCTYPE svg PUBLIC "-//W3C//DTD SVG 1.1//EN" "http://www.w3.org/Graphics/SVG/1.1/DTD/svg11.dtd">
<svg version="1.1" id="Capa_1" xmlns="http://www.w3.org/2000/svg" xmlns:xlink="http://www.w3.org/1999/xlink" x="0px" y="0px"
	 width="106.048px" height="106.048px" viewBox="0 0 106.048 106.048" style="enable-background:new 0 0 106.048 106.048;"
	 xml:space="preserve">
<g>
	<path style="fill:#010002;" d="M32.674,62.754c0,2.128-1.745,3.878-3.886,3.878c-2.128,0-3.875-1.75-3.875-3.878
		c0-2.139,1.748-3.89,3.875-3.89C30.929,58.864,32.674,60.615,32.674,62.754z M77.393,58.864c-2.145,0-3.895,1.751-3.895,3.89
		c0,2.128,1.75,3.878,3.895,3.878c2.138,0,3.883-1.75,3.883-3.878C81.275,60.615,79.53,58.864,77.393,58.864z M35.007,47.447h13.838
		V37.45c0,0-5.196,0-7.037,0C40.34,37.45,36.873,41.619,35.007,47.447z M106.048,21.209v63.629c0,11.666-9.543,21.21-21.21,21.21
		H21.209C9.543,106.048,0,96.504,0,84.838V21.209C0,9.543,9.543,0,21.209,0h63.628C96.505,0,106.048,9.543,106.048,21.209z
		 M36.014,62.754c0-3.988-3.239-7.225-7.226-7.225c-3.977,0-7.213,3.236-7.213,7.225c0,3.966,3.236,7.202,7.213,7.202
		C32.775,69.956,36.014,66.72,36.014,62.754z M84.6,62.754c0-3.988-3.23-7.225-7.207-7.225c-3.987,0-7.219,3.236-7.219,7.225
		c0,3.966,3.231,7.202,7.219,7.202C81.369,69.956,84.6,66.72,84.6,62.754z M92.792,57.342h-1.398c0-7.006-4.365-7.845-4.365-7.845
		c-6.426-0.9-17.497-1.367-17.497-1.367c-1.015-1.76-5.706-12.042-8.439-12.042c-0.922,0-20.503,0-23.97,0
		c-3.472,0-9.168,10.027-10.413,12.29c0,0-4.36,0.748-6.416,1.22c-1.142,0.259-4.306,0.323-4.306,9.157h-2.731v3.998h6.654
		c0-4.909,3.982-8.886,8.878-8.886c4.914,0,8.886,3.977,8.886,8.886h30.828c0-4.909,3.967-8.886,8.892-8.886
		c4.898,0,8.875,3.977,8.875,8.886h6.524V57.342z M60.408,37.45c-1.844,0-8.979,0-8.979,0v9.997l16.021,0.629
		C66.306,45.914,62.251,37.45,60.408,37.45z"/>
</g>
<g>
</g>
<g>
</g>
<g>
</g>
<g>
</g>
<g>
</g>
<g>
</g>
<g>
</g>
<g>
</g>
<g>
</g>
<g>
</g>
<g>
</g>
<g>
</g>
<g>
</g>
<g>
</g>
<g>
</g>
</svg>
