<?xml version="1.0" encoding="iso-8859-1"?>
<!-- Generator: Adobe Illustrator 16.0.0, SVG Export Plug-In . SVG Version: 6.00 Build 0)  -->
<!DOCTYPE svg PUBLIC "-//W3C//DTD SVG 1.1//EN" "http://www.w3.org/Graphics/SVG/1.1/DTD/svg11.dtd">
<svg version="1.1" id="Capa_1" xmlns="http://www.w3.org/2000/svg" xmlns:xlink="http://www.w3.org/1999/xlink" x="0px" y="0px"
	 width="82.188px" height="82.188px" viewBox="0 0 82.188 82.188" style="enable-background:new 0 0 82.188 82.188;"
	 xml:space="preserve">
<g>
	<path style="fill:#010002;" d="M58.658,42.587c-2.642,0-4.815-2.162-4.815-4.803c0-2.662,2.174-4.816,4.815-4.816
		c2.661,0,4.815,2.154,4.815,4.816C63.474,40.426,61.31,42.587,58.658,42.587z M61.247,37.785c0-1.447-1.154-2.589-2.589-2.589
		c-1.424,0-2.589,1.142-2.589,2.589c0,1.418,1.17,2.586,2.589,2.586C60.093,40.371,61.247,39.203,61.247,37.785z M58.658,42.587
		H38.093c-0.127,0.171,2.167-2.825,3.001-4.803h11.651c0-3.273,2.641-5.934,5.902-5.934c3.283,0,5.935,2.661,5.935,5.934h4.35
		v-3.607h-0.927c0-4.681-2.926-5.248-2.926-5.248c-4.282-0.59-11.656-0.891-11.656-0.891C52.75,26.856,49.617,20,47.805,20
		c-0.238,0-2.946,0-5.667,0c-1.331-8.024-8.293-14.216-16.682-14.216h-8.492C7.635,5.784,0,13.424,0,22.747v8.492
		c0,4.531,1.818,8.627,4.735,11.672c-0.126-0.106-0.287-0.197-0.403-0.324H2.651v33.816h15.705
		c-0.052-0.652-0.101-1.315-0.101-1.988c0-13.215,10.711-23.923,23.92-23.923c13.21,0,23.918,10.708,23.918,23.923
		c0,0.673-0.047,1.336-0.104,1.988h16.197V42.587H58.658z M47.339,20.906c1.222,0,3.936,5.642,4.691,7.094h-9.611v-5.248
		c0-0.631-0.116-1.222-0.186-1.846C43.849,20.906,46.552,20.906,47.339,20.906z M2.121,22.747c0-8.181,6.659-14.843,14.843-14.843
		h8.492c8.184,0,14.843,6.662,14.843,14.843v8.492c0,8.182-6.659,14.841-14.843,14.841h-8.492c-8.184,0-14.843-6.659-14.843-14.841
		V22.747z M36.061,24.353H6.359v5.303h29.702V24.353z"/>
</g>
<g>
</g>
<g>
</g>
<g>
</g>
<g>
</g>
<g>
</g>
<g>
</g>
<g>
</g>
<g>
</g>
<g>
</g>
<g>
</g>
<g>
</g>
<g>
</g>
<g>
</g>
<g>
</g>
<g>
</g>
</svg>
