<?xml version="1.0" encoding="iso-8859-1"?>
<!-- Generator: Adobe Illustrator 16.0.0, SVG Export Plug-In . SVG Version: 6.00 Build 0)  -->
<!DOCTYPE svg PUBLIC "-//W3C//DTD SVG 1.1//EN" "http://www.w3.org/Graphics/SVG/1.1/DTD/svg11.dtd">
<svg version="1.1" id="Capa_1" xmlns="http://www.w3.org/2000/svg" xmlns:xlink="http://www.w3.org/1999/xlink" x="0px" y="0px"
	 width="106.048px" height="106.048px" viewBox="0 0 106.048 106.048" style="enable-background:new 0 0 106.048 106.048;"
	 xml:space="preserve">
<g>
	<path style="fill:#010002;" d="M50.246,32.402h-9.238c1.253-3.891,3.558-6.68,4.528-6.68c1.235,0,4.704,0,4.704,0v6.68H50.246z
		 M106.048,21.209v63.629c0,11.666-9.543,21.21-21.21,21.21H21.209C9.543,106.048,0,96.504,0,84.838V21.209
		C0,9.543,9.543,0,21.209,0h63.628C96.505,0,106.048,9.543,106.048,21.209z M26.512,42.605h4.428c0-3.272,2.661-5.935,5.934-5.935
		c3.271,0,5.921,2.662,5.921,5.935H63.35c0-3.272,2.641-5.935,5.902-5.935c3.283,0,5.935,2.662,5.935,5.935h4.35v-3.606h-0.927
		c0-4.682-2.926-5.248-2.926-5.248c-4.282-0.591-11.656-0.891-11.656-0.891c-0.673-1.184-3.806-8.039-5.618-8.039
		c-0.611,0-13.678,0-15.985,0c-2.322,0-6.103,6.68-6.947,8.202c0,0-2.915,0.486-4.29,0.805c-0.75,0.176-2.858,0.218-2.858,6.1
		h-1.818V42.605z M92.792,47.408H69.263c2.661,0,4.815-2.162,4.815-4.803c0-2.662-2.154-4.816-4.815-4.816
		c-2.642,0-4.815,2.154-4.815,4.816c0,2.641,2.174,4.803,4.815,4.803h-32.39c2.651,0,4.808-2.162,4.808-4.803
		c0-2.662-2.157-4.816-4.808-4.816c-2.667,0-4.815,2.154-4.815,4.816c0,2.641,2.149,4.803,4.815,4.803H13.256v33.815h15.705
		c-0.052-0.652-0.101-1.315-0.101-1.988c0-13.215,10.711-23.923,23.92-23.923c13.21,0,23.918,10.708,23.918,23.923
		c0,0.673-0.047,1.336-0.104,1.988h16.197V47.408z M69.263,40.017c-1.424,0-2.589,1.142-2.589,2.589c0,1.419,1.17,2.586,2.589,2.586
		c1.435,0,2.589-1.172,2.589-2.586C71.852,41.158,70.697,40.017,69.263,40.017z M36.873,40.017c-1.432,0-2.594,1.142-2.594,2.589
		c0,1.419,1.167,2.586,2.594,2.586c1.422,0,2.587-1.172,2.587-2.586C39.46,41.158,38.295,40.017,36.873,40.017z M57.943,25.728
		c-1.212,0-5.98,0-5.98,0v6.68l10.672,0.414C61.879,31.369,59.165,25.728,57.943,25.728z"/>
</g>
<g>
</g>
<g>
</g>
<g>
</g>
<g>
</g>
<g>
</g>
<g>
</g>
<g>
</g>
<g>
</g>
<g>
</g>
<g>
</g>
<g>
</g>
<g>
</g>
<g>
</g>
<g>
</g>
<g>
</g>
</svg>
