<?xml version="1.0" encoding="iso-8859-1"?>
<!-- Generator: Adobe Illustrator 16.0.0, SVG Export Plug-In . SVG Version: 6.00 Build 0)  -->
<!DOCTYPE svg PUBLIC "-//W3C//DTD SVG 1.1//EN" "http://www.w3.org/Graphics/SVG/1.1/DTD/svg11.dtd">
<svg version="1.1" id="Capa_1" xmlns="http://www.w3.org/2000/svg" xmlns:xlink="http://www.w3.org/1999/xlink" x="0px" y="0px"
	 width="106.048px" height="106.048px" viewBox="0 0 106.048 106.048" style="enable-background:new 0 0 106.048 106.048;"
	 xml:space="preserve">
<g>
	<path style="fill:#010002;" d="M38.802,68.993c0,1.833-1.489,3.313-3.309,3.313c-1.838,0-3.329-1.48-3.329-3.313
		c0-1.823,1.491-3.314,3.329-3.314C37.313,65.679,38.802,67.17,38.802,68.993z M77.879,65.679c-1.833,0-3.314,1.491-3.314,3.314
		c0,1.833,1.481,3.313,3.314,3.313s3.314-1.48,3.314-3.313C81.193,67.17,79.707,65.679,77.879,65.679z M106.048,21.209v63.629
		c0,11.666-9.543,21.21-21.21,21.21H21.209C9.543,106.048,0,96.504,0,84.838V21.209C0,9.543,9.543,0,21.209,0h63.628
		C96.505,0,106.048,9.543,106.048,21.209z M13.256,62.127h50.684V30.976H13.256V62.127z M28.871,64.032H13.256v3.376l6.258,1.585
		h7.692C27.206,67.118,27.832,65.42,28.871,64.032z M41.56,68.993c0-3.345-2.719-6.069-6.066-6.069c-3.36,0-6.076,2.725-6.076,6.069
		c0,3.355,2.721,6.079,6.076,6.079C38.841,75.072,41.56,72.349,41.56,68.993z M83.953,68.993c0-3.345-2.729-6.069-6.074-6.069
		c-3.366,0-6.079,2.725-6.079,6.069c0,3.355,2.724,6.079,6.079,6.079C81.224,75.072,83.953,72.349,83.953,68.993z M92.792,55.188
		l-7.741-3.314l-4.417-13.256v-3.314H66.787v28.728H42.096c1.046,1.388,1.67,3.086,1.67,4.961h25.818
		c0-4.567,3.712-8.274,8.284-8.274c3.216,0,5.997,1.833,7.374,4.515c0.492,0.964,0.797,2.04,0.875,3.169
		c0.016,0.197,0.041,0.394,0.041,0.591h6.629V55.188H92.792z M70.697,41.932v9.942h11.039l-3.304-9.942H70.697z M42.605,54.069
		c-0.986,0.87-2.165,1.315-3.542,1.315c-1.866,0-3.389-0.693-4.546-2.071c-1.17-1.372-1.748-3.679-1.748-6.918
		c0-3.055,0.588-5.266,1.771-6.628c1.181-1.367,2.724-2.053,4.629-2.053c1.377,0,2.545,0.388,3.498,1.157
		c0.966,0.774,1.598,1.822,1.903,3.148l5.119-1.22c-0.578-2.051-1.447-3.627-2.62-4.723c-1.958-1.856-4.508-2.778-7.641-2.778
		c-3.596,0-6.485,1.18-8.691,3.542c-2.206,2.359-3.304,5.673-3.304,9.942c0,4.034,1.098,7.213,3.283,9.538
		c2.195,2.325,4.989,3.49,8.398,3.49c2.747,0,5.023-0.679,6.804-2.035c1.792-1.367,3.076-3.438,3.842-6.24l-5.015-1.595
		C44.312,51.82,43.603,53.194,42.605,54.069z"/>
</g>
<g>
</g>
<g>
</g>
<g>
</g>
<g>
</g>
<g>
</g>
<g>
</g>
<g>
</g>
<g>
</g>
<g>
</g>
<g>
</g>
<g>
</g>
<g>
</g>
<g>
</g>
<g>
</g>
<g>
</g>
</svg>
