<?xml version="1.0" encoding="iso-8859-1"?>
<!-- Generator: Adobe Illustrator 16.0.0, SVG Export Plug-In . SVG Version: 6.00 Build 0)  -->
<!DOCTYPE svg PUBLIC "-//W3C//DTD SVG 1.1//EN" "http://www.w3.org/Graphics/SVG/1.1/DTD/svg11.dtd">
<svg version="1.1" id="Capa_1" xmlns="http://www.w3.org/2000/svg" xmlns:xlink="http://www.w3.org/1999/xlink" x="0px" y="0px"
	 width="106.048px" height="106.048px" viewBox="0 0 106.048 106.048" style="enable-background:new 0 0 106.048 106.048;"
	 xml:space="preserve">
<g>
	<path style="fill:#010002;" d="M52.224,56.793V70.37c0,1.264-1.03,2.3-2.286,2.3H38.391c-1.269,0-2.292-1.036-2.292-2.3V56.793
		c0-1.264,1.023-2.299,2.292-2.299h11.542C51.193,54.505,52.224,55.529,52.224,56.793z M106.048,21.209v63.629
		c0,11.666-9.543,21.21-21.21,21.21H21.209C9.543,106.048,0,96.504,0,84.838V21.209C0,9.543,9.543,0,21.209,0h63.628
		C96.505,0,106.048,9.543,106.048,21.209z M55.737,52.027c0-1.083-0.761-1.983-1.776-2.221v-8.23
		c0.647-0.445,1.072-1.186,1.072-2.035c0-1.362-1.119-2.48-2.48-2.48c-1.375,0-2.482,1.118-2.482,2.48
		c0,0.844,0.419,1.579,1.056,2.029v8.171H35.255c-1.261,0-2.296,1.025-2.296,2.286v38.465c0,1.274,1.036,2.294,2.296,2.294h18.184
		c1.263,0,2.299-1.02,2.299-2.294V52.027z M64.736,38.569c-0.01-6.48-5.25-11.708-11.718-11.718
		c-6.465,0.005-11.713,5.238-11.713,11.718c0,0.774,0.627,1.406,1.401,1.406s1.398-0.637,1.398-1.406
		c0.011-4.927,4.005-8.904,8.919-8.919c4.93,0.011,8.907,3.993,8.917,8.919c0,0.774,0.627,1.406,1.398,1.406
		C64.115,39.975,64.736,39.338,64.736,38.569z M71.064,38.569c0-9.958-8.072-18.028-18.046-18.059
		c-9.962,0.031-18.043,8.101-18.043,18.059c0,0.774,0.624,1.406,1.398,1.406c0.774,0,1.396-0.637,1.396-1.406
		c0.01-8.43,6.83-15.229,15.25-15.239c8.431,0.005,15.229,6.809,15.25,15.239c0,0.774,0.626,1.406,1.397,1.406
		C70.433,39.975,71.064,39.338,71.064,38.569z M78.335,38.569c0-13.97-11.33-25.313-25.316-25.313
		c-13.973,0-25.298,11.343-25.298,25.313c0,0.774,0.622,1.406,1.391,1.406c0.779,0,1.398-0.637,1.398-1.406
		c0.026-12.433,10.084-22.481,22.514-22.509c12.438,0.028,22.489,10.077,22.515,22.509c0,0.774,0.622,1.406,1.398,1.406
		S78.335,39.338,78.335,38.569z"/>
</g>
<g>
</g>
<g>
</g>
<g>
</g>
<g>
</g>
<g>
</g>
<g>
</g>
<g>
</g>
<g>
</g>
<g>
</g>
<g>
</g>
<g>
</g>
<g>
</g>
<g>
</g>
<g>
</g>
<g>
</g>
</svg>
