<?xml version="1.0" encoding="iso-8859-1"?>
<!-- Generator: Adobe Illustrator 16.0.0, SVG Export Plug-In . SVG Version: 6.00 Build 0)  -->
<!DOCTYPE svg PUBLIC "-//W3C//DTD SVG 1.1//EN" "http://www.w3.org/Graphics/SVG/1.1/DTD/svg11.dtd">
<svg version="1.1" id="Capa_1" xmlns="http://www.w3.org/2000/svg" xmlns:xlink="http://www.w3.org/1999/xlink" x="0px" y="0px"
	 width="79.537px" height="79.536px" viewBox="0 0 79.537 79.536" style="enable-background:new 0 0 79.537 79.536;"
	 xml:space="preserve">
<g>
	<path style="fill:#010002;" d="M40.706,36.555v-8.235c0.642-0.445,1.066-1.186,1.066-2.035c0-1.362-1.116-2.48-2.478-2.48
		c-1.375,0-2.483,1.119-2.483,2.48c0,0.844,0.42,1.579,1.052,2.03v8.171H21.997c-1.255,0-2.296,1.025-2.296,2.286v38.466
		c0,1.273,1.041,2.299,2.296,2.299h18.188c1.261,0,2.297-1.025,2.297-2.289V38.771C42.476,37.694,41.72,36.793,40.706,36.555z
		 M38.965,57.114c0,1.264-1.03,2.3-2.291,2.3H25.137c-1.269,0-2.296-1.036-2.296-2.3V43.538c0-1.267,1.023-2.297,2.296-2.297h11.542
		c1.256,0,2.291,1.025,2.291,2.297v13.576H38.965z M62.277,25.313c-0.03-12.433-10.071-22.481-22.512-22.51l0,0
		c-12.427,0.029-22.48,10.077-22.514,22.51l0,0c0,0.774-0.614,1.406-1.398,1.406l0,0c-0.769,0-1.391-0.637-1.391-1.406l0,0
		C14.462,11.343,25.795,0,39.76,0l0,0c13.983,0,25.313,11.343,25.313,25.313l0,0c0,0.774-0.632,1.406-1.408,1.406l0,0
		C62.909,26.719,62.277,26.082,62.277,25.313L62.277,25.313z M55.007,25.313c-0.021-8.43-6.814-15.229-15.247-15.239l0,0
		c-8.415,0.01-15.239,6.809-15.25,15.239l0,0c0,0.774-0.616,1.406-1.396,1.406l0,0c-0.774,0-1.398-0.637-1.398-1.406l0,0
		c0-9.958,8.075-18.028,18.043-18.059l0,0c9.976,0.025,18.043,8.096,18.043,18.059l0,0c0,0.774-0.621,1.406-1.397,1.406l0,0
		C55.639,26.719,55.007,26.082,55.007,25.313L55.007,25.313z M48.679,25.313c-0.01-4.927-3.992-8.904-8.919-8.919l0,0
		c-4.909,0.015-8.909,3.992-8.919,8.919l0,0c0,0.774-0.624,1.406-1.398,1.406l0,0c-0.774,0-1.4-0.637-1.4-1.406l0,0
		c0-6.48,5.248-11.708,11.718-11.718l0,0c6.47,0.01,11.705,5.243,11.716,11.718l0,0c0,0.774-0.621,1.406-1.398,1.406l0,0
		C49.301,26.719,48.679,26.082,48.679,25.313L48.679,25.313z"/>
</g>
<g>
</g>
<g>
</g>
<g>
</g>
<g>
</g>
<g>
</g>
<g>
</g>
<g>
</g>
<g>
</g>
<g>
</g>
<g>
</g>
<g>
</g>
<g>
</g>
<g>
</g>
<g>
</g>
<g>
</g>
</svg>
