<?xml version="1.0" encoding="iso-8859-1"?>
<!-- Generator: Adobe Illustrator 16.0.0, SVG Export Plug-In . SVG Version: 6.00 Build 0)  -->
<!DOCTYPE svg PUBLIC "-//W3C//DTD SVG 1.1//EN" "http://www.w3.org/Graphics/SVG/1.1/DTD/svg11.dtd">
<svg version="1.1" id="Capa_1" xmlns="http://www.w3.org/2000/svg" xmlns:xlink="http://www.w3.org/1999/xlink" x="0px" y="0px"
	 width="106.048px" height="106.048px" viewBox="0 0 106.048 106.048" style="enable-background:new 0 0 106.048 106.048;"
	 xml:space="preserve">
<g>
	<path style="fill:#010002;" d="M60.408,45.616c-4.65-4.655,8.16-9.846,9.703-10.201C70.111,35.416,65.068,50.287,60.408,45.616z
		 M51.206,61.169c-6.879-2.595-8.494,2.314-6.506,4.292c4.389,4.381,14.766-3.728,15.283-5.312
		C59.983,60.148,57.332,63.494,51.206,61.169z M57.736,54.639c-6.872-2.596-8.498,2.311-6.51,4.293
		c4.387,4.387,14.764-3.718,15.297-5.317C66.523,53.614,63.872,56.959,57.736,54.639z M52.832,47.854
		c1.968,1.962,6.866,0.365,4.272-6.522c-2.314-6.113,1.03-8.774,1.03-8.774C56.54,33.093,48.443,43.457,52.832,47.854z
		 M64.079,48.309c-6.897-2.597-8.497,2.312-6.52,4.28c4.401,4.401,14.778-3.718,15.307-5.303
		C72.861,47.286,70.185,50.631,64.079,48.309z M106.048,21.209v63.629c0,11.666-9.543,21.21-21.21,21.21H21.209
		C9.543,106.048,0,96.504,0,84.838V21.209C0,9.543,9.543,0,21.209,0h63.628C96.505,0,106.048,9.543,106.048,21.209z M24.857,19.868
		h56.325v-6.612H24.857V19.868z M84.595,28.319c0-3.096-2.542-5.631-5.628-5.631H27.084c-3.097,0-5.631,2.54-5.631,5.631v58.839
		c0,3.096,2.54,5.634,5.631,5.634h51.872c3.097,0,5.634-2.538,5.634-5.634V28.319H84.595z M44.236,54.204
		c-2.309-6.128,1.036-8.779,1.036-8.779c-1.608,0.531-9.714,10.892-5.313,15.294C41.927,62.701,46.847,61.081,44.236,54.204z
		 M46.497,54.193c1.968,1.963,6.879,0.363,4.27-6.519c-2.312-6.121,1.032-8.782,1.032-8.782
		C50.202,39.413,42.085,49.795,46.497,54.193z M38.533,63.69l-5.217,6.38c-0.58,0.596,0.922,3.102,2.152,1.874l6.141-5.173
		c0.528-0.528-0.632-0.751-1.481-1.584C39.276,64.328,39.059,63.162,38.533,63.69z"/>
</g>
<g>
</g>
<g>
</g>
<g>
</g>
<g>
</g>
<g>
</g>
<g>
</g>
<g>
</g>
<g>
</g>
<g>
</g>
<g>
</g>
<g>
</g>
<g>
</g>
<g>
</g>
<g>
</g>
<g>
</g>
</svg>
