<?xml version="1.0" encoding="iso-8859-1"?>
<!-- Generator: Adobe Illustrator 16.0.0, SVG Export Plug-In . SVG Version: 6.00 Build 0)  -->
<!DOCTYPE svg PUBLIC "-//W3C//DTD SVG 1.1//EN" "http://www.w3.org/Graphics/SVG/1.1/DTD/svg11.dtd">
<svg version="1.1" id="Capa_1" xmlns="http://www.w3.org/2000/svg" xmlns:xlink="http://www.w3.org/1999/xlink" x="0px" y="0px"
	 width="79.536px" height="79.536px" viewBox="0 0 79.536 79.536" style="enable-background:new 0 0 79.536 79.536;"
	 xml:space="preserve">
<g>
	<path style="fill:#010002;" d="M46.556,0C30.431,0,17.362,13.069,17.362,29.194s13.075,29.194,29.2,29.194
		c16.124,0,29.193-13.069,29.193-29.194S62.681,0,46.556,0z M34.574,32.948c0-1.939,1.574-3.531,3.532-3.531
		c1.949,0,3.531,1.587,3.531,3.531c0,1.963-1.582,3.537-3.531,3.537C36.148,36.485,34.574,34.911,34.574,32.948z M46.19,53.759
		c-4.937,0-8.945-2.102-8.945-4.707h17.89C55.142,51.651,51.139,53.759,46.19,53.759z M55.022,36.485
		c-1.952,0-3.537-1.574-3.537-3.537c0-1.939,1.585-3.531,3.537-3.531c1.947,0,3.531,1.587,3.531,3.531
		C58.554,34.911,56.97,36.485,55.022,36.485z M68.288,72.607c0,3.827-6.669,6.929-14.896,6.929c-8.218,0-13.081-3.738-14.89-6.929
		c-1.812-3.189-0.026-0.011-0.026-0.011c-2.475-2.977-4.73-5.063-7.226-6.68c-1.39,2.672-5.626,3.838-10.048,2.584
		c-4.826-1.367-8.008-5.09-7.097-8.311c0.044-0.135,0.122-0.259,0.182-0.394c-2.843-0.715-6.061-1.517-9.766-2.496
		c-0.531-0.129-0.844-0.673-0.707-1.201c0.137-0.528,0.678-0.844,1.204-0.693c7.842,2.045,5.561,1.501,10.186,2.978
		c1.856-1.9,5.509-2.626,9.3-1.549c4.629,1.32,7.705,4.79,7.148,7.912c3.552,1.906,6.436,4.019,8.155,6.317
		c-0.026-0.021,0.01,0.021,0.01,0.021c0-0.01,0.005-0.01,0.005-0.01c0.616,0.394,5.914,3.749,13.642,3.749
		C61.696,74.824,68.231,72.577,68.288,72.607z M48.84,73.653c-0.052,0.078-0.109,0.125-0.161,0.187
		c-0.082-0.011-0.165-0.021-0.254-0.036c0.197-0.425,0.508-0.834-0.237-1.129c0.45,0.213,0.974,0.109,1.444,0.279
		c0.295,0.088,0.342,0.523,0.896,0.472C49.953,73.384,49.404,73.55,48.84,73.653z M53.147,72.659
		c-0.885-0.362-1.062-1.439-0.461-2.185c-0.176,0.01-0.342,0.036-0.522,0.052c0.01,0.357-0.114,0.833-0.213,1.242
		c-0.067,0.259,0.601,0.233,0.472,0.72c-0.166,0.647-0.881,1.057-1.522,1.036c0.196,0.129,0.466,0.378,0.715,0.652
		c0.099,0,0.191,0.005,0.295,0.01C51.796,73.794,52.635,72.882,53.147,72.659z M55.234,73.395c0.182-0.176,0.265-0.522,0.378-0.756
		l-0.005-0.005c-0.425-0.057-0.782-0.295-0.953-0.689c-0.093,0.166-0.181,0.321-0.279,0.492c0.699,0.011,1.165,0.632,0.596,1.165
		c0.357,0.228,0.439,0.353,0.616,0.585c0.01,0,0.021,0,0.031,0C55.493,73.913,55.369,73.664,55.234,73.395z M47.245,71.22
		c-1.681-0.642,1.061-1.807,1.485-1.978c0.466-0.197,1.243-0.036,1.243,0.486c0,0.642-1.088,1.134-1.668,1.315
		c0.917,0.176,0.715-0.248,1.176-0.466c0.342-0.166,0.886-0.312,1.176-0.534c0.176-0.129,0.072-0.408,0.29-0.678
		c0.637-0.787,3.677-0.679,3.2,0.632c0.32,0.088,0.631,0.083,0.864-0.005c-0.461-1.217,1.518-1.108,2.195-1.025
		c1.259,0.165,0.757,1.346-0.129,1.051c0,0.155,0.01,0.264,0.077,0.436c0.906-0.373,1.688-0.813,2.294-0.301
		c0.445,0.373,0.674,0.922,0.378,1.356c0.119,0,0.244,0,0.363,0.011c-0.679-1.347,1.6-1.14,1.89-0.15
		c1.527-1.088,1.362,1.563,1.393,1.465c-0.016-0.062,0.161,0.188,0.229,0.114c0.01,0.021,0.077,0.104,0.124,0.166
		c2.62-0.549,4.235-1.093,4.262-1.077c-1.906-1.812-6.582-4.608-14.805-4.608c-6.297,0-11.037,1.517-13.657,3.086
		c0.251,0.155,1.284,0.803,2.902,1.502c0.769-0.259,1.802-0.436,2.162-0.384c0.232-2.521,3.431,0.953,1.437,0.58
		c0.27,0.414,0.161,0.798-0.143,1.036c0.086,0.01,0.187,0.041,0.268,0.062c0.289-0.232,0.601-0.439,0.869-0.569
		C46.245,72.468,46.985,71.696,47.245,71.22z M61.687,71.903c-0.104,0.383-0.047,0.569,0.166,0.974
		c0.181-0.042,0.362-0.083,0.538-0.13c-0.14-0.072-0.29-0.15-0.43-0.223C62.008,72.437,61.676,72.162,61.687,71.903z M59.17,72.877
		c-0.953-0.43,0.389-1.439,0.398-1.347c-0.062-0.093-1.356,0.518-1.885,0.611c0.616-0.094,1.305,0.187,1.082,0.881
		c0.694-0.177,0.974,0.248,0.989,0.786c0.016,0,0.031,0,0.052-0.005C59.817,73.426,59.775,73.136,59.17,72.877z"/>
</g>
<g>
</g>
<g>
</g>
<g>
</g>
<g>
</g>
<g>
</g>
<g>
</g>
<g>
</g>
<g>
</g>
<g>
</g>
<g>
</g>
<g>
</g>
<g>
</g>
<g>
</g>
<g>
</g>
<g>
</g>
</svg>
