<?xml version="1.0" encoding="iso-8859-1"?>
<!-- Generator: Adobe Illustrator 16.0.0, SVG Export Plug-In . SVG Version: 6.00 Build 0)  -->
<!DOCTYPE svg PUBLIC "-//W3C//DTD SVG 1.1//EN" "http://www.w3.org/Graphics/SVG/1.1/DTD/svg11.dtd">
<svg version="1.1" id="Capa_1" xmlns="http://www.w3.org/2000/svg" xmlns:xlink="http://www.w3.org/1999/xlink" x="0px" y="0px"
	 width="106.048px" height="106.048px" viewBox="0 0 106.048 106.048" style="enable-background:new 0 0 106.048 106.048;"
	 xml:space="preserve">
<g>
	<path style="fill:#010002;" d="M84.838,0H21.209C9.543,0,0,9.543,0,21.209v63.629c0,11.666,9.543,21.21,21.209,21.21h63.628
		c11.667,0,21.21-9.544,21.21-21.21V21.209C106.048,9.543,96.505,0,84.838,0z M15.011,16.301c0-1.761,1.432-3.183,3.182-3.183
		h69.669c1.761,0,3.18,1.422,3.18,3.183v48.519c0,1.74-1.419,3.18-3.18,3.18H18.188c-1.75,0-3.182-1.439-3.182-3.18V16.301H15.011z
		 M86.992,92.926l-67.877-0.03c-4.179,0-6.685-3.304-5.616-7.322l1.554-5.686c1.087-4.028,5.398-7.321,9.551-7.321h56.631
		c4.174,0,8.502,3.293,9.642,7.301l1.642,5.794C93.651,89.664,91.155,92.937,86.992,92.926z M84.683,61.641H21.367V19.479h63.315
		V61.641z"/>
</g>
<g>
</g>
<g>
</g>
<g>
</g>
<g>
</g>
<g>
</g>
<g>
</g>
<g>
</g>
<g>
</g>
<g>
</g>
<g>
</g>
<g>
</g>
<g>
</g>
<g>
</g>
<g>
</g>
<g>
</g>
</svg>
