<?xml version="1.0" encoding="iso-8859-1"?>
<!-- Generator: Adobe Illustrator 16.0.0, SVG Export Plug-In . SVG Version: 6.00 Build 0)  -->
<!DOCTYPE svg PUBLIC "-//W3C//DTD SVG 1.1//EN" "http://www.w3.org/Graphics/SVG/1.1/DTD/svg11.dtd">
<svg version="1.1" id="Capa_1" xmlns="http://www.w3.org/2000/svg" xmlns:xlink="http://www.w3.org/1999/xlink" x="0px" y="0px"
	 width="106.048px" height="106.048px" viewBox="0 0 106.048 106.048" style="enable-background:new 0 0 106.048 106.048;"
	 xml:space="preserve">
<g>
	<path style="fill:#010002;" d="M84.838,0H21.209C9.543,0,0,9.543,0,21.209v63.629c0,11.666,9.543,21.21,21.209,21.21h63.628
		c11.667,0,21.21-9.544,21.21-21.21V21.209C106.048,9.543,96.505,0,84.838,0z M92.668,71.686c-0.156-0.228-1.839-0.113-2.393-0.367
		c-0.523-0.223-1.108-0.146-1.615-0.389c-0.643-0.311-0.928-0.834-1.657-0.963c-0.694-0.114-2.103,0.145-1.968-0.114
		c-2.269,0.083-4.599,0.409-6.846-0.114c-0.27-0.052-0.715,0.067-0.859-0.538c-0.124-0.445-0.218-0.901-0.301-1.356
		c-0.062-0.353-0.196-0.756-0.372-1.066c-0.259-0.477-0.29-0.818-0.87-0.736c-0.259,0.031-8.265,2.289-14.789,2.766
		c-0.715,0.041-0.59,1.693-0.632,2.268c-0.03,0.384-0.104,0.771-0.145,1.15c-0.011,0.077-0.389,0.408-0.519,0.3
		c-0.217-0.196-0.279-0.124-0.579,0.021c-0.171,0.088-0.337,0.15-0.528,0.218c-0.332,0.108-3.688,0.637-4.847,1.273
		c-0.228,0.146-0.771,0.301-0.994,0.477c-0.531,0.435-1.173,0.845-2.261,0.823c0.282-0.668,0.829-1.041,1.438-1.336
		c0.489-0.243,0.818-0.455,1.294-0.74c0.497-0.29,5.898-1.626,5.935-1.518c-0.067-0.254-0.394-0.342-0.394-0.621
		c0-0.455,0.596-0.693,0.533-1.3c-1.232,1.015-14.17,0.42-17.507-0.642c-1.214-0.384-2.289-1.098-3.487-1.502
		c-0.521-0.176-0.578,0.301-0.707,0.725c-0.122,0.425-0.249,0.839-0.38,1.248c-0.122,0.368-0.075,0.798-0.197,1.186
		c-0.132,0.436-0.163,0.881-0.228,1.336c0.031-0.258-4.898,1.264-5.323,1.378c-1.411,0.362-2.772,0.657-4.083,1.356
		c0.153-0.43,2.714-2.035,3.273-2.102c0.942-0.094,1.913-0.415,2.835-0.575c0.738-0.119,1.719-0.492,2.372-0.854
		c-0.935-0.42-0.339-2.734-0.197-3.319c0.042-0.212-1.357,0.047-1.512,0.078c-2.672,0.352-5.354-0.058-7.92-0.85
		c-0.166-0.052-0.551-0.389-0.676-0.353c-0.217,0.058-1.418,3.159-1.675,3.78c-0.132,0.353-0.684,1.709-0.815,2.112
		c-0.156,0.467-0.122,1.005-0.208,1.492c-0.106,0.684-1.665,0.445-1.967,0.554c-0.339,0.13-2.838,0.989-3.172,1.259
		c-0.132,0.108-2.703,1.098-2.485,0.787c-0.303,0.093-1.649,1.061-1.812,0.9c-0.717-0.643,1.064-1.32,1.367-1.356
		c1.043-0.104,1.563-0.259,2.444-0.875c0.673-0.456,1.468-0.704,2.175-1.134c0.425-0.254,1.17-0.492,1.522-0.845
		c0.36-0.378,0.412-1.17,0.578-1.651c0.217-0.663,0.619-1.408,0.953-2.03c0.458-0.9,0.935-1.838,1.294-2.76
		c0.324-0.803,0.339-0.782-0.414-1.175c-0.329-0.172-0.629-0.373-0.942-0.57c-1.973-1.284-5.318-1.791-6.315-4.184
		c-0.054-0.135-0.023-0.29,0.031-0.42c0.122-0.269,0.238-0.14,0.456-0.025c2.609,1.325,5.312,2.377,8.065,3.365
		c0.383,0.135,0.37,0.207,0.551-0.176c0.085-0.182,0.143-0.362,0.207-0.559c0.122-0.373,1.696-2.165,1.129-2.518
		c-1.686-1.056-5.414-0.269-4.575-3.894c0.083-0.409,0.106-1.025,0.38-1.347c0.282-0.331,0.552-0.595,0.901-0.854
		c0.717-0.544,1.512-0.886,2.392-0.948c0.839-0.093,1.628,0.104,2.465,0.197c0.87,0.104,1.958,0.207,2.807-0.021
		c0.401-0.109,0.694-0.27,0.997-0.549c0.153-0.155,0.497-0.831,0.663-0.875c-0.251,0.06,1.817-2.607,2.307-2.985
		c0.598-0.466,0.238-0.841,0-1.398c-0.435-0.966,0.311-2.447,1.281-2.786c2.022-0.725,2.424,2.833,4.158,2.701
		c0.526-0.031,0.264-0.728,0.578-0.795c-0.122,0.031,1.792-4.295,1.846-4.841c0.106-0.95,0.725-1.72,1.655-1.453
		c1.812,0.502,3.192,2.141,4.474,3.451c0.58,0.598,1.193,1.043,1.688,1.706c0.518,0.678,1.027,1.346,1.543,2.017
		c1.062,1.427,2.325,2.524,3.552,3.79c0.585,0.599,1.052,1.344,1.615,1.976c0.384,0.445,0.58,0.27,1.135,0.27
		c0.409,0,0.823-0.042,1.258-0.062c3.283-0.129,6.551-0.046,9.834-0.3c2.594-0.208,5.115,0.352,7.746,0.113
		c0.497-0.031,0.911-0.021,1.408,0.083c0.207,0.058,0.383,0.155,0.58,0.223c0.248,0.119,0.197-0.135,0.367-0.295
		c0.622-0.56,1.554-0.249,2.273-0.378c0.746-0.119,0.508-0.456,1.238-0.176c0,0-6.789-13.25-21.23-20.562
		c-8.172-3.83-15.833-4.64-20.558-4.666c-1.569,0.021-3.156,0.073-4.815,0.259c0,0,1.825-0.28,4.815-0.259
		c8.065-0.111,14.908,1.802,20.558,4.666c7.746,3.627,15.938,9.962,22.504,21.007c0.29,0.543,1.181,1.838,1.424,2.418
		c0.693,1.626,0.42,3.578-0.047,5.219c-0.108,0.363-0.388,0.705-0.574,1.047c-0.259,0.455-0.146,0.637,0.15,1.056
		c0.471,0.679,0.579,1.725,0.761,2.527c0.119,0.549,0.041,2.128,0.564,2.402c1.015,0.528,1.978,1.149,3.045,1.585
		c0.968,0.373,1.957,0.466,2.931,0.922C92.854,71.24,92.828,71.488,92.668,71.686z M85.103,67.937
		c0.057,0.296,0.088,0.591,0.135,0.891c0.021,0.197-0.353,0.177-0.523,0.218l-4.608-0.057c-0.486-0.026-1.377-0.348-1.646-0.56
		c-0.218-0.166-0.332-0.642-0.436-0.896c-0.259-0.575-0.507-1.15-0.766-1.725c-0.135-0.306-0.436-0.694-0.326-1.03
		c0.067-0.146,0.155-0.238,0.295-0.301c0.072-0.041,0.228,0.088,0.29,0.058c0.104-0.031,0.155-0.13,0.238-0.172
		c0.362-0.196,0.61-0.507,1.004-0.662c0.301-0.146,0.632-0.244,0.922-0.383c0.404-0.208,0.539-0.053,0.942-0.229
		c0.187,0.564,0.207,1,0.29,1.574c0.052,0.29,0.311,1.305,0.746,1.253c0.522-0.072,1.056-0.072,1.512-0.326
		c0.353-0.212,0.642-0.823,0.901-1.186c0.342,0.771,0.621,1.466,0.787,2.273C84.952,67.098,85.04,67.522,85.103,67.937z
		 M49.106,47.271c1.499,2.258,2.465,4.762,3.407,7.302c-0.815,0.129-1.367,0.15-2.192,0c-0.622-0.109-1.295-0.643-1.825-0.979
		c-1.173-0.756-2.095-1.743-3.41-2.299c-0.632-0.269-1.16-0.538-1.686-0.986c-0.238-0.194-0.456-0.406-0.707-0.572
		c-0.445-0.313-0.704-0.313-0.466-0.854c0.551-1.25,0.976-2.565,1.577-3.801c0.132-0.259,0.28-0.525,0.412-0.784
		c0.228-0.419,0.218-0.572,0.696-0.536c0.673,0.05,1.119,0.536,1.696,0.818C47.631,45.096,48.485,46.331,49.106,47.271z
		 M42.101,52.053c1.033,0.583,1.926,1.489,2.807,2.281c-1.543-0.347-3.161-0.44-4.735-0.606c0.435-0.756,0.684-1.543,0.986-2.343
		C41.492,51.587,41.792,51.81,42.101,52.053z M35.276,62.5c0.282,0.025,1.401-0.026,1.512,0.362
		c0.031,0.114-0.153,1.673-0.531,1.988c-0.238,0.218-0.953,0.259-1.292,0.29c-0.904,0.088-1.867,0.104-2.763,0.016
		c-1.794-0.191-3.606-0.249-5.417-0.436c0.065-0.066,0.114-0.186,0.176-0.243c0.106-0.56,0.541-0.745,0.541-1.32
		c0-0.466,0.531-1.113,0.932-1.32c1.067-0.549,2.341,0.104,3.42,0.254c0.58,0.099,1.142,0.108,1.719,0.108
		C34.137,62.199,34.709,62.417,35.276,62.5z M39.763,50.191c-0.153,0.166-0.477,1.03-0.339,0.774
		c-0.218,0.691-0.404,1.326-0.795,1.921c-0.155,0.22-0.673,0.438-0.673,0.676c0,0.357-0.415,0.295-0.738,0.295
		c-1.295,0-2.576,0.047-3.871,0.171c0.163-0.357,0.349-0.725,0.52-1.085l1.655-2.172c0.106-0.106,1.499-2.069,2.183-1.921
		C38.396,49.011,39.186,49.795,39.763,50.191z"/>
</g>
<g>
</g>
<g>
</g>
<g>
</g>
<g>
</g>
<g>
</g>
<g>
</g>
<g>
</g>
<g>
</g>
<g>
</g>
<g>
</g>
<g>
</g>
<g>
</g>
<g>
</g>
<g>
</g>
<g>
</g>
</svg>
