<?xml version="1.0" encoding="iso-8859-1"?>
<!-- Generator: Adobe Illustrator 16.0.0, SVG Export Plug-In . SVG Version: 6.00 Build 0)  -->
<!DOCTYPE svg PUBLIC "-//W3C//DTD SVG 1.1//EN" "http://www.w3.org/Graphics/SVG/1.1/DTD/svg11.dtd">
<svg version="1.1" id="Capa_1" xmlns="http://www.w3.org/2000/svg" xmlns:xlink="http://www.w3.org/1999/xlink" x="0px" y="0px"
	 width="106.048px" height="106.048px" viewBox="0 0 106.048 106.048" style="enable-background:new 0 0 106.048 106.048;"
	 xml:space="preserve">
<g>
	<path style="fill:#010002;" d="M32.7,70.951c0.821,0.342,1.696,0.559,2.688,0.585c3.526-0.088,5.882-2.134,7.747-6.653
		c0.039-0.13,0.09-0.238,0.145-0.348c0.191-0.279,0.456-0.466,0.774-0.466s0.588,0.187,0.785,0.466h0.005
		c0.016,0.057,0.031,0.067,0.042,0.109c0.034,0.072,0.075,0.108,0.096,0.186c1.903,4.671,4.306,6.737,7.993,6.737h0.025
		c3.65,0,6.053-2.066,7.948-6.685c0.036-0.13,0.094-0.238,0.146-0.348c0.186-0.279,0.455-0.466,0.771-0.466
		c0.315,0,0.595,0.187,0.781,0.466h0.011c0.011,0.057,0.041,0.067,0.052,0.109c0.031,0.072,0.062,0.108,0.083,0.186
		c1.874,4.594,4.246,6.659,7.818,6.722c1.01-0.016,1.9-0.243,2.734-0.596l10.62-26.988c1.057-3.272-0.347-7.604-3.133-9.618
		l-3.189-2.322l-5.126-13.474h-11.78v-7.721H45.303v7.715H33.521l-5.126,13.484l-3.182,2.312c-2.783,2.014-4.184,6.346-3.127,9.619
		L32.7,70.951z M62.406,23.586h8.172v3.446h-8.172V23.586z M48.936,23.586h8.169v3.446h-8.169V23.586z M35.468,23.586h8.166v3.446
		h-8.166V23.586z M33.404,41.068h39.239c1.455,0,2.263,1.129,1.792,2.506l-3.589,10.434c-0.466,1.377-2.05,2.506-3.505,2.506H38.707
		c-1.453,0-3.037-1.129-3.508-2.506l-3.586-10.434C31.141,42.197,31.946,41.068,33.404,41.068z M106.048,76.75h-0.135v18.466H0.075
		V76.75H0c3.648,0,6.066-2.061,7.969-6.68C8,69.935,8.044,69.832,8.106,69.718l0,0c0.187-0.279,0.469-0.466,0.774-0.466
		c0.334,0,0.601,0.187,0.774,0.466h0.034c0.005,0.057,0.021,0.067,0.041,0.108c0.031,0.078,0.06,0.108,0.085,0.187
		c1.903,4.671,4.306,6.736,7.985,6.736h0.016c3.648,0,6.071-2.061,7.974-6.68c0.028-0.135,0.07-0.238,0.135-0.352h0.01
		c0.173-0.279,0.45-0.466,0.779-0.466c0.324,0,0.593,0.187,0.774,0.466h0.015c0.005,0.057,0.026,0.067,0.042,0.108
		c0.034,0.078,0.06,0.108,0.08,0.187c1.877,4.562,4.23,6.628,7.768,6.711c3.526-0.083,5.882-2.128,7.749-6.648
		c0.036-0.13,0.088-0.238,0.142-0.348l0,0c0.192-0.279,0.456-0.466,0.774-0.466c0.318,0,0.587,0.187,0.784,0.466h0.005
		c0.016,0.053,0.031,0.062,0.042,0.104c0.034,0.073,0.075,0.114,0.096,0.188c1.903,4.67,4.306,6.741,7.993,6.741h0.025
		c3.646,0,6.048-2.065,7.948-6.685c0.037-0.13,0.089-0.238,0.141-0.348l0,0c0.186-0.279,0.455-0.466,0.776-0.466
		s0.601,0.187,0.787,0.466l0,0c0.021,0.053,0.047,0.062,0.057,0.104c0.031,0.073,0.062,0.114,0.083,0.188
		c1.88,4.598,4.241,6.658,7.824,6.721c3.553-0.062,5.913-2.118,7.798-6.659c0.026-0.135,0.073-0.238,0.135-0.353l0,0
		c0.187-0.279,0.456-0.466,0.777-0.466c0.331,0,0.605,0.187,0.776,0.466h0.021c0.011,0.058,0.031,0.068,0.058,0.109
		c0.021,0.077,0.046,0.108,0.077,0.187c1.896,4.671,4.303,6.736,7.984,6.736h0.021c3.655,0,6.063-2.061,7.964-6.68
		c0.031-0.135,0.077-0.238,0.14-0.353l0,0c0.187-0.279,0.461-0.466,0.782-0.466c0.326,0,0.601,0.187,0.771,0.466h0.016
		c0.021,0.058,0.03,0.068,0.062,0.109c0.011,0.077,0.047,0.108,0.062,0.187C99.969,74.679,102.371,76.75,106.048,76.75z"/>
</g>
<g>
</g>
<g>
</g>
<g>
</g>
<g>
</g>
<g>
</g>
<g>
</g>
<g>
</g>
<g>
</g>
<g>
</g>
<g>
</g>
<g>
</g>
<g>
</g>
<g>
</g>
<g>
</g>
<g>
</g>
</svg>
