<?xml version="1.0" encoding="iso-8859-1"?>
<!-- Generator: Adobe Illustrator 16.0.0, SVG Export Plug-In . SVG Version: 6.00 Build 0)  -->
<!DOCTYPE svg PUBLIC "-//W3C//DTD SVG 1.1//EN" "http://www.w3.org/Graphics/SVG/1.1/DTD/svg11.dtd">
<svg version="1.1" id="Capa_1" xmlns="http://www.w3.org/2000/svg" xmlns:xlink="http://www.w3.org/1999/xlink" x="0px" y="0px"
	 width="106.048px" height="106.048px" viewBox="0 0 106.048 106.048" style="enable-background:new 0 0 106.048 106.048;"
	 xml:space="preserve">
<g>
	<path style="fill:#010002;" d="M84.838,0H21.209C9.543,0,0,9.543,0,21.209v63.629c0,11.666,9.543,21.21,21.209,21.21h63.628
		c11.667,0,21.21-9.544,21.21-21.21V21.209C106.048,9.543,96.505,0,84.838,0z M29.528,22.938h4.438v-6.592h7.537V10.63
		c0-1.468,5.158-2.677,11.521-2.677c6.364,0,11.521,1.209,11.521,2.677v5.716h7.534v6.592h4.433v14.921L58.083,24.472
		c-2.78-2.022-7.335-2.022-10.118,0L29.528,37.875V22.938z M25.217,45.176l4.311-3.133l18.437-13.401
		c1.051-0.764,2.371-1.139,3.733-1.336v44.716c0,0.729,0.593,1.325,1.325,1.325c0.735,0,1.326-0.596,1.326-1.325V27.307
		c1.361,0.191,2.682,0.567,3.733,1.331l18.429,13.388l4.318,3.146c2.786,2.02,4.189,6.346,3.133,9.618l-10.62,26.988
		c-0.828,0.353-1.719,0.58-2.734,0.596c-3.572-0.062-5.934-2.123-7.818-6.721c-0.021-0.078-0.052-0.114-0.083-0.187
		c-0.011-0.042-0.041-0.052-0.052-0.108h-0.011c-0.187-0.28-0.466-0.467-0.781-0.467c-0.316,0-0.586,0.187-0.771,0.467
		c-0.062,0.108-0.114,0.217-0.146,0.347c-1.896,4.618-4.298,6.685-7.948,6.685h-0.025c-3.688,0-6.085-2.076-7.993-6.736
		c-0.021-0.078-0.062-0.114-0.096-0.187c-0.01-0.042-0.026-0.052-0.042-0.108l0,0c-0.197-0.28-0.471-0.467-0.784-0.467
		c-0.324,0-0.583,0.187-0.774,0.467c-0.06,0.108-0.111,0.217-0.142,0.347c-1.867,4.521-4.223,6.565-7.749,6.653
		c-0.992-0.025-1.864-0.243-2.688-0.585L22.09,54.784C21.028,51.522,22.429,47.19,25.217,45.176z M84.838,100.745H21.209
		c-8.658,0-15.695-6.959-15.876-15.575c0.986-1.067,1.872-2.403,2.636-4.272c0.031-0.13,0.075-0.238,0.137-0.347
		c0.187-0.279,0.469-0.467,0.774-0.467c0.334,0,0.601,0.188,0.774,0.467h0.034c0.005,0.052,0.021,0.062,0.041,0.104
		c0.031,0.072,0.06,0.113,0.085,0.187c1.903,4.671,4.306,6.741,7.985,6.741h0.016c3.648,0,6.071-2.065,7.974-6.685
		c0.028-0.13,0.07-0.238,0.135-0.347h0.01c0.173-0.279,0.45-0.467,0.779-0.467c0.324,0,0.593,0.188,0.774,0.467h0.015
		c0.005,0.052,0.026,0.062,0.042,0.104c0.034,0.072,0.06,0.113,0.08,0.187c1.877,4.567,4.23,6.628,7.768,6.71
		c3.526-0.082,5.882-2.133,7.749-6.648c0.036-0.135,0.088-0.238,0.142-0.352c0.192-0.279,0.456-0.467,0.774-0.467
		c0.318,0,0.587,0.188,0.784,0.467h0.005c0.016,0.057,0.031,0.067,0.042,0.108c0.034,0.078,0.075,0.108,0.096,0.187
		c1.903,4.671,4.306,6.736,7.993,6.736h0.025c3.646,0,6.048-2.061,7.948-6.68c0.037-0.135,0.089-0.238,0.141-0.352
		c0.186-0.279,0.455-0.467,0.776-0.467s0.601,0.188,0.787,0.467l0,0c0.021,0.057,0.047,0.067,0.057,0.108
		c0.031,0.078,0.062,0.108,0.083,0.187c1.88,4.598,4.241,6.659,7.824,6.727c3.553-0.067,5.913-2.123,7.798-6.664
		c0.026-0.13,0.073-0.238,0.135-0.348c0.187-0.279,0.456-0.466,0.777-0.466c0.331,0,0.605,0.187,0.776,0.466h0.021
		c0.011,0.053,0.031,0.062,0.058,0.104c0.021,0.073,0.046,0.114,0.077,0.187c1.896,4.671,4.303,6.742,7.984,6.742h0.021
		c3.655,0,6.063-2.065,7.964-6.685c0.031-0.13,0.077-0.238,0.14-0.348c0.187-0.279,0.461-0.466,0.782-0.466
		c0.326,0,0.601,0.187,0.771,0.466h0.016c0.021,0.053,0.03,0.062,0.062,0.104c0.011,0.073,0.047,0.114,0.062,0.187
		c0.776,1.896,1.667,3.252,2.656,4.329C100.533,93.786,93.496,100.745,84.838,100.745z M58.44,44.18c0-1.15,0.937-2.084,2.092-2.084
		c1.149,0,2.081,0.935,2.081,2.084c0,1.154-0.932,2.089-2.081,2.089C59.377,46.269,58.44,45.334,58.44,44.18z M43.587,44.18
		c0-1.15,0.932-2.084,2.087-2.084c1.152,0,2.084,0.935,2.084,2.084c0,1.154-0.932,2.089-2.084,2.089
		C44.519,46.269,43.587,45.334,43.587,44.18z"/>
</g>
<g>
</g>
<g>
</g>
<g>
</g>
<g>
</g>
<g>
</g>
<g>
</g>
<g>
</g>
<g>
</g>
<g>
</g>
<g>
</g>
<g>
</g>
<g>
</g>
<g>
</g>
<g>
</g>
<g>
</g>
</svg>
