<?xml version="1.0" encoding="iso-8859-1"?>
<!-- Generator: Adobe Illustrator 16.0.0, SVG Export Plug-In . SVG Version: 6.00 Build 0)  -->
<!DOCTYPE svg PUBLIC "-//W3C//DTD SVG 1.1//EN" "http://www.w3.org/Graphics/SVG/1.1/DTD/svg11.dtd">
<svg version="1.1" id="Capa_1" xmlns="http://www.w3.org/2000/svg" xmlns:xlink="http://www.w3.org/1999/xlink" x="0px" y="0px"
	 width="79.536px" height="79.536px" viewBox="0 0 79.536 79.536" style="enable-background:new 0 0 79.536 79.536;"
	 xml:space="preserve">
<g>
	<path style="fill:#010002;" d="M76.228,26.479L39.769,8.355L3.309,26.479L0,19.819L39.717,0.073l0.015-0.042l0.037,0.021
		l0.036-0.021l0.016,0.047l39.716,19.741L76.228,26.479z M61.19,43.941l10.377-5.766l-2.294-1.235L50.342,26.624L39.9,32.312
		l-10.716-5.833L7.969,38.018l2.26,1.271l8.277,4.601L18.4,43.937h-0.005v0.011L8.15,49.523l10.245,5.505v13.83l21.367,10.646
		l21.37-10.646V55.069l10.325-5.546L61.19,43.941z M50.342,29.878l15.286,8.321l-7.405,4.114l-15.462-8.298L50.342,29.878z
		 M13.898,38.054l15.286-8.324l7.578,4.129l-15.467,8.303L13.898,38.054z M14.157,49.509l7.573-4.133l15.438,8.353l-7.555,4.08
		L14.157,49.509z M21.256,67.088V56.576l8.389,4.505l8.697-4.826v19.341L21.256,67.088z M58.285,67.088L41.2,75.591V56.224
		l8.743,4.857l8.337-4.474v10.48H58.285z M65.441,49.503l-15.462,8.306l-7.426-4.085l15.312-8.353L65.441,49.503z"/>
</g>
<g>
</g>
<g>
</g>
<g>
</g>
<g>
</g>
<g>
</g>
<g>
</g>
<g>
</g>
<g>
</g>
<g>
</g>
<g>
</g>
<g>
</g>
<g>
</g>
<g>
</g>
<g>
</g>
<g>
</g>
</svg>
