<?xml version="1.0" encoding="iso-8859-1"?>
<!-- Generator: Adobe Illustrator 16.0.0, SVG Export Plug-In . SVG Version: 6.00 Build 0)  -->
<!DOCTYPE svg PUBLIC "-//W3C//DTD SVG 1.1//EN" "http://www.w3.org/Graphics/SVG/1.1/DTD/svg11.dtd">
<svg version="1.1" id="Capa_1" xmlns="http://www.w3.org/2000/svg" xmlns:xlink="http://www.w3.org/1999/xlink" x="0px" y="0px"
	 width="79.536px" height="79.536px" viewBox="0 0 79.536 79.536" style="enable-background:new 0 0 79.536 79.536;"
	 xml:space="preserve">
<g>
	<path style="fill:#010002;" d="M66.829,32.197L39.769,43.186L12.705,32.197L39.769,21.21L66.829,32.197z M39.769,55.002
		c-7.185,0-13.336-0.518-16.236-1.253c-1.129,2.355-1.812,4.966-1.812,7.746c0.005,9.963,8.075,18.041,18.049,18.041
		c9.957,0,18.04-8.078,18.04-18.041c0-2.78-0.684-5.391-1.812-7.746C53.107,54.484,46.955,55.002,39.769,55.002z M39.769,44.978
		l-18.043-7.314v11.426c0,1.222,8.07,2.2,18.043,2.2c9.973,0,18.04-0.979,18.04-2.2V37.663L39.769,44.978z M63.567,44.62v-9.285
		l-1.078,0.435v8.85c-0.734,0.279-1.263,1.082-1.263,2.066c0,0.822,0.378,1.506,0.942,1.885l-0.58,2.718h2.884l-0.585-2.718
		c0.56-0.379,0.953-1.062,0.953-1.885C64.841,45.702,64.297,44.899,63.567,44.62z M79.536,19.788L39.82,0.047L39.805,0l-0.036,0.021
		L39.731,0l-0.015,0.047L0,19.788l3.309,6.659L39.769,8.324l36.459,18.124L79.536,19.788z"/>
</g>
<g>
</g>
<g>
</g>
<g>
</g>
<g>
</g>
<g>
</g>
<g>
</g>
<g>
</g>
<g>
</g>
<g>
</g>
<g>
</g>
<g>
</g>
<g>
</g>
<g>
</g>
<g>
</g>
<g>
</g>
</svg>
