<?xml version="1.0" encoding="iso-8859-1"?>
<!-- Generator: Adobe Illustrator 16.0.0, SVG Export Plug-In . SVG Version: 6.00 Build 0)  -->
<!DOCTYPE svg PUBLIC "-//W3C//DTD SVG 1.1//EN" "http://www.w3.org/Graphics/SVG/1.1/DTD/svg11.dtd">
<svg version="1.1" id="Capa_1" xmlns="http://www.w3.org/2000/svg" xmlns:xlink="http://www.w3.org/1999/xlink" x="0px" y="0px"
	 width="106.048px" height="106.048px" viewBox="0 0 106.048 106.048" style="enable-background:new 0 0 106.048 106.048;"
	 xml:space="preserve">
<g>
	<path style="fill:#010002;" d="M84.838,0H21.209C9.543,0,0,9.543,0,21.209v63.629c0,11.666,9.543,21.21,21.209,21.21h63.628
		c11.667,0,21.21-9.544,21.21-21.21V21.209C106.048,9.543,96.505,0,84.838,0z M89.483,41.028l-36.46-18.123l-0.996,0.5
		c0.604,1.729,0.996,3.557,0.996,5.489v8.492c0,4.016-1.468,7.664-3.829,10.579c2.101,0.991,3.537,1.988,4.171,2.589
		c1.812-1.673,16.156-10.048,34.124-2.133c0,0.129,0,2.361,0,5.784v38.494H58.938c-0.984,0.829-3.288,1.424-6.01,1.424
		c-2.708,0-5.02-0.595-5.991-1.424H18.559V54.204c0-0.947,0-1.768,0-2.517c-4.751-3.011-7.954-8.287-7.954-14.302v-8.492
		c0-9.328,7.635-16.963,16.964-16.963h8.492c4.72,0,8.994,1.962,12.075,5.1l4.837-2.402l0.015-0.047l0.036,0.021l0.037-0.021
		l0.016,0.047l39.716,19.747L89.483,41.028z M55.452,89.934V57.694c0-5.737,7.628-8.823,17.031-8.823
		c4.525,0,8.627,1.066,11.666,2.822v37.531C68.775,79.546,55.452,88.416,55.452,89.934z M45.87,51.152
		c3.056,1.489,4.948,3.684,4.948,6.538v32.238c0-1.517-13.321-10.387-28.708-0.709V53.355c1.725,0.59,3.542,0.989,5.458,0.989h8.492
		C39.716,54.35,43.092,53.148,45.87,51.152z M36.061,14.051h-8.492c-8.184,0-14.843,6.661-14.843,14.843v8.492
		c0,8.182,6.659,14.843,14.843,14.843h8.492c8.184,0,14.843-6.661,14.843-14.843v-8.492C50.903,20.712,44.244,14.051,36.061,14.051z
		 M44.19,41.767l-3.749,3.749l-8.626-8.627l-8.627,8.627l-3.749-3.749l8.627-8.627l-8.627-8.627l3.749-3.749l8.627,8.627
		l8.626-8.627l3.749,3.749l-8.626,8.627L44.19,41.767z"/>
</g>
<g>
</g>
<g>
</g>
<g>
</g>
<g>
</g>
<g>
</g>
<g>
</g>
<g>
</g>
<g>
</g>
<g>
</g>
<g>
</g>
<g>
</g>
<g>
</g>
<g>
</g>
<g>
</g>
<g>
</g>
</svg>
