<?xml version="1.0" encoding="iso-8859-1"?>
<!-- Generator: Adobe Illustrator 16.0.0, SVG Export Plug-In . SVG Version: 6.00 Build 0)  -->
<!DOCTYPE svg PUBLIC "-//W3C//DTD SVG 1.1//EN" "http://www.w3.org/Graphics/SVG/1.1/DTD/svg11.dtd">
<svg version="1.1" id="Capa_1" xmlns="http://www.w3.org/2000/svg" xmlns:xlink="http://www.w3.org/1999/xlink" x="0px" y="0px"
	 width="82.923px" height="82.923px" viewBox="0 0 82.923 82.923" style="enable-background:new 0 0 82.923 82.923;"
	 xml:space="preserve">
<g>
	<path style="fill:#010002;" d="M48.421,24.561c5.22,1.786,12.147,3.894,13.623-4.541c1.166-6.551,9.911-4.122,13.64-4.547
		c6.742-0.776,1.651-13.447-6.825-13.634C60.284,1.653,56.38,5.417,52.952,13.206c-1.626,3.738-3.02,6.555-9.083,4.541
		c-6.053-2.024-10.491,2.957-6.812,9.082c3.262,5.438-0.052,11.366-0.052,11.366h9.142c0,0-0.072-3.376-2.278-6.819
		C41.306,27.362,43.072,22.717,48.421,24.561z M0,81.09c23.512-17.14,29.381-40.819,29.381-40.819h24.161
		c0,0,5.872,23.68,29.381,40.819H0z"/>
</g>
<g>
</g>
<g>
</g>
<g>
</g>
<g>
</g>
<g>
</g>
<g>
</g>
<g>
</g>
<g>
</g>
<g>
</g>
<g>
</g>
<g>
</g>
<g>
</g>
<g>
</g>
<g>
</g>
<g>
</g>
</svg>
