<?xml version="1.0" encoding="iso-8859-1"?>
<!-- Generator: Adobe Illustrator 16.0.0, SVG Export Plug-In . SVG Version: 6.00 Build 0)  -->
<!DOCTYPE svg PUBLIC "-//W3C//DTD SVG 1.1//EN" "http://www.w3.org/Graphics/SVG/1.1/DTD/svg11.dtd">
<svg version="1.1" id="Capa_1" xmlns="http://www.w3.org/2000/svg" xmlns:xlink="http://www.w3.org/1999/xlink" x="0px" y="0px"
	 width="106.048px" height="106.048px" viewBox="0 0 106.048 106.048" style="enable-background:new 0 0 106.048 106.048;"
	 xml:space="preserve">
<g>
	<path style="fill:#010002;" d="M84.838,0H21.209C9.543,0,0,9.543,0,21.209v63.629c0,11.666,9.543,21.21,21.209,21.21h63.628
		c11.667,0,21.21-9.544,21.21-21.21V21.209C106.048,9.543,96.505,0,84.838,0z M41.857,70.836l-0.738,13.521
		c0,0.477-0.38,0.864-0.859,0.864c-0.471,0-0.857-0.388-0.857-0.864l-0.79-13.521H37.79l-0.738,13.521
		c0,0.477-0.38,0.864-0.862,0.864c-0.474,0-0.86-0.388-0.86-0.864l-0.743-13.521h-2.384l2.475-15.15l-4.979,9.905
		c-0.187,0.44-0.689,0.647-1.129,0.456c-0.435-0.187-0.637-0.684-0.458-1.124c0,0,3.656-9.869,4.552-11.702
		c0.906-1.836,1.797-2.954,5.211-2.954h0.705c3.42,0,4.306,1.118,5.207,2.954c0.903,1.833,4.552,11.702,4.552,11.702
		c0.188,0.44-0.023,0.942-0.453,1.124c-0.438,0.191-0.942-0.021-1.129-0.456l-4.974-9.911l2.473,15.156H41.857L41.857,70.836z
		 M34.562,45.743c0-2.024,1.644-3.663,3.668-3.663s3.664,1.639,3.664,3.663c0,2.02-1.639,3.664-3.664,3.664
		C36.2,49.407,34.562,47.768,34.562,45.743z M60.024,67.134c-0.093,0.15-2.092,3.236-3.257,3.946
		c-1.145,0.684-1.165,0.389-1.289,1.393l-0.125,2.962l0.415,8.638c0.021,0.077,0,0.491-0.011,0.507
		c-0.124,0.362-0.455,0.632-0.87,0.632c-0.394,0-0.714-0.248-0.849-0.585c0-0.005-1.016-7.037-1.016-7.037s-1.007,7.032-1.012,7.037
		c-0.132,0.337-0.461,0.585-0.854,0.585c-0.409,0-0.743-0.27-0.864-0.632c-0.011-0.016-0.031-0.435-0.011-0.507l0.409-8.638
		l-0.122-2.962c-0.116-1.004-0.137-0.709-1.289-1.393c-1.165-0.71-3.167-3.796-3.26-3.946c-0.096-0.155-0.282-0.425-0.313-0.601
		c-0.06-0.311,0.143-0.605,0.451-0.668c0.233-0.036,0.43,0.083,0.578,0.244c0.152,0.165,2.449,3.221,4.168,3.51
		c0.386-0.051,0.806-0.254,1.893-0.254h0.436c1.098,0,1.512,0.203,1.895,0.254c1.72-0.289,4.008-3.345,4.163-3.51
		c0.15-0.161,0.353-0.285,0.58-0.244c0.311,0.062,0.518,0.357,0.456,0.668C60.31,66.709,60.118,66.979,60.024,67.134z
		 M50.776,66.601c0-1.243,1.007-2.253,2.247-2.253c1.243,0,2.253,1.01,2.253,2.253c0,1.237-1.01,2.237-2.253,2.237
		C51.778,68.838,50.776,67.833,50.776,66.601z M77.475,66.041c-0.435,0.187-0.942-0.021-1.129-0.455l-4.474-9.911l-0.243,7.97
		h-0.005l0.704,20.028c0.052,0.792-0.539,1.486-1.336,1.538c-0.031,0-0.067,0-0.099,0c-0.751,0-1.383-0.574-1.435-1.336
		l-1.636-15.482l-1.626,15.482c-0.062,0.762-0.694,1.336-1.445,1.336c-0.025,0-0.062,0-0.098,0
		c-0.793-0.052-1.388-0.746-1.336-1.538l0.709-20.028l-0.254-7.97L59.3,65.586c-0.187,0.439-0.684,0.642-1.129,0.455
		c-0.435-0.186-0.642-0.684-0.456-1.129c0,0,3.148-9.863,4.05-11.702c0.901-1.835,2.299-2.954,5.717-2.954h0.693
		c3.423,0,4.815,1.119,5.706,2.954c0.901,1.833,4.055,11.702,4.055,11.702C78.127,65.357,77.91,65.855,77.475,66.041z
		 M64.167,45.738c0-2.025,1.642-3.664,3.666-3.664c2.02,0,3.656,1.639,3.656,3.664c0,2.02-1.642,3.658-3.656,3.658
		C65.804,49.396,64.167,47.758,64.167,45.738z M92.16,50.002c-0.679,0.981-1.771,1.505-2.885,1.505
		c-0.688,0-1.387-0.208-1.998-0.632l-32.41-22.551c-0.911-0.629-2.765-0.629-3.679,0L18.771,50.875
		c-1.59,1.11-3.775,0.717-4.883-0.873c-1.108-1.592-0.717-3.777,0.875-4.885l32.423-22.551c3.324-2.317,8.354-2.317,11.68,0
		l32.42,22.551C92.885,46.225,93.269,48.41,92.16,50.002z"/>
</g>
<g>
</g>
<g>
</g>
<g>
</g>
<g>
</g>
<g>
</g>
<g>
</g>
<g>
</g>
<g>
</g>
<g>
</g>
<g>
</g>
<g>
</g>
<g>
</g>
<g>
</g>
<g>
</g>
<g>
</g>
</svg>
