<?xml version="1.0" encoding="iso-8859-1"?>
<!-- Generator: Adobe Illustrator 16.0.0, SVG Export Plug-In . SVG Version: 6.00 Build 0)  -->
<!DOCTYPE svg PUBLIC "-//W3C//DTD SVG 1.1//EN" "http://www.w3.org/Graphics/SVG/1.1/DTD/svg11.dtd">
<svg version="1.1" id="Capa_1" xmlns="http://www.w3.org/2000/svg" xmlns:xlink="http://www.w3.org/1999/xlink" x="0px" y="0px"
	 width="79.536px" height="79.536px" viewBox="0 0 79.536 79.536" style="enable-background:new 0 0 79.536 79.536;"
	 xml:space="preserve">
<g>
	<path style="fill:#010002;" d="M2.497,7.462C7.237,3.806,23.155,0,39.785,0c18.304,0,34.207,3.389,37.277,7.462
		c-2.646,4.64-26.929,7.454-37.277,7.454C29.423,14.91,4.734,12.821,2.497,7.462z M77.062,9.942
		c-5.861,4.604-20.95,7.185-37.277,7.461C21.384,17.101,6.707,15.822,2.497,9.942c-0.037,0.153-1.321,14.416,22.372,22.37
		c16.42,5.51,7.454,14.913,7.454,14.913s-17.8,16.901-2.485,22.369c9.598,3.418,8.684,8.047,7.459,9.942
		c9.3-11.713-17.207-13.784,12.425-27.341C64.93,45.241,66.84,41.189,62.148,34.8C56.018,26.406,75.768,23.045,77.062,9.942z"/>
</g>
<g>
</g>
<g>
</g>
<g>
</g>
<g>
</g>
<g>
</g>
<g>
</g>
<g>
</g>
<g>
</g>
<g>
</g>
<g>
</g>
<g>
</g>
<g>
</g>
<g>
</g>
<g>
</g>
<g>
</g>
</svg>
