<?xml version="1.0" encoding="iso-8859-1"?>
<!-- Generator: Adobe Illustrator 16.0.0, SVG Export Plug-In . SVG Version: 6.00 Build 0)  -->
<!DOCTYPE svg PUBLIC "-//W3C//DTD SVG 1.1//EN" "http://www.w3.org/Graphics/SVG/1.1/DTD/svg11.dtd">
<svg version="1.1" id="Capa_1" xmlns="http://www.w3.org/2000/svg" xmlns:xlink="http://www.w3.org/1999/xlink" x="0px" y="0px"
	 width="106.048px" height="106.048px" viewBox="0 0 106.048 106.048" style="enable-background:new 0 0 106.048 106.048;"
	 xml:space="preserve">
<g>
	<path style="fill:#010002;" d="M21.209,106.048h63.628c11.667,0,21.21-9.544,21.21-21.21V21.209C106.048,9.543,96.505,0,84.838,0
		H21.209C9.543,0,0,9.543,0,21.209v63.629C0,96.504,9.543,106.048,21.209,106.048z M87.707,17.562
		c0.859-1.367,2.786-1.968,5.085-2.281c-0.539,1.193-2.361,2.322-2.47,3.925c-0.067,1.204,0.108,2.714-0.348,3.436
		c-0.491,0.785-1.253,1.271-2.247,1.553c-0.176-0.323-0.3-0.588-0.445-0.891c0.124-0.621,0.218-1.421,0.083-2.312
		C87.106,19.63,87.246,18.284,87.707,17.562z M51.561,39.402c0.016-0.166,0.006-0.329,0.031-0.51
		c0.122-0.932,0.365-1.893,0.71-2.869c0.049-0.132,0.124-0.28,0.181-0.415c0.042-0.121,0.096-0.248,0.148-0.359
		c0.308-0.77,0.693-1.522,1.149-2.292c0.171-0.29,0.342-0.578,0.538-0.87c0.673-1.002,1.439-2.02,2.382-3.032
		c-0.01,0-0.01,0.111-0.01,0.293c0,0.072,0.01,0.184,0.021,0.29c0,0.145,0,0.272,0.021,0.456c0.005,0.135,0.026,0.272,0.036,0.415
		c0.026,0.207,0.047,0.404,0.078,0.631c0.021,0.163,0.052,0.324,0.093,0.497c0.036,0.229,0.078,0.456,0.135,0.687
		c0.041,0.173,0.099,0.339,0.145,0.507c0.073,0.228,0.146,0.424,0.233,0.642c0.067,0.153,0.14,0.303,0.228,0.445
		c0.109,0.187,0.213,0.35,0.348,0.5c0.093,0.121,0.196,0.228,0.311,0.321c0.145,0.114,0.321,0.186,0.481,0.251
		c0.135,0.062,0.274,0.111,0.419,0.121c0.062,0.011,0.104,0.052,0.161,0.052c0.264,0,0.554-0.062,0.88-0.184
		c4.738-1.882,0.554-11.084,6.934-13.888c0.767-0.339,1.657-0.477,2.553-0.521c0.202-0.01,0.409-0.021,0.616-0.021
		c0.466,0.021,0.911,0.106,1.356,0.207c0.207,0.042,0.415,0.062,0.622,0.132c0.631,0.207,1.232,0.489,1.729,0.87
		c-1.367,0.826-4.826,5.323-1.502,8.192c0.347,0.303,0.771,0.414,1.212,0.445c0.046,0.01,0.082,0.065,0.135,0.065
		c0.046,0,0.082-0.044,0.124-0.055c0.43-0.021,0.87-0.153,1.294-0.445c0.073-0.042,0.114-0.111,0.187-0.163
		c0.384-0.303,0.746-0.728,1.046-1.253c0.062-0.093,0.119-0.163,0.177-0.27c0.315-0.621,0.549-1.377,0.693-2.258
		c0.042-0.196,0.058-0.403,0.078-0.601c0.108-0.976,0.14-2.05-0.011-3.304c-0.554-4.518,6.985-8.181,7.084-8.323
		c-2.449,3.77-2.237,7.215,2.076,14.092c3.738,5.965-4.412,12.77-4.815,13.411c0,0,0,0.011,0.021,0.011s0.119-0.021,0.166-0.031
		c0.104-0.021,0.269-0.044,0.477-0.075c0.32-0.041,0.75-0.096,1.232-0.096c0.082,0,0.181,0.011,0.279,0.011
		c0.336,0.01,0.704,0.044,1.098,0.106c0.155,0.034,0.326,0.075,0.497,0.111c0.353,0.085,0.72,0.207,1.087,0.349
		c0.187,0.075,0.384,0.156,0.58,0.262c0.378,0.197,0.767,0.456,1.14,0.746c0.171,0.134,0.347,0.251,0.528,0.403
		c0.543,0.5,1.077,1.077,1.568,1.836c-0.016-0.023-0.207-0.034-0.481-0.044c-0.052,0-0.031-0.011-0.093-0.011
		c-0.104,0-0.249,0.011-0.362,0.021c-0.099,0-0.155,0-0.259,0.01c-0.296,0.023-0.632,0.055-1.005,0.114c-0.042,0-0.072,0-0.104,0.01
		c-0.414,0.062-0.87,0.153-1.347,0.28c-0.124,0.041-0.259,0.085-0.394,0.121c-0.347,0.106-0.704,0.218-1.077,0.36
		c-0.181,0.075-0.362,0.145-0.549,0.23c-0.342,0.142-0.678,0.323-1.015,0.507c-0.196,0.106-0.384,0.217-0.575,0.329
		c-0.347,0.228-0.693,0.477-1.03,0.748c-0.165,0.132-0.331,0.249-0.497,0.391c-0.486,0.435-0.953,0.914-1.388,1.471
		c-0.808,1.054-1.683,1.934-2.6,2.703c-0.32,0.262-0.652,0.425-0.983,0.653c-0.632,0.445-1.253,0.901-1.921,1.217
		c-0.399,0.207-0.808,0.326-1.217,0.481c-0.55,0.217-1.108,0.435-1.663,0.563c-0.077,0.021-0.145,0.062-0.217,0.073
		c-0.436,0.114-0.881,0.155-1.32,0.218c-0.627,0.098-1.254,0.186-1.875,0.196c-0.756,0.021-1.512,0.011-2.258-0.072
		c-0.113-0.021-0.238-0.011-0.352-0.031c-0.901-0.114-1.792-0.331-2.662-0.591c-0.259-0.062-0.507-0.154-0.756-0.248
		c-0.646-0.228-1.284-0.486-1.895-0.771c-0.238-0.114-0.487-0.228-0.72-0.353c-0.793-0.424-1.574-0.891-2.294-1.432
		c-0.083-0.062-0.15-0.132-0.238-0.194c-0.632-0.5-1.228-1.036-1.781-1.608c-0.187-0.197-0.357-0.391-0.539-0.588
		c-0.455-0.521-0.87-1.066-1.253-1.628c-0.119-0.197-0.259-0.37-0.373-0.557c-0.461-0.758-0.844-1.533-1.157-2.359
		c-0.062-0.176-0.105-0.362-0.158-0.551c-0.217-0.674-0.375-1.359-0.486-2.059c-0.044-0.272-0.07-0.552-0.096-0.821
		C51.48,40.956,51.491,40.187,51.561,39.402z M48.12,31.252l2.253,2.253c-2.035,4.456-2.232,9.105-0.355,13.411
		c2.926,6.75,10.38,11.473,18.116,11.473c2.107,0,4.096-0.456,5.996-1.14l8.865,8.865h-8.72v26.149H52.482v-17.44h-8.707v17.44
		H21.983V66.119h-8.728L48.12,31.252z"/>
</g>
<g>
</g>
<g>
</g>
<g>
</g>
<g>
</g>
<g>
</g>
<g>
</g>
<g>
</g>
<g>
</g>
<g>
</g>
<g>
</g>
<g>
</g>
<g>
</g>
<g>
</g>
<g>
</g>
<g>
</g>
</svg>
