<?xml version="1.0" encoding="iso-8859-1"?>
<!-- Generator: Adobe Illustrator 16.0.0, SVG Export Plug-In . SVG Version: 6.00 Build 0)  -->
<!DOCTYPE svg PUBLIC "-//W3C//DTD SVG 1.1//EN" "http://www.w3.org/Graphics/SVG/1.1/DTD/svg11.dtd">
<svg version="1.1" id="Capa_1" xmlns="http://www.w3.org/2000/svg" xmlns:xlink="http://www.w3.org/1999/xlink" x="0px" y="0px"
	 width="106.048px" height="106.048px" viewBox="0 0 106.048 106.048" style="enable-background:new 0 0 106.048 106.048;"
	 xml:space="preserve">
<g>
	<path style="fill:#010002;" d="M84.838,0H21.209C9.543,0,0,9.543,0,21.209v63.629c0,11.666,9.543,21.21,21.209,21.21h63.628
		c11.667,0,21.21-9.544,21.21-21.21V21.209C106.048,9.543,96.505,0,84.838,0z M60.755,13.256c0.285,2.053-1.228,5.126,0,7.381
		c0.958,1.67,2.465,3.557,2.465,4.924c0,1.831-0.684,3.5-2.465,4.922c-0.27-0.684-0.74-2.934-2.46-4.922
		c-1.507-1.615-2.465-3.558-2.465-4.924C55.83,18.082,57.922,15.614,60.755,13.256z M73.063,69.863
		c-2.952,32.171-56.615,31.192-49.224-7.385c-0.021,0.078,6.204,9.922,9.841,4.92c4.787-6.556-8.671-15.382-2.459-24.609
		c2.066-3.058,6.239-5.302,9.846-4.919c-1.152,2.268-1.983,11.272,4.919,12.306c4.112,0.621,7.12-6.092,0-14.768
		c-4.575-5.598,2.457-16.94,2.467-17.225c-0.101,7.156,3.122,11.627,14.766,17.233c10.107,4.862,4.914,20.938,4.914,22.144
		c0,0.311,5.53-6.727,14.778-2.454C82.627,54.976,73.943,60.221,73.063,69.863z M55.83,67.403
		c5.836,6.032,5.174,16.854-4.922,17.233c-12.901,0.48-11.581-9.191-9.841-12.309c2.196-3.957,7.757-4.744,4.919-9.844
		C46.025,62.557,52.027,63.463,55.83,67.403z"/>
</g>
<g>
</g>
<g>
</g>
<g>
</g>
<g>
</g>
<g>
</g>
<g>
</g>
<g>
</g>
<g>
</g>
<g>
</g>
<g>
</g>
<g>
</g>
<g>
</g>
<g>
</g>
<g>
</g>
<g>
</g>
</svg>
