<?xml version="1.0" encoding="iso-8859-1"?>
<!-- Generator: Adobe Illustrator 16.0.0, SVG Export Plug-In . SVG Version: 6.00 Build 0)  -->
<!DOCTYPE svg PUBLIC "-//W3C//DTD SVG 1.1//EN" "http://www.w3.org/Graphics/SVG/1.1/DTD/svg11.dtd">
<svg version="1.1" id="Capa_1" xmlns="http://www.w3.org/2000/svg" xmlns:xlink="http://www.w3.org/1999/xlink" x="0px" y="0px"
	 width="106.053px" height="106.053px" viewBox="0 0 106.053 106.053" style="enable-background:new 0 0 106.053 106.053;"
	 xml:space="preserve">
<g>
	<path style="fill:#010002;" d="M84.84,0H21.212C9.545,0,0.002,9.543,0.002,21.21v63.634c0,11.666,9.543,21.209,21.209,21.209H84.84
		c11.667,0,21.21-9.543,21.21-21.209V21.21C106.05,9.543,96.507,0,84.84,0z M6.71,24.741h17.841v-5.308l17.738,10.25L24.552,39.921
		v-5.303H6.71V24.741z M100.748,84.844c0,0.611-0.113,1.186-0.181,1.775h-2.471c-1.678-0.414-4.318-2.288-5.302-5.307
		c-0.829-2.532-1.916-7.555,2.651-7.954c0,0-5.743-6.736-10.605,2.651c-3.666,7.161-8.916,10.268-10.604,10.609H71.59
		c-1.684-0.414-4.313-2.288-5.308-5.307c-0.829-2.532-1.916-7.555,2.65-7.954c0,0-5.758-6.736-10.604,2.651
		c-3.687,7.161-6.258,10.268-7.953,10.609h-2.651c-1.681-0.414-4.316-2.288-5.303-5.307c-0.82-2.532-1.923-7.555,2.651-7.954
		c0,0-5.758-6.736-10.61,2.651c-3.679,7.161-6.252,10.268-7.943,10.609h-2.656c-1.675-0.414-4.316-2.288-5.297-5.307
		c-0.821-2.532-1.934-7.555,2.646-7.954c0,0-5.763-6.736-10.605,2.651c-1.618,3.133-3.521,5.458-5.302,7.141V67.243
		c1.781-1.688,3.684-4.008,5.302-7.141c4.842-9.391,10.605-2.651,10.605-2.651c-4.58,0.399-3.467,5.432-2.646,7.953
		c0.981,3.02,3.622,4.899,5.297,5.303h2.656c1.691-0.336,4.264-3.443,7.943-10.604c4.852-9.391,10.61-2.651,10.61-2.651
		c-4.575,0.399-3.472,5.432-2.651,7.953c0.986,3.02,3.622,4.899,5.303,5.303h2.651V41.544l-2.651,2.651l-2.651-2.651l25.187-21.209
		l25.187,21.209l-2.651,2.651l-2.651-2.651v29.163h10.604V84.844z"/>
</g>
<g>
</g>
<g>
</g>
<g>
</g>
<g>
</g>
<g>
</g>
<g>
</g>
<g>
</g>
<g>
</g>
<g>
</g>
<g>
</g>
<g>
</g>
<g>
</g>
<g>
</g>
<g>
</g>
<g>
</g>
</svg>
