<?xml version="1.0" encoding="iso-8859-1"?>
<!-- Generator: Adobe Illustrator 16.0.0, SVG Export Plug-In . SVG Version: 6.00 Build 0)  -->
<!DOCTYPE svg PUBLIC "-//W3C//DTD SVG 1.1//EN" "http://www.w3.org/Graphics/SVG/1.1/DTD/svg11.dtd">
<svg version="1.1" id="Capa_1" xmlns="http://www.w3.org/2000/svg" xmlns:xlink="http://www.w3.org/1999/xlink" x="0px" y="0px"
	 width="106.048px" height="106.048px" viewBox="0 0 106.048 106.048" style="enable-background:new 0 0 106.048 106.048;"
	 xml:space="preserve">
<g>
	<path style="fill:#010002;" d="M106.048,99.868H0v-10.6c1.686-0.342,6.915-3.449,10.604-10.605
		c4.842-9.393,10.605-2.65,10.605-2.65c-4.58,0.398-3.467,5.426-2.646,7.953c0.981,3.019,3.622,4.894,5.297,5.303h2.656
		c1.691-0.342,4.264-3.449,7.943-10.605c4.852-9.393,10.61-2.65,10.61-2.65c-4.575,0.398-3.472,5.426-2.651,7.953
		c0.986,3.019,3.622,4.894,5.303,5.303h2.651c1.695-0.342,4.267-3.449,7.953-10.605c4.847-9.393,10.604-2.65,10.604-2.65
		c-4.566,0.398-3.479,5.426-2.65,7.953c0.994,3.019,3.624,4.894,5.308,5.303h2.646c1.688-0.342,6.938-3.449,10.604-10.605
		c4.862-9.393,10.605-2.65,10.605-2.65c-4.567,0.398-3.48,5.426-2.651,7.953c0.983,3.019,3.624,4.894,5.302,5.303h7.954V99.868z
		 M90.141,57.454V28.291l2.651,2.651l2.651-2.651L70.257,7.076L45.07,28.291l2.651,2.651l2.651-2.651v29.164h-2.651
		c-1.681-0.409-4.316-2.284-5.303-5.303c-0.82-2.529-1.923-7.555,2.651-7.954c0,0-5.758-6.739-10.61,2.646
		c-3.679,7.161-6.252,10.269-7.943,10.61h-2.656c-1.675-0.409-4.316-2.284-5.297-5.303c-0.821-2.529-1.934-7.555,2.646-7.954
		c0,0-5.763-6.739-10.605,2.646C6.915,54.005,1.686,57.112,0,57.454v15.907c1.686-0.342,6.915-3.449,10.604-10.605
		c4.842-9.39,10.605-2.651,10.605-2.651c-4.58,0.399-3.467,5.428-2.646,7.954c0.981,3.019,3.622,4.894,5.297,5.303h2.656
		c1.691-0.342,4.264-3.449,7.943-10.605c4.852-9.39,10.61-2.651,10.61-2.651c-4.575,0.399-3.472,5.428-2.651,7.954
		c0.986,3.019,3.622,4.894,5.303,5.303h2.651c1.695-0.342,4.267-3.449,7.953-10.605c4.847-9.39,10.604-2.651,10.604-2.651
		c-4.566,0.399-3.479,5.428-2.65,7.954c0.994,3.019,3.624,4.894,5.308,5.303h2.646c1.688-0.342,6.938-3.449,10.604-10.605
		c4.862-9.39,10.605-2.651,10.605-2.651c-4.567,0.399-3.48,5.428-2.651,7.954c0.983,3.019,3.624,4.894,5.302,5.303h7.954V57.454
		H90.141z M6.708,21.367h17.841v5.295L42.287,16.42L24.549,6.18v5.303H6.708V21.367z"/>
</g>
<g>
</g>
<g>
</g>
<g>
</g>
<g>
</g>
<g>
</g>
<g>
</g>
<g>
</g>
<g>
</g>
<g>
</g>
<g>
</g>
<g>
</g>
<g>
</g>
<g>
</g>
<g>
</g>
<g>
</g>
</svg>
