<?xml version="1.0" encoding="iso-8859-1"?>
<!-- Generator: Adobe Illustrator 16.0.0, SVG Export Plug-In . SVG Version: 6.00 Build 0)  -->
<!DOCTYPE svg PUBLIC "-//W3C//DTD SVG 1.1//EN" "http://www.w3.org/Graphics/SVG/1.1/DTD/svg11.dtd">
<svg version="1.1" id="Capa_1" xmlns="http://www.w3.org/2000/svg" xmlns:xlink="http://www.w3.org/1999/xlink" x="0px" y="0px"
	 width="106.048px" height="106.048px" viewBox="0 0 106.048 106.048" style="enable-background:new 0 0 106.048 106.048;"
	 xml:space="preserve">
<g>
	<path style="fill:#010002;" d="M62.313,74.337c-0.353,1.056-7.343,6.524-10.297,3.562c-1.331-1.315-0.238-4.63,4.384-2.879
		C60.517,76.574,62.313,74.337,62.313,74.337z M47.323,74.72c-1.559-4.111,0.707-5.903,0.707-5.903
		c-1.087,0.357-6.537,7.343-3.575,10.289C45.764,80.437,49.068,79.35,47.323,74.72z M52.017,79.411
		c-4.629-1.739-5.711,1.554-4.381,2.88c2.96,2.956,9.924-2.502,10.281-3.573C57.917,78.718,56.12,80.975,52.017,79.411z
		 M106.048,21.209v63.629c0,11.666-9.543,21.21-21.21,21.21H21.209C9.543,106.048,0,96.504,0,84.838V21.209
		C0,9.543,9.543,0,21.209,0h63.628C96.505,0,106.048,9.543,106.048,21.209z M67.45,55.949H38.6c0,0-13.864,10.9-9.315,31.002
		c0,0,1.517,5.814,8.49,5.814h30.51c6.954,0,8.477-5.814,8.477-5.814C81.312,66.85,67.45,55.949,67.45,55.949z M40.472,51.778
		h25.104l6.959-6.491c0,0-3.459-4.852-9.181-5.473c-5.587-0.619-7.534,2.796-10.325,2.938c-2.799-0.143-4.746-3.558-10.336-2.938
		c-5.709,0.621-9.173,5.473-9.173,5.473L40.472,51.778z M92.792,33.075L53.076,13.331l-0.016-0.05l-0.037,0.026l-0.036-0.021
		l-0.015,0.049L13.256,33.075l3.309,6.661l36.459-18.123l36.46,18.123L92.792,33.075z M60.656,70.759
		c-4.629-1.734-5.695,1.559-4.381,2.874c2.957,2.962,9.932-2.491,10.284-3.562C66.57,70.07,64.773,72.338,60.656,70.759z
		 M43.48,81.109l-3.5,4.277c-0.394,0.414,0.613,2.103,1.442,1.264l4.119-3.479c0.355-0.347-0.419-0.497-0.992-1.057
		C43.988,81.534,43.835,80.747,43.48,81.109z M64.711,62.091c-1.03,0.238-9.637,3.728-6.52,6.866
		C61.33,72.09,64.711,62.091,64.711,62.091z M53.106,70.459c1.326,1.32,4.608,0.237,2.869-4.387
		c-1.563-4.111,0.704-5.902,0.704-5.902C55.582,60.527,50.15,67.491,53.106,70.459z M48.845,74.715
		c1.315,1.326,4.619,0.254,2.858-4.386c-1.553-4.102,0.705-5.903,0.705-5.903C51.344,64.778,45.87,71.764,48.845,74.715z"/>
</g>
<g>
</g>
<g>
</g>
<g>
</g>
<g>
</g>
<g>
</g>
<g>
</g>
<g>
</g>
<g>
</g>
<g>
</g>
<g>
</g>
<g>
</g>
<g>
</g>
<g>
</g>
<g>
</g>
<g>
</g>
</svg>
