<?xml version="1.0" encoding="iso-8859-1"?>
<!-- Generator: Adobe Illustrator 16.0.0, SVG Export Plug-In . SVG Version: 6.00 Build 0)  -->
<!DOCTYPE svg PUBLIC "-//W3C//DTD SVG 1.1//EN" "http://www.w3.org/Graphics/SVG/1.1/DTD/svg11.dtd">
<svg version="1.1" id="Capa_1" xmlns="http://www.w3.org/2000/svg" xmlns:xlink="http://www.w3.org/1999/xlink" x="0px" y="0px"
	 width="79.536px" height="79.536px" viewBox="0 0 79.536 79.536" style="enable-background:new 0 0 79.536 79.536;"
	 xml:space="preserve">
<g>
	<path style="fill:#010002;" d="M76.228,26.476L39.769,8.352L3.309,26.476L0,19.816L39.717,0.07l0.015-0.042l0.037,0.021
		l0.036-0.021l0.016,0.047l39.716,19.741L76.228,26.476z M59.279,32.029l-6.959,6.488H27.216l-6.957-6.488
		c0,0,3.464-4.852,9.173-5.474c5.595-0.621,7.542,2.796,10.341,2.938c2.791-0.142,4.738-3.56,10.325-2.938
		C55.82,27.177,59.279,32.029,59.279,32.029z M63.505,73.692c0,0-1.512,5.815-8.477,5.815h-30.51c-6.967,0-8.489-5.815-8.489-5.815
		c-4.549-20.102,9.315-31.001,9.315-31.001h28.85C54.194,42.691,68.057,53.591,63.505,73.692z M44.936,55.698
		c3.148,3.133,6.52-6.866,6.52-6.866C50.425,49.07,41.816,52.561,44.936,55.698z M39.849,57.2c1.325,1.32,4.611,0.238,2.871-4.386
		c-1.562-4.111,0.693-5.908,0.693-5.908C42.329,47.269,36.895,54.243,39.849,57.2z M35.589,61.456
		c1.315,1.326,4.619,0.249,2.859-4.386c-1.554-4.111,0.704-5.902,0.704-5.902C38.088,51.52,32.615,58.5,35.589,61.456z
		 M31.299,68.846c-0.567-0.57-0.725-1.356-1.074-0.994l-3.5,4.277c-0.394,0.408,0.613,2.102,1.442,1.263l4.125-3.479
		C32.648,69.561,31.874,69.415,31.299,68.846z M34.067,61.462c-1.559-4.112,0.707-5.903,0.707-5.903
		c-1.087,0.357-6.538,7.343-3.576,10.289C32.508,67.178,35.812,66.091,34.067,61.462z M44.661,65.459c0,0-1.797,2.258-5.9,0.688
		c-4.629-1.734-5.711,1.559-4.38,2.885C37.335,71.983,44.304,66.531,44.661,65.459z M49.058,61.078c0,0-1.797,2.248-5.913,0.684
		c-4.622-1.75-5.714,1.564-4.384,2.879C41.715,67.603,48.706,62.135,49.058,61.078z M53.314,56.812c0,0-1.797,2.263-5.903,0.688
		c-4.64-1.739-5.701,1.554-4.391,2.874C45.977,63.336,52.952,57.884,53.314,56.812z"/>
</g>
<g>
</g>
<g>
</g>
<g>
</g>
<g>
</g>
<g>
</g>
<g>
</g>
<g>
</g>
<g>
</g>
<g>
</g>
<g>
</g>
<g>
</g>
<g>
</g>
<g>
</g>
<g>
</g>
<g>
</g>
</svg>
