<?xml version="1.0" encoding="iso-8859-1"?>
<!-- Generator: Adobe Illustrator 16.0.0, SVG Export Plug-In . SVG Version: 6.00 Build 0)  -->
<!DOCTYPE svg PUBLIC "-//W3C//DTD SVG 1.1//EN" "http://www.w3.org/Graphics/SVG/1.1/DTD/svg11.dtd">
<svg version="1.1" id="Capa_1" xmlns="http://www.w3.org/2000/svg" xmlns:xlink="http://www.w3.org/1999/xlink" x="0px" y="0px"
	 width="106.048px" height="106.048px" viewBox="0 0 106.048 106.048" style="enable-background:new 0 0 106.048 106.048;"
	 xml:space="preserve">
<g>
	<path style="fill:#010002;" d="M84.838,0H21.209C9.543,0,0,9.543,0,21.209v63.629c0,11.666,9.543,21.21,21.209,21.21h63.628
		c11.667,0,21.21-9.544,21.21-21.21V21.209C106.048,9.543,96.505,0,84.838,0z M83.191,35.951c0.274,1.504,0.891,4.104-0.761,4.443
		c-1.378,0.279-2.584-1.238-2.885-2.361C78.79,35.159,83.062,31.951,83.191,35.951z M84.921,45.288c0.564,2.708,0,4.321-2.413,5.515
		c-1.854,0.921-5.52,1.962-6.358,0.329C73.835,46.654,83.254,38.421,84.921,45.288z M74.575,31.485
		c0.564-1.82,1.859-1.559,2.993,0.111c2.221-0.111,0.637,5.494-0.933,5.566c0.508,0.834,1.502,2.159,1.481,3.177
		c-0.031,1.452-0.958,1.639-1.74,2.874c-1.356,2.11-1.107,6.648-2.65,7.907c-0.312-2.439,0.745-4.973,0.253-7.371
		c-0.43-2.121-2.065-2.131-2.708-3.335c-2.097-3.936,2.869-5.149,5.603-3.591C76.295,35.239,73.99,33.394,74.575,31.485z
		 M65.493,46.437c1.522-1.538,4.096-2.47,6.234-2.13c0.331,2.275,0.817,7.842-1.223,9.566c-0.74,0.632-7.141,1.605-7.974,0.549
		C61.288,52.863,64.395,47.568,65.493,46.437z M61.812,47.975c0.388-1.914,4.976-13.075,7.431-7.459
		c0.388,2.47-2.077,2.317-3.553,3.335C64.09,44.943,63.577,47.219,61.812,47.975z M68.766,27.014c2.713-1.483,2.62,0.575,3.604,2.69
		c0.114,0.673,0.575,1.913,0.466,2.915c-1.998,0.212-4.971,5.955-5.188,0.606c0.207,2.91-2.599,3.425-3.811,5.536
		c-0.839,1.468-0.187,3.254-2.429,3.254c1.113-3.265-3.185-3.689-2.314-6.648c0.901-3.097,5.225-3.076,7.674-3.431
		C64.354,30.1,66.829,28.065,68.766,27.014z M59.797,50.129c0.808,2.926,1.035,4.619-1.947,5.184
		c-2.636,0.486-4.287,0.776-5.085-1.937C51.157,47.934,59.9,44.65,59.797,50.129z M50.039,47.897
		c-1.681-3.029,7.097-10.103,8.562-5.23c0.368,2.949-2.397,2.165-4.096,3.035C53.262,46.339,51.264,50.119,50.039,47.897z
		 M64.344,23.288c0.466,1.994-1.077,2.074-2.429,1.515c-1.528-0.634-3.413-0.098-4.977,0.104
		C56.763,21.23,62.35,21.675,64.344,23.288z M58.601,26.81c1.383-0.728,3.464-0.117,4.531,0.852c1.294,3.547-3.987,5.14-5.354,1.618
		c0.124,0.859,0.611,2.18,0.404,3.021c-0.29,1.152-1.057,0.976-1.59,2.059c-0.782,1.628-0.425,4.73-2.46,5.344
		c-3.596,1.103-3.733-5.673-3.268-7.814c0.257-1.157,0.834-3.596,1.947-4.228c2.186-1.229,3.019,1.455,4.075,1.427
		C58.43,29.031,56.597,27.868,58.601,26.81z M54.82,23.037c0.564,3.899-7.433,4.779-8.484,1.618
		C44.721,19.747,53.127,19.975,54.82,23.037z M45.313,27.641c1.253-0.365,3.263,0.955,4.094,1.932
		c-0.407,1.983-0.396,4.008-0.815,5.991c-0.425,2.025-2.144,0.303-2.773,2.152c3.275-0.433,5.328,1.056,3.335,4.279
		c-2.136,3.459-2.848,0.541-5.566,0.922c-0.085-0.994-0.166-1.983-0.241-2.978c-0.603,0.604-0.577,0.326-1.346,0.684
		c0.956-1.452,3.617-4.249,3.208-6.198c-0.36-1.725-2.566-1.507-2.804-3.055C42.287,30.589,44.423,27.917,45.313,27.641z
		 M48.39,55.405c-1.013,0.762-3.203-0.14-4.236-0.321c-1.401-0.258-1.02-1.936-2.089-3.138c-1.022-1.154-3.718-1.186-1.745-3.901
		c1.356-1.867,5.201-2.12,6.517-0.238C47.833,49.562,50.463,53.857,48.39,55.405z M43.501,26.496
		c-1.051,1.66-6.426,8.303-7.842,4.767C33.712,26.4,44.837,21.825,43.501,26.496z M42.595,36.945
		c-0.702,0.914-1.46,2.908-2.553,3.363c-1.075,0.456-0.901-0.572-1.994-0.521c-2.343,0.14-3.376,1.23-3.726-1.139
		C33.438,32.679,43.734,31.899,42.595,36.945z M38.823,52.361c0.435,1.616,1.502,2.289-0.81,2.667
		c-1.134,0.176-2.931-0.844-4.008-1.181c-1.979-0.637-2.302-0.015-2.524-2.796c-0.122-1.579,0.127-3.345,0.815-4.771
		c0.854-1.802,5.282-7.816,6.809-3.384c0.192,2.004-1.453,3.334-1.473,5.287C37.622,49.599,38.468,51.02,38.823,52.361z
		 M29.104,33.246c0.875-2.048,4.011-1.447,4.29,0.663C33.018,38.952,28.464,34.74,29.104,33.246z M23.139,37.01
		c3.327-1.696,6.607-0.386,9.222,2.16c0.445,1.276,0.684,2.576-0.085,3.759c-1.271,1.939-1.494-0.334-2.719-0.541
		c-1.421-0.228-2.397,1.028-3.262,0.811c-0.992-0.249-1.372-2.024-2.408-2.465c-1.181-0.505-1.59-0.111-2.975-1.37
		C19.597,38.162,22.444,37.37,23.139,37.01z M28.889,43.719c1.864,0.456,0.911,4.039,0.761,5.455
		c-0.223,2.154-1.085,3.203-3.198,2.211c-1.939-0.922-1.535-2.848-1.869-4.691c-1.209,2.778-1.937,5.201-3.899,0.795
		c-1.093-2.47,0.88-4.27,2.789-5.339c0.802,0.518,1.618,0.984,1.996,1.903c-0.342,0.577-0.453,1.346-0.663,1.978
		C26.056,45.681,27.555,43.405,28.889,43.719z M92.781,48.454c-0.248,6.542-2.485,13.646-5.902,20.208
		c0,0-8.182,16.549-33.855,16.549c-25.673,0-33.994-16.415-33.994-16.415c-3.43-6.586-5.515-13.623-5.773-20.342h0.021
		c-0.01-0.176-0.021-0.35-0.021-0.521c0-3.156,1.952-6.097,5.303-8.647l3.573,2.299c-2.206,1.481-3.488,3.146-3.488,4.896
		c0,6.208,15.392,11.233,34.38,11.233c18.988,0,34.383-5.025,34.383-11.233c0-1.593-1.02-3.097-2.843-4.467
		c1.311-0.551,2.584-1.229,3.771-2.014c2.812,2.387,4.458,5.059,4.458,7.933c0,0.171-0.011,0.344-0.021,0.521H92.781z"/>
</g>
<g>
</g>
<g>
</g>
<g>
</g>
<g>
</g>
<g>
</g>
<g>
</g>
<g>
</g>
<g>
</g>
<g>
</g>
<g>
</g>
<g>
</g>
<g>
</g>
<g>
</g>
<g>
</g>
<g>
</g>
</svg>
