<?xml version="1.0" encoding="iso-8859-1"?>
<!-- Generator: Adobe Illustrator 16.0.0, SVG Export Plug-In . SVG Version: 6.00 Build 0)  -->
<!DOCTYPE svg PUBLIC "-//W3C//DTD SVG 1.1//EN" "http://www.w3.org/Graphics/SVG/1.1/DTD/svg11.dtd">
<svg version="1.1" id="Capa_1" xmlns="http://www.w3.org/2000/svg" xmlns:xlink="http://www.w3.org/1999/xlink" x="0px" y="0px"
	 width="106.048px" height="106.048px" viewBox="0 0 106.048 106.048" style="enable-background:new 0 0 106.048 106.048;"
	 xml:space="preserve">
<g>
	<path style="fill:#010002;" d="M50.686,67.48L37.541,82.114l4.464-24.29L50.686,67.48z M43.962,48.208l-0.758,5.085l10.053,11.205
		l9.605-10.987l-0.87-5.344L43.962,48.208z M38.453,86.619h29.277L53.2,70.536L38.453,86.619z M63.162,28.565H42.896v6.397h20.267
		V28.565z M106.048,21.209v63.629c0,11.666-9.543,21.21-21.21,21.21H21.209C9.543,106.048,0,96.504,0,84.838V21.209
		C0,9.543,9.543,0,21.209,0h63.628C96.505,0,106.048,9.543,106.048,21.209z M85.843,89.716c0-1.719-1.377-3.097-3.076-3.097h-9.103
		c-0.295-2.029-0.674-4.577-1.196-7.86c-1.149-7.301-2.838-17.828-5.085-31.615V28.521h3.324L52.568,13.256L35.356,28.521h3.42
		v18.973h0.111c-3.457,19.438-5.642,32.467-6.542,39.126h-9.062c-1.708,0-3.076,1.378-3.076,3.097c0,1.698,1.367,3.076,3.076,3.076
		h59.483C84.466,92.792,85.843,91.414,85.843,89.716z M67.543,79.867l-3.728-21.07l-7.437,8.436L67.543,79.867z"/>
</g>
<g>
</g>
<g>
</g>
<g>
</g>
<g>
</g>
<g>
</g>
<g>
</g>
<g>
</g>
<g>
</g>
<g>
</g>
<g>
</g>
<g>
</g>
<g>
</g>
<g>
</g>
<g>
</g>
<g>
</g>
</svg>
