<?xml version="1.0" encoding="iso-8859-1"?>
<!-- Generator: Adobe Illustrator 16.0.0, SVG Export Plug-In . SVG Version: 6.00 Build 0)  -->
<!DOCTYPE svg PUBLIC "-//W3C//DTD SVG 1.1//EN" "http://www.w3.org/Graphics/SVG/1.1/DTD/svg11.dtd">
<svg version="1.1" id="Capa_1" xmlns="http://www.w3.org/2000/svg" xmlns:xlink="http://www.w3.org/1999/xlink" x="0px" y="0px"
	 width="79.536px" height="79.536px" viewBox="0 0 79.536 79.536" style="enable-background:new 0 0 79.536 79.536;"
	 xml:space="preserve">
<g>
	<path style="fill:#010002;" d="M14.077,56.504l-6.685-6.68H29.72v22.317l-6.685-6.686L8.961,79.536L0,70.578L14.077,56.504z
		 M70.589,79.536l8.947-8.958L65.462,56.509l6.68-6.685H49.824v22.317l6.68-6.68L70.589,79.536z M79.536,8.956L70.589,0
		l-14.08,14.084l-6.685-6.682v22.307l22.328,0.01l-6.69-6.692L79.536,8.956z M7.402,29.72h22.312L29.73,7.392l-6.685,6.693L8.961,0
		L0,8.966l14.077,14.062L7.402,29.72z M39.769,30.054c-5.367,0-9.714,4.347-9.714,9.714c0,5.375,4.347,9.724,9.714,9.724
		c5.364,0,9.719-4.35,9.719-9.724C49.487,34.401,45.133,30.054,39.769,30.054z"/>
</g>
<g>
</g>
<g>
</g>
<g>
</g>
<g>
</g>
<g>
</g>
<g>
</g>
<g>
</g>
<g>
</g>
<g>
</g>
<g>
</g>
<g>
</g>
<g>
</g>
<g>
</g>
<g>
</g>
<g>
</g>
</svg>
