<?xml version="1.0" encoding="iso-8859-1"?>
<!-- Generator: Adobe Illustrator 16.0.0, SVG Export Plug-In . SVG Version: 6.00 Build 0)  -->
<!DOCTYPE svg PUBLIC "-//W3C//DTD SVG 1.1//EN" "http://www.w3.org/Graphics/SVG/1.1/DTD/svg11.dtd">
<svg version="1.1" id="Capa_1" xmlns="http://www.w3.org/2000/svg" xmlns:xlink="http://www.w3.org/1999/xlink" x="0px" y="0px"
	 width="106.048px" height="106.048px" viewBox="0 0 106.048 106.048" style="enable-background:new 0 0 106.048 106.048;"
	 xml:space="preserve">
<g>
	<path style="fill:#010002;" d="M19.576,20.37h31.623v20.713H19.576V20.37z M82.166,42.9c1.181-0.026,2.527-0.052,3.537-0.067
		c0.047-0.891,0.047-2.296,0.047-3.759V38.32c0-5.228-0.705-6.532-1.601-7.397c-0.337,0.694-0.632,1.421-0.854,2.268
		C82.462,36.363,82.208,39.662,82.166,42.9z M56.183,40.612v5.056h0.27v-5.056H56.183z M106.048,21.209v63.629
		c0,11.666-9.543,21.21-21.21,21.21H21.209C9.543,106.048,0,96.504,0,84.838V21.209C0,9.543,9.543,0,21.209,0h63.628
		C96.505,0,106.048,9.543,106.048,21.209z M87.235,26.9c0.938-0.94,1.994-1.932,3.351-3.162l1.134-1.023l-3.401-3.743l-1.119,1.017
		c-4.64,4.189-7.436,6.724-8.797,11.91c-1.352,5.16-1.414,10.382-1.27,15.265c0.15,5.031,0.332,8.35,1.751,12.052l0.538,1.367
		c1.356,3.396,3.407,8.528,3.407,15.13c0,7.975-3.247,12.019-9.646,12.019c-5.825,0-8.964-3.868-9.337-11.511
		c-0.165-3.387,0.787-7.565,1.792-11.982c0.85-3.728,1.725-7.591,2.154-11.682c0.477-4.518-0.114-7.523-1.864-9.46
		c-2.237-2.485-5.686-2.485-8.72-2.485h-0.767V16.904c0-2.014-1.631-3.648-3.646-3.648h-34.82c-2.017,0-3.648,1.634-3.648,3.648
		v74.427h42.114V45.668h0.767c2.081,0,4.226,0,4.96,0.813c0.389,0.435,0.994,1.731,0.591,5.545c-0.394,3.803-1.243,7.5-2.061,11.083
		c-1.083,4.765-2.108,9.269-1.906,13.36c0.497,10.371,5.743,16.321,14.385,16.321c9.207,0,14.706-6.385,14.706-17.078
		c0-7.57-2.355-13.474-3.77-17.005l-0.508-1.289c-1.01-2.656-1.237-5.191-1.382-9.46c1.631-0.031,3.588-0.073,4.469-0.073
		c2.029,0,3.428-1.183,3.868-3.226c0.253-1.191,0.248-2.758,0.248-5.593V38.32C90.809,30.838,89.275,28.691,87.235,26.9z"/>
</g>
<g>
</g>
<g>
</g>
<g>
</g>
<g>
</g>
<g>
</g>
<g>
</g>
<g>
</g>
<g>
</g>
<g>
</g>
<g>
</g>
<g>
</g>
<g>
</g>
<g>
</g>
<g>
</g>
<g>
</g>
</svg>
