<?xml version="1.0" encoding="iso-8859-1"?>
<!-- Generator: Adobe Illustrator 16.0.0, SVG Export Plug-In . SVG Version: 6.00 Build 0)  -->
<!DOCTYPE svg PUBLIC "-//W3C//DTD SVG 1.1//EN" "http://www.w3.org/Graphics/SVG/1.1/DTD/svg11.dtd">
<svg version="1.1" id="Capa_1" xmlns="http://www.w3.org/2000/svg" xmlns:xlink="http://www.w3.org/1999/xlink" x="0px" y="0px"
	 width="79.536px" height="79.536px" viewBox="0 0 79.536 79.536" style="enable-background:new 0 0 79.536 79.536;"
	 xml:space="preserve">
<g>
	<path style="fill:#010002;" d="M0,29.138h15.615c-1.043,1.39-1.665,3.086-1.665,4.963H6.258L0,32.516V29.138z M79.536,20.293
		v13.808h-6.623c0-0.197-0.031-0.391-0.041-0.577c-0.067-1.14-0.383-2.216-0.881-3.172c-1.372-2.682-4.147-4.528-7.368-4.528
		c-4.572,0-8.285,3.708-8.285,8.277h-5.841c0.466,3.128,0.611,6.278-0.072,8.723c-0.994,3.573-4.143,6.576-7.188,9.486
		c-2.664,2.542-5.421,5.184-6.297,7.855l-2.899-0.942c1.113-3.418,4.153-6.317,7.095-9.124c2.744-2.631,5.582-5.344,6.354-8.099
		c0.585-2.115,0.414-5.005-0.058-7.899H30.515c0-1.877-0.619-3.573-1.67-4.963h17.531c-0.353-1.378-0.726-2.641-1.047-3.653
		c-1.739,1.087-3.779,1.75-5.97,1.75H11.327C5.096,27.234,0,22.139,0,15.902v-4.161C0,5.504,5.096,0.409,11.327,0.409h28.032
		c6.229,0,11.324,5.095,11.324,11.332v4.161c0,2.848-1.098,5.424-2.838,7.412c0.436,1.315,1.088,3.42,1.673,5.823h4.023V0.409
		h13.847v3.314l4.406,13.256L79.536,20.293z M68.486,16.979l-3.304-9.942h-7.741v9.942H68.486z M28.309,34.101
		c0,3.368-2.719,6.077-6.071,6.077c-3.361,0-6.087-2.716-6.087-6.077c0-3.345,2.731-6.071,6.087-6.071
		C25.59,28.029,28.309,30.756,28.309,34.101z M25.552,34.101c0-1.825-1.489-3.304-3.314-3.304c-1.838,0-3.33,1.479-3.33,3.304
		c0,1.836,1.491,3.314,3.33,3.314C24.063,37.415,25.552,35.931,25.552,34.101z M70.708,34.101c0,3.368-2.729,6.077-6.074,6.077
		c-3.366,0-6.09-2.716-6.09-6.077c0-3.345,2.734-6.071,6.09-6.071C67.979,28.029,70.708,30.756,70.708,34.101z M67.938,34.101
		c0-1.825-1.481-3.304-3.314-3.304c-1.828,0-3.313,1.479-3.313,3.304c0,1.836,1.485,3.314,3.313,3.314
		C66.456,37.415,67.938,35.931,67.938,34.101z M29.016,78.412l0.037-0.104c0.212-0.569-0.075-1.206-0.642-1.413
		c-0.562-0.218-1.204,0.077-1.417,0.642l-0.036,0.109c-0.217,0.564,0.075,1.201,0.642,1.408c0.122,0.052,0.254,0.072,0.381,0.072
		C28.426,79.127,28.845,78.857,29.016,78.412z M30.207,75.223l0.044-0.108c0.207-0.564-0.085-1.207-0.652-1.409
		c-0.562-0.207-1.204,0.083-1.411,0.647l-0.042,0.108c-0.207,0.57,0.085,1.207,0.652,1.414c0.122,0.052,0.254,0.072,0.375,0.072
		C29.624,75.947,30.044,75.668,30.207,75.223z M31.405,72.043l0.039-0.104c0.212-0.559-0.075-1.201-0.642-1.408
		c-0.562-0.218-1.204,0.072-1.416,0.637l-0.037,0.109c-0.217,0.569,0.073,1.201,0.64,1.408c0.125,0.052,0.256,0.072,0.383,0.072
		C30.818,72.758,31.242,72.488,31.405,72.043z M32.599,68.864l0.042-0.104c0.207-0.569-0.083-1.207-0.65-1.425
		c-0.564-0.207-1.199,0.089-1.411,0.652l-0.044,0.109c-0.205,0.564,0.085,1.201,0.652,1.408c0.122,0.052,0.256,0.072,0.378,0.072
		C32.017,69.578,32.436,69.299,32.599,68.864z M33.798,65.685l0.036-0.104c0.212-0.569-0.072-1.201-0.642-1.419
		c-0.562-0.207-1.201,0.072-1.414,0.643l-0.039,0.104c-0.217,0.569,0.075,1.201,0.643,1.418c0.122,0.042,0.253,0.073,0.383,0.073
		C33.215,66.399,33.632,66.119,33.798,65.685z M35.012,62.453c0.217-0.569-0.07-1.201-0.637-1.418
		c-0.562-0.218-1.204,0.072-1.416,0.626l-0.021,0.058c-0.218,0.563,0.08,1.18,0.647,1.397c0.117,0.042,0.249,0.062,0.371,0.062
		C34.406,63.179,34.841,62.898,35.012,62.453z M36.946,77.615v-0.109c0-0.601-0.492-1.098-1.095-1.098
		c-0.606,0-1.098,0.497-1.098,1.098v0.109c0,0.611,0.492,1.098,1.098,1.098C36.454,78.713,36.946,78.227,36.946,77.615z
		 M36.946,74.021v-0.125c0-0.595-0.492-1.098-1.095-1.098c-0.606,0-1.098,0.503-1.098,1.098v0.125c0,0.601,0.492,1.098,1.098,1.098
		C36.454,75.119,36.946,74.622,36.946,74.021z M36.946,70.418v-0.114c0-0.611-0.492-1.108-1.095-1.108
		c-0.606,0-1.098,0.497-1.098,1.108v0.114c0,0.6,0.492,1.098,1.098,1.098C36.454,71.516,36.946,71.018,36.946,70.418z
		 M36.946,66.762c0-0.611-0.492-1.098-1.095-1.098c-0.606,0-1.098,0.486-1.098,1.098v0.052c0,0.611,0.492,1.066,1.098,1.066
		C36.454,67.88,36.946,67.362,36.946,66.762z M21.756,73.938c0.415-0.445,0.391-1.14-0.046-1.554
		c-0.44-0.414-1.142-0.394-1.556,0.042l-0.067,0.072c-0.419,0.445-0.359,1.098,0.081,1.522c0.199,0.187,0.466,0.279,0.735,0.279
		C21.21,74.301,21.528,74.177,21.756,73.938z M23.902,71.66c0.419-0.445,0.399-1.139-0.042-1.554
		c-0.445-0.425-1.139-0.403-1.553,0.042l-0.075,0.077c-0.412,0.445-0.354,1.098,0.085,1.513c0.202,0.196,0.466,0.289,0.733,0.289
		C23.361,72.022,23.68,71.898,23.902,71.66z M26.057,69.371c0.414-0.435,0.391-1.129-0.049-1.553
		c-0.44-0.414-1.134-0.394-1.553,0.052l-0.062,0.072c-0.414,0.435-0.36,1.098,0.081,1.512c0.199,0.197,0.466,0.29,0.735,0.29
		C25.516,69.744,25.829,69.609,26.057,69.371z M28.203,67.093c0.419-0.435,0.398-1.139-0.042-1.554
		c-0.445-0.414-1.139-0.393-1.554,0.053l-0.075,0.072c-0.415,0.435-0.355,1.098,0.085,1.512c0.202,0.197,0.466,0.279,0.733,0.279
		C27.667,67.455,27.98,67.331,28.203,67.093z M30.336,64.836c0.412-0.445,0.386-1.14-0.065-1.554
		c-0.44-0.404-1.139-0.384-1.548,0.062l-0.036,0.042c-0.414,0.445-0.368,1.129,0.078,1.532c0.207,0.197,0.474,0.279,0.738,0.279
		C29.806,65.197,30.119,65.073,30.336,64.836z"/>
</g>
<g>
</g>
<g>
</g>
<g>
</g>
<g>
</g>
<g>
</g>
<g>
</g>
<g>
</g>
<g>
</g>
<g>
</g>
<g>
</g>
<g>
</g>
<g>
</g>
<g>
</g>
<g>
</g>
<g>
</g>
</svg>
