<?xml version="1.0" encoding="iso-8859-1"?>
<!-- Generator: Adobe Illustrator 16.0.0, SVG Export Plug-In . SVG Version: 6.00 Build 0)  -->
<!DOCTYPE svg PUBLIC "-//W3C//DTD SVG 1.1//EN" "http://www.w3.org/Graphics/SVG/1.1/DTD/svg11.dtd">
<svg version="1.1" id="Capa_1" xmlns="http://www.w3.org/2000/svg" xmlns:xlink="http://www.w3.org/1999/xlink" x="0px" y="0px"
	 width="106.048px" height="106.048px" viewBox="0 0 106.048 106.048" style="enable-background:new 0 0 106.048 106.048;"
	 xml:space="preserve">
<g>
	<path style="fill:#010002;" d="M77.661,34.512l-7.094,48.529h-35.09l-7.088-48.529c3.102-0.44,5.794-2.221,7.296-4.833
		c1.729,2.996,4.974,5.02,8.67,5.02c3.705,0,6.949-2.024,8.668-5.02c1.73,2.996,4.972,5.02,8.669,5.02
		c3.707,0,6.948-2.024,8.668-5.02C71.862,32.291,74.555,34.077,77.661,34.512z M106.048,21.209v63.629
		c0,11.666-9.543,21.21-21.21,21.21H21.209C9.543,106.048,0,96.504,0,84.838V21.209C0,9.543,9.543,0,21.209,0h63.628
		C96.505,0,106.048,9.543,106.048,21.209z M87.541,15.907h-7.156l-2.351,16.039c-3.573-0.492-6.349-3.537-6.349-7.242
		c0-0.733-0.585-1.326-1.325-1.326c-0.726,0-1.325,0.593-1.325,1.326c0,4.049-3.294,7.342-7.343,7.342
		c-4.05,0-7.343-3.293-7.343-7.342c0-0.733-0.591-1.326-1.326-1.326c-0.727,0-1.325,0.593-1.325,1.326
		c0,4.049-3.293,7.342-7.343,7.342c-4.052,0-7.345-3.293-7.345-7.342c0-0.733-0.588-1.326-1.326-1.326
		c-0.728,0-1.326,0.593-1.326,1.326c0,3.705-2.773,6.745-6.346,7.236l-2.351-16.034h-7.156L29.36,90.141h47.328L87.541,15.907z"/>
</g>
<g>
</g>
<g>
</g>
<g>
</g>
<g>
</g>
<g>
</g>
<g>
</g>
<g>
</g>
<g>
</g>
<g>
</g>
<g>
</g>
<g>
</g>
<g>
</g>
<g>
</g>
<g>
</g>
<g>
</g>
</svg>
