<?xml version="1.0" encoding="iso-8859-1"?>
<!-- Generator: Adobe Illustrator 16.0.0, SVG Export Plug-In . SVG Version: 6.00 Build 0)  -->
<!DOCTYPE svg PUBLIC "-//W3C//DTD SVG 1.1//EN" "http://www.w3.org/Graphics/SVG/1.1/DTD/svg11.dtd">
<svg version="1.1" id="Capa_1" xmlns="http://www.w3.org/2000/svg" xmlns:xlink="http://www.w3.org/1999/xlink" x="0px" y="0px"
	 width="106.048px" height="106.048px" viewBox="0 0 106.048 106.048" style="enable-background:new 0 0 106.048 106.048;"
	 xml:space="preserve">
<g>
	<path style="fill:#010002;" d="M44.281,64.188c-0.091,0.311-0.373,0.502-0.668,0.502c-0.07,0-0.127-0.005-0.197-0.025l-3.224-0.963
		h-6.454c-0.381,0-0.694-0.311-0.694-0.694c0-0.383,0.313-0.693,0.694-0.693h6.55c0.067,0,0.132,0.005,0.194,0.025l3.322,0.989
		C44.174,63.437,44.387,63.825,44.281,64.188z M40.293,58.264h-6.555c-0.381,0-0.694,0.311-0.694,0.694
		c0,0.383,0.313,0.693,0.694,0.693h6.384l3.177,1.59c0.101,0.058,0.207,0.078,0.313,0.078c0.253,0,0.502-0.14,0.619-0.384
		c0.171-0.342,0.039-0.766-0.311-0.932l-3.319-1.662C40.511,58.285,40.399,58.264,40.293,58.264z M43.613,66.679h-9.875
		c-0.381,0-0.694,0.311-0.694,0.693c0,0.378,0.313,0.694,0.694,0.694h9.869c0.381,0,0.694-0.316,0.694-0.694
		C44.301,66.989,43.993,66.679,43.613,66.679z M43.462,69.904l-3.174,0.693h-6.55c-0.381,0-0.694,0.312-0.694,0.694
		c0,0.384,0.313,0.694,0.694,0.694l6.698-0.016l3.319-0.71c0.378-0.083,0.616-0.445,0.536-0.823S43.835,69.775,43.462,69.904z
		 M106.048,21.209v63.629c0,11.666-9.543,21.21-21.21,21.21H21.209C9.543,106.048,0,96.504,0,84.838V21.209
		C0,9.543,9.543,0,21.209,0h63.628C96.505,0,106.048,9.543,106.048,21.209z M31.151,54.085l-1.31-1.512l-16.585-1.013v32.915
		l16.585-1.683l1.31-1.673V54.085z M47.245,56.597H43.84l-3.547-2.512h-7.547v27.03h7.547l3.547-2.858h3.405V56.597z M92.787,40.922
		c0.098-4.559-1.021-6.737-1.021-6.737h-9.021l-8.389,3.433h-8.477V25.505H55.013v-0.759c-0.757-3.076-4.953-3.172-5.479-3.172
		c0,0,0,0-0.006,0l-31.796,0.622c-0.171,0-4.088,0.052-4.306,4.932v1.52c0.21,4.842,4.119,4.906,4.298,4.906l31.81,0.619h0.033
		c0.481,0,4.699-0.091,5.46-3.345v-0.593h3.273v7.384H57.56l-7.044,17.973H48.84v23.514v0.813v2.874h28.542l2.853-3.688h7.871
		c0,0,2.346-3.355,2.517-11.5c0.161-8.146-2.517-12.014-2.517-12.014H64.447v-9.566h9.403l9.071,1.416h8.834
		C91.767,47.434,92.688,45.484,92.787,40.922z M43.263,73.529l-3.161,1.802h-6.364c-0.381,0-0.694,0.311-0.694,0.694
		c0,0.383,0.313,0.693,0.694,0.693h6.55c0.117,0,0.238-0.031,0.345-0.088l3.319-1.891c0.329-0.186,0.451-0.61,0.259-0.952
		C44.027,73.457,43.597,73.338,43.263,73.529z"/>
</g>
<g>
</g>
<g>
</g>
<g>
</g>
<g>
</g>
<g>
</g>
<g>
</g>
<g>
</g>
<g>
</g>
<g>
</g>
<g>
</g>
<g>
</g>
<g>
</g>
<g>
</g>
<g>
</g>
<g>
</g>
</svg>
