<?xml version="1.0" encoding="iso-8859-1"?>
<!-- Generator: Adobe Illustrator 16.0.0, SVG Export Plug-In . SVG Version: 6.00 Build 0)  -->
<!DOCTYPE svg PUBLIC "-//W3C//DTD SVG 1.1//EN" "http://www.w3.org/Graphics/SVG/1.1/DTD/svg11.dtd">
<svg version="1.1" id="Capa_1" xmlns="http://www.w3.org/2000/svg" xmlns:xlink="http://www.w3.org/1999/xlink" x="0px" y="0px"
	 width="106.048px" height="106.048px" viewBox="0 0 106.048 106.048" style="enable-background:new 0 0 106.048 106.048;"
	 xml:space="preserve">
<g>
	<path style="fill:#010002;" d="M84.766,21.108v12.875c0,2.783-2.258,5.046-5.033,5.046H64.437l-6.307,6.304V39.03h-5.605
		c-2.773,0-5.036-2.263-5.036-5.046V21.108c0-2.778,2.263-5.041,5.036-5.041h27.208C82.508,16.067,84.766,18.33,84.766,21.108z
		 M106.048,21.209v63.629c0,11.666-9.543,21.21-21.21,21.21H21.209C9.543,106.048,0,96.504,0,84.838V21.209
		C0,9.543,9.543,0,21.209,0h63.628C96.505,0,106.048,9.543,106.048,21.209z M39.201,54.127c0,3.801,3.086,6.887,6.876,6.887
		c3.791,0,6.888-3.086,6.888-6.887c0-3.786-3.097-6.877-6.888-6.877C42.287,47.25,39.201,50.341,39.201,54.127z M28.247,61.205
		c0,2.568,2.089,4.66,4.65,4.66s4.655-2.092,4.655-4.66c0-2.558-2.095-4.65-4.655-4.65S28.247,58.647,28.247,61.205z M20.461,65.373
		c0,1.715,1.406,3.123,3.135,3.123c1.722,0,3.127-1.408,3.127-3.123c0-1.724-1.406-3.127-3.127-3.127
		C21.867,62.246,20.461,63.649,20.461,65.373z M25.049,70.505c-0.474-0.135-0.945-0.238-1.447-0.238
		c-2.827,0-5.144,2.32-5.144,5.147v9.445h5.302v-9.762C23.754,73.426,24.241,71.861,25.049,70.505z M34.991,67.999
		c-0.663-0.202-1.359-0.342-2.095-0.342c-4.099,0-7.436,3.335-7.436,7.44v13.396h8.119V73.643
		C33.58,71.593,34.121,69.697,34.991,67.999z M56.866,73.643c0-5.954-4.839-10.791-10.789-10.791
		c-5.96,0-10.791,4.837-10.791,10.791v19.149h21.58V73.643z M59.253,65.865c2.573,0,4.666-2.092,4.666-4.66
		c0-2.558-2.093-4.65-4.666-4.65c-2.562,0-4.649,2.093-4.649,4.65C54.604,63.773,56.69,65.865,59.253,65.865z M66.694,75.098
		c0-4.105-3.34-7.44-7.441-7.44c-0.729,0-1.435,0.14-2.097,0.342c0.87,1.688,1.408,3.594,1.408,5.644v14.852h8.13V75.098z
		 M68.568,68.496c1.72,0,3.128-1.408,3.128-3.123c0-1.724-1.408-3.127-3.128-3.127c-1.729,0-3.138,1.403-3.138,3.127
		C65.431,67.088,66.829,68.496,68.568,68.496z M73.695,75.414c0-2.827-2.305-5.147-5.127-5.147c-0.518,0-0.994,0.104-1.455,0.238
		c0.793,1.356,1.29,2.921,1.29,4.593v9.762h5.292V75.414z M87.593,21.108c0-4.332-3.521-7.853-7.854-7.853H52.524
		c-4.332,0-7.858,3.521-7.858,7.853v12.875c0,4.337,3.526,7.863,7.858,7.863h2.778v10.286l10.294-10.286h14.131
		c4.334,0,7.855-3.526,7.855-7.863V21.108H87.593z"/>
</g>
<g>
</g>
<g>
</g>
<g>
</g>
<g>
</g>
<g>
</g>
<g>
</g>
<g>
</g>
<g>
</g>
<g>
</g>
<g>
</g>
<g>
</g>
<g>
</g>
<g>
</g>
<g>
</g>
<g>
</g>
</svg>
