<?xml version="1.0" encoding="iso-8859-1"?>
<!-- Generator: Adobe Illustrator 16.0.0, SVG Export Plug-In . SVG Version: 6.00 Build 0)  -->
<!DOCTYPE svg PUBLIC "-//W3C//DTD SVG 1.1//EN" "http://www.w3.org/Graphics/SVG/1.1/DTD/svg11.dtd">
<svg version="1.1" id="Capa_1" xmlns="http://www.w3.org/2000/svg" xmlns:xlink="http://www.w3.org/1999/xlink" x="0px" y="0px"
	 width="106.058px" height="106.059px" viewBox="0 0 106.058 106.059" style="enable-background:new 0 0 106.058 106.059;"
	 xml:space="preserve">
<g>
	<path style="fill:#010002;" d="M53.371,51.815c-18.55,0-33.587,7.268-33.587,16.215c0,8.948,15.037,16.218,33.587,16.218
		c18.559,0,33.596-7.27,33.596-16.218C86.966,59.093,71.929,51.815,53.371,51.815z M53.371,82.27
		c-16.274-0.025-29.445-6.39-29.489-14.239c0.044-7.86,13.21-14.227,29.489-14.237c16.275,0.01,29.448,6.377,29.475,14.237
		C82.819,75.88,69.651,82.244,53.371,82.27z M53.371,56.444c-13.258,0-23.995,5.19-23.995,11.591s10.737,11.584,23.995,11.584
		c13.246,0,23.996-5.188,23.996-11.584C77.367,61.641,66.617,56.444,53.371,56.444z M53.371,77.631
		c-10.977,0-19.865-4.288-19.881-9.601c0.016-5.308,8.904-9.59,19.881-9.601c10.988,0.011,19.863,4.293,19.885,9.601
		C73.234,73.343,64.359,77.631,53.371,77.631z M84.843,0H21.215C9.548,0,0.005,9.543,0.005,21.21v63.639
		c0,11.667,9.543,21.21,21.209,21.21h63.628c11.667,0,21.21-9.543,21.21-21.21V21.21C106.053,9.543,96.51,0,84.843,0z
		 M64.282,34.202c6.457-5.509,4.463-8.596,4.463-8.596s7.979,5.403,0.078,12.042c-5.225,4.417-1.802,8.246-1.802,8.246
		S57.13,40.314,64.282,34.202z M60.258,16.301c0,0-4.578,2.294-1.347,8.318c4.878,9.088-4.51,11.156-4.51,11.156s2.977-2.12-1-9.618
		C49.011,17.849,60.258,16.301,60.258,16.301z M40.462,34.836c4.777-7.019,2.043-9.458,2.043-9.458s9.119,3.107,3.239,11.597
		c-3.886,5.621,0.419,8.414,0.419,8.414S35.149,42.605,40.462,34.836z M53.029,89.758c-21.958,0-39.768-9.228-39.768-20.641
		c0-11.396,17.81-20.632,39.768-20.632c21.966,0,39.769,9.23,39.769,20.632C92.797,80.53,74.995,89.758,53.029,89.758z
		 M53.371,61.412c-7.567,0-13.708,2.963-13.708,6.618s6.141,6.612,13.708,6.612c7.576,0,13.702-2.957,13.702-6.612
		S60.947,61.412,53.371,61.412z M53.371,72.664c-5.305,0-9.589-2.086-9.605-4.634c0.016-2.558,4.3-4.63,9.605-4.64
		c5.313,0.01,9.596,2.082,9.605,4.64C62.966,70.588,58.684,72.664,53.371,72.664z"/>
</g>
<g>
</g>
<g>
</g>
<g>
</g>
<g>
</g>
<g>
</g>
<g>
</g>
<g>
</g>
<g>
</g>
<g>
</g>
<g>
</g>
<g>
</g>
<g>
</g>
<g>
</g>
<g>
</g>
<g>
</g>
</svg>
