<?xml version="1.0" encoding="iso-8859-1"?>
<!-- Generator: Adobe Illustrator 16.0.0, SVG Export Plug-In . SVG Version: 6.00 Build 0)  -->
<!DOCTYPE svg PUBLIC "-//W3C//DTD SVG 1.1//EN" "http://www.w3.org/Graphics/SVG/1.1/DTD/svg11.dtd">
<svg version="1.1" id="Capa_1" xmlns="http://www.w3.org/2000/svg" xmlns:xlink="http://www.w3.org/1999/xlink" x="0px" y="0px"
	 width="79.538px" height="79.538px" viewBox="0 0 79.538 79.538" style="enable-background:new 0 0 79.538 79.538;"
	 xml:space="preserve">
<g>
	<path style="fill:#010002;" d="M47.287,63.63c-17.821,0-32.26,3.562-32.26,7.953c0,4.392,14.439,7.954,32.26,7.954
		c17.812,0,32.249-3.562,32.249-7.954C79.536,67.192,65.1,63.63,47.287,63.63z M47.753,75.239c-9.507,0-17.212-1.905-17.212-4.246
		c0-2.351,7.705-4.251,17.212-4.251s17.212,1.89,17.212,4.251C64.965,73.334,57.26,75.239,47.753,75.239z M79.174,34.87
		c-0.503-0.474-1.284-0.474-1.781,0l-4.401,4.484H61.175V33.97H71.22c0.953,0,1.9-0.086,2.807-0.257
		c0.917-0.179,1.678-0.652,2.299-1.442c0.528-0.616,0.793-1.473,0.793-2.63c0-0.795-0.238-1.781-0.668-3.006l-3.807-9.067
		c-1.217-2.784-2.812-4.736-4.789-5.823c-1.963-1.113-4.039-1.642-6.225-1.642H46.417V2.891h4.453
		c0.27,0.445,0.585,0.728,0.932,0.849c0.337,0.143,0.643,0.202,0.901,0.202h21.396c0.694,0,1.218-0.196,1.564-0.585
		c0.342-0.386,0.564-0.847,0.652-1.377c0-0.445-0.166-0.88-0.518-1.31c-0.353-0.445-0.917-0.668-1.688-0.668H53.501
		c-0.964,0-1.585,0.122-1.896,0.329C51.3,0.558,51.052,0.835,50.87,1.2H38.676c-0.163-0.186-0.36-0.409-0.583-0.668
		c-0.207-0.267-0.632-0.394-1.24-0.394h-21.65c-0.347,0-0.753,0.15-1.253,0.461c-0.471,0.318-0.709,0.808-0.709,1.517
		c0,0.679,0.238,1.22,0.709,1.559c0.505,0.36,0.88,0.531,1.131,0.531h21.771c0.163,0,0.445-0.075,0.846-0.197
		c0.394-0.127,0.712-0.456,0.977-0.991h4.593v7.091H15.871c-0.611-1.491-1.603-2.741-2.949-3.743
		c-1.362-1.005-2.91-1.507-4.661-1.507c-2.275,0-4.205,0.805-5.838,2.423C0.795,8.897,0,10.844,0,13.13
		c0,2.269,0.795,4.189,2.424,5.764c1.633,1.59,3.562,2.363,5.838,2.363c2.612,0,4.676-0.958,6.149-2.895l17.844,6.698l2.354,5.885
		c0.344,0.709,0.808,1.38,1.38,2.053c0.572,0.653,1.781,0.971,3.622,0.971h7.93v5.385H34.608c-0.699,0-1.266,0.557-1.266,1.253
		c0,0.694,0.567,1.25,1.266,1.25h38.979c0.394,0,0.72-0.207,0.921-0.505l4.666-4.702C79.66,36.162,79.66,35.373,79.174,34.87z
		 M64.644,13.788c1.129,0.328,2.118,0.891,2.946,1.628c0.834,0.751,1.601,1.903,2.315,3.478c0.16,0.53,0.383,1.103,0.652,1.711
		c0.248,0.596,0.518,1.253,0.776,1.963h-6.69V13.788z M6.75,15.229c0.642,0.43,1.326,0.779,2.038,1.028l2.628,1.056
		c-0.968,0.699-2.03,1.048-3.154,1.048c-1.491,0-2.762-0.502-3.818-1.499c-1.044-1.007-1.559-2.244-1.559-3.733
		c0-1.501,0.515-2.742,1.559-3.744C5.5,8.384,6.766,7.885,8.262,7.885c1.833,0,3.265,0.738,4.327,2.229H8.915
		c-0.865,0-1.618,0.249-2.227,0.79c-0.611,0.508-0.908,1.251-0.908,2.227C5.779,14.091,6.098,14.784,6.75,15.229z M55.463,13.389
		h5.903v9.052h-5.903V13.389z M46.417,13.516h5.773v9.052h-5.773V13.516z M49.617,33.97h9.466v5.385h-9.466V33.97z"/>
</g>
<g>
</g>
<g>
</g>
<g>
</g>
<g>
</g>
<g>
</g>
<g>
</g>
<g>
</g>
<g>
</g>
<g>
</g>
<g>
</g>
<g>
</g>
<g>
</g>
<g>
</g>
<g>
</g>
<g>
</g>
</svg>
