<?xml version="1.0" encoding="iso-8859-1"?>
<!-- Generator: Adobe Illustrator 16.0.0, SVG Export Plug-In . SVG Version: 6.00 Build 0)  -->
<!DOCTYPE svg PUBLIC "-//W3C//DTD SVG 1.1//EN" "http://www.w3.org/Graphics/SVG/1.1/DTD/svg11.dtd">
<svg version="1.1" id="Capa_1" xmlns="http://www.w3.org/2000/svg" xmlns:xlink="http://www.w3.org/1999/xlink" x="0px" y="0px"
	 width="106.048px" height="106.048px" viewBox="0 0 106.048 106.048" style="enable-background:new 0 0 106.048 106.048;"
	 xml:space="preserve">
<g>
	<path style="fill:#010002;" d="M84.838,0H21.209C9.543,0,0,9.543,0,21.209v63.629c0,11.666,9.543,21.21,21.209,21.21h63.628
		c11.667,0,21.21-9.544,21.21-21.21V21.209C106.048,9.543,96.505,0,84.838,0z M82.379,69.097c0,3.293-2.672,5.965-5.955,5.965
		c-3.293,0-5.965-2.672-5.965-5.965c0-3.283,2.672-5.955,5.965-5.955C79.707,63.142,82.379,65.813,82.379,69.097z M53.029,8.738
		c3.801,0,6.876,3.086,6.876,6.889c0,3.801-3.075,6.887-6.876,6.887s-6.887-3.086-6.887-6.887
		C46.142,11.824,49.229,8.738,53.029,8.738z M43.193,33.409c0-5.424,4.401-9.828,9.836-9.828c5.421,0,9.833,4.398,9.833,9.828v14.46
		H43.193V33.409z M29.088,55.059h23.405v-4.316h1.069v4.311h23.395v6.188h-1.066V56.12H53.562v5.121h-1.069V56.12H30.16v5.121
		h-1.072V55.059z M58.984,69.097c0,3.293-2.672,5.965-5.955,5.965c-3.293,0-5.965-2.672-5.965-5.965
		c0-3.283,2.672-5.955,5.965-5.955C56.312,63.142,58.984,65.813,58.984,69.097z M29.634,63.142c3.283,0,5.945,2.672,5.945,5.955
		c0,3.293-2.662,5.965-5.945,5.965c-3.293,0-5.965-2.672-5.965-5.965C23.669,65.813,26.341,63.142,29.634,63.142z M38.134,97.307
		H21.108V84.786c0-4.702,3.814-8.513,8.521-8.513c4.694,0,8.505,3.811,8.505,8.513V97.307z M61.537,97.307H44.508V84.786
		c0-4.702,3.811-8.513,8.521-8.513c4.696,0,8.508,3.811,8.508,8.513V97.307z M84.941,97.307H67.916V84.786
		c0-4.702,3.812-8.513,8.508-8.513c4.691,0,8.508,3.811,8.508,8.513v12.521H84.941z"/>
</g>
<g>
</g>
<g>
</g>
<g>
</g>
<g>
</g>
<g>
</g>
<g>
</g>
<g>
</g>
<g>
</g>
<g>
</g>
<g>
</g>
<g>
</g>
<g>
</g>
<g>
</g>
<g>
</g>
<g>
</g>
</svg>
