<?xml version="1.0" encoding="iso-8859-1"?>
<!-- Generator: Adobe Illustrator 16.0.0, SVG Export Plug-In . SVG Version: 6.00 Build 0)  -->
<!DOCTYPE svg PUBLIC "-//W3C//DTD SVG 1.1//EN" "http://www.w3.org/Graphics/SVG/1.1/DTD/svg11.dtd">
<svg version="1.1" id="Capa_1" xmlns="http://www.w3.org/2000/svg" xmlns:xlink="http://www.w3.org/1999/xlink" x="0px" y="0px"
	 width="106.048px" height="106.048px" viewBox="0 0 106.048 106.048" style="enable-background:new 0 0 106.048 106.048;"
	 xml:space="preserve">
<g>
	<path style="fill:#010002;" d="M84.838,0H21.209C9.543,0,0,9.543,0,21.209v63.629c0,11.666,9.543,21.21,21.209,21.21h63.628
		c11.667,0,21.21-9.544,21.21-21.21V21.209C106.048,9.543,96.505,0,84.838,0z M55.551,79.204h-7.441V63.137H33.57v16.067h-7.438
		V42.429h7.438v14.467h14.54V42.429h7.441V79.204L55.551,79.204z M66.135,42.429L40.84,29.856L15.547,42.429l-2.292-4.608
		l27.556-13.702v-0.031h0.028h0.026v0.031l27.558,13.702L66.135,42.429z M92.792,37.673c-0.938,0.249-1.776,0.35-2.558,0.35
		c-0.503,0-1.129-0.062-1.834-0.228c-0.756-0.187-1.512-0.381-2.382-0.652c-0.828-0.238-1.651-0.445-2.413-0.643
		c-0.761-0.163-1.408-0.248-1.905-0.248c-0.259,0-0.657,0.064-1.212,0.196c-0.554,0.122-1.129,0.293-1.719,0.497
		c-0.601,0.218-1.129,0.415-1.61,0.601c-0.347,0.122-0.596,0.153-0.823,0.186v44.222h-2.393V25.663h2.393v1.835
		c1.947-0.769,3.78-1.193,5.499-1.193c0.518,0,1.118,0.096,1.849,0.271c0.72,0.163,1.507,0.36,2.335,0.619
		c0.87,0.259,1.637,0.489,2.382,0.642c0.705,0.176,1.331,0.259,1.834,0.259c0.952,0,1.791-0.173,2.558-0.507V37.673z"/>
</g>
<g>
</g>
<g>
</g>
<g>
</g>
<g>
</g>
<g>
</g>
<g>
</g>
<g>
</g>
<g>
</g>
<g>
</g>
<g>
</g>
<g>
</g>
<g>
</g>
<g>
</g>
<g>
</g>
<g>
</g>
</svg>
