<?xml version="1.0" encoding="iso-8859-1"?>
<!-- Generator: Adobe Illustrator 16.0.0, SVG Export Plug-In . SVG Version: 6.00 Build 0)  -->
<!DOCTYPE svg PUBLIC "-//W3C//DTD SVG 1.1//EN" "http://www.w3.org/Graphics/SVG/1.1/DTD/svg11.dtd">
<svg version="1.1" id="Capa_1" xmlns="http://www.w3.org/2000/svg" xmlns:xlink="http://www.w3.org/1999/xlink" x="0px" y="0px"
	 width="106.048px" height="106.048px" viewBox="0 0 106.048 106.048" style="enable-background:new 0 0 106.048 106.048;"
	 xml:space="preserve">
<g>
	<path style="fill:#010002;" d="M106.048,99.42H0v-10.6c1.686-0.347,6.915-3.453,10.604-10.609
		c4.842-9.394,10.605-2.651,10.605-2.651c-4.58,0.403-3.472,5.427-2.651,7.953c0.986,3.024,3.627,4.899,5.302,5.308h2.646
		c1.701-0.347,4.274-3.453,7.958-10.609c4.847-9.394,10.6-2.651,10.6-2.651c-4.569,0.403-3.479,5.427-2.646,7.953
		c0.981,3.024,3.622,4.899,5.303,5.308h2.651c1.695-0.347,4.267-3.453,7.953-10.609c4.847-9.394,10.604-2.651,10.604-2.651
		c-4.566,0.403-3.479,5.427-2.65,7.953c0.983,3.024,3.624,4.899,5.302,5.308h2.651c1.688-0.347,6.938-3.453,10.604-10.609
		c4.862-9.394,10.605-2.651,10.605-2.651c-4.567,0.403-3.48,5.427-2.651,7.953c0.983,3.024,3.624,4.899,5.308,5.308h7.948V99.42z
		 M90.141,57.001V41.477V27.838l2.651,2.651l2.651-2.651L70.262,6.628l-25.197,21.21l2.657,2.651l2.651-2.651v29.163h-2.651
		c-1.681-0.403-4.321-2.278-5.303-5.302c-0.833-2.53-1.923-7.55,2.646-7.954c0,0-5.752-6.739-10.6,2.651
		c-3.684,7.158-6.257,10.263-7.958,10.604h-2.646c-1.675-0.403-4.316-2.278-5.302-5.302c-0.821-2.53-1.929-7.55,2.651-7.954
		c0,0-5.763-6.739-10.605,2.651C6.915,53.555,1.686,56.659,0,57.001v15.907c1.686-0.342,6.915-3.438,10.604-10.604
		c4.842-9.391,10.605-2.651,10.605-2.651c-4.58,0.404-3.472,5.427-2.651,7.953c0.986,3.024,3.627,4.904,5.302,5.303h2.646
		c1.701-0.342,4.274-3.438,7.958-10.604c4.847-9.391,10.6-2.651,10.6-2.651c-4.569,0.404-3.479,5.427-2.646,7.953
		c0.981,3.024,3.622,4.904,5.303,5.303h2.651c1.695-0.342,4.267-3.438,7.953-10.604c4.847-9.391,10.604-2.651,10.604-2.651
		c-4.566,0.404-3.479,5.427-2.65,7.953c0.983,3.024,3.624,4.904,5.302,5.303h2.651c1.688-0.342,6.938-3.438,10.604-10.604
		c4.862-9.391,10.605-2.651,10.605-2.651c-4.567,0.404-3.48,5.427-2.651,7.953c0.983,3.024,3.624,4.904,5.308,5.303h7.948V57.001
		H90.141z"/>
</g>
<g>
</g>
<g>
</g>
<g>
</g>
<g>
</g>
<g>
</g>
<g>
</g>
<g>
</g>
<g>
</g>
<g>
</g>
<g>
</g>
<g>
</g>
<g>
</g>
<g>
</g>
<g>
</g>
<g>
</g>
</svg>
