<?xml version="1.0" encoding="iso-8859-1"?>
<!-- Generator: Adobe Illustrator 16.0.0, SVG Export Plug-In . SVG Version: 6.00 Build 0)  -->
<!DOCTYPE svg PUBLIC "-//W3C//DTD SVG 1.1//EN" "http://www.w3.org/Graphics/SVG/1.1/DTD/svg11.dtd">
<svg version="1.1" id="Capa_1" xmlns="http://www.w3.org/2000/svg" xmlns:xlink="http://www.w3.org/1999/xlink" x="0px" y="0px"
	 width="106.048px" height="106.048px" viewBox="0 0 106.048 106.048" style="enable-background:new 0 0 106.048 106.048;"
	 xml:space="preserve">
<g>
	<path style="fill:#010002;" d="M84.838,0H21.209C9.543,0,0,9.543,0,21.209v63.629c0,11.666,9.543,21.21,21.209,21.21h63.628
		c11.667,0,21.21-9.544,21.21-21.21V21.209C106.048,9.543,96.505,0,84.838,0z M100.745,84.838c0,0.456-0.104,0.881-0.134,1.326H98.1
		c-1.684-0.399-4.324-2.279-5.308-5.303c-0.829-2.527-1.916-7.55,2.651-7.953c0,0-5.743-6.742-10.605,2.65
		c-3.666,7.167-8.916,10.264-10.604,10.605h-2.651c-1.678-0.399-4.318-2.279-5.302-5.303c-0.829-2.527-1.916-7.55,2.65-7.953
		c0,0-5.758-6.742-10.604,2.65c-3.687,7.167-6.258,10.264-7.953,10.605h-2.651c-1.681-0.399-4.321-2.279-5.303-5.303
		c-0.833-2.527-1.923-7.55,2.646-7.953c0,0-5.752-6.742-10.6,2.65c-3.684,7.167-6.257,10.264-7.958,10.605h-2.646
		c-1.675-0.399-4.316-2.279-5.302-5.303c-0.821-2.527-1.929-7.55,2.651-7.953c0,0-5.763-6.742-10.605,2.65
		c-1.618,3.139-3.521,5.458-5.302,7.146V66.797c1.781-1.688,3.684-4.008,5.302-7.146C15.446,50.261,21.209,57,21.209,57
		c-4.58,0.404-3.472,5.428-2.651,7.954c0.986,3.024,3.627,4.898,5.302,5.302h2.646c1.701-0.341,4.274-3.448,7.958-10.604
		c4.847-9.39,10.6-2.651,10.6-2.651c-4.569,0.404-3.479,5.428-2.646,7.954c0.981,3.024,3.622,4.898,5.303,5.302h2.651V41.093
		l-2.651,2.651l-2.657-2.651l25.197-21.209l25.182,21.209l-2.651,2.651l-2.651-2.651v13.639v15.523h10.604V84.838z"/>
</g>
<g>
</g>
<g>
</g>
<g>
</g>
<g>
</g>
<g>
</g>
<g>
</g>
<g>
</g>
<g>
</g>
<g>
</g>
<g>
</g>
<g>
</g>
<g>
</g>
<g>
</g>
<g>
</g>
<g>
</g>
</svg>
