<?xml version="1.0" encoding="iso-8859-1"?>
<!-- Generator: Adobe Illustrator 16.0.0, SVG Export Plug-In . SVG Version: 6.00 Build 0)  -->
<!DOCTYPE svg PUBLIC "-//W3C//DTD SVG 1.1//EN" "http://www.w3.org/Graphics/SVG/1.1/DTD/svg11.dtd">
<svg version="1.1" id="Capa_1" xmlns="http://www.w3.org/2000/svg" xmlns:xlink="http://www.w3.org/1999/xlink" x="0px" y="0px"
	 width="106.048px" height="106.048px" viewBox="0 0 106.048 106.048" style="enable-background:new 0 0 106.048 106.048;"
	 xml:space="preserve">
<g>
	<path style="fill:#010002;" d="M84.838,0H21.209C9.543,0,0,9.543,0,21.209v63.629c0,11.666,9.543,21.21,21.209,21.21h63.628
		c11.667,0,21.21-9.544,21.21-21.21V21.209C106.048,9.543,96.505,0,84.838,0z M82.85,57.994V87.82H57.995V67.937h-9.944V87.82
		H23.198V57.994h-9.942l6.81-6.806c-5.575-2.793-9.461-8.505-9.461-15.128v-8.492c0-9.329,7.635-16.964,16.964-16.964h8.492
		c6.623,0,12.334,3.886,15.123,9.46l1.84-1.835l39.769,39.765H82.85z M36.061,12.725h-8.492c-8.184,0-14.843,6.662-14.843,14.844
		v8.492c0,8.182,6.659,14.843,14.843,14.843h8.492c8.184,0,14.843-6.662,14.843-14.843v-8.492
		C50.903,19.387,44.244,12.725,36.061,12.725z M44.19,40.441l-3.749,3.749l-8.626-8.626l-8.627,8.626l-3.749-3.749l8.627-8.626
		l-8.627-8.627l3.749-3.749l8.627,8.627l8.626-8.627l3.749,3.749l-8.626,8.627L44.19,40.441z"/>
</g>
<g>
</g>
<g>
</g>
<g>
</g>
<g>
</g>
<g>
</g>
<g>
</g>
<g>
</g>
<g>
</g>
<g>
</g>
<g>
</g>
<g>
</g>
<g>
</g>
<g>
</g>
<g>
</g>
<g>
</g>
</svg>
