<?xml version="1.0" encoding="iso-8859-1"?>
<!-- Generator: Adobe Illustrator 16.0.0, SVG Export Plug-In . SVG Version: 6.00 Build 0)  -->
<!DOCTYPE svg PUBLIC "-//W3C//DTD SVG 1.1//EN" "http://www.w3.org/Graphics/SVG/1.1/DTD/svg11.dtd">
<svg version="1.1" id="Capa_1" xmlns="http://www.w3.org/2000/svg" xmlns:xlink="http://www.w3.org/1999/xlink" x="0px" y="0px"
	 width="79.536px" height="79.536px" viewBox="0 0 79.536 79.536" style="enable-background:new 0 0 79.536 79.536;"
	 xml:space="preserve">
<g>
	<path style="fill:#010002;" d="M70.477,0c-2.341,0-4.262,1.913-4.262,4.27v17.37c1.035,0.223,2.014,0.663,2.807,1.432
		c2.258,2.211,2.314,5.854,0.108,8.116l-8.078,8.312l-1.107-1.077l8.099-8.283c1.615-1.675,1.574-4.347-0.078-5.981
		c-0.523-0.494-1.134-0.839-1.792-1.025c-0.698-0.194-1.434-0.205-2.128-0.062c-0.787,0.196-1.491,0.593-2.04,1.178
		c-4.795,4.925-9.601,9.847-14.396,14.771c-1.201,1.235-3.396,4.058-3.334,6.874c0.057,2.646-0.031,5.375,0.016,8.031
		c-0.632-0.513-1.383-0.891-2.253-1.035c-2.473-0.414-4.699,1.057-5.554,3.257h-1.256c0-0.596,0-1.206,0.011-1.808
		c0.062-2.785-0.049-5.664,0.021-8.445c0.065-2.816-2.136-5.639-3.334-6.874c-4.805-4.924-9.598-9.846-14.403-14.775
		c-0.552-0.58-1.256-0.977-2.041-1.173c-0.699-0.147-1.426-0.138-2.125,0.057c-0.658,0.187-1.274,0.536-1.794,1.03
		c-1.654,1.626-1.69,4.301-0.072,5.981l8.091,8.283l-1.103,1.077l-8.075-8.312c-2.211-2.268-2.154-5.905,0.106-8.116
		c0.79-0.769,1.771-1.209,2.804-1.432V4.27c0-2.356-1.914-4.27-4.262-4.27C6.685,0,4.777,1.913,4.777,4.27v30.08
		c0,0.981,0.388,1.877,0.976,2.607l14.527,19.19h-1.276c-2.832,0-5.139,2.304-5.139,5.142c0,1.885,1.067,3.459,2.584,4.35
		c-1.517,0.901-2.584,2.476-2.584,4.36c0,2.837,2.307,5.137,5.139,5.137h1.564v2.874h14.263c0.738,0.72,1.613,1.278,2.661,1.455
		c0.293,0.046,0.572,0.072,0.865,0.072c2.504,0,4.635-1.797,5.059-4.267l0.021-0.135h0.911c0.01,0.952,0.005,1.885,0.104,2.874
		h14.52v-2.874h1.563c2.827,0,5.137-2.3,5.137-5.137c0-1.885-1.066-3.459-2.584-4.36c1.518-0.891,2.584-2.465,2.584-4.35
		c0-2.838-2.31-5.142-5.137-5.142H59.25l14.53-19.19c0.59-0.73,0.979-1.626,0.979-2.607V4.27C74.754,1.913,72.843,0,70.477,0z
		 M16.438,61.288c0-1.419,1.149-2.568,2.565-2.568h16.834l-0.886,5.137H19.003C17.587,63.852,16.438,62.702,16.438,61.288z
		 M16.438,69.998c0-1.419,1.149-2.568,2.565-2.568h15.33l-0.886,5.137H19.003C17.587,72.566,16.438,71.411,16.438,69.998z
		 M40.881,74.824c-0.238,1.403-1.704,2.319-2.97,2.103c-0.679-0.114-1.269-0.492-1.66-1.047c-0.399-0.559-0.551-1.242-0.435-1.916
		l2.832-16.445c0.218-1.237,1.293-2.133,2.566-2.133c0.137,0,0.279,0.01,0.404,0.03c1.397,0.238,2.335,1.569,2.092,2.968
		L40.881,74.824z M63.098,69.998c0,1.413-1.149,2.568-2.563,2.568H43.882l0.885-5.142h15.768
		C61.943,67.43,63.098,68.589,63.098,69.998z M63.098,61.288c0,1.419-1.149,2.563-2.563,2.563H45.378l0.864-5.033
		c0.011-0.036,0-0.067,0-0.104h14.281C61.943,58.715,63.098,59.869,63.098,61.288z"/>
</g>
<g>
</g>
<g>
</g>
<g>
</g>
<g>
</g>
<g>
</g>
<g>
</g>
<g>
</g>
<g>
</g>
<g>
</g>
<g>
</g>
<g>
</g>
<g>
</g>
<g>
</g>
<g>
</g>
<g>
</g>
</svg>
