<?xml version="1.0" encoding="iso-8859-1"?>
<!-- Generator: Adobe Illustrator 16.0.0, SVG Export Plug-In . SVG Version: 6.00 Build 0)  -->
<!DOCTYPE svg PUBLIC "-//W3C//DTD SVG 1.1//EN" "http://www.w3.org/Graphics/SVG/1.1/DTD/svg11.dtd">
<svg version="1.1" id="Capa_1" xmlns="http://www.w3.org/2000/svg" xmlns:xlink="http://www.w3.org/1999/xlink" x="0px" y="0px"
	 width="106.048px" height="106.048px" viewBox="0 0 106.048 106.048" style="enable-background:new 0 0 106.048 106.048;"
	 xml:space="preserve">
<g>
	<path style="fill:#010002;" d="M84.838,0H21.209C9.543,0,0,9.543,0,21.209v63.629c0,11.666,9.543,21.21,21.209,21.21h63.628
		c11.667,0,21.21-9.544,21.21-21.21V21.209C106.048,9.543,96.505,0,84.838,0z M68.755,83.761
		c-9.507-8.911-13.784-19.355-13.784-19.355h-0.155c0,0-4.406,10.843-14.188,19.355H13.256l39.03-55.432l-2.926-3.774l2.905-2.269
		l2.358,3.027v-0.016l0.016,0.016l2.361-3.027l2.91,2.269l-2.926,3.764l35.807,55.375L68.755,83.761z"/>
</g>
<g>
</g>
<g>
</g>
<g>
</g>
<g>
</g>
<g>
</g>
<g>
</g>
<g>
</g>
<g>
</g>
<g>
</g>
<g>
</g>
<g>
</g>
<g>
</g>
<g>
</g>
<g>
</g>
<g>
</g>
</svg>
