<?xml version="1.0" encoding="iso-8859-1"?>
<!-- Generator: Adobe Illustrator 16.0.0, SVG Export Plug-In . SVG Version: 6.00 Build 0)  -->
<!DOCTYPE svg PUBLIC "-//W3C//DTD SVG 1.1//EN" "http://www.w3.org/Graphics/SVG/1.1/DTD/svg11.dtd">
<svg version="1.1" id="Capa_1" xmlns="http://www.w3.org/2000/svg" xmlns:xlink="http://www.w3.org/1999/xlink" x="0px" y="0px"
	 width="106.048px" height="106.048px" viewBox="0 0 106.048 106.048" style="enable-background:new 0 0 106.048 106.048;"
	 xml:space="preserve">
<g>
	<path style="fill:#010002;" d="M84.838,0H21.209C9.543,0,0,9.543,0,21.209v63.629c0,11.666,9.543,21.21,21.209,21.21h63.628
		c11.667,0,21.21-9.544,21.21-21.21V21.209C106.048,9.543,96.505,0,84.838,0z M18.628,83.885h-5.372l2.683-4.66l2.689-4.649
		l2.688,4.649l2.683,4.66H18.628z M35.822,83.885h-5.37l2.687-4.66l2.683-4.649l2.69,4.649l2.688,4.66H35.822z M53.023,83.885
		h-5.377l2.689-4.66l2.688-4.649l2.683,4.649l2.692,4.66H53.023z M54.525,53.008h-0.113c0,0-3.229,7.949-10.398,14.184H23.957
		l28.612-40.61l-2.154-2.768l2.123-1.655l1.74,2.217l1.729-2.217l2.133,1.655l-2.144,2.762l26.228,40.558l-17.601,0.052
		C57.653,60.656,54.525,53.008,54.525,53.008z M70.221,83.885h-5.37l2.683-4.66l2.688-4.649l2.688,4.649l2.682,4.66H70.221z
		 M87.417,83.885h-5.375l2.692-4.66l2.683-4.649l2.688,4.649l2.688,4.66H87.417z"/>
</g>
<g>
</g>
<g>
</g>
<g>
</g>
<g>
</g>
<g>
</g>
<g>
</g>
<g>
</g>
<g>
</g>
<g>
</g>
<g>
</g>
<g>
</g>
<g>
</g>
<g>
</g>
<g>
</g>
<g>
</g>
</svg>
