<?xml version="1.0" encoding="iso-8859-1"?>
<!-- Generator: Adobe Illustrator 16.0.0, SVG Export Plug-In . SVG Version: 6.00 Build 0)  -->
<!DOCTYPE svg PUBLIC "-//W3C//DTD SVG 1.1//EN" "http://www.w3.org/Graphics/SVG/1.1/DTD/svg11.dtd">
<svg version="1.1" id="Capa_1" xmlns="http://www.w3.org/2000/svg" xmlns:xlink="http://www.w3.org/1999/xlink" x="0px" y="0px"
	 width="106.048px" height="106.048px" viewBox="0 0 106.048 106.048" style="enable-background:new 0 0 106.048 106.048;"
	 xml:space="preserve">
<g>
	<path style="fill:#010002;" d="M84.838,0H21.209C9.543,0,0,9.543,0,21.209v63.629c0,11.666,9.543,21.21,21.209,21.21h63.628
		c11.667,0,21.21-9.544,21.21-21.21V21.209C106.048,9.543,96.505,0,84.838,0z M74.726,54.277L63.939,43.485l15.581-5.748
		C80.603,43.118,78.945,49.28,74.726,54.277z M75.693,30.346c1.471,1.462,2.512,3.213,3.205,5.105l-13.157,4.857l4.857-13.16
		C72.483,27.837,74.233,28.87,75.693,30.346z M68.305,26.527l-5.753,15.573L51.769,31.312C56.758,27.094,62.919,25.44,68.305,26.527
		z M32.948,51.071l-3.801-0.642l-7.503,7.803l-6.517,0.881c-0.536,0.083-1.038-0.114-1.396-0.466
		c-0.249-0.249-0.417-0.569-0.466-0.948c-0.126-0.906,0.51-1.734,1.411-1.858l5.388-0.735l8.945-9.246l8.855-0.826
		c0.997-1.119,1.988-2.201,2.985-3.236l-3.576-4.585l-6.553,4.363l-6.607,0.732c-0.513,0.06-1.007-0.132-1.346-0.471
		c-0.259-0.261-0.43-0.601-0.476-0.987c-0.096-0.911,0.557-1.724,1.462-1.83l6.178-0.688l7.816-5.505l6.271,5.748
		c0.51-0.502,1-0.976,1.486-1.437l1.087-7.667l9.088-9.09l1.366-5.852c0.202-0.891,1.098-1.444,1.983-1.232
		c0.891,0.207,1.439,1.098,1.232,1.983l-1.574,6.773L50.5,30.235l-0.604,2.687l10.771,10.781L27.636,76.739
		C22.991,68.589,26.932,59.279,32.948,51.071z M91.513,48.995l-5.856,1.362l-9.082,9.092l-7.669,1.088
		c-0.472,0.486-0.938,0.979-1.444,1.486l5.758,6.271l-5.51,7.813l-0.693,6.184c-0.099,0.9-0.912,1.563-1.828,1.454
		c-0.378-0.041-0.72-0.212-0.979-0.471c-0.348-0.342-0.539-0.834-0.477-1.352l0.735-6.607l4.359-6.55l-4.587-3.573
		c-1.036,0.994-2.113,1.978-3.231,2.972L60.18,77.04l-9.245,8.942l-0.732,5.38c-0.122,0.911-0.958,1.543-1.859,1.419
		c-0.373-0.052-0.701-0.218-0.95-0.466c-0.344-0.353-0.546-0.859-0.466-1.398l0.886-6.514l7.79-7.503l-0.652-3.868
		c-7.972,5.737-17,9.372-25.054,4.779l32.438-32.438l10.775,10.773l2.693-0.606l8.182-8.184l6.768-1.577
		c0.891-0.207,1.781,0.342,1.988,1.232C92.947,47.897,92.398,48.788,91.513,48.995z"/>
</g>
<g>
</g>
<g>
</g>
<g>
</g>
<g>
</g>
<g>
</g>
<g>
</g>
<g>
</g>
<g>
</g>
<g>
</g>
<g>
</g>
<g>
</g>
<g>
</g>
<g>
</g>
<g>
</g>
<g>
</g>
</svg>
