<?xml version="1.0" encoding="iso-8859-1"?>
<!-- Generator: Adobe Illustrator 16.0.0, SVG Export Plug-In . SVG Version: 6.00 Build 0)  -->
<!DOCTYPE svg PUBLIC "-//W3C//DTD SVG 1.1//EN" "http://www.w3.org/Graphics/SVG/1.1/DTD/svg11.dtd">
<svg version="1.1" id="Capa_1" xmlns="http://www.w3.org/2000/svg" xmlns:xlink="http://www.w3.org/1999/xlink" x="0px" y="0px"
	 width="106.048px" height="106.048px" viewBox="0 0 106.048 106.048" style="enable-background:new 0 0 106.048 106.048;"
	 xml:space="preserve">
<g>
	<path style="fill:#010002;" d="M84.838,0H21.209C9.543,0,0,9.543,0,21.209v63.629c0,11.666,9.543,21.21,21.209,21.21h63.628
		c11.667,0,21.21-9.544,21.21-21.21V21.209C106.048,9.543,96.505,0,84.838,0z M49.312,26.703V13.261h7.44v13.453h3.998
		l-7.716,13.362l-7.721-13.362L49.312,26.703z M26.719,60.744v-4.008H13.256l0.005-7.436h13.458l-0.005-3.998l13.367,7.726
		L26.719,60.744z M56.752,79.344v13.442h-7.446V79.344h-3.992l7.721-13.364l7.716,13.354L56.752,79.344z M53.045,61.666
		c-4.782,0-8.648-3.868-8.648-8.647c0-4.771,3.866-8.627,8.648-8.627c4.764,0,8.627,3.855,8.627,8.627
		C61.672,57.798,57.809,61.666,53.045,61.666z M92.792,56.736l-13.448,0.011v3.987l-13.364-7.706l13.364-7.715v3.987h13.448V56.736z
		"/>
</g>
<g>
</g>
<g>
</g>
<g>
</g>
<g>
</g>
<g>
</g>
<g>
</g>
<g>
</g>
<g>
</g>
<g>
</g>
<g>
</g>
<g>
</g>
<g>
</g>
<g>
</g>
<g>
</g>
<g>
</g>
</svg>
