<?xml version="1.0" encoding="iso-8859-1"?>
<!-- Generator: Adobe Illustrator 16.0.0, SVG Export Plug-In . SVG Version: 6.00 Build 0)  -->
<!DOCTYPE svg PUBLIC "-//W3C//DTD SVG 1.1//EN" "http://www.w3.org/Graphics/SVG/1.1/DTD/svg11.dtd">
<svg version="1.1" id="Capa_1" xmlns="http://www.w3.org/2000/svg" xmlns:xlink="http://www.w3.org/1999/xlink" x="0px" y="0px"
	 width="106.048px" height="106.048px" viewBox="0 0 106.048 106.048" style="enable-background:new 0 0 106.048 106.048;"
	 xml:space="preserve">
<g>
	<path style="fill:#010002;" d="M84.838,0H21.209C9.543,0,0,9.543,0,21.209v63.629c0,11.666,9.543,21.21,21.209,21.21h63.628
		c11.667,0,21.21-9.544,21.21-21.21V21.209C106.048,9.543,96.505,0,84.838,0z M71.872,92.792h-41.56V72.426h41.56V92.792z
		 M75.27,56.498c-2.413,3.107-5.447,5.634-9.072,7.617c-3.185,1.74-6.545,2.744-10.118,2.962c-3.542,0.228-7.001-0.166-10.336-1.186
		c-3.313-1.041-6.369-2.636-9.137-4.842c-2.757-2.206-4.979-4.935-6.638-8.197c-1.75-3.345-2.762-6.807-3.076-10.413
		c-0.29-3.609,0.054-7.062,1.087-10.346c1.03-3.301,2.672-6.341,4.942-9.108s5.064-5.064,8.399-6.887
		c4.704-2.434,10.255-3.299,16.694-2.62l-8.513,2.397c-2.954,1.579-5.419,3.594-7.376,6.022c-1.978,2.428-3.392,5.09-4.261,7.958
		c-0.87,2.89-1.184,5.87-0.912,8.94c0.259,3.061,1.149,6.051,2.672,8.93c1.509,2.89,3.446,5.318,5.779,7.296
		c2.349,1.968,4.942,3.387,7.791,4.267c2.832,0.859,5.768,1.186,8.787,0.963c3.034-0.228,5.985-1.098,8.875-2.619l7.368-5.803
		C76.874,54.334,75.88,55.887,75.27,56.498z M72.317,34.408l2.724,7.635l-6.473-4.557l-6.462,4.562l2.609-7.635l-6.576-4.658h8.058
		l2.371-7.18l2.724,7.18h7.97L72.317,34.408z"/>
</g>
<g>
</g>
<g>
</g>
<g>
</g>
<g>
</g>
<g>
</g>
<g>
</g>
<g>
</g>
<g>
</g>
<g>
</g>
<g>
</g>
<g>
</g>
<g>
</g>
<g>
</g>
<g>
</g>
<g>
</g>
</svg>
