<?xml version="1.0" encoding="iso-8859-1"?>
<!-- Generator: Adobe Illustrator 16.0.0, SVG Export Plug-In . SVG Version: 6.00 Build 0)  -->
<!DOCTYPE svg PUBLIC "-//W3C//DTD SVG 1.1//EN" "http://www.w3.org/Graphics/SVG/1.1/DTD/svg11.dtd">
<svg version="1.1" id="Capa_1" xmlns="http://www.w3.org/2000/svg" xmlns:xlink="http://www.w3.org/1999/xlink" x="0px" y="0px"
	 width="106.048px" height="106.048px" viewBox="0 0 106.048 106.048" style="enable-background:new 0 0 106.048 106.048;"
	 xml:space="preserve">
<g>
	<path style="fill:#010002;" d="M83.088,77.63h-0.787v-9.579h0.787c1.367,0,2.517,0.461,3.449,1.383
		c0.916,0.937,1.372,2.092,1.372,3.443c0,1.314-0.456,2.434-1.372,3.355C85.604,77.164,84.455,77.63,83.088,77.63z M106.048,21.209
		v63.629c0,11.666-9.543,21.21-21.21,21.21H21.209C9.543,106.048,0,96.504,0,84.838V21.209C0,9.543,9.543,0,21.209,0h63.628
		C96.505,0,106.048,9.543,106.048,21.209z M41.205,61.723H19.273l4.36,30.381H36.48L41.205,61.723z M92.326,87.754H49.635
		c0,1.314,0.45,2.402,1.354,3.267c0.896,0.875,2.004,1.315,3.319,1.315h33.357c1.32,0,2.423-0.44,3.324-1.315
		C91.881,90.156,92.326,89.068,92.326,87.754z M57.663,85.377c0.767,0.734,1.688,1.107,2.797,1.107h17.885
		c1.108,0,2.04-0.373,2.796-1.107c0.777-0.74,1.16-1.688,1.16-2.849v-1.739h0.782c1.108,0,2.144-0.207,3.128-0.632
		c0.968-0.42,1.817-0.994,2.521-1.704c0.725-0.709,1.284-1.532,1.709-2.475c0.424-0.958,0.626-1.988,0.626-3.097
		s-0.202-2.139-0.626-3.128c-0.425-0.979-0.989-1.817-1.709-2.521c-0.704-0.715-1.554-1.284-2.521-1.698
		c-0.984-0.435-2.02-0.637-3.128-0.637H56.514v17.631C56.52,83.684,56.897,84.637,57.663,85.377z M92.792,34.651
		c-0.005-11.575-9.372-20.95-20.945-20.94c-10.698-0.01-19.434,8.065-20.679,18.442H40.234c-0.684-0.759-1.66-1.256-2.762-1.256
		H17.005c-2.079,0-3.749,1.681-3.749,3.754c0,2.071,1.67,3.739,3.749,3.739h20.467c1.103,0,2.079-0.495,2.762-1.248h10.934
		c1.24,10.372,9.985,18.439,20.679,18.439C83.42,55.582,92.792,46.214,92.792,34.651z M84.362,22.646
		c3.081,3.086,4.991,7.345,4.991,12.042s-1.9,8.951-4.991,12.042c-3.071,3.071-7.333,4.979-12.045,4.989
		c-4.712,0-8.968-1.918-12.039-4.989c-3.081-3.081-4.991-7.35-4.991-12.052c0-4.691,1.916-8.95,4.991-12.037
		c3.092-3.076,7.348-4.984,12.05-4.984C77.02,17.657,81.281,19.565,84.362,22.646z M87.479,34.693c0-4.189-1.688-7.975-4.443-10.716
		c-2.744-2.757-6.524-4.443-10.719-4.443c-4.184,0-7.964,1.675-10.714,4.443c-2.749,2.742-4.447,6.517-4.447,10.716
		c0,4.189,1.688,7.974,4.447,10.716c2.75,2.742,6.53,4.433,10.725,4.433c4.184-0.011,7.975-1.69,10.713-4.433
		C85.802,42.657,87.489,38.882,87.479,34.693z"/>
</g>
<g>
</g>
<g>
</g>
<g>
</g>
<g>
</g>
<g>
</g>
<g>
</g>
<g>
</g>
<g>
</g>
<g>
</g>
<g>
</g>
<g>
</g>
<g>
</g>
<g>
</g>
<g>
</g>
<g>
</g>
</svg>
