<?xml version="1.0" encoding="iso-8859-1"?>
<!-- Generator: Adobe Illustrator 16.0.0, SVG Export Plug-In . SVG Version: 6.00 Build 0)  -->
<!DOCTYPE svg PUBLIC "-//W3C//DTD SVG 1.1//EN" "http://www.w3.org/Graphics/SVG/1.1/DTD/svg11.dtd">
<svg version="1.1" id="Capa_1" xmlns="http://www.w3.org/2000/svg" xmlns:xlink="http://www.w3.org/1999/xlink" x="0px" y="0px"
	 width="79.536px" height="79.536px" viewBox="0 0 79.536 79.536" style="enable-background:new 0 0 79.536 79.536;"
	 xml:space="preserve">
<g>
	<path style="fill:#010002;" d="M68.175,9.238c0-0.435-0.383-0.769-1.159-0.976l-1.657-0.588c-1.869-0.717-3.024-1.066-3.454-1.066
		c-0.067,0-0.388,0.072-0.999,0.249c-0.611,0.161-1.533,0.451-2.807,0.901c-0.104,0.049-0.818,0.197-2.144,0.445
		c-1.32,0.254-3.31,0.652-5.95,1.209L23.833,0.08C23.783,0.026,23.6,0,23.26,0c-0.935,0-1.735,0.44-2.403,1.32l16.682,10.227
		l-5.611,1.083l-4.867-3.871L25.735,9.01v3.053l-5.621-2.146l-1.069,0.658l4.956,4.368v0.246c0,0.767,0.52,1.155,1.566,1.155
		l2.491,3.055l1.23-0.409l0.414-2.227H42.74l2.734,2.061v6.607h2.475l5.044-10.9c1.688-0.272,3.484-0.622,5.354-1.031
		c1.875-0.424,3.874-0.849,6.027-1.276c0.384-0.165,0.787-0.378,1.232-0.626c0.445-0.244,0.86-0.51,1.248-0.779
		c0.378-0.27,0.689-0.552,0.938-0.829C68.051,9.714,68.175,9.466,68.175,9.238z M58.171,65.555h-0.715v-1.843
		c0-3.335-0.196-6.4-0.61-9.196c-0.011-0.042-0.016-0.083-0.031-0.13V35.827h-1.108v-4.311h-1.471v4.311h-1.113v12.671
		c-0.259-0.171-0.533-0.331-0.812-0.486V35.048c0-1.059-5.044-4.336-17.14-4.336c-12.106,0-17.01,3.283-17.01,4.336V48.11
		c-2.351,1.289-3.798,3.428-4.35,6.405c-0.414,2.785-0.608,5.856-0.608,9.196v1.843h-0.717c-0.753,0-1.124,1.015-1.124,3.056
		c0,1.978,0.37,2.967,1.124,2.967h4.699v0.911c0,1.372,0.052,2.491,0.153,3.371s0.223,1.595,0.36,2.144
		c0.611,1.025,1.735,1.533,3.368,1.533c1.559,0,2.657-0.508,3.271-1.533c0.398-0.818,0.611-2.454,0.611-4.888v-1.538h20.756v1.538
		c0,2.434,0.207,4.069,0.616,4.888c0.616,1.025,1.709,1.533,3.272,1.533c1.631,0,2.76-0.508,3.371-1.533
		c0.129-0.549,0.259-1.264,0.357-2.144s0.15-1.999,0.15-3.371v-0.911h4.701c0.746,0,1.124-0.989,1.124-2.967
		C59.295,66.569,58.917,65.555,58.171,65.555z M21.88,61.904c-1.686,0-3.053-1.367-3.053-3.05c0-1.688,1.367-3.055,3.053-3.055
		c1.68,0,3.055,1.372,3.055,3.055C24.936,60.532,23.565,61.904,21.88,61.904z M23.742,48.28c-1.048,0-1.918-0.859-1.918-1.921
		v-4.339c0-1.069,0.769-2.009,1.918-2.54c0,0,4.681-1.605,11.591-1.605c6.897,0,11.606,1.605,11.606,1.605
		c1.513,0.754,1.911,2.048,1.911,3.115v3.764c0,1.062-0.854,1.921-1.911,1.921H23.742z M43.361,62.376H27.294
		c-0.295,0-0.546-0.249-0.546-0.549c0-0.301,0.251-0.539,0.546-0.539h16.067c0.296,0,0.539,0.238,0.539,0.539
		C43.9,62.127,43.657,62.376,43.361,62.376z M43.361,59.3H27.294c-0.295,0-0.546-0.238-0.546-0.539c0-0.3,0.251-0.549,0.546-0.549
		h16.067c0.296,0,0.539,0.249,0.539,0.549C43.9,59.062,43.657,59.3,43.361,59.3z M43.361,56.234H27.294
		c-0.295,0-0.546-0.238-0.546-0.544c0-0.295,0.251-0.543,0.546-0.543h16.067c0.296,0,0.539,0.248,0.539,0.543
		C43.9,55.996,43.657,56.234,43.361,56.234z M48.747,61.904c-1.678,0-3.045-1.367-3.045-3.05c0-1.688,1.367-3.055,3.045-3.055
		c1.683,0,3.05,1.372,3.05,3.055C51.797,60.532,50.43,61.904,48.747,61.904z"/>
</g>
<g>
</g>
<g>
</g>
<g>
</g>
<g>
</g>
<g>
</g>
<g>
</g>
<g>
</g>
<g>
</g>
<g>
</g>
<g>
</g>
<g>
</g>
<g>
</g>
<g>
</g>
<g>
</g>
<g>
</g>
</svg>
