<?xml version="1.0" encoding="iso-8859-1"?>
<!-- Generator: Adobe Illustrator 16.0.0, SVG Export Plug-In . SVG Version: 6.00 Build 0)  -->
<!DOCTYPE svg PUBLIC "-//W3C//DTD SVG 1.1//EN" "http://www.w3.org/Graphics/SVG/1.1/DTD/svg11.dtd">
<svg version="1.1" id="Capa_1" xmlns="http://www.w3.org/2000/svg" xmlns:xlink="http://www.w3.org/1999/xlink" x="0px" y="0px"
	 width="88.803px" height="88.804px" viewBox="0 0 88.803 88.804" style="enable-background:new 0 0 88.803 88.804;"
	 xml:space="preserve">
<g>
	<path style="fill:#010002;" d="M88.803,84.17c0,0-88.632,0-88.748,0c-0.125,0,0-79.521,0-79.521l7.93,1.999
		c-4.22,32.865,18.162,33.676,18.162,33.676C43.336,62.303,55.953,54.08,55.953,54.08C57.574,55.566,88.803,84.17,88.803,84.17z
		 M58.247,24.412c-1.253,0.728-2.123,1.58-1.937,1.914c0.182,0.323,1.352,0,2.6-0.715c1.248-0.723,2.283-0.339,2.304,0.839
		c0.011,1.186,0.332,1.98,0.705,1.771c0.362-0.212,0.662-1.359,0.652-2.558c-0.011-1.201,1.211-2.884,2.703-3.749
		c1.485-0.862,2.713-0.152,2.713,1.582c0,1.732-0.859,3.632-1.9,4.22c-1.046,0.583-1.89,1.426-1.885,1.862
		c0.011,0.435,0.865,0.318,1.9-0.267c1.035-0.583,1.885,0.111,1.885,1.533c0,1.427,0.295,2.589,0.658,2.589
		c0.362,0,0.662-1.167,0.662-2.604c0-1.432,0.85-2.11,1.891-1.517c1.024,0.595,1.874,0.712,1.874,0.267s-0.85-1.295-1.874-1.877
		c-1.041-0.572-1.891-2.472-1.891-4.205c0-1.734,1.217-2.444,2.714-1.582c1.491,0.865,2.718,2.548,2.708,3.749
		c-0.011,1.204,0.284,2.351,0.647,2.558c0.362,0.209,0.683-0.585,0.709-1.771c0.016-1.178,1.041-1.562,2.294-0.839
		c1.242,0.715,2.413,1.038,2.604,0.715c0.182-0.329-0.688-1.186-1.937-1.914c-1.243-0.722-1.419-1.807-0.378-2.413
		c1.03-0.608,1.569-1.282,1.181-1.504c-0.378-0.223-1.538,0.094-2.563,0.705c-1.035,0.603-3.138,0.375-4.681-0.515
		s-1.543-2.354,0-3.255c1.543-0.891,3.646-1.129,4.681-0.53c1.025,0.608,2.186,0.927,2.563,0.704
		c0.389-0.215-0.146-0.891-1.181-1.499c-1.036-0.606-0.865-1.693,0.378-2.413c1.248-0.72,2.118-1.579,1.937-1.903
		c-0.191-0.329-1.362-0.005-2.604,0.715c-1.248,0.723-2.278,0.329-2.294-0.857c-0.026-1.194-0.342-1.996-0.709-1.779
		c-0.363,0.223-0.658,1.37-0.647,2.568c0.01,1.191-1.217,2.874-2.708,3.741c-1.486,0.87-2.714,0.15-2.714-1.584
		c0-1.74,0.85-3.632,1.891-4.205c1.024-0.577,1.874-1.416,1.874-1.861c0-0.451-0.85-0.329-1.874,0.271
		c-1.041,0.593-1.891-0.096-1.891-1.543s-0.3-2.62-0.668-2.62c-0.367,0-0.657,1.173-0.657,2.61c0,1.432-0.85,2.13-1.885,1.553
		c-1.036-0.58-1.891-0.701-1.9-0.271c-0.006,0.424,0.839,1.258,1.885,1.851c1.04,0.578,1.9,2.48,1.9,4.221
		c0,1.74-1.223,2.454-2.714,1.584c-1.496-0.867-2.708-2.542-2.697-3.735c0.01-1.199-0.29-2.344-0.652-2.566
		c-0.368-0.217-0.694,0.583-0.705,1.776c-0.021,1.186-1.051,1.574-2.304,0.857c-1.253-0.714-2.418-1.043-2.6-0.714
		c-0.187,0.323,0.684,1.183,1.937,1.903c1.248,0.722,1.424,1.807,0.398,2.413c-1.03,0.611-1.559,1.284-1.18,1.501
		c0.383,0.223,1.532-0.096,2.547-0.707c1.021-0.603,3.117-0.365,4.666,0.531c1.553,0.901,1.553,2.364,0,3.254
		c-1.549,0.885-3.646,1.121-4.666,0.515c-1.015-0.616-2.164-0.927-2.547-0.704c-0.379,0.223,0.145,0.896,1.18,1.504
		C59.67,22.604,59.5,23.689,58.247,24.412z M65.118,51.796v2.289h11.465V42.621h-2.294v6.876L46.78,26.571l-2.286,2.294L72,51.796
		H65.118z M30.733,40.324c3.738,3.249,8.363,9.897,20.638,11.462c2.858-3.76-4.078-11.382-6.877-13.759
		c-4.466-3.77-8.961-3.609-13.761-6.876c-3.482-2.353-4.725-5.854-6.882-9.163c-1.396-2.151-2.768-5.08-4.583-6.882
		c-0.885-0.88-6.807-3.516-6.876-4.588c0.435,6.522,0.354,15.289,4.588,20.632C20.245,35.299,26.912,37.015,30.733,40.324z"/>
</g>
<g>
</g>
<g>
</g>
<g>
</g>
<g>
</g>
<g>
</g>
<g>
</g>
<g>
</g>
<g>
</g>
<g>
</g>
<g>
</g>
<g>
</g>
<g>
</g>
<g>
</g>
<g>
</g>
<g>
</g>
</svg>
