<?xml version="1.0" encoding="iso-8859-1"?>
<!-- Generator: Adobe Illustrator 16.0.0, SVG Export Plug-In . SVG Version: 6.00 Build 0)  -->
<!DOCTYPE svg PUBLIC "-//W3C//DTD SVG 1.1//EN" "http://www.w3.org/Graphics/SVG/1.1/DTD/svg11.dtd">
<svg version="1.1" id="Capa_1" xmlns="http://www.w3.org/2000/svg" xmlns:xlink="http://www.w3.org/1999/xlink" x="0px" y="0px"
	 width="106.048px" height="106.048px" viewBox="0 0 106.048 106.048" style="enable-background:new 0 0 106.048 106.048;"
	 xml:space="preserve">
<g>
	<path style="fill:#010002;" d="M60.201,61.537H37.005c-1.051,0-1.918-0.86-1.918-1.922v-4.339c0-1.072,0.769-2.009,1.918-2.54
		c0,0,4.681-1.605,11.591-1.605c6.897,0,11.604,1.605,11.604,1.605c1.512,0.753,1.91,2.048,1.91,3.114v3.765
		C62.111,60.677,61.257,61.537,60.201,61.537z M35.144,69.055c-1.685,0-3.055,1.373-3.055,3.056c0,1.678,1.37,3.05,3.055,3.05
		c1.681,0,3.056-1.367,3.056-3.05C38.199,70.422,36.824,69.055,35.144,69.055z M56.628,74.544h-16.07
		c-0.298,0-0.546,0.238-0.546,0.544c0,0.295,0.249,0.543,0.546,0.543h16.07c0.29,0,0.538-0.243,0.538-0.543
		C57.156,74.782,56.918,74.544,56.628,74.544z M106.048,21.209v63.629c0,11.666-9.543,21.21-21.21,21.21H21.209
		C9.543,106.048,0,96.504,0,84.838V21.209C0,9.543,9.543,0,21.209,0h63.628C96.505,0,106.048,9.543,106.048,21.209z M72.556,81.865
		c0-2.039-0.373-3.055-1.118-3.055h-0.72v-1.844c0-3.334-0.197-6.399-0.606-9.195c-0.01-0.042-0.021-0.083-0.036-0.13V49.083h-1.103
		v-4.311h-1.471v4.311h-1.118v12.671c-0.259-0.171-0.528-0.331-0.813-0.486V48.304c0-1.059-5.043-4.337-17.14-4.337
		c-12.104,0-17.01,3.283-17.01,4.337v13.062c-2.343,1.3-3.791,3.428-4.342,6.406c-0.415,2.785-0.608,5.855-0.608,9.195v1.844h-0.728
		c-0.754,0-1.124,1.016-1.124,3.055c0,1.979,0.37,2.968,1.124,2.968h4.699v0.911c0,1.372,0.052,2.49,0.152,3.371
		c0.101,0.88,0.223,1.595,0.36,2.144c0.611,1.025,1.74,1.533,3.374,1.533c1.559,0,2.656-0.508,3.27-1.533
		c0.399-0.818,0.611-2.454,0.611-4.888v-1.538h20.759v1.538c0,2.434,0.207,4.069,0.61,4.888c0.611,1.015,1.709,1.533,3.272,1.533
		c1.632,0,2.761-0.508,3.366-1.533c0.135-0.549,0.264-1.264,0.362-2.144c0.099-0.881,0.146-1.999,0.146-3.371v-0.911h4.701
		C72.173,84.833,72.556,83.844,72.556,81.865z M81.431,22.493c0-0.435-0.383-0.769-1.159-0.976l-1.652-0.588
		c-1.869-0.717-3.023-1.066-3.459-1.066c-0.062,0-0.389,0.072-0.999,0.248c-0.606,0.161-1.527,0.451-2.802,0.901
		c-0.108,0.049-0.823,0.196-2.148,0.445c-1.315,0.248-3.304,0.647-5.944,1.204l-26.171-9.331c-0.054-0.05-0.238-0.075-0.572-0.075
		c-0.935,0-1.735,0.44-2.403,1.32l16.682,10.227l-5.616,1.083l-4.867-3.871l-1.326,0.251v3.053l-5.621-2.146l-1.067,0.657
		l4.958,4.368v0.246c0,0.766,0.521,1.154,1.566,1.154l2.491,3.055l1.23-0.409l0.414-2.227h13.042l2.733,2.061v6.607h2.471
		l5.043-10.905c1.693-0.271,3.485-0.621,5.359-1.03c1.875-0.425,3.873-0.85,6.027-1.276c0.383-0.166,0.792-0.378,1.237-0.627
		c0.445-0.243,0.86-0.51,1.248-0.779c0.373-0.271,0.688-0.551,0.938-0.828C81.312,22.97,81.431,22.721,81.431,22.493z
		 M56.628,68.402h-16.07c-0.298,0-0.546,0.249-0.546,0.544c0,0.306,0.249,0.544,0.546,0.544h16.07c0.29,0,0.538-0.238,0.538-0.544
		C57.156,68.651,56.918,68.402,56.628,68.402z M56.628,71.469h-16.07c-0.298,0-0.546,0.248-0.546,0.549
		c0,0.3,0.249,0.538,0.546,0.538h16.07c0.29,0,0.538-0.238,0.538-0.538C57.166,71.717,56.918,71.469,56.628,71.469z M62.003,69.055
		c-1.678,0-3.045,1.373-3.045,3.056c0,1.678,1.367,3.05,3.045,3.05c1.688,0,3.055-1.367,3.055-3.05
		C65.058,70.422,63.69,69.055,62.003,69.055z"/>
</g>
<g>
</g>
<g>
</g>
<g>
</g>
<g>
</g>
<g>
</g>
<g>
</g>
<g>
</g>
<g>
</g>
<g>
</g>
<g>
</g>
<g>
</g>
<g>
</g>
<g>
</g>
<g>
</g>
<g>
</g>
</svg>
