<?xml version="1.0" encoding="iso-8859-1"?>
<!-- Generator: Adobe Illustrator 16.0.0, SVG Export Plug-In . SVG Version: 6.00 Build 0)  -->
<!DOCTYPE svg PUBLIC "-//W3C//DTD SVG 1.1//EN" "http://www.w3.org/Graphics/SVG/1.1/DTD/svg11.dtd">
<svg version="1.1" id="Capa_1" xmlns="http://www.w3.org/2000/svg" xmlns:xlink="http://www.w3.org/1999/xlink" x="0px" y="0px"
	 width="79.806px" height="79.806px" viewBox="0 0 79.806 79.806" style="enable-background:new 0 0 79.806 79.806;"
	 xml:space="preserve">
<g>
	<path style="fill:#010002;" d="M68.112,59.455c4.173,0,8.502,3.272,9.641,7.28l1.647,5.8c1.129,4.008-1.362,7.291-5.53,7.271
		L5.99,79.764c-4.163,0-6.688-3.293-5.605-7.312l1.548-5.686c1.083-4.039,5.393-7.312,9.557-7.312H68.112z M77.919,51.698V3.182
		c0-1.76-1.424-3.182-3.18-3.182H5.073C3.318,0,1.892,1.421,1.892,3.182v48.517c0,1.761,1.426,3.18,3.182,3.18h69.672
		C76.495,54.878,77.919,53.459,77.919,51.698z M8.248,6.358h63.313v42.16H8.248V6.358z M43.282,35.387
		c3.18-1.346,5.235-4.443,5.235-8.016c0-3.446-2.061-6.545-5.235-7.891c-0.838-0.345-1.81,0.044-2.164,0.88
		c-0.354,0.839,0.036,1.815,0.88,2.165c1.952,0.815,3.213,2.726,3.213,4.974c0,2.121-1.262,4.029-3.213,4.847
		c-0.844,0.36-1.235,1.336-0.88,2.162c0.27,0.632,0.88,1.015,1.522,1.015C42.853,35.522,43.075,35.468,43.282,35.387z
		 M49.294,39.364c4.102-2.576,6.546-7.019,6.546-11.993c0-4.847-2.444-9.279-6.54-11.868c-0.771-0.466-1.792-0.259-2.281,0.52
		c-0.486,0.77-0.254,1.792,0.516,2.281c3.133,1.973,5.002,5.359,5.002,9.194c0,3.705-1.869,7.104-4.992,9.072
		c-0.773,0.495-1.007,1.512-0.521,2.276c0.319,0.497,0.853,0.774,1.401,0.774C48.725,39.625,49.03,39.54,49.294,39.364z
		 M52.815,44.749c6.09-3.697,9.729-10.141,9.729-17.377c0-7.104-3.64-13.548-9.729-17.243c-0.776-0.456-1.791-0.217-2.268,0.562
		c-0.477,0.774-0.229,1.792,0.554,2.263c5.101,3.086,8.135,8.474,8.135,14.54c0,5.944-3.034,11.343-8.135,14.429
		c-0.782,0.477-1.03,1.481-0.554,2.269c0.311,0.507,0.849,0.797,1.413,0.797C52.257,44.987,52.546,44.905,52.815,44.749z
		 M38.689,34.507c0.355-0.826-0.036-1.802-0.88-2.162c-1.952-0.824-3.213-2.726-3.213-4.974c0-2.121,1.261-4.031,3.213-4.847
		c0.839-0.35,1.229-1.326,0.88-2.165c-0.359-0.836-1.331-1.22-2.164-0.88c-3.18,1.346-5.232,4.445-5.232,8.018
		c0,3.446,2.058,6.542,5.232,7.889c0.207,0.085,0.43,0.135,0.642,0.135C37.81,35.522,38.426,35.139,38.689,34.507z M32.784,38.846
		c0.486-0.764,0.253-1.781-0.516-2.281c-3.127-1.968-4.999-5.362-4.999-9.194c0-3.708,1.872-7.094,4.999-9.072
		c0.769-0.49,0.997-1.512,0.516-2.281c-0.489-0.774-1.518-0.986-2.281-0.521c-4.093,2.594-6.537,7.027-6.537,12
		c0,4.847,2.444,9.29,6.542,11.866c0.269,0.176,0.572,0.261,0.875,0.261C31.935,39.625,32.471,39.343,32.784,38.846z M29.263,44.19
		c0.472-0.787,0.223-1.792-0.551-2.269c-5.103-3.086-8.135-8.484-8.135-14.55c0-5.945,3.032-11.333,8.135-14.418
		c0.774-0.477,1.023-1.489,0.551-2.268c-0.479-0.774-1.491-1.012-2.271-0.557c-6.087,3.695-9.725,10.139-9.725,17.37
		c0,7.104,3.638,13.559,9.725,17.25c0.272,0.156,0.557,0.238,0.854,0.238C28.409,44.987,28.955,44.697,29.263,44.19z"/>
</g>
<g>
</g>
<g>
</g>
<g>
</g>
<g>
</g>
<g>
</g>
<g>
</g>
<g>
</g>
<g>
</g>
<g>
</g>
<g>
</g>
<g>
</g>
<g>
</g>
<g>
</g>
<g>
</g>
<g>
</g>
</svg>
