<?xml version="1.0" encoding="iso-8859-1"?>
<!-- Generator: Adobe Illustrator 16.0.0, SVG Export Plug-In . SVG Version: 6.00 Build 0)  -->
<!DOCTYPE svg PUBLIC "-//W3C//DTD SVG 1.1//EN" "http://www.w3.org/Graphics/SVG/1.1/DTD/svg11.dtd">
<svg version="1.1" id="Capa_1" xmlns="http://www.w3.org/2000/svg" xmlns:xlink="http://www.w3.org/1999/xlink" x="0px" y="0px"
	 width="106.048px" height="106.048px" viewBox="0 0 106.048 106.048" style="enable-background:new 0 0 106.048 106.048;"
	 xml:space="preserve">
<g>
	<path style="fill:#010002;" d="M84.838,0H21.209C9.543,0,0,9.543,0,21.209v63.629c0,11.666,9.543,21.21,21.209,21.21h63.628
		c11.667,0,21.21-9.544,21.21-21.21V21.209C106.048,9.543,96.505,0,84.838,0z M68.237,19.029l2.164,1.046l-5.427,11.268
		l-2.164-1.046L68.237,19.029z M51.814,15.827h2.411v12.521h-2.411V15.827z M37.806,19.029l5.429,11.268l-2.167,1.046l-5.429-11.268
		L37.806,19.029z M28.353,48.977L16.14,46.194l0.536-2.348l12.213,2.793L28.353,48.977z M22.916,30.908l1.502-1.883l9.784,7.804
		L32.7,38.717L22.916,30.908z M57.995,86.898v3.325h-9.93v-3.325c-0.626-0.372-1.193-0.828-1.675-1.371l14.83-2.673
		C60.667,84.548,59.507,85.982,57.995,86.898z M61.578,80.598c0,0.207-0.011,0.408-0.031,0.605l-16.158,2.926
		c-0.344-0.632-0.605-1.315-0.759-2.046l16.948-3.05V80.598z M61.578,77.443l-17.101,3.086v-2.174l17.101-3.071V77.443z
		 M61.578,70.687v3.009l-17.101,3.086v-6.095c-6.369-3.164-10.75-9.714-10.75-17.311c0-10.654,8.645-19.294,19.296-19.294
		c10.667,0,19.305,8.64,19.305,19.294C72.328,60.973,67.947,67.522,61.578,70.687z M71.841,36.829l9.787-7.809l1.502,1.882
		l-9.787,7.809L71.841,36.829z M77.692,48.977l-0.538-2.338l12.21-2.793l0.544,2.348L77.692,48.977z"/>
</g>
<g>
</g>
<g>
</g>
<g>
</g>
<g>
</g>
<g>
</g>
<g>
</g>
<g>
</g>
<g>
</g>
<g>
</g>
<g>
</g>
<g>
</g>
<g>
</g>
<g>
</g>
<g>
</g>
<g>
</g>
</svg>
