<?xml version="1.0" encoding="iso-8859-1"?>
<!-- Generator: Adobe Illustrator 16.0.0, SVG Export Plug-In . SVG Version: 6.00 Build 0)  -->
<!DOCTYPE svg PUBLIC "-//W3C//DTD SVG 1.1//EN" "http://www.w3.org/Graphics/SVG/1.1/DTD/svg11.dtd">
<svg version="1.1" id="Capa_1" xmlns="http://www.w3.org/2000/svg" xmlns:xlink="http://www.w3.org/1999/xlink" x="0px" y="0px"
	 width="79.54px" height="79.54px" viewBox="0 0 79.54 79.54" style="enable-background:new 0 0 79.54 79.54;" xml:space="preserve"
	>
<g>
	<path style="fill:#010002;" d="M9.766,17.897c1.872,0.197,4.067,1.463,5.595,1.473c0.991,0.005,2.333-0.74,3.425-0.82
		c1.087-0.075,2.206-0.042,3.283,0.196c5.01,1.088,9.639,1.96,15.139,1.686c2.768-0.137,4.963-0.663,7.588-1.522
		c2.724-0.891,4.682-1.639,6.686,0.854c0.58,0.733,1.107,2.439,1.833,2.9c1.01,0.642,3.014-0.132,4.085-0.223
		c1.911-0.163,6.421,0.567,7.638-1.124c0.674-0.966-0.32-2.783-0.062-3.925c0.248-1.149,1.139-1.95,1.812-2.9
		c1.294-1.854,3.014-4.306,3.246-6.537c1.066,1.877-1.838,6.496-2.087,8.575c1.937-2.763,3.382-6.178,4.433-8.914
		c0.011,2.697-0.27,4.745-1.471,7.143c-0.942,1.903-2.02,4.995-0.823,6.983c1.036,1.711,3.04,2.196,3.49,4.407
		c0.564,2.729,1.651,4.251,3.185,6.563c0.953,1.432,3.646,4.168,2.501,5.854c-0.306,0.461-2.273,1.776-2.822,1.898
		c-1.278,0.261-1.817-0.963-3.034-1.479c-1.129-0.487-2.071-0.694-3.241-1.351c-1.16-0.647-2.118-1.046-3.49-1.046
		c-1.315,0-2.766,0.292-4.008,0.712c-1.626,0.546-1.466,1.027-2.269,2.278c-2.412,3.803-7.953,5.279-10.853,8.842
		c-2.035,2.485-0.922,9.145-0.72,12.417c0.119,1.905,0.693,4.038,1.641,5.758c0.751,1.367,2.932,3.07,2.879,4.645
		c-1.107,0.14-4.008-1.786-4.557-2.661c-0.942-1.502-0.756-4.428-1.103-6.105c-0.373-1.807-1.021-3.521-1.678-5.219
		c-0.715-1.823-1.041-4.355-2.128-5.939c0.196,1.781,0.238,3.572-0.125,5.307c-0.342,1.596-1.263,2.968-1.493,4.558
		c-0.272,1.802,0,3.873,0,5.706c0,1.129-0.005,1.75,0.499,2.713c0.456,0.824,1.367,1.145,1.326,2.154
		c-5.129-1.377-3.702-7.487-3.519-11.578c0.122-2.355-0.067-4.701-0.334-7.021c-0.212-1.828,0.044-5.458-0.842-7.042
		c-0.955-1.707-3.92-0.643-5.579-0.415c-2.62,0.352-5.248,0.761-7.889,0.487c-2.1-0.207-4.158-1.005-5.887-2.224
		c-1.51-1.054-3.073-3.482-4.687-3.987c-0.085,2.925-1.553,3.85-2.599,6.376c-0.896,2.154-1.398,5.028-1.823,7.239
		c-1.139,5.894,1.887,10.129,4.052,15.172c0.391,0.917,1.214,2.253,0.805,3.159c-1.787-0.684-2.535-0.627-3.378-2.631
		c-0.725-1.698-0.997-3.526-1.6-5.292c-0.562-1.636-1.098-3.459-1.67-5.178c-0.292-0.845-1.225-5.064-2.589-3.532
		c0.572,1.166,0.521,2.91,0.723,4.2c0.238,1.538,0.72,3.06,1.154,4.541c0.378,1.3,0.712,2.739,1.168,4.028
		c0.43,1.196,1.432,2.579,1.315,3.868c-4.751-1.051-5.318-9.786-6.152-13.318c-0.521-2.144-1.903-4.836-1.893-7.026
		c0-2.506,1.872-4.93,2.682-7.229c1.036-2.895,0.378-5.29-0.795-7.964c-0.997-2.258-1.548-5.603-3.081-7.475
		c-0.349,5.227,0,10.519,0,15.936c0,2.868,0.031,5.447,0.187,8.243c0.081,1.859,0.502,6.297-1.022,7.426
		c-1.401-1.652-0.223-6.1,0-8.099c0.311-2.812,0.487-5.271,0.209-8.078C0.521,38.97,0,33.333,0,27.839
		c0-4.331,0.997-6.568,4.71-8.626C6.437,18.252,7.822,17.706,9.766,17.897z"/>
</g>
<g>
</g>
<g>
</g>
<g>
</g>
<g>
</g>
<g>
</g>
<g>
</g>
<g>
</g>
<g>
</g>
<g>
</g>
<g>
</g>
<g>
</g>
<g>
</g>
<g>
</g>
<g>
</g>
<g>
</g>
</svg>
