<?xml version="1.0" encoding="iso-8859-1"?>
<!-- Generator: Adobe Illustrator 16.0.0, SVG Export Plug-In . SVG Version: 6.00 Build 0)  -->
<!DOCTYPE svg PUBLIC "-//W3C//DTD SVG 1.1//EN" "http://www.w3.org/Graphics/SVG/1.1/DTD/svg11.dtd">
<svg version="1.1" id="Capa_1" xmlns="http://www.w3.org/2000/svg" xmlns:xlink="http://www.w3.org/1999/xlink" x="0px" y="0px"
	 width="79.536px" height="79.536px" viewBox="0 0 79.536 79.536" style="enable-background:new 0 0 79.536 79.536;"
	 xml:space="preserve">
<g>
	<path style="fill:#010002;" d="M50.656,63.126l-0.052,1.352l-10.183-1.035l5.802,16.094L34.599,67.522l-3.604,6.975l-3.495-8.72
		L13.995,77.065l4.539-16.067l-6.4,1.171l3.956-4.081L2.303,50.041l15.234,1.067c-1.613-3.33-4.497-8.842-4.497-8.842l9.517,2.1
		l-3.376-17.233l10.677,13.748l3.925-10.18l2.604,10.913l9.328-9.657l-3.549,15.309l3.896,0.415c0.108,0.165,0.15,0.362,0.274,0.522
		c1.19,1.476,2.879,2.408,4.753,2.636l-0.021,0.549l-9.375,6.007L50.656,63.126z M70.229,6.75c0,3.733-3.023,6.755-6.747,6.755
		c-3.738,0-6.768-3.021-6.768-6.755S59.738,0,63.478,0C67.195,0,70.229,3.017,70.229,6.75z M77.22,43.413
		c0.135,1.243-0.776,2.367-2.02,2.501c-0.082,0.006-0.16,0.011-0.243,0.011c-1.154,0-2.139-0.87-2.252-2.045l-1.781-18.406
		l-0.445,14.289l1.305,36.936c0.099,1.466-1,2.724-2.454,2.832c-0.083,0.006-0.135,0.006-0.197,0.006
		c-1.388,0-2.553-1.062-2.662-2.46l-3.003-30.432l-3.009,30.432c-0.104,1.398-1.269,2.46-2.661,2.46c-0.052,0-0.108,0-0.182-0.006
		c-1.46-0.108-2.558-1.366-2.464-2.832l1.305-36.936l-0.44-14.289L54.229,43.88c-0.114,1.17-1.104,2.04-2.253,2.04
		c-0.088,0-0.16-0.006-0.243-0.011c-1.248-0.129-2.154-1.253-2.02-2.496c0,0,1.74-21.181,2.568-22.872
		c1.657-3.399,4.226-5.445,10.537-5.445h0.647h0.647c6.312,0,8.881,2.051,10.537,5.445C75.475,22.227,77.22,43.413,77.22,43.413z"/>
</g>
<g>
</g>
<g>
</g>
<g>
</g>
<g>
</g>
<g>
</g>
<g>
</g>
<g>
</g>
<g>
</g>
<g>
</g>
<g>
</g>
<g>
</g>
<g>
</g>
<g>
</g>
<g>
</g>
<g>
</g>
</svg>
