<?xml version="1.0" encoding="iso-8859-1"?>
<!-- Generator: Adobe Illustrator 16.0.0, SVG Export Plug-In . SVG Version: 6.00 Build 0)  -->
<!DOCTYPE svg PUBLIC "-//W3C//DTD SVG 1.1//EN" "http://www.w3.org/Graphics/SVG/1.1/DTD/svg11.dtd">
<svg version="1.1" id="Capa_1" xmlns="http://www.w3.org/2000/svg" xmlns:xlink="http://www.w3.org/1999/xlink" x="0px" y="0px"
	 width="106.048px" height="106.048px" viewBox="0 0 106.048 106.048" style="enable-background:new 0 0 106.048 106.048;"
	 xml:space="preserve">
<g>
	<path style="fill:#010002;" d="M62.655,68.227l17.104,0.031l-6.302,14.871l-4.552-0.01L62.655,68.227z M106.048,21.209v63.629
		c0,11.666-9.543,21.21-21.21,21.21H21.209C9.543,106.048,0,96.504,0,84.838V21.209C0,9.543,9.543,0,21.209,0h63.628
		C96.505,0,106.048,9.543,106.048,21.209z M30.24,20.016c0,3.729,3.026,6.75,6.765,6.75c3.723,0,6.745-3.021,6.745-6.75
		c0-3.738-3.021-6.76-6.745-6.76C33.267,13.256,30.24,16.277,30.24,20.016z M50.748,56.669c0,0-1.742-21.186-2.571-22.872
		c-1.659-3.394-4.225-5.45-10.529-5.45H37h-0.652c-6.304,0-8.875,2.061-10.53,5.444c-0.829,1.686-2.573,22.877-2.573,22.877
		c-0.132,1.248,0.774,2.366,2.022,2.496c0.083,0.011,0.158,0.011,0.243,0.011c1.15,0,2.136-0.87,2.253-2.03l1.781-18.416
		l0.435,14.294l-1.297,36.931c-0.096,1.46,1.002,2.733,2.459,2.827c0.081,0.011,0.132,0.011,0.187,0.011
		c1.388,0,2.555-1.067,2.662-2.465l3.006-30.417l3.006,30.417c0.106,1.397,1.274,2.465,2.662,2.465c0.054,0,0.111,0,0.186-0.011
		c1.453-0.094,2.551-1.367,2.46-2.827l-1.295-36.931l0.44-14.289l1.784,18.411c0.111,1.165,1.103,2.035,2.252,2.035
		c0.086,0,0.158,0,0.243-0.011C49.979,59.041,50.888,57.922,50.748,56.669z M82.818,18.791c0.006-3.021-1.714-5.499-3.842-5.504
		l-15.343-0.031c-2.118-0.011-3.857,2.465-3.857,5.504l-0.094,49.462l9.477,22.618c1.093,2.6,2.89,2.6,3.992,0.025l9.574-22.603
		L82.818,18.791z"/>
</g>
<g>
</g>
<g>
</g>
<g>
</g>
<g>
</g>
<g>
</g>
<g>
</g>
<g>
</g>
<g>
</g>
<g>
</g>
<g>
</g>
<g>
</g>
<g>
</g>
<g>
</g>
<g>
</g>
<g>
</g>
</svg>
