<?xml version="1.0" encoding="iso-8859-1"?>
<!-- Generator: Adobe Illustrator 16.0.0, SVG Export Plug-In . SVG Version: 6.00 Build 0)  -->
<!DOCTYPE svg PUBLIC "-//W3C//DTD SVG 1.1//EN" "http://www.w3.org/Graphics/SVG/1.1/DTD/svg11.dtd">
<svg version="1.1" id="Capa_1" xmlns="http://www.w3.org/2000/svg" xmlns:xlink="http://www.w3.org/1999/xlink" x="0px" y="0px"
	 width="106.048px" height="106.048px" viewBox="0 0 106.048 106.048" style="enable-background:new 0 0 106.048 106.048;"
	 xml:space="preserve">
<g>
	<path style="fill:#010002;" d="M21.209,106.048h63.628c11.667,0,21.21-9.544,21.21-21.21V21.209C106.048,9.543,96.505,0,84.838,0
		H21.209C9.543,0,0,9.543,0,21.209v63.629C0,96.504,9.543,106.048,21.209,106.048z M76.729,13.256c3.723,0,6.747,3.016,6.747,6.75
		s-3.024,6.755-6.747,6.755c-3.739,0-6.763-3.021-6.763-6.755S72.99,13.256,76.729,13.256z M65.545,33.792
		c1.651-3.399,4.22-5.444,10.532-5.444h0.652h0.642c6.312,0,8.886,2.05,10.538,5.444c0.833,1.691,2.573,22.877,2.573,22.877
		c0.13,1.237-0.776,2.361-2.02,2.496c-0.088,0.005-0.166,0.011-0.248,0.011c-1.15,0-2.134-0.87-2.253-2.041l-1.781-18.413
		l-0.44,14.292l1.305,36.936c0.094,1.465-1.004,2.729-2.459,2.832c-0.078,0.011-0.14,0.011-0.191,0.011
		c-1.388,0-2.559-1.062-2.662-2.46L76.729,59.9l-3.014,30.432c-0.108,1.398-1.274,2.46-2.662,2.46c-0.052,0-0.113,0-0.187-0.006
		c-1.46-0.108-2.558-1.366-2.464-2.832l1.305-36.936l-0.436-14.289l-1.781,18.405c-0.119,1.176-1.107,2.046-2.257,2.046
		c-0.083,0-0.156-0.005-0.244-0.011c-1.248-0.129-2.148-1.253-2.02-2.501C62.966,56.669,64.711,35.483,65.545,33.792z
		 M30.792,64.363c-1.613-3.329-4.497-8.844-4.497-8.844l9.512,2.103l-3.376-17.233l10.677,13.748l3.925-10.18l2.602,10.91
		l9.328-9.655l-3.547,15.315l3.895,0.414c0.113,0.16,0.149,0.367,0.279,0.522c1.191,1.476,2.868,2.408,4.748,2.636l-0.021,0.555
		l-9.378,6.001l8.964,5.732l-0.047,1.351l-10.186-1.035l5.8,16.094L47.849,80.778l-3.604,6.98l-3.495-8.72L27.245,90.327
		l4.539-16.068l-6.4,1.176l3.956-4.085l-13.787-8.062L30.792,64.363z"/>
</g>
<g>
</g>
<g>
</g>
<g>
</g>
<g>
</g>
<g>
</g>
<g>
</g>
<g>
</g>
<g>
</g>
<g>
</g>
<g>
</g>
<g>
</g>
<g>
</g>
<g>
</g>
<g>
</g>
<g>
</g>
</svg>
