<?xml version="1.0" encoding="iso-8859-1"?>
<!-- Generator: Adobe Illustrator 16.0.0, SVG Export Plug-In . SVG Version: 6.00 Build 0)  -->
<!DOCTYPE svg PUBLIC "-//W3C//DTD SVG 1.1//EN" "http://www.w3.org/Graphics/SVG/1.1/DTD/svg11.dtd">
<svg version="1.1" id="Capa_1" xmlns="http://www.w3.org/2000/svg" xmlns:xlink="http://www.w3.org/1999/xlink" x="0px" y="0px"
	 width="78.864px" height="78.864px" viewBox="0 0 78.864 78.864" style="enable-background:new 0 0 78.864 78.864;"
	 xml:space="preserve">
<g>
	<path style="fill:#010002;" d="M68.844,77.562L55.319,49.355L41.822,77.562l-9.986-0.031l18.512-38.523L32.372,1.525l10.053-0.111
		l12.972,27.1L68.476,1.303l9.767,0.111L60.341,38.839L78.864,77.53L68.844,77.562z M13.206,14.251c3.567,0,6.467-2.9,6.467-6.48
		c0-3.578-2.9-6.468-6.467-6.468c-3.591,0-6.486,2.895-6.486,6.476C6.72,11.356,9.614,14.251,13.206,14.251z M26.386,42.927
		c0.127,1.194-0.738,2.266-1.942,2.391c-0.072,0.005-0.147,0.01-0.233,0.01c-1.098,0-2.04-0.829-2.157-1.949L20.346,25.72
		l-0.42,13.707l1.248,35.41c0.088,1.398-0.966,2.615-2.356,2.714c-0.073,0.011-0.132,0.011-0.179,0.011
		c-1.331,0-2.457-1.021-2.55-2.367l-2.892-29.163l-2.885,29.163c-0.101,1.347-1.219,2.367-2.55,2.367c-0.047,0-0.111,0-0.179-0.011
		c-1.396-0.099-2.444-1.315-2.356-2.714l1.243-35.41L6.052,25.72L4.338,43.378c-0.111,1.121-1.054,1.949-2.157,1.949
		c-0.08,0-0.15-0.005-0.233-0.01c-1.193-0.125-2.058-1.197-1.937-2.391c0,0,1.675-20.313,2.47-21.937
		c1.592-3.244,4.057-5.223,10.097-5.223h0.619h0.621c6.045,0,8.505,1.979,10.095,5.223C24.711,22.613,26.386,42.927,26.386,42.927z"
		/>
</g>
<g>
</g>
<g>
</g>
<g>
</g>
<g>
</g>
<g>
</g>
<g>
</g>
<g>
</g>
<g>
</g>
<g>
</g>
<g>
</g>
<g>
</g>
<g>
</g>
<g>
</g>
<g>
</g>
<g>
</g>
</svg>
