<?xml version="1.0" encoding="iso-8859-1"?>
<!-- Generator: Adobe Illustrator 16.0.0, SVG Export Plug-In . SVG Version: 6.00 Build 0)  -->
<!DOCTYPE svg PUBLIC "-//W3C//DTD SVG 1.1//EN" "http://www.w3.org/Graphics/SVG/1.1/DTD/svg11.dtd">
<svg version="1.1" id="Capa_1" xmlns="http://www.w3.org/2000/svg" xmlns:xlink="http://www.w3.org/1999/xlink" x="0px" y="0px"
	 width="79.537px" height="79.537px" viewBox="0 0 79.537 79.537" style="enable-background:new 0 0 79.537 79.537;"
	 xml:space="preserve">
<g>
	<path style="fill:#010002;" d="M48.448,63.981h13.458V77.9H48.448V65.876V63.981z M73.106,7.633
		c-4.288-4.028-10.025-6.006-16.845-5.996c-7.373-0.01-13.512,2.322-17.893,6.998c-4.417,4.653-6.543,10.866-6.527,18.225v1.877
		h12.371l0.064-1.802c0.163-4.067,0.836-7.048,1.812-8.86c1.841-3.378,4.699-4.989,9.83-5.054c4.179,0.016,6.727,1.083,8.182,2.814
		c1.637,2.038,2.434,4.285,2.454,7.086c0,1.893-0.533,3.684-1.703,5.551c-0.679,1.077-1.538,2.094-2.615,3.096l-3.997,3.871
		c-3.904,3.78-6.54,7.169-7.819,10.439c-1.222,3.169-1.781,7.114-1.781,11.92v1.874h12.438v-1.874c0-3.956,0.508-6.825,1.295-8.492
		c0.771-1.72,2.692-4.185,5.789-7.102c4.412-4.2,7.368-7.387,8.958-9.782c1.662-2.519,2.434-5.707,2.418-9.406
		C79.568,16.902,77.393,11.6,73.106,7.633z M13.206,1.637c-3.591,0-6.486,2.899-6.486,6.48c0,3.578,2.895,6.473,6.486,6.473
		c3.567,0,6.467-2.9,6.467-6.478C19.673,4.531,16.773,1.637,13.206,1.637z M23.921,21.324c-1.592-3.239-4.057-5.217-10.097-5.217
		h-0.626h-0.619c-6.045,0-8.505,1.978-10.097,5.217c-0.795,1.628-2.47,21.937-2.47,21.937c-0.122,1.204,0.743,2.266,1.937,2.391
		c0.083,0.01,0.153,0.02,0.233,0.02c1.103,0,2.045-0.838,2.157-1.954l1.708-17.652l0.425,13.696L5.229,75.177
		c-0.088,1.397,0.965,2.62,2.356,2.713C7.652,77.9,7.716,77.9,7.763,77.9c1.331,0,2.454-1.025,2.55-2.361l2.885-29.174l2.887,29.174
		c0.098,1.336,1.219,2.361,2.55,2.361c0.047,0,0.111,0,0.179-0.011c1.396-0.093,2.444-1.315,2.356-2.713l-1.243-35.416l0.42-13.701
		l1.708,17.652c0.117,1.121,1.059,1.949,2.157,1.949c0.085,0,0.155-0.005,0.233-0.016c1.204-0.119,2.069-1.186,1.942-2.385
		C26.386,43.261,24.711,22.952,23.921,21.324z"/>
</g>
<g>
</g>
<g>
</g>
<g>
</g>
<g>
</g>
<g>
</g>
<g>
</g>
<g>
</g>
<g>
</g>
<g>
</g>
<g>
</g>
<g>
</g>
<g>
</g>
<g>
</g>
<g>
</g>
<g>
</g>
</svg>
