<?xml version="1.0" encoding="iso-8859-1"?>
<!-- Generator: Adobe Illustrator 16.0.0, SVG Export Plug-In . SVG Version: 6.00 Build 0)  -->
<!DOCTYPE svg PUBLIC "-//W3C//DTD SVG 1.1//EN" "http://www.w3.org/Graphics/SVG/1.1/DTD/svg11.dtd">
<svg version="1.1" id="Capa_1" xmlns="http://www.w3.org/2000/svg" xmlns:xlink="http://www.w3.org/1999/xlink" x="0px" y="0px"
	 width="106.048px" height="106.048px" viewBox="0 0 106.048 106.048" style="enable-background:new 0 0 106.048 106.048;"
	 xml:space="preserve">
<g>
	<path style="fill:#010002;" d="M21.209,106.048h63.628c11.667,0,21.21-9.544,21.21-21.21V21.209C106.048,9.543,96.505,0,84.838,0
		H21.209C9.543,0,0,9.543,0,21.209v63.629C0,96.504,9.543,106.048,21.209,106.048z M73.399,19.363
		c1.016-1.108,2.356-1.66,3.946-1.66c1.517,0,2.854,0.551,3.936,1.66c1.076,1.077,1.631,2.382,1.631,3.904
		c0,1.6-0.555,2.926-1.631,3.992c-1.082,1.043-2.419,1.543-3.936,1.543c-1.59,0-2.931-0.5-3.946-1.543
		c-1.071-1.066-1.584-2.392-1.584-3.987C71.815,21.75,72.328,20.44,73.399,19.363z M63.971,37.375c0-1.877,0.725-3.573,2.128-5.02
		c1.414-1.396,3.076-2.11,5.028-2.11h12.359c2.02,0,3.672,0.72,5.055,2.11c1.413,1.447,2.097,3.143,2.097,5.02v17.398
		c0,0.652-0.254,1.243-0.642,1.72c-0.436,0.471-1.016,0.684-1.781,0.684c-0.652,0-1.254-0.213-1.771-0.684
		c-0.435-0.477-0.642-1.067-0.642-1.72V39.216h-1.315v43.075c0,0.828-0.285,1.594-0.891,2.185c-0.652,0.652-1.378,0.933-2.206,0.933
		c-0.979,0-1.771-0.28-2.393-0.933c-0.605-0.591-0.932-1.356-0.932-2.185v-24.97h-1.408v24.97c0,0.828-0.301,1.594-0.953,2.185
		c-0.605,0.652-1.367,0.933-2.314,0.933c-0.865,0-1.621-0.28-2.269-0.933c-0.688-0.591-1.051-1.356-1.051-2.185V39.216h-1.264
		v15.557c0,0.652-0.207,1.243-0.611,1.72c-0.466,0.471-1.046,0.684-1.802,0.684c-0.663,0-1.237-0.213-1.703-0.684
		c-0.503-0.477-0.73-1.067-0.73-1.72V37.375H63.971z M52.589,13.256h5.489v79.536h-5.489V13.256z M27.149,19.363
		c1.119-1.108,2.459-1.66,4.083-1.66c1.52,0,2.825,0.551,3.837,1.66c1.046,1.077,1.592,2.382,1.592,3.904
		c0,1.6-0.546,2.926-1.592,3.992c-1.012,1.049-2.317,1.548-3.837,1.548c-1.624,0-2.964-0.5-4.083-1.543
		c-1.087-1.072-1.624-2.397-1.624-3.993C25.525,21.75,26.062,20.44,27.149,19.363z M15.552,51.905
		c0.073-0.187,0.29-0.829,0.546-1.916c0.285-1.08,0.679-2.421,1.149-3.982c0.472-1.584,0.981-3.301,1.518-5.142
		c0.546-1.851,1.043-3.632,1.659-5.349c0.365-1.315,1.155-2.509,2.393-3.55c1.225-1.074,2.496-1.563,3.827-1.563h8.893
		c1.373,0,2.708,0.489,3.902,1.563c1.155,1.041,1.989,2.234,2.455,3.55c0.5,1.716,1.007,3.498,1.512,5.349
		c0.516,1.841,1.054,3.558,1.489,5.142c0.463,1.561,0.864,2.902,1.152,3.982c0.285,1.087,0.471,1.729,0.572,1.916l0.147,0.572
		c0,1.167-0.546,1.851-1.589,2.151l-0.542,0.145c-1.149,0-1.877-0.527-2.165-1.604c-0.078-0.357-0.396-1.396-0.826-3.035
		c-0.51-1.66-1.023-3.384-1.595-5.202c-0.575-1.82-1.264-4.127-2.089-6.993h-1.305L44.2,63.463h-7.148V82.85
		c0,0.756-0.217,1.388-0.795,1.844c-0.507,0.486-1.123,0.715-1.877,0.715c-0.795,0-1.377-0.229-1.877-0.715
		c-0.477-0.445-0.688-1.077-0.688-1.839V63.468h-1.305v19.387c0,0.762-0.249,1.394-0.72,1.849c-0.474,0.477-1.087,0.705-1.846,0.705
		c-0.764,0-1.417-0.229-1.918-0.705c-0.542-0.455-0.792-1.087-0.792-1.849V63.468h-7.257l7.555-25.522h-1.305
		c-0.826,2.86-1.527,5.162-2.066,6.987c-0.5,1.818-1.046,3.542-1.512,5.202c-0.546,1.639-0.901,2.677-0.945,3.035
		c-0.329,1.077-1.038,1.604-2.162,1.604l-0.572-0.135c-1.051-0.383-1.562-1.066-1.562-2.034
		C15.402,52.34,15.441,52.123,15.552,51.905z"/>
</g>
<g>
</g>
<g>
</g>
<g>
</g>
<g>
</g>
<g>
</g>
<g>
</g>
<g>
</g>
<g>
</g>
<g>
</g>
<g>
</g>
<g>
</g>
<g>
</g>
<g>
</g>
<g>
</g>
<g>
</g>
</svg>
