<?xml version="1.0" encoding="iso-8859-1"?>
<!-- Generator: Adobe Illustrator 16.0.0, SVG Export Plug-In . SVG Version: 6.00 Build 0)  -->
<!DOCTYPE svg PUBLIC "-//W3C//DTD SVG 1.1//EN" "http://www.w3.org/Graphics/SVG/1.1/DTD/svg11.dtd">
<svg version="1.1" id="Capa_1" xmlns="http://www.w3.org/2000/svg" xmlns:xlink="http://www.w3.org/1999/xlink" x="0px" y="0px"
	 width="106.048px" height="106.048px" viewBox="0 0 106.048 106.048" style="enable-background:new 0 0 106.048 106.048;"
	 xml:space="preserve">
<g>
	<path style="fill:#010002;" d="M84.838,0H21.209C9.543,0,0,9.548,0,21.209v63.629c0,11.672,9.543,21.21,21.209,21.21h63.628
		c11.667,0,21.21-9.538,21.21-21.21V21.209C106.048,9.548,96.505,0,84.838,0z M26.799,14.899c3.568,0,6.467,2.895,6.467,6.476
		c0,3.578-2.899,6.478-6.467,6.478c-3.591,0-6.491-2.899-6.491-6.478C20.309,17.794,23.208,14.899,26.799,14.899z M38.039,58.906
		c-0.078,0.01-0.148,0.01-0.233,0.01c-1.098,0-2.041-0.828-2.157-1.946l-1.714-17.652l-0.419,13.706l1.248,35.408
		c0.091,1.398-0.966,2.62-2.356,2.713c-0.072,0.011-0.132,0.011-0.179,0.011c-1.331,0-2.454-1.021-2.55-2.361l-2.884-29.168
		l-2.887,29.168c-0.098,1.341-1.219,2.361-2.55,2.361c-0.046,0-0.111,0-0.178-0.011c-1.396-0.093-2.444-1.314-2.356-2.713
		l1.238-35.408l-0.419-13.706L17.932,56.97c-0.111,1.118-1.054,1.946-2.157,1.946c-0.08,0-0.15,0-0.233-0.01
		c-1.199-0.119-2.063-1.196-1.937-2.388c0,0,1.675-20.313,2.473-21.937c1.59-3.244,4.054-5.223,10.095-5.223h0.621h0.619
		c6.045,0,8.505,1.979,10.097,5.223c0.79,1.623,2.465,21.937,2.465,21.937C40.102,57.715,39.237,58.787,38.039,58.906z
		 M82.436,91.155L68.91,62.945l-13.494,28.21l-9.986-0.031l18.509-38.525L45.971,15.122l10.056-0.111l12.966,27.1l13.08-27.211
		l9.766,0.111L73.934,52.441l18.527,38.693L82.436,91.155z"/>
</g>
<g>
</g>
<g>
</g>
<g>
</g>
<g>
</g>
<g>
</g>
<g>
</g>
<g>
</g>
<g>
</g>
<g>
</g>
<g>
</g>
<g>
</g>
<g>
</g>
<g>
</g>
<g>
</g>
<g>
</g>
</svg>
