<?xml version="1.0" encoding="iso-8859-1"?>
<!-- Generator: Adobe Illustrator 16.0.0, SVG Export Plug-In . SVG Version: 6.00 Build 0)  -->
<!DOCTYPE svg PUBLIC "-//W3C//DTD SVG 1.1//EN" "http://www.w3.org/Graphics/SVG/1.1/DTD/svg11.dtd">
<svg version="1.1" id="Capa_1" xmlns="http://www.w3.org/2000/svg" xmlns:xlink="http://www.w3.org/1999/xlink" x="0px" y="0px"
	 width="106.048px" height="106.048px" viewBox="0 0 106.048 106.048" style="enable-background:new 0 0 106.048 106.048;"
	 xml:space="preserve">
<g>
	<path style="fill:#010002;" d="M82.746,23.309c5.359,5.362,5.359,14.095,0,19.459l-19.998,19.99l-19.459-19.46l19.998-19.99
		c2.589-2.597,6.048-4.037,9.714-4.037C76.688,19.278,80.146,20.712,82.746,23.309z M106.048,21.209v63.629
		c0,11.666-9.543,21.21-21.21,21.21H21.209C9.543,106.048,0,96.504,0,84.838V21.209C0,9.543,9.543,0,21.209,0h63.628
		C96.505,0,106.048,9.543,106.048,21.209z M87.003,19.055c-3.863-3.863-8.927-5.799-13.991-5.799s-10.118,1.937-13.981,5.799
		L39.035,39.048l-19.99,19.987c-7.726,7.716-7.726,20.247,0.005,27.973c7.715,7.721,20.247,7.721,27.967,0l15.73-15.727
		l24.25-24.249C94.718,39.302,94.718,26.771,87.003,19.055z"/>
</g>
<g>
</g>
<g>
</g>
<g>
</g>
<g>
</g>
<g>
</g>
<g>
</g>
<g>
</g>
<g>
</g>
<g>
</g>
<g>
</g>
<g>
</g>
<g>
</g>
<g>
</g>
<g>
</g>
<g>
</g>
</svg>
