<?xml version="1.0" encoding="iso-8859-1"?>
<!-- Generator: Adobe Illustrator 16.0.0, SVG Export Plug-In . SVG Version: 6.00 Build 0)  -->
<!DOCTYPE svg PUBLIC "-//W3C//DTD SVG 1.1//EN" "http://www.w3.org/Graphics/SVG/1.1/DTD/svg11.dtd">
<svg version="1.1" id="Capa_1" xmlns="http://www.w3.org/2000/svg" xmlns:xlink="http://www.w3.org/1999/xlink" x="0px" y="0px"
	 width="106.048px" height="106.048px" viewBox="0 0 106.048 106.048" style="enable-background:new 0 0 106.048 106.048;"
	 xml:space="preserve">
<g>
	<path style="fill:#010002;" d="M21.209,106.048h63.628c11.667,0,21.21-9.544,21.21-21.21V21.209C106.048,9.543,96.505,0,84.838,0
		H21.209C9.543,0,0,9.543,0,21.209v63.629C0,96.504,9.543,106.048,21.209,106.048z M73.239,34.45
		c2.921-0.394,5.613,1.655,6.007,4.575c0.394,2.934-1.652,5.631-4.567,6.025c-2.931,0.396-5.634-1.654-6.027-4.578
		C68.253,37.546,70.318,34.849,73.239,34.45z M73.141,46.126c0,0,5.028,0.422,6.634,3.948c3.712,5.455,8.14,9.048,10.708,10.416
		c1.129,0.591,1.554,2.004,0.953,3.123c-0.414,0.781-1.212,1.217-2.041,1.217c-0.367,0-0.734-0.088-1.087-0.27
		c-0.368-0.197-7.462-4.111-11.288-10.248l-2.299,12.868c-0.213,1.201,4.712,22.571,4.712,22.571
		c0.394,1.217-0.259,2.521-1.471,2.926c-0.238,0.078-0.487,0.108-0.726,0.108c-0.968,0-1.869-0.61-2.195-1.579l-6.385-21.033
		L59.59,90.431c-0.409,0.797-1.223,1.253-2.061,1.253c-0.353,0-0.715-0.083-1.047-0.248c-1.139-0.575-1.584-1.969-1.01-3.107
		c0,0,8.426-22.939,8.539-23.639l2.02-12.243c-7.125,2.529-10.937,8.111-10.988,8.179c-0.445,0.663-1.18,1.025-1.926,1.025
		c-0.438,0-0.878-0.113-1.271-0.373c-1.054-0.709-1.352-2.128-0.652-3.194c0.23-0.347,9.919-9.72,13.938-11.125
		C69.144,45.58,71.758,45.914,73.141,46.126z M25.621,29.311l0.081-11.081l5.232,7.127l6.506-12.101l1.103,12.339l8.415-5.282
		l-3.993,11.009L53.18,28.13l-5.262,9.108l5.872,0.217l-9.473,8.717l4.179-6.452l-3.421-0.451l3.462-7.436l-7.692,1.346l1.585-7.508
		l-5.991,3.368l-0.759-7.969l-4.194,7.275l-3.917-4.699l-0.552,8.114l-5.483-1.517l1.432,6.664l-5.621-9.825L25.621,29.311z
		 M35.685,40.278c0.339,2.555-1.442,4.909-3.987,5.248c-2.561,0.349-4.917-1.442-5.261-3.998s1.447-4.898,4.01-5.246
		C32.992,35.934,35.341,37.715,35.685,40.278z M16.611,37.085c1.305-0.06,2.408,0.958,2.462,2.257
		c0.005,0.106,0.301,5.069,3.625,7.807c1.851,1.515,4.078,2.514,6.066,1.165c1.015-0.689,3.389-1.696,4.587-1.929
		c1.836-0.365,5.693-0.794,7.226,1.484c2.144,3.182,5.888,6.429,9.01,8.51c-0.152,0.166-0.339,0.362-0.383,0.42
		c-0.906,1.383-0.901,3.039-0.27,4.453c-2.837-1.673-7.179-4.572-9.639-7.855l2.869,9.838c0.318,0,10.367,17.274,12.386,20.754
		c-0.44,1.202-0.865,2.352-1.259,3.429c-0.124,0.269-0.145,0.56-0.217,0.849c-0.011,0-0.026,0.011-0.031,0.011
		c-0.726,0-1.438-0.337-1.888-0.979L38.942,69.853c-0.23,0.052-1.305,20.536-1.305,20.536c0.052,1.27-0.945,2.346-2.216,2.397
		c-1.326,0-2.346-0.979-2.397-2.216l-0.166-24.757c0,0-4.298-9.362-5.566-11.774c-3.694-0.798-5.248-1.285-7.64-3.268
		c-4.963-4.117-5.297-10.934-5.308-11.227C14.289,38.235,15.309,37.106,16.611,37.085z"/>
</g>
<g>
</g>
<g>
</g>
<g>
</g>
<g>
</g>
<g>
</g>
<g>
</g>
<g>
</g>
<g>
</g>
<g>
</g>
<g>
</g>
<g>
</g>
<g>
</g>
<g>
</g>
<g>
</g>
<g>
</g>
</svg>
