<?xml version="1.0" encoding="iso-8859-1"?>
<!-- Generator: Adobe Illustrator 16.0.0, SVG Export Plug-In . SVG Version: 6.00 Build 0)  -->
<!DOCTYPE svg PUBLIC "-//W3C//DTD SVG 1.1//EN" "http://www.w3.org/Graphics/SVG/1.1/DTD/svg11.dtd">
<svg version="1.1" id="Capa_1" xmlns="http://www.w3.org/2000/svg" xmlns:xlink="http://www.w3.org/1999/xlink" x="0px" y="0px"
	 width="79.536px" height="79.536px" viewBox="0 0 79.536 79.536" style="enable-background:new 0 0 79.536 79.536;"
	 xml:space="preserve">
<g>
	<path style="fill:#010002;" d="M73.565,79.536L6.024,79.495c-4.143,0-6.654-3.283-5.579-7.281l1.543-5.654
		c1.077-4.019,5.362-7.28,9.502-7.28h56.354c4.147,0,8.455,3.262,9.59,7.249l1.636,5.769C80.193,76.284,77.713,79.546,73.565,79.536
		z M1.83,51.563V3.283C1.83,1.468,3.293,0,5.11,0H74.43c1.818,0,3.283,1.468,3.283,3.283v48.28c0,1.812-1.465,3.278-3.283,3.278
		H5.11C3.293,54.847,1.83,53.376,1.83,51.563z M8.388,48.28h62.764V6.563H8.388V48.28z"/>
</g>
<g>
</g>
<g>
</g>
<g>
</g>
<g>
</g>
<g>
</g>
<g>
</g>
<g>
</g>
<g>
</g>
<g>
</g>
<g>
</g>
<g>
</g>
<g>
</g>
<g>
</g>
<g>
</g>
<g>
</g>
</svg>
