<?xml version="1.0" encoding="iso-8859-1"?>
<!-- Generator: Adobe Illustrator 16.0.0, SVG Export Plug-In . SVG Version: 6.00 Build 0)  -->
<!DOCTYPE svg PUBLIC "-//W3C//DTD SVG 1.1//EN" "http://www.w3.org/Graphics/SVG/1.1/DTD/svg11.dtd">
<svg version="1.1" id="Capa_1" xmlns="http://www.w3.org/2000/svg" xmlns:xlink="http://www.w3.org/1999/xlink" x="0px" y="0px"
	 width="106.048px" height="106.048px" viewBox="0 0 106.048 106.048" style="enable-background:new 0 0 106.048 106.048;"
	 xml:space="preserve">
<g>
	<path style="fill:#010002;" d="M39.449,41.772c2.074,0.021,4.174,0.09,6.087,0.192l-8.272-11.413
		c-1.225-0.684-5.646-3.516-9.134-4.619l0.163-0.725c0.031,0,6.957,1.113,10.312,4.088l9.191,12.614l0.328,0.249
		c0.997,0.096,1.939,0.202,2.729,0.324l-7.392-10.139l2.731-8.07c-0.349-3.523-6.071-14.693-6.082-14.703l0.577-0.461
		c4.588,3.806,7.376,15.28,7.376,15.28l-2.545,7.633l5.769,7.884c-0.168-1.375-0.264-2.98-0.264-4.741
		c0.147-4.852,0.381-8.658,1.962-9.051c1.595,0.394,1.823,4.189,1.974,9.051c0,1.74-0.104,3.325-0.26,4.697l5.728-7.84l-2.553-7.84
		c0.486-1.287,3.65-11.987,7.409-15.084l0.56,0.472c0,0.01-5.731,11.18-6.1,14.55l2.755,8.212l-7.405,10.129
		c0.798-0.091,1.735-0.208,2.755-0.303l0.321-0.249l9.228-12.679c3.304-2.915,10.242-4.018,10.273-4.039l0.187,0.735
		c-3.501,1.093-7.892,3.904-9.16,4.619l-8.27,11.412c1.916-0.108,3.997-0.17,6.095-0.17c7.275,0.111,14.592,0.587,14.897,3.886
		c0,0.329-0.083,0.657-0.249,0.971c-0.869,1.755-3.304,2.216-6.317,2.247c-5.234,0-12.469-1.649-17.149-2.848l-1.481,1.396
		c1.714,0.536,4.371,1.639,6.183,3.547l0.207,0.339l0.87,7.005l4.868,5.95l-0.549,0.513l-6.027-5.634l-0.86-7.017
		c-1.512-1.597-4.173-2.604-5.654-3.05c-0.196,0.445-0.471,0.854-0.864,1.145c-0.021,0.101-0.042,0.191-0.052,0.271l0.021-0.01
		c0.87,0,1.983,0.391,1.978,1.628c0.006,0.067,0.006,0.148,0,0.189c-0.187,1.421-1.579,2.221-2.47,2.651l-0.45,8.251l-0.749,0.01
		l-0.817-8.393c-0.862-0.482-2.04-1.261-2.178-2.535c0-0.065-0.016-0.127-0.016-0.179c0-1.222,1.118-1.629,1.971-1.629h0.013
		c-0.013-0.075-0.039-0.176-0.039-0.256c-0.401-0.301-0.678-0.709-0.859-1.16c-1.499,0.461-4.166,1.442-5.592,2.864l-1.087,7.436
		l-5.908,5.416l-0.533-0.513l4.782-5.784l1.043-7.379l0.111-0.126c1.81-1.929,4.472-3,6.167-3.557l-1.457-1.386
		c-4.682,1.232-11.931,2.848-17.158,2.858c-3.019-0.041-5.453-0.502-6.333-2.258c-0.152-0.313-0.228-0.631-0.223-0.95
		C24.853,42.37,32.164,41.894,39.449,41.772z M104.738,70.365l-5.598,5.593l4.121,4.116l0.564-0.564
		c0.254-0.248,0.663-0.248,0.912,0c0.248,0.254,0.248,0.663,0,0.911l-0.564,0.57l0.559,0.564c0.254,0.248,0.259,0.657,0.006,0.906
		c-0.119,0.124-0.29,0.191-0.456,0.191c-0.161,0-0.326-0.067-0.45-0.187l-0.57-0.564l-4.121,4.111l4.121,4.116l0.57-0.569
		c0.253-0.248,0.657-0.243,0.906,0.005c0.253,0.249,0.248,0.658-0.006,0.912l-0.559,0.559l0.564,0.57
		c0.248,0.248,0.248,0.662,0,0.911c-0.119,0.124-0.29,0.187-0.456,0.187c-0.161,0-0.326-0.062-0.456-0.187l-0.564-0.569
		l-4.204,4.204c0.01,0.062,0.062,0.104,0.062,0.146c0,0.01,0,0.01,0,0.01c0,0.146-0.072,0.265-0.149,0.363
		c-0.021,0.03-0.011,0.062-0.036,0.088c-0.114,0.108-0.28,0.191-0.456,0.191H97.99c-0.165,0-0.331-0.062-0.455-0.187
		c-0.088-0.083-0.104-0.202-0.124-0.311c-0.016-0.052-0.062-0.094-0.062-0.146s0.047-0.093,0.062-0.145v-0.006l-4.21-4.209
		l-4.199,4.204c0.01,0.062,0.057,0.104,0.057,0.146c0,0.01,0,0.01,0,0.01c0,0.146-0.067,0.265-0.15,0.363
		c-0.021,0.03-0.01,0.062-0.031,0.088c-0.113,0.108-0.279,0.191-0.461,0.191h-0.481c-0.165,0-0.331-0.062-0.461-0.187
		c-0.088-0.083-0.098-0.202-0.119-0.311c-0.021-0.052-0.062-0.094-0.062-0.146s0.041-0.093,0.062-0.145v-0.006l-4.204-4.204
		l-4.215,4.215c0.021,0.058,0.062,0.088,0.062,0.14c0,0.353-0.29,0.643-0.642,0.643h-0.477c-0.353,0-0.643-0.29-0.643-0.643
		c0-0.062,0.053-0.093,0.067-0.145l-4.21-4.21l-4.204,4.204v0.006c0.016,0.052,0.062,0.093,0.062,0.145s-0.047,0.099-0.062,0.146
		c-0.031,0.108-0.041,0.228-0.124,0.311c-0.125,0.124-0.29,0.187-0.456,0.187h-0.492c-0.181,0-0.336-0.083-0.455-0.191
		c-0.026-0.026-0.016-0.058-0.036-0.088c-0.083-0.104-0.15-0.218-0.15-0.363c0,0,0,0,0-0.01c0-0.052,0.057-0.094,0.067-0.146
		l-4.215-4.21l-4.21,4.21c0.016,0.062,0.067,0.104,0.067,0.146c0,0.01,0,0.01,0,0.01c0,0.146-0.073,0.265-0.146,0.363
		c-0.021,0.03-0.01,0.062-0.041,0.088c-0.109,0.108-0.27,0.191-0.456,0.191h-0.486c-0.166,0-0.326-0.062-0.456-0.187
		c-0.083-0.083-0.093-0.202-0.119-0.311c-0.016-0.052-0.067-0.094-0.067-0.146s0.052-0.093,0.067-0.145v-0.006l-4.199-4.209
		l-4.205,4.209c0.011,0.058,0.058,0.099,0.058,0.15v0.006c0,0.088-0.062,0.15-0.102,0.238c-0.03,0.072-0.036,0.16-0.096,0.212
		c-0.121,0.124-0.29,0.187-0.45,0.187h-0.481c-0.166,0-0.329-0.062-0.461-0.187c-0.085-0.083-0.101-0.202-0.122-0.311
		c-0.018-0.052-0.06-0.094-0.06-0.146s0.042-0.093,0.06-0.145l0.005-0.016l-4.205-4.205l-4.212,4.21
		c0.018,0.062,0.065,0.104,0.065,0.146c0,0.01,0,0.01,0,0.01c0,0.146-0.07,0.265-0.147,0.363c-0.016,0.03-0.011,0.062-0.034,0.088
		c-0.117,0.108-0.28,0.191-0.456,0.191h-0.487c-0.166,0-0.329-0.062-0.455-0.187c-0.091-0.083-0.102-0.202-0.122-0.311
		c-0.018-0.052-0.064-0.094-0.064-0.146s0.046-0.093,0.064-0.145v-0.006l-4.199-4.209l-4.218,4.209v0.006
		c0.018,0.052,0.065,0.093,0.065,0.145s-0.047,0.099-0.065,0.146c-0.026,0.108-0.042,0.228-0.122,0.311
		c-0.122,0.124-0.29,0.187-0.456,0.187h-0.487c-0.166,0-0.329-0.062-0.456-0.187c-0.091-0.083-0.101-0.202-0.122-0.311
		c-0.018-0.052-0.064-0.094-0.064-0.146s0.046-0.093,0.064-0.145l0.005-0.006l-4.212-4.209l-4.21,4.204
		c0.019,0.062,0.07,0.104,0.07,0.146c0,0.01,0,0.01,0,0.01c0,0.146-0.075,0.265-0.148,0.363c-0.023,0.03-0.01,0.062-0.039,0.088
		c-0.111,0.108-0.274,0.191-0.456,0.191h-0.486c-0.166,0-0.329-0.062-0.456-0.187c-0.085-0.083-0.096-0.202-0.122-0.311
		c-0.018-0.052-0.065-0.094-0.065-0.146s0.047-0.093,0.065-0.145v-0.006l-4.207-4.215l-4.2,4.21
		c0.013,0.062,0.065,0.104,0.065,0.146c0,0.01,0,0.01,0,0.01c0,0.146-0.07,0.265-0.148,0.363c-0.021,0.03-0.01,0.062-0.039,0.088
		c-0.111,0.108-0.274,0.191-0.456,0.191H7.487c-0.166,0-0.329-0.062-0.456-0.187c-0.085-0.083-0.096-0.202-0.122-0.311
		c-0.018-0.052-0.06-0.094-0.06-0.146s0.042-0.093,0.06-0.145v-0.006l-4.212-4.209l-0.557,0.559
		c-0.122,0.119-0.29,0.187-0.456,0.187c-0.163,0-0.329-0.067-0.456-0.187c-0.248-0.259-0.248-0.662,0-0.911l0.557-0.564
		l-0.557-0.554c-0.248-0.254-0.243-0.663,0.005-0.912c0.249-0.248,0.658-0.242,0.906,0.006l0.551,0.559l4.127-4.116l-4.127-4.111
		l-0.551,0.554c-0.122,0.119-0.29,0.191-0.456,0.191c-0.163,0-0.329-0.062-0.451-0.186c-0.249-0.249-0.253-0.658-0.005-0.906
		l0.557-0.555l-0.557-0.564c-0.248-0.248-0.248-0.662,0-0.911c0.249-0.253,0.663-0.253,0.912,0l0.551,0.549l4.122-4.116l-5.59-5.582
		c-0.075-0.072-0.08-0.166-0.106-0.264C0.505,69.853,0,69.355,0,68.636c0-0.952,0.774-1.719,1.724-1.719h102.599
		c0.958,0,1.725,0.771,1.725,1.719c0,0.762-0.538,1.279-1.212,1.512C104.805,70.221,104.805,70.304,104.738,70.365z M14.253,70.365
		L13.67,70.94l4.109,4.106l4.119-4.112l-0.572-0.569H14.253z M24.296,70.365l-0.572,0.569l4.114,4.112l4.109-4.112l-0.577-0.569
		H24.296z M34.344,70.365l-0.567,0.564l4.114,4.117l4.119-4.112l-0.572-0.569H34.344z M44.407,70.365l-0.572,0.569l4.114,4.112
		l4.114-4.112l-0.572-0.569H44.407z M54.474,70.365l-0.585,0.575l4.106,4.106l4.116-4.117l-0.564-0.564H54.474z M64.509,70.365
		l-0.569,0.564l4.122,4.117l4.121-4.112l-0.574-0.569H64.509z M74.575,70.365L74,70.935l4.117,4.112l4.111-4.117l-0.569-0.564
		H74.575z M12.756,71.841l-4.119,4.117l4.114,4.116l4.122-4.116L12.756,71.841z M13.66,80.991l4.12,4.116l4.114-4.116l-4.114-4.117
		L13.66,80.991z M22.81,80.074l4.117-4.106l-4.117-4.121l-4.114,4.111L22.81,80.074z M23.718,80.991l4.119,4.116l4.114-4.116
		l-4.125-4.117L23.718,80.991z M32.871,80.074l4.104-4.106l-4.117-4.121l-4.114,4.111L32.871,80.074z M33.771,80.991l4.114,4.116
		L42,80.991l-4.114-4.117L33.771,80.991z M42.924,80.079l4.114-4.111l-4.114-4.121l-4.122,4.111L42.924,80.079z M43.83,80.991
		l4.119,4.116l4.109-4.116l-4.109-4.117L43.83,80.991z M52.978,80.074l4.116-4.116l-4.116-4.106l-4.117,4.106L52.978,80.074z
		 M53.878,80.991l4.117,4.116l4.116-4.116l-4.116-4.117L53.878,80.991z M63.028,80.079l4.127-4.121l-4.127-4.117l-4.111,4.117
		L63.028,80.079z M63.939,80.991l4.116,4.116l4.117-4.116l-4.117-4.122L63.939,80.991z M73.089,80.074l4.117-4.116l-4.112-4.111
		l-4.121,4.111L73.089,80.074z M74,80.991l4.117,4.111l4.111-4.111l-4.111-4.122L74,80.991z M83.15,80.074l4.111-4.116l-4.111-4.111
		l-4.122,4.111L83.15,80.074z M84.062,80.991l4.116,4.111l4.106-4.111l-4.111-4.117L84.062,80.991z M93.201,80.074l4.127-4.116
		l-4.127-4.111l-4.122,4.111L93.201,80.074z M91.72,70.365h-7.094l-0.564,0.564l4.116,4.117l4.117-4.112L91.72,70.365z
		 M7.731,75.047l4.119-4.112l-0.572-0.569H3.04L7.731,75.047z M7.731,85.107l4.114-4.116l-4.114-4.117l-4.114,4.117L7.731,85.107z
		 M11.845,91.042L7.731,86.92l-4.114,4.116l4.114,4.122L11.845,91.042z M12.751,90.125l4.117-4.111l-4.117-4.111l-4.109,4.111
		L12.751,90.125z M21.898,91.036l-4.114-4.116l-4.119,4.122l4.119,4.116L21.898,91.036z M22.81,90.13l4.122-4.116l-4.122-4.111
		l-4.119,4.111L22.81,90.13z M31.952,91.036l-4.114-4.116l-4.119,4.116l4.109,4.122L31.952,91.036z M36.979,86.014l-4.114-4.111
		l-4.116,4.106l4.116,4.111L36.979,86.014z M42.005,91.036l-4.114-4.116l-4.114,4.122l4.114,4.116L42.005,91.036z M42.924,90.13
		l4.119-4.116l-4.119-4.111l-4.127,4.111L42.924,90.13z M52.059,91.036l-4.109-4.116l-4.119,4.116l4.119,4.122L52.059,91.036z
		 M52.978,90.13l4.116-4.116l-4.116-4.111l-4.117,4.111L52.978,90.13z M62.117,91.036l-4.112-4.116l-4.121,4.116l4.121,4.122
		L62.117,91.036z M63.028,90.13l4.121-4.116l-4.121-4.111l-4.111,4.111L63.028,90.13z M72.173,91.042l-4.117-4.122l-4.116,4.116
		l4.116,4.122L72.173,91.042z M73.089,90.13l4.117-4.116l-4.117-4.111l-4.116,4.111L73.089,90.13z M82.233,91.042l-4.116-4.117
		l-4.111,4.117l4.111,4.116L82.233,91.042z M83.15,90.13l4.116-4.116l-4.116-4.111l-4.122,4.111L83.15,90.13z M92.284,91.036
		l-4.106-4.111l-4.116,4.117l4.111,4.116L92.284,91.036z M93.206,90.13l4.122-4.116l-4.122-4.111l-4.116,4.111L93.206,90.13z
		 M98.229,86.92l-4.121,4.116l4.121,4.122l4.122-4.122L98.229,86.92z M98.229,76.869l-4.121,4.122l4.121,4.111l4.122-4.111
		L98.229,76.869z M102.931,70.365h-8.243l-0.58,0.569l4.121,4.112L102.931,70.365z"/>
</g>
<g>
</g>
<g>
</g>
<g>
</g>
<g>
</g>
<g>
</g>
<g>
</g>
<g>
</g>
<g>
</g>
<g>
</g>
<g>
</g>
<g>
</g>
<g>
</g>
<g>
</g>
<g>
</g>
<g>
</g>
</svg>
