<?xml version="1.0" encoding="iso-8859-1"?>
<!-- Generator: Adobe Illustrator 16.0.0, SVG Export Plug-In . SVG Version: 6.00 Build 0)  -->
<!DOCTYPE svg PUBLIC "-//W3C//DTD SVG 1.1//EN" "http://www.w3.org/Graphics/SVG/1.1/DTD/svg11.dtd">
<svg version="1.1" id="Capa_1" xmlns="http://www.w3.org/2000/svg" xmlns:xlink="http://www.w3.org/1999/xlink" x="0px" y="0px"
	 width="106.048px" height="106.048px" viewBox="0 0 106.048 106.048" style="enable-background:new 0 0 106.048 106.048;"
	 xml:space="preserve">
<g>
	<path style="fill:#010002;" d="M52.059,88.701l-4.109,4.116l-4.119-4.116l4.119-4.117L52.059,88.701z M8.642,93.729l4.109,4.111
		l4.117-4.111l-4.117-4.105L8.642,93.729z M38.792,93.729l4.127,4.117l4.119-4.117l-4.114-4.116L38.792,93.729z M48.86,93.729
		l4.117,4.117l4.116-4.117l-4.116-4.116L48.86,93.729z M17.784,84.584l-4.119,4.117l4.119,4.116l4.114-4.116L17.784,84.584z
		 M57.995,84.584l-4.117,4.117l4.117,4.116l4.116-4.116L57.995,84.584z M18.685,93.729l4.119,4.117l4.122-4.117l-4.117-4.116
		L18.685,93.729z M27.827,84.584l-4.109,4.117l4.119,4.116l4.114-4.116L27.827,84.584z M28.749,93.729l4.116,4.111l4.109-4.111
		l-4.109-4.105L28.749,93.729z M37.891,84.584l-4.114,4.117l4.114,4.116l4.114-4.116L37.891,84.584z M89.09,93.729l4.116,4.117
		l4.122-4.117l-4.122-4.116L89.09,93.729z M58.917,93.729l4.111,4.117l4.116-4.117l-4.116-4.116L58.917,93.729z M93.201,87.789
		l4.127-4.111l-4.127-4.116l-4.122,4.111L93.201,87.789z M92.295,78.65l-0.575-0.575h-7.094l-0.564,0.569l4.116,4.122L92.295,78.65z
		 M88.173,84.584l-4.111,4.117l4.116,4.111l4.106-4.111L88.173,84.584z M68.056,84.579l-4.116,4.122l4.116,4.116l4.117-4.116
		L68.056,84.579z M78.117,84.579L74,88.701l4.117,4.111l4.111-4.111L78.117,84.579z M68.973,93.729l4.116,4.117l4.117-4.117
		l-4.117-4.116L68.973,93.729z M79.028,93.729l4.122,4.117l4.111-4.117l-4.111-4.116L79.028,93.729z M32.871,87.789l4.104-4.105
		l-4.117-4.122l-4.114,4.111L32.871,87.789z M83.15,87.789l4.111-4.111l-4.111-4.116l-4.122,4.111L83.15,87.789z M42.01,78.65
		l-0.572-0.575h-7.094l-0.567,0.569l4.114,4.122L42.01,78.65z M42.924,87.8l4.114-4.116l-4.114-4.122l-4.127,4.111L42.924,87.8z
		 M22.81,87.789l4.117-4.105l-4.117-4.122l-4.119,4.111L22.81,87.789z M106.048,21.209v63.629c0,11.666-9.543,21.21-21.21,21.21
		H21.209C9.543,106.048,0,96.504,0,84.838V21.209C0,9.543,9.543,0,21.209,0h63.628C96.505,0,106.048,9.543,106.048,21.209z
		 M24.56,53.417c-0.005,0.316,0.07,0.632,0.223,0.948c0.88,1.755,3.314,2.216,6.333,2.263c5.228-0.016,12.477-1.632,17.152-2.858
		l1.458,1.388c-1.696,0.554-4.357,1.631-6.167,3.562l-0.112,0.124l-1.043,7.379l-4.782,5.784l0.533,0.513l5.908-5.416l1.087-7.437
		c1.432-1.424,4.094-2.402,5.598-2.863c0.182,0.45,0.458,0.859,0.859,1.16c0,0.088,0.026,0.181,0.039,0.259h-0.013
		c-0.853,0-1.971,0.404-1.971,1.631c0,0.052,0.016,0.119,0.016,0.182c0.132,1.264,1.315,2.051,2.178,2.531l0.808,8.389l0.748-0.01
		l0.451-8.249c0.891-0.43,2.283-1.232,2.47-2.651c0.005-0.041,0.005-0.124,0-0.191c0.005-1.227-1.108-1.631-1.979-1.631l-0.021,0.01
		c0.011-0.077,0.031-0.165,0.052-0.269c0.394-0.29,0.668-0.699,0.864-1.145c1.481,0.445,4.143,1.455,5.655,3.05l0.859,7.021
		l6.027,5.629l0.549-0.513l-4.867-5.95l-0.87-7.006l-0.207-0.336c-1.812-1.911-4.469-3.014-6.183-3.547l1.48-1.398
		c4.691,1.206,11.915,2.848,17.15,2.848c3.014-0.031,5.447-0.492,6.317-2.247c0.165-0.311,0.248-0.637,0.248-0.974
		c-0.306-3.293-7.622-3.777-14.897-3.884c-2.097,0-4.179,0.07-6.095,0.171l8.27-11.412c1.259-0.715,5.649-3.526,9.16-4.616
		l-0.187-0.738c-0.03,0.021-6.964,1.124-10.273,4.039L58.16,49.635l-0.32,0.251c-1.016,0.093-1.952,0.212-2.755,0.3l7.404-10.125
		l-2.755-8.215c0.368-3.371,6.101-14.538,6.101-14.548l-0.56-0.474c-3.76,3.097-6.923,13.797-7.404,15.092l2.558,7.837l-5.737,7.843
		c0.155-1.375,0.259-2.96,0.259-4.699c-0.146-4.862-0.373-8.658-1.968-9.052c-1.582,0.394-1.814,4.2-1.963,9.052
		c0,1.76,0.096,3.368,0.265,4.74l-5.764-7.899l2.545-7.63c0,0-2.788-11.475-7.376-15.283l-0.577,0.461
		c0.01,0.013,5.727,11.18,6.076,14.701l-2.726,8.076l7.397,10.136c-0.789-0.122-1.732-0.228-2.729-0.321l-0.329-0.251L38.605,37.01
		c-3.355-2.975-10.281-4.088-10.312-4.088l-0.163,0.728c3.488,1.104,7.91,3.933,9.14,4.617l8.277,11.413
		c-1.919-0.101-4.023-0.171-6.098-0.191C32.164,49.604,24.853,50.085,24.56,53.417z M100.745,74.627H5.302v3.448h5.976l0.572,0.569
		l-4.119,4.111l-2.429-2.423v1.823l1.517,1.517l-1.486,1.476c0.01,0.57,0.101,1.119,0.171,1.662l2.227-2.231l4.114,4.111
		l-4.114,4.122l-0.435-0.436c1.468,2.693,3.669,4.898,6.369,6.364l4.114-4.116l4.114,4.116l-1.877,1.88
		c0.409,0.031,0.79,0.124,1.193,0.124h0.521l1.08-1.082l1.082,1.082h1.815l-1.988-1.993l4.119-4.117l4.114,4.117l-1.999,1.993h1.836
		l1.082-1.082l1.08,1.082h1.81l-1.988-1.988l4.114-4.122L42,98.752l-1.988,1.993h1.825l1.087-1.087l1.085,1.087h1.815l-1.994-1.993
		l4.119-4.117l4.109,4.117l-1.988,1.993h1.824l1.083-1.082l1.071,1.082h1.823l-1.994-1.993l4.117-4.117l4.116,4.117l-1.988,1.993
		h1.817l1.088-1.087l1.087,1.087h1.812l-1.988-1.993l4.116-4.117l4.117,4.122l-1.988,1.988h1.827l1.077-1.077l1.072,1.077h1.828
		L74,98.757l4.117-4.111l4.111,4.111l-1.983,1.988h1.828l1.077-1.077l1.077,1.077h0.61c0.373,0,0.735-0.083,1.098-0.114
		l-1.874-1.874l4.111-4.111l4.111,4.106l-0.119,0.119c2.854-1.502,5.173-3.822,6.686-6.67l-0.622,0.616l-4.121-4.116l4.121-4.117
		l2.31,2.305c0.073-0.549,0.146-1.088,0.166-1.652l-1.563-1.568l1.604-1.595v-1.812l-2.517,2.506l-4.121-4.111l0.58-0.569h6.058
		V74.627z M21.903,78.65l-0.572-0.575h-7.078l-0.583,0.58l4.109,4.111L21.903,78.65z M12.751,87.8l4.122-4.122l-4.117-4.116
		l-4.119,4.111L12.751,87.8z M31.946,78.65l-0.577-0.575h-7.073l-0.572,0.575l4.114,4.105L31.946,78.65z M52.063,78.65l-0.572-0.575
		h-7.084l-0.572,0.575l4.114,4.116L52.063,78.65z M82.233,78.645l-0.564-0.569h-7.094l-0.569,0.575l4.111,4.105L82.233,78.645z
		 M72.183,78.65l-0.574-0.575h-7.1l-0.569,0.569l4.122,4.122L72.183,78.65z M73.089,87.789l4.117-4.116l-4.112-4.111l-4.121,4.116
		L73.089,87.789z M63.028,87.8l4.127-4.122l-4.127-4.121l-4.122,4.116L63.028,87.8z M52.978,87.789l4.116-4.111l-4.116-4.111
		l-4.117,4.117L52.978,87.789z M62.117,78.645l-0.57-0.569h-7.073l-0.58,0.58l4.111,4.101L62.117,78.645z"/>
</g>
<g>
</g>
<g>
</g>
<g>
</g>
<g>
</g>
<g>
</g>
<g>
</g>
<g>
</g>
<g>
</g>
<g>
</g>
<g>
</g>
<g>
</g>
<g>
</g>
<g>
</g>
<g>
</g>
<g>
</g>
</svg>
