<?xml version="1.0" encoding="iso-8859-1"?>
<!-- Generator: Adobe Illustrator 16.0.0, SVG Export Plug-In . SVG Version: 6.00 Build 0)  -->
<!DOCTYPE svg PUBLIC "-//W3C//DTD SVG 1.1//EN" "http://www.w3.org/Graphics/SVG/1.1/DTD/svg11.dtd">
<svg version="1.1" id="Capa_1" xmlns="http://www.w3.org/2000/svg" xmlns:xlink="http://www.w3.org/1999/xlink" x="0px" y="0px"
	 width="106.048px" height="106.048px" viewBox="0 0 106.048 106.048" style="enable-background:new 0 0 106.048 106.048;"
	 xml:space="preserve">
<g>
	<path style="fill:#010002;" d="M68.434,58.875c-0.891,0.367-1.708,0.942-2.454,1.709c-0.761,0.776-1.347,1.646-1.781,2.609
		c-0.58,1.315-0.859,2.951-0.859,4.889c0,3.029,0.828,5.416,2.506,7.135c1.668,1.74,3.915,2.595,6.753,2.595
		c2.791,0,5.033-0.865,6.7-2.604c1.678-1.729,2.517-4.143,2.517-7.213c0-3.103-0.85-5.521-2.527-7.266
		c-1.688-1.74-3.936-2.609-6.742-2.609C70.992,58.113,69.625,58.362,68.434,58.875z M76.398,63.012
		c0.952,1.072,1.439,2.709,1.439,4.894c0,2.206-0.503,3.863-1.481,4.972c-0.989,1.098-2.237,1.656-3.77,1.656
		c-1.533,0-2.796-0.554-3.79-1.672c-1-1.108-1.502-2.75-1.502-4.904c0-2.195,0.486-3.832,1.455-4.919
		c0.968-1.087,2.252-1.631,3.837-1.631S75.435,61.94,76.398,63.012z M35.771,58.439h3.583v19.046h-3.865l-7.671-12.428v12.428
		h-3.586V58.439h3.749l7.791,12.713V58.439z M52.275,67.273h8.283v7.592c-0.803,0.776-1.979,1.471-3.496,2.061
		c-1.532,0.59-3.075,0.891-4.642,0.891c-1.988,0-3.739-0.414-5.22-1.253c-1.479-0.829-2.586-2.03-3.335-3.583
		c-0.748-1.554-1.118-3.252-1.118-5.075c0-1.988,0.424-3.749,1.25-5.292c0.829-1.543,2.042-2.724,3.648-3.541
		c1.22-0.633,2.747-0.953,4.567-0.953c2.358,0,4.207,0.497,5.543,1.486c1.325,0.999,2.185,2.366,2.563,4.116l-3.827,0.715
		c-0.27-0.942-0.771-1.673-1.517-2.217c-0.741-0.544-1.652-0.812-2.763-0.812c-1.678,0-3.024,0.533-4.011,1.6
		c-1.002,1.062-1.489,2.642-1.489,4.743c0,2.264,0.497,3.956,1.499,5.085c1.005,1.134,2.323,1.698,3.957,1.698
		c0.795,0,1.61-0.155,2.423-0.481c0.808-0.311,1.502-0.698,2.087-1.144v-2.419h-4.404V67.273z M84.838,0H21.209
		C9.543,0,0,9.543,0,21.209v63.629c0,11.666,9.543,21.21,21.209,21.21h63.628c11.667,0,21.21-9.544,21.21-21.21V21.209
		C106.048,9.543,96.505,0,84.838,0z M51.486,13.256h2.843v2.19c2.319-0.922,4.505-1.422,6.534-1.422
		c0.611,0,1.336,0.106,2.206,0.318c0.859,0.197,1.792,0.43,2.775,0.741c1.025,0.308,1.947,0.58,2.833,0.759
		c0.844,0.225,1.59,0.318,2.18,0.318c1.129,0,2.123-0.217,3.045-0.608V27.55c-1.108,0.298-2.107,0.43-3.045,0.43
		c-0.59,0-1.336-0.085-2.18-0.285c-0.886-0.207-1.808-0.451-2.833-0.774c-0.983-0.282-1.957-0.531-2.868-0.759
		c-0.896-0.202-1.668-0.303-2.269-0.303c-0.311,0-0.781,0.07-1.439,0.228c-0.668,0.146-1.347,0.35-2.051,0.601
		c-0.725,0.259-1.336,0.497-1.905,0.705c-0.414,0.147-0.725,0.186-0.994,0.233v12.163h-2.832V13.256z M86.65,92.792H63.422v-5.976
		H42.333v5.976H19.397V48.845h12.922v-6.907h41.417v6.907h12.92v43.947H86.65z"/>
</g>
<g>
</g>
<g>
</g>
<g>
</g>
<g>
</g>
<g>
</g>
<g>
</g>
<g>
</g>
<g>
</g>
<g>
</g>
<g>
</g>
<g>
</g>
<g>
</g>
<g>
</g>
<g>
</g>
<g>
</g>
</svg>
