<?xml version="1.0" encoding="iso-8859-1"?>
<!-- Generator: Adobe Illustrator 16.0.0, SVG Export Plug-In . SVG Version: 6.00 Build 0)  -->
<!DOCTYPE svg PUBLIC "-//W3C//DTD SVG 1.1//EN" "http://www.w3.org/Graphics/SVG/1.1/DTD/svg11.dtd">
<svg version="1.1" id="Capa_1" xmlns="http://www.w3.org/2000/svg" xmlns:xlink="http://www.w3.org/1999/xlink" x="0px" y="0px"
	 width="106.048px" height="106.048px" viewBox="0 0 106.048 106.048" style="enable-background:new 0 0 106.048 106.048;"
	 xml:space="preserve">
<g>
	<path style="fill:#010002;" d="M84.838,0H21.209C9.543,0,0,9.543,0,21.209v63.629c0,11.666,9.543,21.21,21.209,21.21h63.628
		c11.667,0,21.21-9.544,21.21-21.21V21.209C106.048,9.543,96.505,0,84.838,0z M66.704,91.383c0,0.771-0.632,1.409-1.408,1.409
		c-0.782,0-1.413-0.638-1.413-1.409V60.739c0-1.212-0.989-2.211-2.217-2.211c-1.217,0-2.206,0.999-2.206,2.211
		c0,0.776-0.637,1.403-1.408,1.403c-0.776,0-1.413-0.627-1.413-1.403c0-2.071,1.247-3.821,3.019-4.593
		c-3.567-5.303-5.551-11.151-6.618-16.024l-6.431,18.22c-0.005,0.01-0.026,0.021-0.031,0.025c0.233,0.782,4.194,14.769-0.51,30.613
		c-0.472,1.595-1.924,2.609-3.506,2.609c-0.339,0-0.694-0.041-1.038-0.145c-1.937-0.569-3.045-2.609-2.47-4.547
		c3.736-12.608,1.09-24.182,0.572-26.186c-3.956-7.754-4.73-14.895-2.271-21.264C41.28,29.29,52.053,25.271,52.509,25.101
		c1.888-0.694,4.011,0.293,4.694,2.186c0.243,0.668,0.16,2.242,0.16,2.379c0,0.13,0.135,14.01,7.529,24.213
		c0.688,0.958,0.684,2.19,0.093,3.144c1.036,0.916,1.719,2.221,1.719,3.713V91.383z M62.935,27.599
		c-3.966,0-7.187-3.213-7.187-7.179c0-3.972,3.221-7.169,7.187-7.169c3.946,0,7.167,3.198,7.167,7.169
		C70.102,24.386,66.881,27.599,62.935,27.599z"/>
</g>
<g>
</g>
<g>
</g>
<g>
</g>
<g>
</g>
<g>
</g>
<g>
</g>
<g>
</g>
<g>
</g>
<g>
</g>
<g>
</g>
<g>
</g>
<g>
</g>
<g>
</g>
<g>
</g>
<g>
</g>
</svg>
