<?xml version="1.0" encoding="iso-8859-1"?>
<!-- Generator: Adobe Illustrator 16.0.0, SVG Export Plug-In . SVG Version: 6.00 Build 0)  -->
<!DOCTYPE svg PUBLIC "-//W3C//DTD SVG 1.1//EN" "http://www.w3.org/Graphics/SVG/1.1/DTD/svg11.dtd">
<svg version="1.1" id="Capa_1" xmlns="http://www.w3.org/2000/svg" xmlns:xlink="http://www.w3.org/1999/xlink" x="0px" y="0px"
	 width="106.048px" height="106.048px" viewBox="0 0 106.048 106.048" style="enable-background:new 0 0 106.048 106.048;"
	 xml:space="preserve">
<g>
	<path style="fill:#010002;" d="M84.838,0H21.209C9.543,0,0,9.543,0,21.209v63.629c0,11.666,9.543,21.21,21.209,21.21h63.628
		c11.667,0,21.21-9.544,21.21-21.21V21.209C106.048,9.543,96.505,0,84.838,0z M54.474,13.256l3.438,3.816l-3.438,3.065l-3.925-3.446
		L54.474,13.256z M46.486,18.739c1.776,2.708,4.274,4.07,7.49,4.07c2.791,0,5.085-1.362,6.866-4.07l4.442,4.07
		c-2.961,2.975-5.934,4.461-8.885,4.461c-4.506,0-8.44-2.424-11.822-7.265L46.486,18.739z M74.119,92.792H31.581V71.944h42.538
		V92.792L74.119,92.792z M74.813,53.997c-1.781,2.729-4.153,4.075-7.104,4.075c-2.128,0-3.614-0.688-4.464-2.098
		c-0.839-1.402-1.273-3.715-1.273-6.933v-2.429c0-3.055-0.85-4.578-2.537-4.578c-1.439,0-3.263,0.722-5.458,2.154
		c2.978,3.749,4.443,7.392,4.443,10.957c0,2.978-0.969,5.35-2.921,7.12c-1.947,1.786-4.489,2.672-7.625,2.672
		c-2.54,0-4.909-0.585-7.114-1.771c-2.206-1.196-4.179-2.858-5.906-5.033c-1.735-2.16-3.162-4.738-4.259-7.697
		c-1.103-2.965-1.766-6.206-2.042-9.678l1.784-0.515c0.938,6.11,2.845,10.993,5.725,14.644c2.881,3.655,6.354,5.468,10.426,5.468
		c2.03,0,3.785-0.709,5.271-2.144c1.474-1.45,2.219-3.194,2.219-5.225c0-2.048-0.445-3.94-1.333-5.737
		c-0.886-1.776-2.139-3.526-3.744-5.214c-0.687,1.188-1.527,2.154-2.545,2.928c-1.02,0.753-2.123,1.391-3.314,1.913l-2.149-5.359
		c5.245-1.442,7.868-3.94,7.868-7.513c0-1.437-0.445-2.488-1.331-3.117c-0.885-0.637-2.094-0.95-3.619-0.95
		c-1.093,0-2.271,0.228-3.49,0.705c-1.235,0.468-2.488,1.035-3.754,1.719l-2.281-5.605c1.188-0.684,2.281-1.129,3.304-1.331
		c1.018-0.217,2.115-0.334,3.304-0.334c2.964,0,5.377,0.986,7.239,2.938c1.871,1.95,2.793,4.49,2.793,7.63
		c0,0.683-0.08,1.346-0.254,1.983c-0.165,0.634-0.339,1.246-0.51,1.851l0.764,0.751c3.208-2.708,6.139-4.07,8.77-4.07h0.497
		c0.342,0,0.554,0.042,0.642,0.119c1.191-5.507,3.863-8.274,8.006-8.274c5.758,0,8.647,4.751,8.647,14.258
		C77.485,47.382,76.584,51.284,74.813,53.997z M73.291,35.659c1.264,1.877,1.905,4.3,1.905,7.262c0,2.893-0.725,5.282-2.164,7.198
		c-1.439,1.903-3.221,2.864-5.323,2.864c-2.294,0-3.448-1.963-3.448-5.859v-6.231c0-1.952-0.627-3.314-1.896-4.083
		c1.269-2.641,3.299-3.933,6.095-3.933C70.412,32.875,72.022,33.803,73.291,35.659z"/>
</g>
<g>
</g>
<g>
</g>
<g>
</g>
<g>
</g>
<g>
</g>
<g>
</g>
<g>
</g>
<g>
</g>
<g>
</g>
<g>
</g>
<g>
</g>
<g>
</g>
<g>
</g>
<g>
</g>
<g>
</g>
</svg>
