<?xml version="1.0" encoding="iso-8859-1"?>
<!-- Generator: Adobe Illustrator 16.0.0, SVG Export Plug-In . SVG Version: 6.00 Build 0)  -->
<!DOCTYPE svg PUBLIC "-//W3C//DTD SVG 1.1//EN" "http://www.w3.org/Graphics/SVG/1.1/DTD/svg11.dtd">
<svg version="1.1" id="Capa_1" xmlns="http://www.w3.org/2000/svg" xmlns:xlink="http://www.w3.org/1999/xlink" x="0px" y="0px"
	 width="106.048px" height="106.048px" viewBox="0 0 106.048 106.048" style="enable-background:new 0 0 106.048 106.048;"
	 xml:space="preserve">
<g>
	<path style="fill:#010002;" d="M21.209,106.048h63.628c11.667,0,21.21-9.544,21.21-21.21V21.209C106.048,9.543,96.505,0,84.838,0
		H21.209C9.543,0,0,9.543,0,21.209v63.629C0,96.504,9.543,106.048,21.209,106.048z M75.88,32.127c4.785,0,8.689,3.886,8.689,8.702
		c0,4.803-3.899,8.689-8.689,8.689c-4.805,0-8.709-3.881-8.709-8.689C67.171,36.014,71.064,32.127,75.88,32.127z M75.041,51.556
		h0.829h0.833c8.114,0,11.413,2.648,13.562,7.009c0.663,1.352,1.771,12.334,2.527,20.495h-5.955L85.47,64.923L85.04,79.06H66.704
		l-0.43-14.137L64.902,79.06h-5.949c0.761-8.161,1.869-19.144,2.532-20.495C63.613,54.204,66.927,51.556,75.041,51.556z
		 M61.443,39.146c0,0.823-0.673,1.496-1.491,1.496H48.076c-0.821,0-1.494-0.673-1.494-1.496c0-0.821,0.673-1.494,1.494-1.494h11.865
		C60.771,37.652,61.443,38.326,61.443,39.146z M42.53,34.439l13.56-7.265c0.719-0.404,1.636-0.122,2.019,0.61
		c0.394,0.726,0.114,1.631-0.61,2.02L43.941,37.07c-0.228,0.127-0.471,0.179-0.712,0.179c-0.536,0-1.043-0.285-1.315-0.79
		C41.523,35.734,41.798,34.825,42.53,34.439z M41.914,41.585c0.389-0.73,1.3-1.007,2.022-0.608l13.556,7.265
		c0.73,0.386,1.005,1.292,0.611,2.02c-0.27,0.51-0.781,0.79-1.315,0.79c-0.238,0-0.481-0.057-0.704-0.181l-13.559-7.262
		C41.798,43.214,41.523,42.308,41.914,41.585z M30.175,32.127c4.8,0,8.692,3.886,8.692,8.702c0,4.803-3.887,8.689-8.692,8.689
		c-4.813,0-8.722-3.881-8.722-8.689C21.458,36.014,25.362,32.127,30.175,32.127z M15.785,58.564
		c2.136-4.36,5.435-7.009,13.554-7.009h0.842h0.829c8.111,0,11.425,2.648,13.556,7.009c0.676,1.352,1.779,12.334,2.535,20.495h-5.96
		l-1.367-14.137l-0.43,14.137H21.008l-0.43-14.137L19.211,79.06h-5.955C14.004,70.898,15.117,59.916,15.785,58.564z"/>
</g>
<g>
</g>
<g>
</g>
<g>
</g>
<g>
</g>
<g>
</g>
<g>
</g>
<g>
</g>
<g>
</g>
<g>
</g>
<g>
</g>
<g>
</g>
<g>
</g>
<g>
</g>
<g>
</g>
<g>
</g>
</svg>
