<?xml version="1.0" encoding="iso-8859-1"?>
<!-- Generator: Adobe Illustrator 16.0.0, SVG Export Plug-In . SVG Version: 6.00 Build 0)  -->
<!DOCTYPE svg PUBLIC "-//W3C//DTD SVG 1.1//EN" "http://www.w3.org/Graphics/SVG/1.1/DTD/svg11.dtd">
<svg version="1.1" id="Capa_1" xmlns="http://www.w3.org/2000/svg" xmlns:xlink="http://www.w3.org/1999/xlink" x="0px" y="0px"
	 width="106.048px" height="106.048px" viewBox="0 0 106.048 106.048" style="enable-background:new 0 0 106.048 106.048;"
	 xml:space="preserve">
<g>
	<path style="fill:#010002;" d="M84.838,0H21.209C9.543,0,0,9.543,0,21.209v63.629c0,11.666,9.543,21.21,21.209,21.21h63.628
		c11.667,0,21.21-9.544,21.21-21.21V21.209C106.048,9.543,96.505,0,84.838,0z M92.668,48.687l-12.914,6.936v17.248L53.019,86.185
		L26.289,72.871v-17.3l-12.805-6.884l12.805-6.972v-0.016H26.3l0.122-0.065l-10.343-5.743L13.256,34.3l26.533-14.432l13.407,7.296
		l13.049-7.12l23.685,12.904l2.863,1.548l-12.977,7.208L92.668,48.687z M65.752,63.131l10.429-5.592v13.105L54.82,81.275V57.053
		L65.752,63.131z M75.652,43.496l9.486,5.162l-19.34,10.388l-9.285-5.105L75.652,43.496z M40.355,63.131l10.877-6.037v24.188
		l-21.36-10.637V57.498L40.355,63.131z M40.325,59.046L20.992,48.671l9.471-5.175L49.774,53.94L40.325,59.046z M66.244,24.119
		l19.112,10.403l-9.249,5.149L56.772,29.29L66.244,24.119z M29.922,39.48l-9.253-5.142l19.115-10.403l9.477,5.157L29.922,39.48z"/>
</g>
<g>
</g>
<g>
</g>
<g>
</g>
<g>
</g>
<g>
</g>
<g>
</g>
<g>
</g>
<g>
</g>
<g>
</g>
<g>
</g>
<g>
</g>
<g>
</g>
<g>
</g>
<g>
</g>
<g>
</g>
</svg>
