<?xml version="1.0" encoding="iso-8859-1"?>
<!-- Generator: Adobe Illustrator 16.0.0, SVG Export Plug-In . SVG Version: 6.00 Build 0)  -->
<!DOCTYPE svg PUBLIC "-//W3C//DTD SVG 1.1//EN" "http://www.w3.org/Graphics/SVG/1.1/DTD/svg11.dtd">
<svg version="1.1" id="Capa_1" xmlns="http://www.w3.org/2000/svg" xmlns:xlink="http://www.w3.org/1999/xlink" x="0px" y="0px"
	 width="106.048px" height="106.048px" viewBox="0 0 106.048 106.048" style="enable-background:new 0 0 106.048 106.048;"
	 xml:space="preserve">
<g>
	<path style="fill:#010002;" d="M84.838,0H21.209C9.538,0,0,9.543,0,21.209v63.629c0,11.666,9.538,21.21,21.209,21.21h63.628
		c11.661,0,21.21-9.544,21.21-21.21V21.209C106.048,9.543,96.499,0,84.838,0z M68.145,68.424c0,7.445-5.442,13.618-12.562,14.851
		v4.386h3.857v5.132H46.608V87.66h3.854v-4.386c-7.117-1.222-12.551-7.405-12.551-14.851v-4.365c0-1.424,1.152-2.563,2.566-2.563
		c1.416,0,2.568,1.149,2.568,2.563v4.365c0,5.499,4.474,9.978,9.978,9.978c5.51,0,9.989-4.479,9.989-9.978v-4.365
		c0-1.424,1.154-2.563,2.568-2.563c1.413,0,2.563,1.149,2.563,2.563V68.424z M59.021,37.795c-1.016-2.408-3.366-3.998-5.971-4.019
		h-0.158c-2.614-0.016-4.994,1.522-6.03,3.933c-0.391,0.919-1.468,1.338-2.403,0.95c-0.911-0.399-1.336-1.463-0.942-2.392
		c1.634-3.765,5.303-6.162,9.391-6.129h0.153c4.085,0.026,7.735,2.486,9.315,6.273c0.082,0.223,0.134,0.456,0.134,0.704
		c-0.01,0.705-0.424,1.373-1.123,1.655C60.46,39.17,59.383,38.722,59.021,37.795z M60.724,49.513V67.17c0,4.246-3.448,7.7-7.705,7.7
		c-4.246,0-7.694-3.454-7.694-7.7V49.513c0-4.267,3.448-7.705,7.694-7.705C57.275,41.808,60.724,45.246,60.724,49.513z
		 M53.106,24.958h-0.157c-4.514-0.025-8.653,2.217-11.107,6.018c-0.552,0.849-1.675,1.087-2.524,0.541
		c-0.844-0.541-1.077-1.67-0.536-2.514c3.117-4.849,8.42-7.736,14.201-7.682h0.145c5.779,0.031,11.04,2.996,14.08,7.895
		c0.191,0.298,0.284,0.642,0.284,0.971c0,0.606-0.315,1.193-0.849,1.538c-0.859,0.53-1.988,0.277-2.521-0.588
		C61.744,27.301,57.622,24.994,53.106,24.958z M73.084,27.529c-0.87,0.525-1.988,0.228-2.506-0.629
		c-3.688-6.206-10.217-9.942-17.409-10.012h-0.146c-7.215-0.054-13.797,3.601-17.571,9.755c-0.526,0.85-1.649,1.124-2.509,0.601
		c-0.865-0.536-1.129-1.654-0.598-2.509c4.463-7.249,12.2-11.544,20.689-11.479h0.161c8.491,0.057,16.16,4.463,20.51,11.77
		c0.187,0.313,0.27,0.627,0.27,0.95C73.975,26.592,73.653,27.185,73.084,27.529z"/>
</g>
<g>
</g>
<g>
</g>
<g>
</g>
<g>
</g>
<g>
</g>
<g>
</g>
<g>
</g>
<g>
</g>
<g>
</g>
<g>
</g>
<g>
</g>
<g>
</g>
<g>
</g>
<g>
</g>
<g>
</g>
</svg>
