<?xml version="1.0" encoding="iso-8859-1"?>
<!-- Generator: Adobe Illustrator 16.0.0, SVG Export Plug-In . SVG Version: 6.00 Build 0)  -->
<!DOCTYPE svg PUBLIC "-//W3C//DTD SVG 1.1//EN" "http://www.w3.org/Graphics/SVG/1.1/DTD/svg11.dtd">
<svg version="1.1" id="Capa_1" xmlns="http://www.w3.org/2000/svg" xmlns:xlink="http://www.w3.org/1999/xlink" x="0px" y="0px"
	 width="79.536px" height="79.535px" viewBox="0 0 79.536 79.535" style="enable-background:new 0 0 79.536 79.535;"
	 xml:space="preserve">
<g>
	<path style="fill:#010002;" d="M73.499,10.692l-9.859-9.906c-1.356-1.377-4.075-0.896-6.027,1.057l-8.989,8.955H17.758v12.487
		H5.261v56.25h43.75V67.04h12.495V27.58l10.915-10.876C74.374,14.759,74.866,12.054,73.499,10.692z M38.603,46.581l-13.629,5.521
		l-2.926-2.941l5.567-13.605L38.603,46.581z M20.213,13.252h25.95L36.094,23.29H20.213V13.252z M7.715,77.075V25.745h25.909
		l-7.917,7.894l-8.464,20.668c-0.973,2.372,0.187,3.532,2.548,2.584l20.715-8.394l6.045-6.022V77.07H7.715V77.075z M59.051,64.58
		h-10.04V40.034l10.04-10.004V64.58z"/>
</g>
<g>
</g>
<g>
</g>
<g>
</g>
<g>
</g>
<g>
</g>
<g>
</g>
<g>
</g>
<g>
</g>
<g>
</g>
<g>
</g>
<g>
</g>
<g>
</g>
<g>
</g>
<g>
</g>
<g>
</g>
</svg>
