<?xml version="1.0" encoding="iso-8859-1"?>
<!-- Generator: Adobe Illustrator 16.0.0, SVG Export Plug-In . SVG Version: 6.00 Build 0)  -->
<!DOCTYPE svg PUBLIC "-//W3C//DTD SVG 1.1//EN" "http://www.w3.org/Graphics/SVG/1.1/DTD/svg11.dtd">
<svg version="1.1" id="Capa_1" xmlns="http://www.w3.org/2000/svg" xmlns:xlink="http://www.w3.org/1999/xlink" x="0px" y="0px"
	 width="106.048px" height="106.048px" viewBox="0 0 106.048 106.048" style="enable-background:new 0 0 106.048 106.048;"
	 xml:space="preserve">
<g>
	<path style="fill:#010002;" d="M32.705,64.188c-0.117-0.326-0.355-1.107-0.143-1.584c0.085-0.146,0.218-0.27,0.381-0.337
		c0.774-0.238,1.548-0.108,2.004,0.021l0.145,1.766C34.652,64.405,33.898,64.602,32.705,64.188z M32.7,64.768
		c0.005,0.301,0.127,0.549,0.728,1.223c0.217,0.269,0.365,0.507,0.497,0.703c0.521-0.311,0.992-0.595,1.326-0.802l-0.057-0.854
		C34.178,65.285,33.205,64.996,32.7,64.768z M106.048,21.209v63.629c0,11.666-9.543,21.21-21.21,21.21H21.209
		C9.543,106.048,0,96.504,0,84.838V21.209C0,9.543,9.543,0,21.209,0h63.628C96.505,0,106.048,9.543,106.048,21.209z M57.462,28.415
		c0,4.062,3.288,7.35,7.357,7.35c4.05,0,7.333-3.288,7.333-7.35c0-4.052-3.283-7.332-7.333-7.332
		C60.75,21.088,57.462,24.371,57.462,28.415z M44.868,70.448l-1.908-1.274l-3.096-33.08l0.859-0.463l-0.171-1.548l-0.906-0.326
		l-0.728-7.638l2.674-0.259l-0.129-1.284l-2.656,0.251l-1.696,0.143l-0.753-8.06l0.248-0.021l-0.35-3.632l-1.923,0.181l0.329,3.625
		l0.567-0.036l0.753,8.07l-0.562,0.049l0.412,26.828l0.956,0.803l-0.192,0.492l-9.628-0.253l-0.355,5.814l6.304,0.378l0.274,0.384
		l1.543,0.165l0.161,1.875c-0.546-0.114-1.321-0.177-2.136,0.057c-0.334,0.135-0.606,0.357-0.753,0.679
		c-0.132,0.29-0.145,0.637-0.122,0.973c0.052,0.461,0.168,0.86,0.249,1.036c-0.111,0.735,0.021,1.062,0.826,2.03
		c0.228,0.248,0.334,0.477,0.363,0.631c-1.396,0.809-3.141,1.72-4.826,2.258l2.004,3.304l2.747-1.149c0,0,0.72-1.688,1.686-1.781
		c0.976-0.104,1.781,0.715,1.846,1.284l0.759,0.124l0.637,6.214l-3.415,14.665c4.166-0.699,7.798,0.839,7.798,0.839l-1.175-13.401
		l2.045-5.116l-0.329-3.526l1.118,0.503L44.868,70.448z M79.412,61.05c0,0-1.911-15.705-3.045-18.01
		c-1.725-3.516-4.365-5.636-10.896-5.636h-1.325c-6.524,0-9.181,2.121-10.905,5.636c-0.997,2.071-9.794,12.236-9.794,12.236
		c-0.794,0.72-0.857,1.941-0.153,2.739c0.386,0.424,0.917,0.642,1.442,0.642c0.461,0,0.922-0.16,1.289-0.497l11.059-10.418
		l0.455,15.188l-1.325,25.108c-0.104,1.512,1.035,2.817,2.537,2.926c0.072,0.011,0.135,0.011,0.191,0.011
		c1.435,0,2.636-1.098,2.75-2.543l3.106-23.695l3.128,23.695c0.077,1.445,1.294,2.543,2.718,2.543c0.078,0,0.141,0,0.202-0.011
		c1.513-0.108,2.642-1.414,2.548-2.926L72.033,62.93h0.01l0.472-15.188l3.075,13.971c0.161,0.942,0.974,1.605,1.896,1.605
		c0.114,0,0.233-0.011,0.337-0.031C78.884,63.09,79.598,62.091,79.412,61.05z"/>
</g>
<g>
</g>
<g>
</g>
<g>
</g>
<g>
</g>
<g>
</g>
<g>
</g>
<g>
</g>
<g>
</g>
<g>
</g>
<g>
</g>
<g>
</g>
<g>
</g>
<g>
</g>
<g>
</g>
<g>
</g>
</svg>
