<?xml version="1.0" encoding="iso-8859-1"?>
<!-- Generator: Adobe Illustrator 16.0.0, SVG Export Plug-In . SVG Version: 6.00 Build 0)  -->
<!DOCTYPE svg PUBLIC "-//W3C//DTD SVG 1.1//EN" "http://www.w3.org/Graphics/SVG/1.1/DTD/svg11.dtd">
<svg version="1.1" id="Capa_1" xmlns="http://www.w3.org/2000/svg" xmlns:xlink="http://www.w3.org/1999/xlink" x="0px" y="0px"
	 width="106.048px" height="106.048px" viewBox="0 0 106.048 106.048" style="enable-background:new 0 0 106.048 106.048;"
	 xml:space="preserve">
<g>
	<path style="fill:#010002;" d="M84.838,0H21.209C9.543,0,0,9.543,0,21.209v63.629c0,11.666,9.543,21.21,21.209,21.21h63.628
		c11.667,0,21.21-9.544,21.21-21.21V21.209C106.048,9.543,96.505,0,84.838,0z M82.042,27.239c5.044,0,9.124,4.083,9.124,9.103
		c0,5.031-4.08,9.103-9.124,9.103c-5.013,0-9.093-4.072-9.093-9.103C72.949,31.317,77.02,27.239,82.042,27.239z M24.003,27.239
		c5.007,0,9.096,4.083,9.096,9.103c0,5.031-4.088,9.103-9.096,9.103c-5.041,0-9.119-4.072-9.119-9.103
		C14.89,31.317,18.962,27.239,24.003,27.239z M49.133,70.464c-6.82-1.14-11.247-3.749-14.393-6.493v14.84H13.256v-22.96
		c0-4.557,3.729-8.277,8.282-8.277h4.922c2.004,0,3.832,0.758,5.264,1.944c0.049,0.044,0.111,0.044,0.155,0.075
		c1.686,1.119,2.962,2.703,4.306,4.368c2.739,3.402,5.9,7.161,13.605,8.632c-1.264,1.3-2.017,3.097-1.805,5.028
		C48.109,68.703,48.555,69.635,49.133,70.464z M92.792,78.811H71.308V64.021c-3.448,3.056-8.456,5.935-16.56,6.836
		c-0.15,0.01-0.306,0.021-0.445,0.021c-1.983,0-3.691-1.491-3.914-3.511c-0.238-2.164,1.314-4.111,3.484-4.36
		c9.554-1.056,12.977-5.312,15.99-9.041c1.346-1.675,2.615-3.249,4.309-4.367c0.046-0.031,0.108-0.031,0.154-0.075
		c1.435-1.191,3.258-1.944,5.262-1.944h4.93c4.546,0,8.279,3.715,8.279,8.277v22.954H92.792z"/>
</g>
<g>
</g>
<g>
</g>
<g>
</g>
<g>
</g>
<g>
</g>
<g>
</g>
<g>
</g>
<g>
</g>
<g>
</g>
<g>
</g>
<g>
</g>
<g>
</g>
<g>
</g>
<g>
</g>
<g>
</g>
</svg>
