<?xml version="1.0" encoding="iso-8859-1"?>
<!-- Generator: Adobe Illustrator 16.0.0, SVG Export Plug-In . SVG Version: 6.00 Build 0)  -->
<!DOCTYPE svg PUBLIC "-//W3C//DTD SVG 1.1//EN" "http://www.w3.org/Graphics/SVG/1.1/DTD/svg11.dtd">
<svg version="1.1" id="Capa_1" xmlns="http://www.w3.org/2000/svg" xmlns:xlink="http://www.w3.org/1999/xlink" x="0px" y="0px"
	 width="79.536px" height="79.536px" viewBox="0 0 79.536 79.536" style="enable-background:new 0 0 79.536 79.536;"
	 xml:space="preserve">
<g>
	<path style="fill:#010002;" d="M45.813,32.381c0,5.584-4.71,5.584-7.245,5.584h-3.167V27.413h3.977
		C41.601,27.413,45.813,27.413,45.813,32.381z M72.151,37.288c1.657,4.601,2.563,7.979,2.734,10.092
		c0.062,4.717-1.3,8.911-4.106,12.635c-2.185,2.631-5.623,5.576-10.325,8.844c-1.294,0.829-3.335,1.75-6.131,2.729
		c-1.45,0.522-2.667,0.979-3.65,1.361c-0.974,0.378-1.781,0.726-2.393,1.021c-0.352,0.16-0.974,0.43-1.799,0.781
		c-0.829,0.399-1.862,0.85-3.076,1.378c-1.729,0.994-3.029,2.118-3.845,3.407c-0.673-1.191-1.942-2.341-3.749-3.407
		c-0.839-0.378-1.644-0.726-2.392-1.072c-0.751-0.347-1.559-0.709-2.379-1.087c-2.874-0.74-6.978-2.46-12.28-5.111
		c-4.847-3.268-8.337-6.266-10.458-8.969c-2.716-3.712-4.036-7.881-3.977-12.51c0.085-1.057,0.329-2.465,0.732-4.194
		c0.43-1.742,1.054-3.832,1.888-6.24c1.59-4.336,2.302-7.692,2.151-10.131c-0.308-5.297-1.867-10.372-4.66-15.218L15.811,0.461
		C19.296,3.122,23.192,4.624,27.503,5c4.168,0.318,8.171-0.476,12.052-2.375C43.33,4.588,47.349,5.383,51.584,5
		c4.624-0.29,8.71-1.973,12.288-5l11.34,11.141c-2.957,4.777-4.635,9.994-5.105,15.674C69.879,29.324,70.577,32.806,72.151,37.288z
		 M53.936,32.335c0-1.877-0.326-4.528-2.232-6.856c-3.055-3.659-7.462-3.995-12.725-3.995H27.646v36.578h7.985V43.802h5.308
		c1.931,0,5.631,0,8.327-1.727C52.154,40.188,53.936,36.591,53.936,32.335z"/>
</g>
<g>
</g>
<g>
</g>
<g>
</g>
<g>
</g>
<g>
</g>
<g>
</g>
<g>
</g>
<g>
</g>
<g>
</g>
<g>
</g>
<g>
</g>
<g>
</g>
<g>
</g>
<g>
</g>
<g>
</g>
</svg>
