<?xml version="1.0" encoding="iso-8859-1"?>
<!-- Generator: Adobe Illustrator 16.0.0, SVG Export Plug-In . SVG Version: 6.00 Build 0)  -->
<!DOCTYPE svg PUBLIC "-//W3C//DTD SVG 1.1//EN" "http://www.w3.org/Graphics/SVG/1.1/DTD/svg11.dtd">
<svg version="1.1" id="Capa_1" xmlns="http://www.w3.org/2000/svg" xmlns:xlink="http://www.w3.org/1999/xlink" x="0px" y="0px"
	 width="106.048px" height="106.048px" viewBox="0 0 106.048 106.048" style="enable-background:new 0 0 106.048 106.048;"
	 xml:space="preserve">
<g>
	<path style="fill:#010002;" d="M41.119,49.244h2.038v6.659h-2.038V49.244z M106.048,21.209v63.629
		c0,11.666-9.543,21.21-21.21,21.21H21.209C9.543,106.048,0,96.504,0,84.838V21.209C0,9.543,9.543,0,21.209,0h63.628
		C96.505,0,106.048,9.543,106.048,21.209z M47.615,29.761c0-4.543-7.689-8.233-17.178-8.233c-9.486,0-17.181,3.684-17.181,8.233
		v51.505v1.843v1.409h2.895v-1.409h28.565v1.409h2.899v-1.409v-1.843V29.761z M92.792,29.761c0-4.543-7.689-8.233-17.171-8.233
		c-9.496,0-17.191,3.684-17.191,8.233v51.505v1.843v1.409h2.9v-1.409h28.562v1.409h2.899v-1.409v-1.843V29.761z M75.621,23.708
		c-9.305,0-15.017,3.531-15.017,6.061h30.018C90.622,27.239,84.921,23.708,75.621,23.708z M86.288,55.902h2.046v-6.659h-2.046
		V55.902z M30.437,23.708c-9.297,0-15.011,3.531-15.011,6.061h30.02C45.446,27.239,39.737,23.708,30.437,23.708z"/>
</g>
<g>
</g>
<g>
</g>
<g>
</g>
<g>
</g>
<g>
</g>
<g>
</g>
<g>
</g>
<g>
</g>
<g>
</g>
<g>
</g>
<g>
</g>
<g>
</g>
<g>
</g>
<g>
</g>
<g>
</g>
</svg>
