<?xml version="1.0" encoding="iso-8859-1"?>
<!-- Generator: Adobe Illustrator 16.0.0, SVG Export Plug-In . SVG Version: 6.00 Build 0)  -->
<!DOCTYPE svg PUBLIC "-//W3C//DTD SVG 1.1//EN" "http://www.w3.org/Graphics/SVG/1.1/DTD/svg11.dtd">
<svg version="1.1" id="Capa_1" xmlns="http://www.w3.org/2000/svg" xmlns:xlink="http://www.w3.org/1999/xlink" x="0px" y="0px"
	 width="106.048px" height="106.048px" viewBox="0 0 106.048 106.048" style="enable-background:new 0 0 106.048 106.048;"
	 xml:space="preserve">
<g>
	<path style="fill:#010002;" d="M84.838,0H21.209C9.543,0,0,9.543,0,21.209v63.629c0,11.666,9.543,21.21,21.209,21.21h63.628
		c11.667,0,21.21-9.544,21.21-21.21V21.209C106.048,9.543,96.505,0,84.838,0z M76.403,38.494c0,0-0.146,12.282-4.749,9.937
		C67.046,46.088,75.347,39.12,76.403,38.494z M75.041,49.539c5.111,0.261,6.281-2.879,6.281-2.879
		c-0.005,1.31-5.769,9.854-10.103,7.638C69.272,53.303,69.272,49.27,75.041,49.539z M60.076,64.612
		c-4.328-2.216-0.797-11.896,0.254-12.671c0,0-1.849,2.781,1.362,6.783C65.285,63.214,62.023,65.602,60.076,64.612z M63.276,67.719
		l-3.324,5.334c-0.621,1.217-2.351-0.306-2.061-0.881l2.34-6.006c0.27-0.518,0.71,0.295,1.544,0.725
		C62.624,67.315,63.535,67.196,63.276,67.719z M63.623,45.5c0,0-1.858,2.783,1.352,6.78c3.604,4.503,0.332,6.885-1.61,5.886
		C59.025,55.955,62.562,46.279,63.623,45.5z M68.568,62.23c5.116,0.238,6.292-2.879,6.292-2.879
		c-0.011,1.305-5.774,9.849-10.113,7.638C62.811,66,62.811,61.951,68.568,62.23z M68.025,60.548
		c-1.942-0.989-1.932-5.028,3.826-4.759c5.116,0.248,6.297-2.882,6.297-2.882C78.127,54.215,72.359,62.764,68.025,60.548z
		 M66.809,39.258c0,0-1.854,2.791,1.356,6.783c3.593,4.497,0.331,6.871-1.616,5.885C62.21,49.705,65.752,40.026,66.809,39.258z
		 M33.554,13.326c5.196-0.572,6.993,2.612,9.608,2.742c2.586-0.129,4.406-3.314,9.598-2.742c5.308,0.587,8.528,5.1,8.528,5.1
		l-6.478,6.018H31.496l-6.468-6.012C25.028,18.431,28.252,13.918,33.554,13.326z M28.982,62.531c-6.467,0-7.868-5.396-7.868-5.396
		c-4.241-18.677,8.642-28.816,8.642-28.816h26.815c0,0,5.085,4.01,7.813,11.62c-1.792,2.076-3.438,4.521-4.815,7.312
		c-1.295,2.636-2.206,5.287-2.775,7.824c-6.538,0.218-16.622,1.377-21.479,7.446h-6.333V62.531z M60.698,92.792
		C46.841,92.792,35.6,81.42,35.6,71.033c0-9.259,8.94-12.257,20.666-12.801c-0.083,0.84-0.094,1.637-0.099,2.424
		c-9.199,0.746-16.07,3.553-16.07,6.928c0,3.936,9.331,7.126,20.839,7.126c11.506,0,20.837-3.19,20.837-7.126
		c0-1.703-1.822-3.251-4.743-4.474c0.555-0.751,1.108-1.496,1.621-2.319c4.406,1.941,7.141,5.126,7.141,10.232
		C85.791,81.42,74.555,92.792,60.698,92.792z M40.695,50.743c-0.407-0.456-0.678-0.992-0.826-1.605l-3.607,0.323
		c0.277,1.528,0.906,2.708,1.898,3.553c0.997,0.844,2.291,1.341,3.884,1.501v2.123h2.004v-2.175
		c1.792-0.228,3.197-0.812,4.204-1.773c1.008-0.966,1.51-2.146,1.51-3.547c0-1.261-0.396-2.296-1.207-3.097
		c-0.787-0.81-2.291-1.463-4.502-1.973v-4.549c0.896,0.323,1.442,0.947,1.654,1.867l3.493-0.388c-0.238-1.16-0.79-2.095-1.655-2.789
		c-0.862-0.694-2.034-1.113-3.492-1.264v-1.155h-2.004v1.155c-1.587,0.129-2.853,0.632-3.809,1.497
		c-0.96,0.865-1.432,1.937-1.432,3.203c0,1.261,0.419,2.328,1.264,3.213c0.847,0.88,2.167,1.543,3.977,1.973v4.878
		C41.554,51.517,41.099,51.188,40.695,50.743z M44.053,47.864c0.821,0.207,1.427,0.495,1.787,0.875
		c0.365,0.378,0.546,0.823,0.546,1.341c0,0.58-0.212,1.087-0.647,1.522c-0.435,0.43-0.997,0.701-1.686,0.805V47.864z M40.705,43.193
		c-0.29-0.35-0.445-0.738-0.445-1.145c0-0.458,0.166-0.86,0.489-1.235c0.324-0.373,0.759-0.642,1.3-0.792v4.031
		C41.448,43.83,41.003,43.548,40.705,43.193z"/>
</g>
<g>
</g>
<g>
</g>
<g>
</g>
<g>
</g>
<g>
</g>
<g>
</g>
<g>
</g>
<g>
</g>
<g>
</g>
<g>
</g>
<g>
</g>
<g>
</g>
<g>
</g>
<g>
</g>
<g>
</g>
</svg>
