<?xml version="1.0" encoding="iso-8859-1"?>
<!-- Generator: Adobe Illustrator 16.0.0, SVG Export Plug-In . SVG Version: 6.00 Build 0)  -->
<!DOCTYPE svg PUBLIC "-//W3C//DTD SVG 1.1//EN" "http://www.w3.org/Graphics/SVG/1.1/DTD/svg11.dtd">
<svg version="1.1" id="Capa_1" xmlns="http://www.w3.org/2000/svg" xmlns:xlink="http://www.w3.org/1999/xlink" x="0px" y="0px"
	 width="106.048px" height="106.048px" viewBox="0 0 106.048 106.048" style="enable-background:new 0 0 106.048 106.048;"
	 xml:space="preserve">
<g>
	<path style="fill:#010002;" d="M21.209,106.048h63.628c11.667,0,21.21-9.544,21.21-21.21V21.209C106.048,9.543,96.505,0,84.838,0
		H21.209C9.543,0,0,9.543,0,21.209v63.629C0,96.504,9.543,106.048,21.209,106.048z M53.614,89.178
		c-10.999,0-19.897-2.725-20.252-6.115h-0.064V71.944h0.054c0.303,3.423,9.225,6.142,20.262,6.142
		c10.926,0,19.755-2.672,20.23-6.033V82.57c0.006,0.098,0.089,0.176,0.089,0.274C73.934,86.35,64.84,89.178,53.614,89.178z
		 M73.851,70.329c-0.481,3.355-9.311,6.027-20.226,6.027c-11.043,0-19.97-2.724-20.268-6.136c-0.005-0.058-0.055-0.109-0.055-0.166
		c0-3.5,9.101-6.312,20.322-6.312c11.215,0,20.309,2.812,20.309,6.312C73.934,70.143,73.86,70.226,73.851,70.329z M20.834,36.05
		l16.141,10.447l3.875-29.624l11.786,24.221l13.002-17.238l0.409,25.445l18.284-14.359l-3.65,22.577l12.111-4.096L80.271,78.453
		l3.505-16.342l-7.301,1.734l1.289-17.794l-14.597,8.681L60.589,38.25L51.01,49.71l-7.716-15.6l-2.889,18.013l-11.591-6.507
		l5.16,16.92l-15.035-3.04l8.099,18.952L13.256,53.956l15.987,4.671L20.834,36.05z"/>
</g>
<g>
</g>
<g>
</g>
<g>
</g>
<g>
</g>
<g>
</g>
<g>
</g>
<g>
</g>
<g>
</g>
<g>
</g>
<g>
</g>
<g>
</g>
<g>
</g>
<g>
</g>
<g>
</g>
<g>
</g>
</svg>
