<?xml version="1.0" encoding="iso-8859-1"?>
<!-- Generator: Adobe Illustrator 16.0.0, SVG Export Plug-In . SVG Version: 6.00 Build 0)  -->
<!DOCTYPE svg PUBLIC "-//W3C//DTD SVG 1.1//EN" "http://www.w3.org/Graphics/SVG/1.1/DTD/svg11.dtd">
<svg version="1.1" id="Capa_1" xmlns="http://www.w3.org/2000/svg" xmlns:xlink="http://www.w3.org/1999/xlink" x="0px" y="0px"
	 width="79.536px" height="79.536px" viewBox="0 0 79.536 79.536" style="enable-background:new 0 0 79.536 79.536;"
	 xml:space="preserve">
<g>
	<path style="fill:#010002;" d="M4.741,59.699C2.121,59.699,0,57.57,0,54.972l0,0c0-2.62,2.121-4.749,4.741-4.749l0,0h70.063
		c2.609-0.01,4.732,2.129,4.732,4.749l0,0c0,2.599-2.123,4.737-4.743,4.737l0,0H4.741V59.699z M54.086,19.827L53.531,40.54
		L37.552,19.827l-0.53,20.899L20.871,19.827L20.26,40.178L4.624,19.827l0.062,25.726h69.992L54.086,19.827z"/>
</g>
<g>
</g>
<g>
</g>
<g>
</g>
<g>
</g>
<g>
</g>
<g>
</g>
<g>
</g>
<g>
</g>
<g>
</g>
<g>
</g>
<g>
</g>
<g>
</g>
<g>
</g>
<g>
</g>
<g>
</g>
</svg>
