<?xml version="1.0" encoding="iso-8859-1"?>
<!-- Generator: Adobe Illustrator 16.0.0, SVG Export Plug-In . SVG Version: 6.00 Build 0)  -->
<!DOCTYPE svg PUBLIC "-//W3C//DTD SVG 1.1//EN" "http://www.w3.org/Graphics/SVG/1.1/DTD/svg11.dtd">
<svg version="1.1" id="Capa_1" xmlns="http://www.w3.org/2000/svg" xmlns:xlink="http://www.w3.org/1999/xlink" x="0px" y="0px"
	 width="106.048px" height="106.048px" viewBox="0 0 106.048 106.048" style="enable-background:new 0 0 106.048 106.048;"
	 xml:space="preserve">
<g>
	<path style="fill:#010002;" d="M24.454,63.494h2.488v17.947h-2.488V63.494z M33.469,81.441h2.485V63.494h-2.485V81.441z
		 M24.454,54.856h57.132v-9.3H24.454V54.856z M106.048,21.209v63.629c0,11.666-9.543,21.21-21.21,21.21H21.209
		C9.543,106.048,0,96.504,0,84.838V21.209C0,9.543,9.543,0,21.209,0h63.628C96.505,0,106.048,9.543,106.048,21.209z M90.307,38.149
		H31.819l37.433-17.74c0.953,0.391,2.03,0.435,3.024-0.044c1.864-0.88,2.661-3.107,1.781-4.979
		c-0.886-1.862-3.117-2.662-4.981-1.771c-1,0.469-1.657,1.326-1.947,2.302L20.202,38.149h-4.458v54.643h74.562V38.149z
		 M72.618,63.494c-4.95,0-8.969,4.018-8.969,8.969c0,4.96,4.019,8.979,8.969,8.979c4.955,0,8.968-4.019,8.968-8.979
		C81.597,67.512,77.573,63.494,72.618,63.494z M51.502,81.441h2.485V63.494h-2.485V81.441z M42.494,81.441h2.485V63.494h-2.485
		V81.441z"/>
</g>
<g>
</g>
<g>
</g>
<g>
</g>
<g>
</g>
<g>
</g>
<g>
</g>
<g>
</g>
<g>
</g>
<g>
</g>
<g>
</g>
<g>
</g>
<g>
</g>
<g>
</g>
<g>
</g>
<g>
</g>
</svg>
