<?xml version="1.0" encoding="iso-8859-1"?>
<!-- Generator: Adobe Illustrator 16.0.0, SVG Export Plug-In . SVG Version: 6.00 Build 0)  -->
<!DOCTYPE svg PUBLIC "-//W3C//DTD SVG 1.1//EN" "http://www.w3.org/Graphics/SVG/1.1/DTD/svg11.dtd">
<svg version="1.1" id="Capa_1" xmlns="http://www.w3.org/2000/svg" xmlns:xlink="http://www.w3.org/1999/xlink" x="0px" y="0px"
	 width="106.048px" height="106.048px" viewBox="0 0 106.048 106.048" style="enable-background:new 0 0 106.048 106.048;"
	 xml:space="preserve">
<g>
	<path style="fill:#010002;" d="M84.838,0H21.209C9.543,0,0,9.543,0,21.209v63.629c0,11.666,9.543,21.21,21.209,21.21h63.628
		c11.667,0,21.21-9.544,21.21-21.21V21.209C106.048,9.543,96.505,0,84.838,0z M39.576,74.348c-0.74,0.3-1.533,0.507-2.423,0.527
		c-3.187-0.072-5.308-1.926-6.988-6.037c-0.021-0.078-0.046-0.109-0.075-0.176c-0.016-0.031-0.031-0.042-0.036-0.094h-0.016
		c-0.152-0.254-0.404-0.414-0.694-0.414c-0.297,0-0.546,0.16-0.707,0.414h-0.011c-0.057,0.104-0.101,0.191-0.116,0.321
		c-1.711,4.152-3.892,6.017-7.18,6.017h-0.01c-3.309,0-5.465-1.864-7.179-6.068c-0.026-0.078-0.052-0.109-0.081-0.176
		c-0.016-0.031-0.031-0.042-0.036-0.094h-0.031c-0.15-0.254-0.388-0.414-0.696-0.414c-0.28,0-0.528,0.16-0.699,0.414
		c-0.057,0.104-0.101,0.191-0.122,0.321c-1.719,4.152-3.892,6.017-7.174,6.017V36.195h34.274V74.348z M56.617,27.361v63.184h-7.21
		V27.361h-8.233l11.85-11.858l11.848,11.858H56.617z M100.745,74.906c-3.309,0-5.468-1.864-7.187-6.068
		c-0.011-0.078-0.042-0.109-0.062-0.176c-0.021-0.031-0.036-0.042-0.052-0.094h-0.011c-0.16-0.254-0.403-0.414-0.704-0.414
		c-0.29,0-0.538,0.16-0.704,0.414c-0.062,0.104-0.104,0.191-0.124,0.321c-1.709,4.152-3.873,6.017-7.167,6.017h-0.021
		c-3.313,0-5.479-1.864-7.188-6.068c-0.021-0.078-0.052-0.109-0.062-0.176c-0.031-0.031-0.042-0.042-0.052-0.094h-0.021
		c-0.156-0.254-0.404-0.414-0.705-0.414c-0.289,0-0.527,0.16-0.693,0.414c-0.062,0.104-0.104,0.191-0.124,0.321
		c-1.698,4.08-3.821,5.934-7.021,5.996c-0.87-0.021-1.652-0.196-2.377-0.487V36.195h34.273V74.906z"/>
</g>
<g>
</g>
<g>
</g>
<g>
</g>
<g>
</g>
<g>
</g>
<g>
</g>
<g>
</g>
<g>
</g>
<g>
</g>
<g>
</g>
<g>
</g>
<g>
</g>
<g>
</g>
<g>
</g>
<g>
</g>
</svg>
