<?xml version="1.0" encoding="iso-8859-1"?>
<!-- Generator: Adobe Illustrator 16.0.0, SVG Export Plug-In . SVG Version: 6.00 Build 0)  -->
<!DOCTYPE svg PUBLIC "-//W3C//DTD SVG 1.1//EN" "http://www.w3.org/Graphics/SVG/1.1/DTD/svg11.dtd">
<svg version="1.1" id="Capa_1" xmlns="http://www.w3.org/2000/svg" xmlns:xlink="http://www.w3.org/1999/xlink" x="0px" y="0px"
	 width="79.542px" height="79.541px" viewBox="0 0 79.542 79.541" style="enable-background:new 0 0 79.542 79.541;"
	 xml:space="preserve">
<g>
	<path style="fill:#010002;" d="M73.116,11.12c-25.979-0.212-31.597-6.99-42.657-6.99c-13.161,0-20.886,3.622-24.2,5.659
		C3.801,11.107,4.376,8.57,4.376,7.685c0-0.891,1.458-1.756,1.458-1.756C8.871,3.951,16.703,0,30.458,0
		C41.54,0,47.163,6.804,73.24,6.988c0,0,1.988-0.199,1.988,1.577C75.228,10.341,75.104,11.12,73.116,11.12z M75.228,76.988
		c0-1.781-1.988-1.574-1.988-1.574c-26.077-0.196-31.706-6.99-42.781-6.99c-13.756,0-21.583,3.945-24.63,5.924
		c0,0-1.458,0.859-1.458,1.75S3.801,79.525,6.253,78.2c3.314-2.03,11.04-5.645,24.2-5.654c11.06,0,16.678,6.783,42.657,6.995
		C75.104,79.536,75.228,78.759,75.228,76.988z M75.228,17.01c0-1.776-1.988-1.574-1.988-1.574
		c-26.077-0.192-31.7-6.991-42.781-6.991c-13.756,0-21.583,3.951-24.63,5.924c0,0-1.458,0.865-1.458,1.756v51.419
		c0,0.885-0.569,3.422,1.882,2.102c3.314-2.045,11.04-5.654,24.2-5.654c11.06,0,16.678,6.773,42.657,6.985
		c1.989,0,2.113-0.771,2.113-2.548V17.01H75.228z"/>
</g>
<g>
</g>
<g>
</g>
<g>
</g>
<g>
</g>
<g>
</g>
<g>
</g>
<g>
</g>
<g>
</g>
<g>
</g>
<g>
</g>
<g>
</g>
<g>
</g>
<g>
</g>
<g>
</g>
<g>
</g>
</svg>
