<?xml version="1.0" encoding="iso-8859-1"?>
<!-- Generator: Adobe Illustrator 16.0.0, SVG Export Plug-In . SVG Version: 6.00 Build 0)  -->
<!DOCTYPE svg PUBLIC "-//W3C//DTD SVG 1.1//EN" "http://www.w3.org/Graphics/SVG/1.1/DTD/svg11.dtd">
<svg version="1.1" id="Capa_1" xmlns="http://www.w3.org/2000/svg" xmlns:xlink="http://www.w3.org/1999/xlink" x="0px" y="0px"
	 width="106.048px" height="106.048px" viewBox="0 0 106.048 106.048" style="enable-background:new 0 0 106.048 106.048;"
	 xml:space="preserve">
<g>
	<path style="fill:#010002;" d="M84.838,0H21.209C9.543,0,0,9.543,0,21.209v63.629c0,11.666,9.543,21.21,21.209,21.21h63.628
		c11.667,0,21.21-9.544,21.21-21.21V21.209C106.048,9.543,96.505,0,84.838,0z M86.366,92.792
		c-25.979-0.213-31.598-7.001-42.658-7.001c-13.16,0.01-20.886,3.635-24.2,5.659c-2.457,1.331-1.883-1.217-1.883-2.097
		c0-0.891,1.458-1.761,1.458-1.761c3.042-1.968,10.874-5.924,24.63-5.924c11.081,0,16.704,6.804,42.781,6.99
		c0,0,1.988-0.196,1.988,1.574C88.483,92.015,88.354,92.792,86.366,92.792z M88.483,81.685c0,1.776-0.124,2.548-2.112,2.548
		c-25.984-0.213-31.597-6.985-42.657-6.985c-13.16,0-20.886,3.614-24.2,5.654c-2.457,1.32-1.882-1.217-1.882-2.103V29.38
		c0-0.891,1.458-1.755,1.458-1.755c3.042-1.973,10.874-5.924,24.63-5.924c11.081,0,16.699,6.799,42.776,6.99
		c0,0,1.988-0.202,1.988,1.574V81.685L88.483,81.685z M86.366,24.376c-25.979-0.213-31.598-6.991-42.658-6.991
		c-13.16,0-20.886,3.622-24.2,5.66c-2.457,1.318-1.883-1.22-1.883-2.105c0-0.891,1.458-1.755,1.458-1.755
		c3.042-1.978,10.869-5.929,24.625-5.929c11.082,0,16.7,6.804,42.776,6.988c0,0,1.989-0.2,1.989,1.577S88.354,24.376,86.366,24.376z
		"/>
</g>
<g>
</g>
<g>
</g>
<g>
</g>
<g>
</g>
<g>
</g>
<g>
</g>
<g>
</g>
<g>
</g>
<g>
</g>
<g>
</g>
<g>
</g>
<g>
</g>
<g>
</g>
<g>
</g>
<g>
</g>
</svg>
