<?xml version="1.0" encoding="iso-8859-1"?>
<!-- Generator: Adobe Illustrator 16.0.0, SVG Export Plug-In . SVG Version: 6.00 Build 0)  -->
<!DOCTYPE svg PUBLIC "-//W3C//DTD SVG 1.1//EN" "http://www.w3.org/Graphics/SVG/1.1/DTD/svg11.dtd">
<svg version="1.1" id="Capa_1" xmlns="http://www.w3.org/2000/svg" xmlns:xlink="http://www.w3.org/1999/xlink" x="0px" y="0px"
	 width="79.536px" height="79.536px" viewBox="0 0 79.536 79.536" style="enable-background:new 0 0 79.536 79.536;"
	 xml:space="preserve">
<g>
	<g>
		<path style="fill:#010002;" d="M43.496,51.927l1.149,2.537h-1.939C43.269,53.77,43.592,52.879,43.496,51.927z M7.296,0v54.464
			h30.043c-0.319-0.384-0.578-0.813-0.705-1.315c-0.155-0.564-0.339-1.253-0.525-1.942H10.545V3.244h58.453v47.962H54.562
			l0.917,3.247H72.24V0H7.296z M40.472,21.108c3.384-1.229,5.121-4.979,3.89-8.368c-1.248-3.376-4.987-5.116-8.363-3.886
			c-3.389,1.235-5.139,4.979-3.904,8.373C33.332,20.611,37.08,22.354,40.472,21.108z M52.807,49.751h1.755h9.662l-9.278-8.021
			l-5.354-14.025l5.706-4.2c0.585-0.43,0.932-1.108,0.932-1.835V5.96c0-1.25-1.02-2.271-2.277-2.271
			c-1.254,0-2.273,1.015-2.273,2.271v13.215c-2.916,0.396-6.188,1.722-10.103,3.164l-0.588,0.202l-0.588,0.223
			c-5.722,2.09-7.371,4.795-7.754,8.42c-0.189,1.82,5.245,21.619,5.245,21.619c0.292,1.175,1.483,1.89,2.662,1.6
			c0.074-0.036,0.147-0.047,0.217-0.083c1.052-0.378,1.654-1.486,1.372-2.584l-4.484-17.295l5.137,12.812l5.501,12.09L40.33,74.793
			c-0.821,1.6-0.197,3.562,1.4,4.381c0.477,0.248,0.986,0.362,1.483,0.362c1.178,0,2.317-0.643,2.887-1.761l8.87-17.207
			c0.436-0.844,0.477-1.849,0.119-2.724L52.807,49.751z"/>
	</g>
</g>
<g>
</g>
<g>
</g>
<g>
</g>
<g>
</g>
<g>
</g>
<g>
</g>
<g>
</g>
<g>
</g>
<g>
</g>
<g>
</g>
<g>
</g>
<g>
</g>
<g>
</g>
<g>
</g>
<g>
</g>
</svg>
