<?xml version="1.0" encoding="iso-8859-1"?>
<!-- Generator: Adobe Illustrator 16.0.0, SVG Export Plug-In . SVG Version: 6.00 Build 0)  -->
<!DOCTYPE svg PUBLIC "-//W3C//DTD SVG 1.1//EN" "http://www.w3.org/Graphics/SVG/1.1/DTD/svg11.dtd">
<svg version="1.1" id="Capa_1" xmlns="http://www.w3.org/2000/svg" xmlns:xlink="http://www.w3.org/1999/xlink" x="0px" y="0px"
	 width="106.058px" height="106.059px" viewBox="0 0 106.058 106.059" style="enable-background:new 0 0 106.058 106.059;"
	 xml:space="preserve">
<g>
	<path style="fill:#010002;" d="M21.215,106.059h63.628c11.667,0,21.21-9.543,21.21-21.21V21.21C106.053,9.543,96.51,0,84.843,0
		H21.215C9.548,0,0.005,9.543,0.005,21.21v63.639C0.005,96.516,9.548,106.059,21.215,106.059z M68.238,73.83l-8.87,17.207
		c-0.57,1.118-1.709,1.76-2.89,1.76c-0.497,0-1.005-0.108-1.481-0.357c-1.595-0.817-2.216-2.78-1.397-4.381l7.964-15.451
		l-5.499-12.091l-5.145-12.815l4.486,17.295c0.28,1.098-0.326,2.205-1.372,2.584c-0.072,0.036-0.145,0.046-0.218,0.082
		c-1.18,0.296-2.371-0.43-2.664-1.6c0,0-5.434-19.799-5.243-21.619c0.381-3.625,2.03-6.331,7.751-8.419l0.591-0.223l0.585-0.202
		c3.915-1.437,7.192-2.763,10.098-3.164V19.221c0-1.25,1.02-2.268,2.272-2.268c1.259,0,2.279,1.013,2.279,2.268v15.715
		c0,0.728-0.348,1.406-0.933,1.836l-5.706,4.199l5.354,14.025l9.279,8.021h-9.657h-1.755l2.289,8.094
		C68.713,71.981,68.672,72.98,68.238,73.83z M55.97,67.72c0.56-0.694,0.881-1.585,0.787-2.538l1.149,2.538H55.97z M45.358,30.489
		c-1.237-3.394,0.513-7.138,3.901-8.373c3.377-1.23,7.115,0.51,8.363,3.886c1.237,3.389-0.503,7.138-3.884,8.368
		C50.341,35.615,46.593,33.873,45.358,30.489z M20.557,13.261h64.944V67.72H68.74l-0.917-3.247h14.432V16.505H23.807v47.962h25.564
		c0.187,0.688,0.371,1.377,0.525,1.937c0.127,0.502,0.387,0.932,0.705,1.315H20.557V13.261z"/>
</g>
<g>
</g>
<g>
</g>
<g>
</g>
<g>
</g>
<g>
</g>
<g>
</g>
<g>
</g>
<g>
</g>
<g>
</g>
<g>
</g>
<g>
</g>
<g>
</g>
<g>
</g>
<g>
</g>
<g>
</g>
</svg>
