<?xml version="1.0" encoding="iso-8859-1"?>
<!-- Generator: Adobe Illustrator 16.0.0, SVG Export Plug-In . SVG Version: 6.00 Build 0)  -->
<!DOCTYPE svg PUBLIC "-//W3C//DTD SVG 1.1//EN" "http://www.w3.org/Graphics/SVG/1.1/DTD/svg11.dtd">
<svg version="1.1" id="Capa_1" xmlns="http://www.w3.org/2000/svg" xmlns:xlink="http://www.w3.org/1999/xlink" x="0px" y="0px"
	 width="106.048px" height="106.048px" viewBox="0 0 106.048 106.048" style="enable-background:new 0 0 106.048 106.048;"
	 xml:space="preserve">
<g>
	<path style="fill:#010002;" d="M55.085,30.991H27.514V19.736h27.571V30.991L55.085,30.991z M27.514,86.299h51.018V63.308H27.514
		V86.299z M106.048,21.209v63.629c0,11.666-9.543,21.21-21.21,21.21H21.209C9.543,106.048,0,96.504,0,84.838V21.209
		C0,9.543,9.543,0,21.209,0h63.628C96.505,0,106.048,9.543,106.048,21.209z M92.792,47.154c0-8.95-2.807-16.164-6.297-16.164H74.099
		L58.094,16.23H23.993v14.76h-4.438c-3.477,0-6.299,7.213-6.299,16.164c0,8.939,2.814,16.164,6.299,16.164h4.443v26.501h58.055
		V63.308h4.442C89.985,63.308,92.792,56.089,92.792,47.154z M58.596,21.442v9.548h10.335L58.596,21.442z"/>
</g>
<g>
</g>
<g>
</g>
<g>
</g>
<g>
</g>
<g>
</g>
<g>
</g>
<g>
</g>
<g>
</g>
<g>
</g>
<g>
</g>
<g>
</g>
<g>
</g>
<g>
</g>
<g>
</g>
<g>
</g>
</svg>
