<?xml version="1.0" encoding="iso-8859-1"?>
<!-- Generator: Adobe Illustrator 16.0.0, SVG Export Plug-In . SVG Version: 6.00 Build 0)  -->
<!DOCTYPE svg PUBLIC "-//W3C//DTD SVG 1.1//EN" "http://www.w3.org/Graphics/SVG/1.1/DTD/svg11.dtd">
<svg version="1.1" id="Capa_1" xmlns="http://www.w3.org/2000/svg" xmlns:xlink="http://www.w3.org/1999/xlink" x="0px" y="0px"
	 width="106.048px" height="106.048px" viewBox="0 0 106.048 106.048" style="enable-background:new 0 0 106.048 106.048;"
	 xml:space="preserve">
<g>
	<path style="fill:#010002;" d="M84.838,0H21.209C9.543,0,0,9.543,0,21.209v63.629c0,11.666,9.543,21.21,21.209,21.21h63.628
		c11.667,0,21.21-9.544,21.21-21.21V21.209C106.048,9.543,96.505,0,84.838,0z M13.256,92.792L23.972,52.62
		c-7.615-1.67-13.368-8.472-13.368-16.56v-8.492c0-9.329,7.635-16.964,16.964-16.964h8.492c3.304,0,6.374,0.997,8.994,2.651h26.527
		l21.21,79.536H13.256z M52.943,36.824h2.731v10.609h-5.302v-2.379C51.895,42.646,52.807,39.843,52.943,36.824z M50.373,15.604
		h5.302v10.61h-2.788c-0.223-2.788-1.088-5.388-2.514-7.64V15.604z M50.373,58.052h5.302v10.61h-5.302V58.052z M50.903,27.568
		c0-8.182-6.659-14.844-14.843-14.844h-8.492c-8.184,0-14.843,6.662-14.843,14.844v8.492c0,8.182,6.659,14.843,14.843,14.843h8.492
		c8.184,0,14.843-6.662,14.843-14.843V27.568z M28.454,43.612L17.212,32.376l3.749-3.749l7.493,7.487l14.214-14.222l3.749,3.749
		L28.454,43.612z M50.373,79.271h5.302v10.615h-5.302V79.271z"/>
</g>
<g>
</g>
<g>
</g>
<g>
</g>
<g>
</g>
<g>
</g>
<g>
</g>
<g>
</g>
<g>
</g>
<g>
</g>
<g>
</g>
<g>
</g>
<g>
</g>
<g>
</g>
<g>
</g>
<g>
</g>
</svg>
