<?xml version="1.0" encoding="iso-8859-1"?>
<!-- Generator: Adobe Illustrator 16.0.0, SVG Export Plug-In . SVG Version: 6.00 Build 0)  -->
<!DOCTYPE svg PUBLIC "-//W3C//DTD SVG 1.1//EN" "http://www.w3.org/Graphics/SVG/1.1/DTD/svg11.dtd">
<svg version="1.1" id="Capa_1" xmlns="http://www.w3.org/2000/svg" xmlns:xlink="http://www.w3.org/1999/xlink" x="0px" y="0px"
	 width="82.249px" height="82.249px" viewBox="0 0 82.249 82.249" style="enable-background:new 0 0 82.249 82.249;"
	 xml:space="preserve">
<g>
	<path style="fill:#010002;" d="M82.218,82.249L61.008,2.716H34.598C31.957,1.013,28.845,0,25.487,0h-8.492
		C7.666,0,0.031,7.63,0.031,16.964v8.492c0,8.088,5.764,14.905,13.378,16.56L2.682,82.249H82.218z M45.101,79.345h-5.302V68.729
		h5.302V79.345z M45.101,58.119h-5.302v-10.61h5.302V58.119z M45.101,36.894h-5.302v-2.449c1.512-2.392,2.418-5.175,2.565-8.161
		h2.736V36.894z M39.799,5.064h5.302v10.609h-2.778c-0.217-2.812-1.087-5.434-2.523-7.705V5.064z M2.151,25.456v-8.492
		c0-8.182,6.659-14.844,14.843-14.844h8.492c8.184,0,14.843,6.662,14.843,14.844v8.492c0,8.182-6.659,14.843-14.843,14.843h-8.492
		C8.811,40.299,2.151,33.637,2.151,25.456z M36.091,23.861H6.39v-5.302h29.702V23.861z"/>
</g>
<g>
</g>
<g>
</g>
<g>
</g>
<g>
</g>
<g>
</g>
<g>
</g>
<g>
</g>
<g>
</g>
<g>
</g>
<g>
</g>
<g>
</g>
<g>
</g>
<g>
</g>
<g>
</g>
<g>
</g>
</svg>
