<?xml version="1.0" encoding="iso-8859-1"?>
<!-- Generator: Adobe Illustrator 16.0.0, SVG Export Plug-In . SVG Version: 6.00 Build 0)  -->
<!DOCTYPE svg PUBLIC "-//W3C//DTD SVG 1.1//EN" "http://www.w3.org/Graphics/SVG/1.1/DTD/svg11.dtd">
<svg version="1.1" id="Capa_1" xmlns="http://www.w3.org/2000/svg" xmlns:xlink="http://www.w3.org/1999/xlink" x="0px" y="0px"
	 width="106.048px" height="106.048px" viewBox="0 0 106.048 106.048" style="enable-background:new 0 0 106.048 106.048;"
	 xml:space="preserve">
<g>
	<path style="fill:#010002;" d="M52.938,38.183h2.736v10.61h-5.302v-2.449C51.885,43.952,52.791,41.174,52.938,38.183z
		 M50.373,19.868c1.437,2.268,2.307,4.894,2.523,7.705h2.778v-10.61h-5.302V19.868z M50.373,70.019h5.302v-10.61h-5.302V70.019z
		 M50.373,91.243h5.302V80.628h-5.302V91.243z M106.048,21.209v63.629c0,11.666-9.543,21.21-21.21,21.21H21.209
		C9.543,106.048,0,96.504,0,84.838V21.209C0,9.543,9.543,0,21.209,0h63.628C96.505,0,106.048,9.543,106.048,21.209z M92.792,94.148
		l-21.21-79.536H45.171c-2.641-1.696-5.753-2.713-9.111-2.713h-8.492c-9.329,0-16.964,7.635-16.964,16.961v8.495
		c0,8.086,5.764,14.905,13.378,16.56L13.256,94.148H92.792z M50.903,37.354c0,8.182-6.659,14.841-14.843,14.841h-8.492
		c-8.184,0-14.843-6.659-14.843-14.841V28.86c0-8.181,6.659-14.84,14.843-14.84h8.492c8.184,0.005,14.843,6.659,14.843,14.84V37.354
		z M46.665,30.458H16.963v5.302h29.702V30.458z"/>
</g>
<g>
</g>
<g>
</g>
<g>
</g>
<g>
</g>
<g>
</g>
<g>
</g>
<g>
</g>
<g>
</g>
<g>
</g>
<g>
</g>
<g>
</g>
<g>
</g>
<g>
</g>
<g>
</g>
<g>
</g>
</svg>
