<?xml version="1.0" encoding="iso-8859-1"?>
<!-- Generator: Adobe Illustrator 16.0.0, SVG Export Plug-In . SVG Version: 6.00 Build 0)  -->
<!DOCTYPE svg PUBLIC "-//W3C//DTD SVG 1.1//EN" "http://www.w3.org/Graphics/SVG/1.1/DTD/svg11.dtd">
<svg version="1.1" id="Capa_1" xmlns="http://www.w3.org/2000/svg" xmlns:xlink="http://www.w3.org/1999/xlink" x="0px" y="0px"
	 width="79.536px" height="79.536px" viewBox="0 0 79.536 79.536" style="enable-background:new 0 0 79.536 79.536;"
	 xml:space="preserve">
<g>
	<path style="fill:#010002;" d="M58.301,20.865H21.236l-4.671,58.671h46.406L58.301,20.865z M49.115,64.457
		c-0.849,1.336-2.061,2.32-3.614,2.978c-1.554,0.647-3.49,0.979-5.812,0.979c-3.366,0-5.955-0.776-7.767-2.34
		c-1.802-1.559-2.889-3.832-3.239-6.814l5.248-0.513c0.313,1.766,0.955,3.055,1.916,3.878c0.958,0.818,2.268,1.232,3.902,1.232
		c1.74,0,3.042-0.362,3.92-1.098c0.88-0.735,1.315-1.595,1.315-2.578c0-0.622-0.182-1.171-0.549-1.605
		c-0.373-0.445-1.016-0.829-1.944-1.16c-0.632-0.218-2.063-0.605-4.306-1.17c-2.89-0.715-4.922-1.596-6.077-2.641
		c-1.634-1.461-2.45-3.247-2.45-5.354c0-1.367,0.381-2.642,1.15-3.827c0.774-1.181,1.882-2.079,3.334-2.703
		c1.447-0.611,3.203-0.929,5.251-0.929c3.345,0,5.859,0.743,7.558,2.198c1.698,1.476,2.589,3.428,2.672,5.887l-5.396,0.244
		c-0.229-1.378-0.726-2.361-1.479-2.963c-0.759-0.605-1.893-0.9-3.42-0.9c-1.564,0-2.784,0.321-3.664,0.969
		c-0.572,0.408-0.865,0.957-0.865,1.651c0,0.632,0.272,1.17,0.795,1.615c0.684,0.569,2.328,1.171,4.963,1.792
		c2.612,0.611,4.544,1.258,5.812,1.916c1.253,0.662,2.236,1.563,2.94,2.719c0.715,1.145,1.067,2.553,1.067,4.24
		C50.378,61.692,49.954,63.126,49.115,64.457z M39.763,0C29.529,0,21.236,8.293,21.236,18.527h37.065
		C58.301,8.293,50.005,0,39.763,0z M33.288,11.257c-1.356,0-2.464-1.093-2.464-2.455c0-1.352,1.108-2.462,2.464-2.462
		c1.359,0,2.457,1.11,2.457,2.462C35.745,10.165,34.647,11.257,33.288,11.257z M39.774,5.859c-1.367,0-2.465-1.104-2.465-2.465
		c0-1.354,1.098-2.462,2.465-2.462c1.366,0,2.454,1.113,2.454,2.467C42.228,4.756,41.14,5.859,39.774,5.859z M46.164,11.257
		c-1.367,0-2.455-1.093-2.455-2.455c0-1.352,1.088-2.462,2.455-2.462c1.356,0,2.454,1.11,2.454,2.462
		C48.618,10.165,47.52,11.257,46.164,11.257z"/>
</g>
<g>
</g>
<g>
</g>
<g>
</g>
<g>
</g>
<g>
</g>
<g>
</g>
<g>
</g>
<g>
</g>
<g>
</g>
<g>
</g>
<g>
</g>
<g>
</g>
<g>
</g>
<g>
</g>
<g>
</g>
</svg>
