<?xml version="1.0" encoding="iso-8859-1"?>
<!-- Generator: Adobe Illustrator 16.0.0, SVG Export Plug-In . SVG Version: 6.00 Build 0)  -->
<!DOCTYPE svg PUBLIC "-//W3C//DTD SVG 1.1//EN" "http://www.w3.org/Graphics/SVG/1.1/DTD/svg11.dtd">
<svg version="1.1" id="Capa_1" xmlns="http://www.w3.org/2000/svg" xmlns:xlink="http://www.w3.org/1999/xlink" x="0px" y="0px"
	 width="82.193px" height="82.192px" viewBox="0 0 82.193 82.192" style="enable-background:new 0 0 82.193 82.192;"
	 xml:space="preserve">
<g>
	<path style="fill:#010002;" d="M78.881,29.099l3.309-6.659L42.474,2.698l-0.016-0.046l-0.037,0.021l-0.036-0.021l-0.015,0.046
		l-4.837,2.403C34.453,1.962,30.173,0,25.458,0h-8.492C7.638,0,0.002,7.635,0.002,16.964v8.492c0,6.014,3.203,11.291,7.954,14.302
		c0,0.748,0,1.569,0,2.514v38.497H36.34c0.971,0.828,3.282,1.424,5.991,1.424c2.721,0,5.03-0.596,6.009-1.424h28.547V42.271
		c0-3.42,0-5.646,0-5.781c-17.968-7.91-32.312,0.461-34.124,2.133c-0.634-0.601-2.07-1.603-4.171-2.589
		c2.361-2.916,3.829-6.563,3.829-10.579v-8.492c0-1.932-0.393-3.76-0.996-5.489l0.996-0.5L78.881,29.099z M44.85,45.765
		c0-5.738,7.628-8.824,17.031-8.824c4.525,0,8.627,1.067,11.666,2.822v37.531c-15.374-9.678-28.697-0.808-28.697,0.709V45.765z
		 M40.216,45.765v32.238c0-1.517-13.321-10.387-28.708-0.709V41.428c1.725,0.598,3.542,0.991,5.458,0.991h8.492
		c3.655,0,7.032-1.204,9.81-3.197C38.329,40.718,40.216,42.911,40.216,45.765z M40.301,25.456c0,8.182-6.659,14.843-14.843,14.843
		h-8.492c-8.184,0-14.843-6.662-14.843-14.843v-8.492c0-8.182,6.659-14.844,14.843-14.844h8.492c8.184,0,14.843,6.662,14.843,14.844
		V25.456z M6.361,18.563h29.702v5.303H6.361V18.563z"/>
</g>
<g>
</g>
<g>
</g>
<g>
</g>
<g>
</g>
<g>
</g>
<g>
</g>
<g>
</g>
<g>
</g>
<g>
</g>
<g>
</g>
<g>
</g>
<g>
</g>
<g>
</g>
<g>
</g>
<g>
</g>
</svg>
