<?xml version="1.0" encoding="iso-8859-1"?>
<!-- Generator: Adobe Illustrator 16.0.0, SVG Export Plug-In . SVG Version: 6.00 Build 0)  -->
<!DOCTYPE svg PUBLIC "-//W3C//DTD SVG 1.1//EN" "http://www.w3.org/Graphics/SVG/1.1/DTD/svg11.dtd">
<svg version="1.1" id="Capa_1" xmlns="http://www.w3.org/2000/svg" xmlns:xlink="http://www.w3.org/1999/xlink" x="0px" y="0px"
	 width="106.048px" height="106.048px" viewBox="0 0 106.048 106.048" style="enable-background:new 0 0 106.048 106.048;"
	 xml:space="preserve">
<g>
	<path style="fill:#010002;" d="M84.838,0H21.209C9.543,0,0,9.543,0,21.209v63.629c0,11.666,9.543,21.21,21.209,21.21h63.628
		c11.667,0,21.21-9.544,21.21-21.21V21.209C106.048,9.543,96.505,0,84.838,0z M42.748,33.505h4.554V13.256h11.444v20.249h4.551
		c8.989,0,16.28,7.285,16.28,16.28H26.465C26.465,40.79,33.756,33.505,42.748,33.505z M24.705,87.986l-0.023,0.052
		c-0.422,1.066-1.437,1.709-2.517,1.709c-0.329,0-0.681-0.067-1.002-0.197c-1.401-0.554-2.069-2.133-1.512-3.521
		c0.551-1.398,2.157-2.098,3.532-1.533C24.583,85.045,25.267,86.599,24.705,87.986z M28.448,77.744l-0.023,0.052
		c-0.417,1.062-1.437,1.709-2.517,1.709c-0.329,0-0.681-0.062-1.004-0.197c-1.393-0.549-2.066-2.134-1.51-3.521
		c0.557-1.398,2.157-2.103,3.537-1.538C28.324,74.803,29.01,76.356,28.448,77.744z M32.27,67.273l-0.016,0.062
		c-0.344,1.176-1.432,1.926-2.591,1.926c-0.262,0-0.521-0.03-0.782-0.108c-1.437-0.43-2.247-1.941-1.817-3.376
		c0.425-1.439,1.924-2.305,3.389-1.849C31.879,64.363,32.705,65.84,32.27,67.273z M33.399,59.02c-0.329,0-0.678-0.062-1.002-0.196
		c-1.393-0.549-2.066-2.134-1.509-3.521c0.557-1.393,2.167-2.097,3.536-1.532c1.393,0.554,2.077,2.102,1.515,3.495l-0.021,0.057
		C35.488,58.373,34.476,59.02,33.399,59.02z M40.33,89.156c-0.259,1.295-1.388,2.186-2.651,2.186c-0.182,0-0.36-0.011-0.536-0.057
		c-1.473-0.29-2.429-1.715-2.131-3.189c0.303-1.471,1.735-2.46,3.198-2.154c1.473,0.295,2.434,1.693,2.136,3.163L40.33,89.156z
		 M42.054,78.127c-0.14,1.403-1.321,2.444-2.695,2.444c-0.091,0-0.184,0-0.274-0.011c-1.491-0.15-2.579-1.48-2.429-2.977
		c0.148-1.486,1.479-2.626,2.97-2.449c1.494,0.145,2.586,1.449,2.434,2.94L42.054,78.127z M43.685,67.615
		c-0.259,1.295-1.388,2.181-2.651,2.181c-0.179,0-0.36-0.016-0.539-0.058c-1.471-0.289-2.423-1.714-2.128-3.189
		c0.298-1.471,1.755-2.475,3.197-2.154c1.471,0.295,2.429,1.693,2.134,3.169L43.685,67.615z M45.363,56.84
		c-0.261,1.289-1.39,2.18-2.651,2.18c-0.182,0-0.363-0.016-0.536-0.051c-1.476-0.291-2.429-1.72-2.133-3.19
		c0.297-1.466,1.75-2.465,3.197-2.154c1.476,0.29,2.434,1.688,2.139,3.159L45.363,56.84z M55.737,90.078
		c0,1.502-1.212,2.714-2.714,2.714c-1.501,0-2.716-1.212-2.716-2.714c0-1.496,1.215-2.734,2.716-2.734
		c1.502,0,2.714,1.207,2.714,2.703V90.078z M55.737,78.837c0,1.496-1.212,2.713-2.714,2.713c-1.501,0-2.716-1.217-2.716-2.713
		c0-1.502,1.215-2.75,2.716-2.75c1.502,0,2.714,1.191,2.714,2.692V78.837z M55.737,67.563c0,1.491-1.212,2.714-2.714,2.714
		c-1.501,0-2.716-1.212-2.716-2.714c0-1.501,1.215-2.744,2.716-2.744c1.502,0,2.714,1.186,2.714,2.683V67.563z M55.737,56.281
		c0,1.496-1.212,2.713-2.714,2.713c-1.501,0-2.716-1.217-2.716-2.713c0-1.497,1.215-2.729,2.716-2.729
		c1.502,0,2.714,1.206,2.714,2.703V56.281z M60.688,56.84c-0.301-1.465,0.643-2.926,2.123-3.21c1.435-0.306,2.89,0.626,3.18,2.097
		l0.016,0.052c0.295,1.471-0.658,2.899-2.134,3.195c-0.171,0.036-0.347,0.052-0.533,0.052C62.075,59.02,60.946,58.129,60.688,56.84z
		 M62.365,67.615c-0.301-1.471,0.647-2.926,2.118-3.21c1.455-0.301,2.895,0.632,3.185,2.097l0.01,0.053
		c0.301,1.47-0.652,2.904-2.123,3.194c-0.176,0.036-0.357,0.052-0.538,0.052C63.742,69.796,62.624,68.91,62.365,67.615z
		 M63.991,78.127c-0.15-1.486,0.938-2.843,2.434-2.987c1.491-0.171,2.817,0.911,2.962,2.397l0.005,0.052
		c0.15,1.491-0.937,2.821-2.429,2.972c-0.093,0.011-0.186,0.021-0.273,0.021C65.316,80.571,64.136,79.53,63.991,78.127z M68.9,91.29
		c-0.171,0.041-0.353,0.062-0.539,0.062c-1.264,0-2.393-0.891-2.651-2.185c-0.3-1.466,0.653-2.931,2.123-3.216
		c1.45-0.306,2.89,0.632,3.19,2.098l0.01,0.057C71.328,89.57,70.371,91,68.9,91.29z M72.648,59.02c-1.076,0-2.092-0.646-2.516-1.698
		c-0.56-1.393,0.104-2.993,1.491-3.552c1.388-0.57,2.962,0.098,3.516,1.48l0.021,0.052c0.555,1.388-0.119,2.973-1.507,3.521
		C73.327,58.958,72.98,59.02,72.648,59.02z M76.388,69.262c-1.171,0-2.247-0.761-2.595-1.931c-0.435-1.439,0.379-2.978,1.808-3.402
		c1.439-0.435,2.941,0.353,3.376,1.792l0.011,0.052c0.435,1.435-0.378,2.946-1.812,3.376C76.905,69.231,76.646,69.262,76.388,69.262
		z M80.137,79.505c-1.077,0-2.103-0.647-2.517-1.709c-0.56-1.388,0.104-2.993,1.491-3.547c1.388-0.575,2.962,0.088,3.516,1.48
		l0.021,0.058c0.554,1.387-0.119,2.972-1.513,3.521C80.814,79.442,80.468,79.505,80.137,79.505z M84.885,89.55
		c-0.326,0.13-0.673,0.197-0.999,0.197c-1.077,0-2.098-0.643-2.517-1.709c-0.555-1.388,0.104-2.987,1.496-3.542
		c1.393-0.574,2.967,0.088,3.511,1.477l0.021,0.057C86.951,87.406,86.277,88.991,84.885,89.55z"/>
</g>
<g>
</g>
<g>
</g>
<g>
</g>
<g>
</g>
<g>
</g>
<g>
</g>
<g>
</g>
<g>
</g>
<g>
</g>
<g>
</g>
<g>
</g>
<g>
</g>
<g>
</g>
<g>
</g>
<g>
</g>
</svg>
