<?xml version="1.0" encoding="iso-8859-1"?>
<!-- Generator: Adobe Illustrator 16.0.0, SVG Export Plug-In . SVG Version: 6.00 Build 0)  -->
<!DOCTYPE svg PUBLIC "-//W3C//DTD SVG 1.1//EN" "http://www.w3.org/Graphics/SVG/1.1/DTD/svg11.dtd">
<svg version="1.1" id="Capa_1" xmlns="http://www.w3.org/2000/svg" xmlns:xlink="http://www.w3.org/1999/xlink" x="0px" y="0px"
	 width="106.048px" height="106.048px" viewBox="0 0 106.048 106.048" style="enable-background:new 0 0 106.048 106.048;"
	 xml:space="preserve">
<g>
	<path style="fill:#010002;" d="M68.449,34.976h5.939c0,3.073,0,10.141,0,16.443c-0.108-0.039-0.238-0.06-0.367-0.06h-5.184
		c-0.124,0-0.27,0.026-0.389,0.06c0-1.779,0-3.612,0-5.406c0.265-0.021,0.564-0.042,0.627-0.057
		c1.145-0.171,2.051-0.875,2.692-2.089c0.549-1.028,0.643-2.151,0.249-3.404c-0.549-1.209-1.269-2.056-2.186-2.54
		c-0.352-0.189-0.818-0.324-1.383-0.381C68.449,36.56,68.449,35.638,68.449,34.976z M106.048,21.209v63.629
		c0,11.672-9.543,21.21-21.21,21.21H21.209C9.543,106.048,0,96.51,0,84.838V21.209C0,9.548,9.543,0,21.209,0h63.628
		C96.505,0,106.048,9.548,106.048,21.209z M28.469,18.962c0.668,2.195,2.014,3.827,4.049,4.909c2.11,1.139,4.274,1.367,6.465,0.693
		c2.201-0.663,3.855-2.066,4.979-4.179c1.083-2.035,1.311-4.166,0.658-6.41c-0.642-2.232-2.014-3.917-4.153-5.046
		c-2.014-1.077-4.135-1.251-6.361-0.552s-3.875,2.095-4.942,4.109C28.045,14.617,27.801,16.761,28.469,18.962z M79.525,31.299
		c0-0.74-0.569-1.367-1.346-1.367H64.69c-0.771,0-1.372,0.614-1.372,1.367v1.157c0,0.769,0.601,1.367,1.372,1.367h0.477
		c-0.026,0,0.098,0.031,0.098,0.096c0.14,0.398,0.445,0.673,0.782,0.826c0,0.707,0,1.678,0,2.796l-11.92,0.011l-13.888-8.109
		c-2.333-1.24-4.676-1.504-7.014-0.795c-2.651,0.808-4.549,2.281-5.686,4.422c-0.715,1.31-1.033,2.656-0.942,4
		c-0.049,1.282-0.075,25.14-0.075,25.368c0,4.401,3.479,7.923,7.842,8.109l0.111,0.021c0.081,0,0.138,0.052,0.212,0.052
		c0.091,0,0.148-0.052,0.228-0.052H53.05v22.515c0,1.367,0.481,2.547,1.496,3.552c1.005,0.994,2.263,1.455,3.785,1.455
		c1.357,0,2.615-0.466,3.641-1.455c1.066-0.999,1.637-2.185,1.637-3.552c0,0,0.025-28.2,0-28.407v-0.094h-0.016
		c-0.15-1.077-0.534-2.087-1.352-2.915c-0.974-1.072-2.17-1.652-3.542-1.652H44.858l0.101-18.061c0,0,8.189,4.3,8.386,4.282
		c0.161-0.016,8.161-0.031,12.707-0.127c0,6.231,0,12.942,0,15.646c0,5.67,1.947,11.857,1.947,11.889
		c0.767,2.817,0.808,3.708,0.808,3.812c0,0.114,0,0.135,0.021,0.166c-0.021,0.01-0.067,14.095-0.067,17.036
		c0,2.609,0.989,3.386,1.725,3.386h1.952c0.74,0,1.631-0.782,1.631-3.386c0-2.963,0-17.171,0-17.171l-0.372-0.031l0.362,0.021
		c0-0.098,0.01-0.974,0.803-3.853c0-0.011,1.962-6.198,1.962-11.868c0-4.748,0-21.981,0-27.009c0.301-0.153,0.591-0.396,0.74-0.771
		c-0.01,0,0.016-0.05,0.068-0.091c0.01-0.034,0.072-0.08,0.072-0.064h0.481c0.771,0,1.346-0.622,1.346-1.367v-1.152H79.525z
		 M68.838,54.95c-0.124,0-0.27-0.021-0.389-0.042c0,2.937,0,5.438,0,6.846c0,5.499,1.922,11.62,1.922,11.646
		c0.145,0.632,0.486,1.543,0.564,1.538c0.129,0.114,0.326,0.176,0.45,0.191c0.202-0.016,0.378-0.088,0.538-0.191
		c-0.01-0.025,0.425-0.906,0.555-1.538l0.393,0.108l-0.393-0.113c0-0.016,1.91-6.142,1.91-11.641c0-1.403,0-3.904,0-6.835
		c-0.113,0.011-0.238,0.036-0.373,0.036h-5.178V54.95z"/>
</g>
<g>
</g>
<g>
</g>
<g>
</g>
<g>
</g>
<g>
</g>
<g>
</g>
<g>
</g>
<g>
</g>
<g>
</g>
<g>
</g>
<g>
</g>
<g>
</g>
<g>
</g>
<g>
</g>
<g>
</g>
</svg>
