<?xml version="1.0" encoding="iso-8859-1"?>
<!-- Generator: Adobe Illustrator 16.0.0, SVG Export Plug-In . SVG Version: 6.00 Build 0)  -->
<!DOCTYPE svg PUBLIC "-//W3C//DTD SVG 1.1//EN" "http://www.w3.org/Graphics/SVG/1.1/DTD/svg11.dtd">
<svg version="1.1" id="Capa_1" xmlns="http://www.w3.org/2000/svg" xmlns:xlink="http://www.w3.org/1999/xlink" x="0px" y="0px"
	 width="106.048px" height="106.047px" viewBox="0 0 106.048 106.047" style="enable-background:new 0 0 106.048 106.047;"
	 xml:space="preserve">
<g>
	<path style="fill:#010002;" d="M84.838,0.002H21.209C9.543,0.002,0,9.545,0,21.211v63.624c0,11.666,9.543,21.21,21.209,21.21
		h63.628c11.667,0,21.21-9.544,21.21-21.21V21.211C106.048,9.545,96.505,0.002,84.838,0.002z M67.808,48.547l0.632,0.228
		l-0.948,8.984l-8.549,10.035l-1.435,0.005l-0.196,0.564l8.704,6.799l-3.925,5.38l-5.856-4.246l-0.518,0.13l-1.481-0.979
		l-0.052,0.057c-0.124-0.264-0.166-0.555-0.32-0.797c-1.108-1.704-2.817-2.89-4.806-3.31l-2.136-0.45l20.047-20.117l-0.29-0.684
		l-0.135-0.35L67.808,48.547z M52.224,16.986c7.584,0,13.735,6.144,13.735,13.748S59.808,44.49,52.224,44.49
		c-7.604,0-13.776-6.151-13.776-13.755S44.62,16.986,52.224,16.986z M38.108,89.061h-0.445h-8.409l4.942-5.194l4.453,0.958
		l2.814,0.596l-3.042,2.998L38.108,89.061z M40.912,89.061l2.768-3.164l0.733,0.155l-0.042,0.196l-0.228,0.984l0.466,0.896
		l0.497,0.933H40.912z M30.833,80.372l-2.757-0.585l-6.496-1.388c-1.76-0.383-3.192-1.688-3.684-3.428
		c-0.51-1.729-0.042-3.594,1.23-4.873c0.748-0.761,1.481-1.537,2.206-2.304c3.304-3.438,6.597-6.908,9.997-10.253
		c3.296-3.231,6.271-7.936,11.076-9.023c2.783-0.624,5.652-0.81,8.495-0.81c0.01,0,1.325,0,1.325,0h1.328
		c4.039,0,7.244,0.476,9.942,1.276l-0.145,0.14l0.424,1.049L44.995,69.016l-1.24,1.248l-6.061-1.295l-0.653-0.14
		c0-0.021-0.072-1.108-0.238-2.49l-2.009,2.014l-1.867,1.864l-0.445,0.436l0.197,0.041l2.762,0.58l1.675,0.362l4.336,0.933
		l4.891,1.04l2.141,0.45c0.632,0.141,1.22,0.41,1.729,0.757c0.194,0.129,0.329,0.331,0.497,0.486
		c0.282,0.259,0.577,0.503,0.784,0.808c0.075,0.229,0.143,0.425,0.229,0.596l0.312,0.621c0.272,0.803,0.414,1.662,0.229,2.563
		c-0.497,2.319-2.54,3.894-4.803,3.894c-0.339,0-0.687-0.036-1.036-0.104L30.833,80.372z M50.976,89.061h-2.793l-1.16-2.201
		c0,0,0.042-0.155,0.083-0.373c0.124,0,0.251,0.031,0.362,0.031c1.377,0,2.617-0.455,3.759-1.118
		c0.456,1.04,0.953,2.081,1.564,3.024L50.976,89.061z M66.771,89.061h-10.33l-1.347-2.107c-0.559-0.87-1.024-1.875-1.372-2.651
		l-0.336-0.777c0.466-0.559,0.88-1.19,1.159-1.885c0.155-0.378,0.312-0.756,0.394-1.165c0.094-0.409,0.104-0.812,0.104-1.227
		l0.177,0.119l0.445-0.109l4.825,3.5l2.206,1.601l1.605-2.2l2.807-3.854L66.771,89.061z M78.185,75.323
		c-0.238,2.181-1.9,3.936-4.075,4.309c-0.27,0.052-0.549,0.072-0.813,0.072c-1.879,0-3.63-1.077-4.447-2.801l-0.29-0.606
		l1.206-1.651l-2.076-1.621l-5.769-4.525l7.643-8.969l0.549-0.643l0.083-0.838l0.958-8.99l0.218-2.121l0.326-2.933
		c0.29-2.698,2.838-4.634,5.411-4.357c2.703,0.298,4.65,2.721,4.354,5.424L78.185,75.323z M85.429,37.813l-0.487-0.445l-2.402,2.408
		c-0.27-0.334-0.574-0.642-0.9-0.932l2.402-2.397l-0.207-0.202l2.962-2.959l1.563,1.566L85.429,37.813z"/>
</g>
<g>
</g>
<g>
</g>
<g>
</g>
<g>
</g>
<g>
</g>
<g>
</g>
<g>
</g>
<g>
</g>
<g>
</g>
<g>
</g>
<g>
</g>
<g>
</g>
<g>
</g>
<g>
</g>
<g>
</g>
</svg>
