<?xml version="1.0" encoding="iso-8859-1"?>
<!-- Generator: Adobe Illustrator 16.0.0, SVG Export Plug-In . SVG Version: 6.00 Build 0)  -->
<!DOCTYPE svg PUBLIC "-//W3C//DTD SVG 1.1//EN" "http://www.w3.org/Graphics/SVG/1.1/DTD/svg11.dtd">
<svg version="1.1" id="Capa_1" xmlns="http://www.w3.org/2000/svg" xmlns:xlink="http://www.w3.org/1999/xlink" x="0px" y="0px"
	 width="106.048px" height="106.048px" viewBox="0 0 106.048 106.048" style="enable-background:new 0 0 106.048 106.048;"
	 xml:space="preserve">
<g>
	<path style="fill:#010002;" d="M84.838,0H21.209C9.543,0,0,9.543,0,21.209v63.629c0,11.666,9.543,21.21,21.209,21.21h63.628
		c11.667,0,21.21-9.544,21.21-21.21V21.209C106.048,9.543,96.505,0,84.838,0z M80.686,44.959c2.863,1.686,4.339,3.542,3.272,4.14
		c-1.066,0.616-4.267-0.264-7.094-1.955c-2.854-1.659-8.669-1.002-12.936,1.463c-4.261,2.486-4.261,6.52,0,8.995
		c4.267,2.449,10.082,3.086,12.936,1.413c2.827-1.683,6.027-2.563,7.094-1.957c1.066,0.61-0.409,2.48-3.272,4.158
		c-2.858,1.657-2.382,4.671,1.066,6.653c3.449,1.999,5.852,4.376,5.328,5.287c-0.507,0.9-3.743,0-7.182-1.973
		c-3.438-2.004-6.291-0.947-6.349,2.314c-0.052,3.262-0.922,5.468-1.921,4.883c-1.01-0.574-1.822-3.749-1.802-7.068
		c0.016-3.318-3.351-7.964-7.473-10.351c-4.121-2.382-7.497-0.42-7.497,4.381c0,4.789,2.351,10.02,5.209,11.614
		c2.863,1.605,5.209,3.936,5.209,5.178c0,1.232-2.346,0.906-5.209-0.734c-2.858-1.643-5.209,0.237-5.209,4.193
		c0,3.967-0.809,7.188-1.818,7.188c-1.007,0-1.841-3.211-1.841-7.156c0-3.925-2.332-5.83-5.196-4.225
		c-2.856,1.609-5.228,1.931-5.253,0.734c-0.021-1.201,2.322-3.521,5.207-5.137c2.889-1.62,5.242-6.866,5.242-11.65
		c0-4.795-3.36-6.763-7.495-4.381c-4.122,2.387-7.472,7.032-7.441,10.352c0.029,3.318-0.785,6.493-1.817,7.068
		c-1.002,0.579-1.893-1.616-1.937-4.889c-0.052-3.257-2.905-4.313-6.346-2.31c-3.446,1.973-6.688,2.874-7.185,1.973
		c-0.52-0.911,1.888-3.277,5.333-5.286c3.452-1.988,3.957-4.992,1.108-6.654c-2.838-1.683-4.29-3.547-3.234-4.158
		c1.054-0.611,4.23,0.27,7.047,1.957c2.793,1.678,8.593,1.041,12.883-1.413c4.285-2.47,4.285-6.506,0-8.995
		c-4.29-2.47-10.084-3.127-12.883-1.462c-2.833,1.685-6.004,2.565-7.058,1.954c-1.051-0.598,0.396-2.454,3.234-4.14
		c2.848-1.67,2.343-4.671-1.108-6.664c-3.441-1.983-5.854-4.36-5.333-5.256c0.502-0.917,3.739-0.016,7.185,1.973
		c3.446,1.988,6.299,0.912,6.351-2.374c0.044-3.293,0.935-5.504,1.937-4.906c1.028,0.604,1.844,3.78,1.817,7.089
		c-0.031,3.293,3.319,7.938,7.441,10.335c4.135,2.395,7.495,0.424,7.495-4.386c0-4.797-2.354-10.059-5.243-11.664
		c-2.884-1.624-5.228-3.925-5.207-5.104c0.026-1.186,2.397-0.847,5.253,0.743c2.863,1.595,5.196-0.344,5.196-4.3
		c0-3.966,0.828-7.2,1.841-7.2c1.005,0,1.823,3.262,1.823,7.265c0,3.997,2.346,5.9,5.203,4.262c2.864-1.655,5.215-1.999,5.215-0.751
		c0,1.235-2.351,3.542-5.215,5.137c-2.857,1.59-5.203,6.819-5.203,11.612c0,4.81,3.376,6.781,7.492,4.386
		c4.122-2.397,7.487-7.042,7.473-10.335c-0.021-3.309,0.786-6.485,1.802-7.089c0.994-0.598,1.874,1.613,1.921,4.906
		c0.062,3.286,2.91,4.362,6.354,2.374c3.433-1.988,6.675-2.889,7.177-1.973c0.518,0.896-1.874,3.272-5.328,5.256
		C78.304,40.288,77.827,43.294,80.686,44.959z"/>
</g>
<g>
</g>
<g>
</g>
<g>
</g>
<g>
</g>
<g>
</g>
<g>
</g>
<g>
</g>
<g>
</g>
<g>
</g>
<g>
</g>
<g>
</g>
<g>
</g>
<g>
</g>
<g>
</g>
<g>
</g>
</svg>
