<?xml version="1.0" encoding="iso-8859-1"?>
<!-- Generator: Adobe Illustrator 16.0.0, SVG Export Plug-In . SVG Version: 6.00 Build 0)  -->
<!DOCTYPE svg PUBLIC "-//W3C//DTD SVG 1.1//EN" "http://www.w3.org/Graphics/SVG/1.1/DTD/svg11.dtd">
<svg version="1.1" id="Capa_1" xmlns="http://www.w3.org/2000/svg" xmlns:xlink="http://www.w3.org/1999/xlink" x="0px" y="0px"
	 width="79.536px" height="79.536px" viewBox="0 0 79.536 79.536" style="enable-background:new 0 0 79.536 79.536;"
	 xml:space="preserve">
<g>
	<path style="fill:#010002;" d="M11.049,54.629c-3.446,2.01-5.854,4.376-5.333,5.287c0.502,0.901,3.739,0,7.185-1.973
		c3.441-2.004,6.299-0.948,6.346,2.314c0.044,3.268,0.935,5.463,1.937,4.883c1.027-0.575,1.843-3.749,1.817-7.067
		c-0.026-3.32,3.319-7.965,7.446-10.352c4.134-2.382,7.495-0.42,7.495,4.381c0,4.784-2.354,10.035-5.243,11.65
		c-2.884,1.615-5.227,3.936-5.206,5.137c0.025,1.196,2.397,0.875,5.253-0.735c2.863-1.604,5.196,0.301,5.196,4.226
		c0,3.945,0.828,7.156,1.836,7.156c1.002,0,1.817-3.221,1.817-7.188c0-3.945,2.354-5.836,5.212-4.194
		c2.863,1.642,5.209,1.968,5.209,0.735c0-1.237-2.346-3.572-5.209-5.178c-2.858-1.596-5.212-6.825-5.212-11.615
		c0-4.795,3.379-6.762,7.5-4.381c4.122,2.388,7.488,7.032,7.473,10.352c-0.021,3.319,0.787,6.493,1.802,7.068
		c0.994,0.585,1.869-1.621,1.921-4.883c0.062-3.263,2.91-4.318,6.349-2.314c3.438,1.973,6.68,2.873,7.182,1.973
		c0.518-0.912-1.879-3.283-5.328-5.287c-3.448-1.988-3.925-4.997-1.066-6.654c2.863-1.678,4.339-3.547,3.272-4.152
		c-1.066-0.611-4.267,0.259-7.094,1.952c-2.854,1.678-8.674,1.041-12.936-1.414c-4.262-2.472-4.262-6.506,0-8.994
		c4.267-2.47,10.082-3.127,12.936-1.463c2.827,1.686,6.027,2.566,7.094,1.958c1.066-0.601-0.409-2.457-3.272-4.143
		c-2.858-1.67-2.382-4.67,1.066-6.665c3.449-1.983,5.846-4.354,5.328-5.255c-0.507-0.917-3.743-0.016-7.182,1.973
		c-3.438,1.988-6.292,0.911-6.349-2.375c-0.057-3.293-0.927-5.504-1.921-4.906c-1.01,0.606-1.822,3.78-1.802,7.089
		c0.016,3.293-3.346,7.938-7.473,10.335c-4.121,2.395-7.5,0.425-7.5-4.386c0-4.798,2.358-10.027,5.217-11.617
		c2.863-1.59,5.209-3.902,5.209-5.137c0-1.248-2.346-0.898-5.209,0.751c-2.858,1.639-5.217-0.259-5.217-4.257
		C41.595,3.262,40.785,0,39.778,0c-1.008,0-1.841,3.233-1.841,7.2c0,3.956-2.333,5.896-5.197,4.301
		c-2.858-1.59-5.227-1.929-5.253-0.743c-0.021,1.178,2.328,3.479,5.211,5.103c2.89,1.601,5.243,6.866,5.243,11.664
		c0,4.811-3.361,6.781-7.495,4.386C26.32,29.513,22.975,24.868,23,21.575c0.026-3.309-0.785-6.483-1.817-7.089
		c-1.002-0.598-1.893,1.613-1.937,4.906c-0.052,3.286-2.905,4.363-6.346,2.375c-3.446-1.994-6.688-2.89-7.185-1.973
		c-0.521,0.896,1.887,3.272,5.333,5.255c3.451,1.989,3.956,4.995,1.108,6.659c-2.843,1.691-4.29,3.542-3.239,4.148
		c1.054,0.614,4.23-0.267,7.045-1.958c2.796-1.659,8.596-1.002,12.886,1.463c4.285,2.488,4.285,6.522,0,8.994
		c-4.29,2.45-10.084,3.092-12.886,1.414c-2.814-1.683-5.991-2.563-7.045-1.952c-1.051,0.611,0.396,2.475,3.239,4.158
		C15.005,49.638,14.5,52.651,11.049,54.629z"/>
</g>
<g>
</g>
<g>
</g>
<g>
</g>
<g>
</g>
<g>
</g>
<g>
</g>
<g>
</g>
<g>
</g>
<g>
</g>
<g>
</g>
<g>
</g>
<g>
</g>
<g>
</g>
<g>
</g>
<g>
</g>
</svg>
