<?xml version="1.0" encoding="iso-8859-1"?>
<!-- Generator: Adobe Illustrator 16.0.0, SVG Export Plug-In . SVG Version: 6.00 Build 0)  -->
<!DOCTYPE svg PUBLIC "-//W3C//DTD SVG 1.1//EN" "http://www.w3.org/Graphics/SVG/1.1/DTD/svg11.dtd">
<svg version="1.1" id="Capa_1" xmlns="http://www.w3.org/2000/svg" xmlns:xlink="http://www.w3.org/1999/xlink" x="0px" y="0px"
	 width="79.541px" height="79.542px" viewBox="0 0 79.541 79.542" style="enable-background:new 0 0 79.541 79.542;"
	 xml:space="preserve">
<g>
	<path style="fill:#010002;" d="M55.282,9.429v17.753c0,4.896-3.998,8.893-8.886,8.893H26.108L14.667,47.514V36.071H8.886
		C3.998,36.071,0,32.073,0,27.177V9.429c0-4.893,3.998-8.891,8.886-8.891h37.511C51.284,0.539,55.282,4.536,55.282,9.429z
		 M70.64,42.36H45.309c-4.888,0-8.886,4.005-8.886,8.894v9.921c0,4.898,3.998,8.901,8.886,8.901h13.774l8.932,8.927v-8.927h2.631
		c4.888,0,8.896-4.003,8.896-8.901v-9.932C79.536,46.365,75.528,42.36,70.64,42.36z"/>
</g>
<g>
</g>
<g>
</g>
<g>
</g>
<g>
</g>
<g>
</g>
<g>
</g>
<g>
</g>
<g>
</g>
<g>
</g>
<g>
</g>
<g>
</g>
<g>
</g>
<g>
</g>
<g>
</g>
<g>
</g>
</svg>
