<?xml version="1.0" encoding="iso-8859-1"?>
<!-- Generator: Adobe Illustrator 16.0.0, SVG Export Plug-In . SVG Version: 6.00 Build 0)  -->
<!DOCTYPE svg PUBLIC "-//W3C//DTD SVG 1.1//EN" "http://www.w3.org/Graphics/SVG/1.1/DTD/svg11.dtd">
<svg version="1.1" id="Capa_1" xmlns="http://www.w3.org/2000/svg" xmlns:xlink="http://www.w3.org/1999/xlink" x="0px" y="0px"
	 width="79.536px" height="79.536px" viewBox="0 0 79.536 79.536" style="enable-background:new 0 0 79.536 79.536;"
	 xml:space="preserve">
<g>
	<path style="fill:#010002;" d="M23.75,0c-3.739,0-6.768,3.021-6.768,6.76c0,3.729,3.024,6.75,6.762,6.75
		c3.726,0,6.75-3.021,6.75-6.75C30.499,3.021,27.475,0,23.75,0z M34.921,20.536c-1.654-3.389-4.225-5.444-10.53-5.444h-0.652h-0.642
		c-6.304,0-8.878,2.061-10.532,5.444c-0.831,1.686-2.582,22.877-2.582,22.877c-0.132,1.254,0.774,2.372,2.02,2.501
		c0.08,0.006,0.166,0.006,0.251,0.006c1.15,0,2.131-0.87,2.248-2.03l1.781-18.416l0.44,14.294l-1.305,36.93
		c-0.091,1.461,1.007,2.734,2.467,2.827c0.073,0.011,0.137,0.011,0.184,0.011c1.39,0,2.555-1.066,2.661-2.465l3.003-30.416
		l3.011,30.416c0.111,1.398,1.276,2.465,2.667,2.465c0.052,0,0.106,0,0.186-0.011c1.447-0.093,2.545-1.366,2.455-2.827l-1.294-36.93
		l0.435-14.289l1.781,18.411c0.111,1.16,1.108,2.03,2.26,2.03c0.083,0,0.153,0,0.238-0.011c1.251-0.124,2.152-1.242,2.02-2.496
		C37.487,43.413,35.747,22.222,34.921,20.536z M55.9,77.584c1.098,2.599,2.89,2.599,3.998,0.025l9.574-22.603l0.093-49.472
		c0-3.021-1.719-5.499-3.842-5.504L50.37,0c-2.117-0.01-3.853,2.465-3.853,5.504l-0.096,49.461L55.9,77.584z M66.495,55.002
		l-6.297,14.872l-4.557-0.011l-6.245-14.893L66.495,55.002z"/>
</g>
<g>
</g>
<g>
</g>
<g>
</g>
<g>
</g>
<g>
</g>
<g>
</g>
<g>
</g>
<g>
</g>
<g>
</g>
<g>
</g>
<g>
</g>
<g>
</g>
<g>
</g>
<g>
</g>
<g>
</g>
</svg>
