<?xml version="1.0" encoding="iso-8859-1"?>
<!-- Generator: Adobe Illustrator 16.0.0, SVG Export Plug-In . SVG Version: 6.00 Build 0)  -->
<!DOCTYPE svg PUBLIC "-//W3C//DTD SVG 1.1//EN" "http://www.w3.org/Graphics/SVG/1.1/DTD/svg11.dtd">
<svg version="1.1" id="Capa_1" xmlns="http://www.w3.org/2000/svg" xmlns:xlink="http://www.w3.org/1999/xlink" x="0px" y="0px"
	 width="106.053px" height="106.053px" viewBox="0 0 106.053 106.053" style="enable-background:new 0 0 106.053 106.053;"
	 xml:space="preserve">
<g>
	<path style="fill:#010002;" d="M84.84,0H21.212C9.545,0,0.002,9.543,0.002,21.21v63.634c0,11.666,9.543,21.209,21.209,21.209H84.84
		c11.667,0,21.21-9.543,21.21-21.209V21.21C106.05,9.543,96.507,0,84.84,0z M53.037,13.256c3.724,0,6.742,3.021,6.742,6.76
		c0,3.728-3.019,6.75-6.742,6.75c-3.738,0-6.765-3.021-6.765-6.75C46.271,16.277,49.298,13.256,53.037,13.256z M64.76,59.165
		c-0.083,0.011-0.155,0.011-0.244,0.011c-1.149,0-2.138-0.865-2.252-2.032l-1.781-18.408l-0.44,14.289l1.3,36.93
		c0.094,1.455-1.004,2.734-2.465,2.822c-0.072,0.016-0.129,0.016-0.187,0.016c-1.388,0-2.553-1.066-2.661-2.465l-3.004-30.416
		L50.02,90.327c-0.105,1.398-1.273,2.465-2.661,2.465c-0.054,0-0.111,0-0.187-0.011c-1.452-0.093-2.55-1.367-2.459-2.822
		l1.297-36.93L45.572,38.74l-1.784,18.408c-0.111,1.168-1.103,2.032-2.252,2.032c-0.085,0-0.158,0-0.244-0.01
		c-1.248-0.125-2.154-1.243-2.022-2.499c0,0,1.745-21.184,2.574-22.874c1.654-3.389,4.226-5.445,10.529-5.445h0.652h0.647
		c6.302,0,8.876,2.062,10.527,5.445c0.828,1.69,2.573,22.874,2.573,22.874C66.915,57.923,66.008,59.041,64.76,59.165z"/>
</g>
<g>
</g>
<g>
</g>
<g>
</g>
<g>
</g>
<g>
</g>
<g>
</g>
<g>
</g>
<g>
</g>
<g>
</g>
<g>
</g>
<g>
</g>
<g>
</g>
<g>
</g>
<g>
</g>
<g>
</g>
</svg>
