<?xml version="1.0" encoding="iso-8859-1"?>
<!-- Generator: Adobe Illustrator 16.0.0, SVG Export Plug-In . SVG Version: 6.00 Build 0)  -->
<!DOCTYPE svg PUBLIC "-//W3C//DTD SVG 1.1//EN" "http://www.w3.org/Graphics/SVG/1.1/DTD/svg11.dtd">
<svg version="1.1" id="Capa_1" xmlns="http://www.w3.org/2000/svg" xmlns:xlink="http://www.w3.org/1999/xlink" x="0px" y="0px"
	 width="106.048px" height="106.048px" viewBox="0 0 106.048 106.048" style="enable-background:new 0 0 106.048 106.048;"
	 xml:space="preserve">
<g>
	<path style="fill:#010002;" d="M21.209,106.048h63.628c11.667,0,21.21-9.544,21.21-21.21V21.209C106.048,9.543,96.505,0,84.838,0
		H21.209C9.543,0,0,9.543,0,21.209v63.629C0,96.504,9.543,106.048,21.209,106.048z M36.115,49.673
		c-2.418-4.986-6.739-13.266-6.739-13.266l14.263,3.169l-5.064-25.859l16.014,20.632l5.893-15.275l3.894,16.373l14.002-14.491
		l-5.333,22.975l19.749,2.09L72.349,59.113l17.232,11.019l-19.144-1.937l8.699,24.141l-17.424-18.02l-5.416,10.475l-5.24-13.095
		l-20.26,16.933l6.812-24.1l-9.613,1.75l5.939-6.109L13.256,48.076L36.115,49.673z"/>
</g>
<g>
</g>
<g>
</g>
<g>
</g>
<g>
</g>
<g>
</g>
<g>
</g>
<g>
</g>
<g>
</g>
<g>
</g>
<g>
</g>
<g>
</g>
<g>
</g>
<g>
</g>
<g>
</g>
<g>
</g>
</svg>
