<?xml version="1.0" encoding="iso-8859-1"?>
<!-- Generator: Adobe Illustrator 16.0.0, SVG Export Plug-In . SVG Version: 6.00 Build 0)  -->
<!DOCTYPE svg PUBLIC "-//W3C//DTD SVG 1.1//EN" "http://www.w3.org/Graphics/SVG/1.1/DTD/svg11.dtd">
<svg version="1.1" id="Capa_1" xmlns="http://www.w3.org/2000/svg" xmlns:xlink="http://www.w3.org/1999/xlink" x="0px" y="0px"
	 width="106.048px" height="106.048px" viewBox="0 0 106.048 106.048" style="enable-background:new 0 0 106.048 106.048;"
	 xml:space="preserve">
<g>
	<path style="fill:#010002;" d="M73.83,57.238c0,1.481-0.244,2.941-0.73,4.355c-1.165,3.355-3.553,6.059-6.747,7.602
		c-3.2,1.553-6.804,1.771-10.159,0.605c-5.354-1.844-8.948-6.897-8.948-12.557c0-1.466,0.243-2.932,0.735-4.342
		c1.152-3.358,3.56-6.062,6.742-7.609c3.199-1.549,6.804-1.766,10.159-0.611C70.236,46.533,73.83,51.587,73.83,57.238z
		 M106.048,21.209v63.629c0,11.666-9.543,21.21-21.21,21.21H21.209C9.543,106.048,0,96.504,0,84.838V21.209
		C0,9.543,9.543,0,21.209,0h63.628C96.505,0,106.048,9.543,106.048,21.209z M40.824,64.426c-0.329-0.911-0.59-1.844-0.792-2.796
		H16.05V14.985h-2.794v49.44H40.824z M41.767,37.831l3.93,4.546c1.564-1.564,3.356-2.884,5.329-3.883l3.801-9.023l4.069,1.712
		l-1.532-12.241l-9.833,7.454l4.037,1.695l-4.433,10.538l-6.082-7.032l-6.349,12.067L28.337,37.5l-7.27,16.508l3.233,1.424
		l5.222-11.858l6.11,5.914L41.767,37.831z M77.771,63.214c0.673-1.983,1.01-3.987,1.01-5.976c0-7.555-4.738-14.617-12.277-17.222
		c-9.518-3.294-19.9,1.75-23.198,11.262c-0.684,1.983-1.002,3.987-1.002,5.966c0,7.564,4.73,14.617,12.279,17.228
		C64.095,77.765,74.477,72.727,77.771,63.214z M92.367,83.336l-12.65-13.929c-0.502-0.549-1.253-0.56-1.89-0.27
		c-1.678,2.444-3.848,4.469-6.338,5.997c-0.119,0.518-0.083,1.051,0.295,1.46L84.43,90.514c0.61,0.678,1.651,0.729,2.335,0.113
		l5.488-4.971C92.927,85.056,92.973,84.01,92.367,83.336z"/>
</g>
<g>
</g>
<g>
</g>
<g>
</g>
<g>
</g>
<g>
</g>
<g>
</g>
<g>
</g>
<g>
</g>
<g>
</g>
<g>
</g>
<g>
</g>
<g>
</g>
<g>
</g>
<g>
</g>
<g>
</g>
</svg>
