<?xml version="1.0" encoding="iso-8859-1"?>
<!-- Generator: Adobe Illustrator 16.0.0, SVG Export Plug-In . SVG Version: 6.00 Build 0)  -->
<!DOCTYPE svg PUBLIC "-//W3C//DTD SVG 1.1//EN" "http://www.w3.org/Graphics/SVG/1.1/DTD/svg11.dtd">
<svg version="1.1" id="Capa_1" xmlns="http://www.w3.org/2000/svg" xmlns:xlink="http://www.w3.org/1999/xlink" x="0px" y="0px"
	 width="79.537px" height="79.536px" viewBox="0 0 79.537 79.536" style="enable-background:new 0 0 79.537 79.536;"
	 xml:space="preserve">
<g>
	<g>
		<path style="fill:#010002;" d="M22.432,27.022c0.339,2.555-1.442,4.909-3.987,5.248c-2.561,0.35-4.914-1.442-5.261-3.998
			c-0.344-2.556,1.45-4.898,4.011-5.245C19.74,22.678,22.088,24.459,22.432,27.022z M8.275,16.989l5.489,1.518l0.551-8.114
			l3.912,4.699l4.194-7.275l0.764,7.969l5.991-3.368l-1.584,7.509l7.694-1.347l-3.464,7.436l3.425,0.451l-4.184,6.452l9.471-8.717
			l-5.869-0.218l5.256-9.108l-10.214,3.192L33.7,7.058l-8.415,5.282L24.182,0l-6.501,12.102l-5.232-7.128l-0.08,11.081l-8.283-2.227
			l5.621,9.825L8.275,16.989z M77.227,47.235c-2.568-1.367-6.996-4.958-10.714-10.416c-1.604-3.526-6.633-3.948-6.633-3.948
			c-1.383-0.213-3.997-0.555-8.021,0.846c-4.014,1.406-13.699,10.773-13.927,11.125c-0.702,1.062-0.404,2.485,0.649,3.189
			c0.399,0.259,0.839,0.378,1.274,0.378c0.753,0,1.484-0.357,1.929-1.03c0.049-0.062,3.86-5.649,10.985-8.174l-2.02,12.238
			c-0.108,0.699-8.536,23.639-8.536,23.639c-0.572,1.139-0.127,2.537,1.007,3.106c0.334,0.166,0.696,0.249,1.052,0.249
			c0.831,0,1.648-0.456,2.058-1.254l9.064-20.256l6.39,21.033c0.326,0.963,1.232,1.574,2.19,1.574c0.243,0,0.487-0.036,0.726-0.114
			c1.217-0.403,1.874-1.703,1.47-2.921c0,0-4.919-21.364-4.706-22.57l2.299-12.868c3.821,6.131,10.915,10.056,11.288,10.247
			c0.347,0.182,0.715,0.275,1.087,0.275c0.824,0,1.621-0.445,2.035-1.223C78.775,49.239,78.351,47.835,77.227,47.235z
			 M41.293,70.733c-2.02-3.48-12.067-20.754-12.386-20.754l-2.869-9.847c2.465,3.291,6.802,6.19,9.639,7.858
			c-0.631-1.414-0.637-3.066,0.272-4.453c0.042-0.058,0.228-0.254,0.381-0.42c-3.118-2.082-6.861-5.328-9.01-8.51
			c-1.53-2.284-5.396-1.856-7.226-1.483c-1.204,0.233-3.573,1.24-4.585,1.929c-1.989,1.349-4.218,0.35-6.066-1.165
			c-3.324-2.731-3.617-7.7-3.622-7.801c-0.055-1.3-1.157-2.317-2.459-2.257c-1.305,0.021-2.323,1.149-2.271,2.459
			c0.011,0.293,0.339,7.11,5.308,11.227c2.393,1.983,3.946,2.47,7.63,3.27c1.274,2.421,5.569,11.778,5.569,11.778l0.163,24.756
			c0.052,1.243,1.077,2.217,2.403,2.217c1.271-0.052,2.268-1.129,2.216-2.397c0,0,1.077-20.479,1.305-20.536l12.215,17.444
			c0.456,0.638,1.167,0.984,1.887,0.984c0.005,0,0.021-0.011,0.034-0.011c0.073-0.295,0.093-0.585,0.217-0.859
			C40.429,73.084,40.854,71.935,41.293,70.733z M59.989,21.194c-2.931,0.398-4.991,3.096-4.593,6.022
			c0.394,2.928,3.097,4.973,6.027,4.578c2.921-0.394,4.971-3.092,4.572-6.025C65.597,22.854,62.905,20.801,59.989,21.194z"/>
	</g>
</g>
<g>
</g>
<g>
</g>
<g>
</g>
<g>
</g>
<g>
</g>
<g>
</g>
<g>
</g>
<g>
</g>
<g>
</g>
<g>
</g>
<g>
</g>
<g>
</g>
<g>
</g>
<g>
</g>
<g>
</g>
</svg>
