<?xml version="1.0" encoding="iso-8859-1"?>
<!-- Generator: Adobe Illustrator 16.0.0, SVG Export Plug-In . SVG Version: 6.00 Build 0)  -->
<!DOCTYPE svg PUBLIC "-//W3C//DTD SVG 1.1//EN" "http://www.w3.org/Graphics/SVG/1.1/DTD/svg11.dtd">
<svg version="1.1" id="Capa_1" xmlns="http://www.w3.org/2000/svg" xmlns:xlink="http://www.w3.org/1999/xlink" x="0px" y="0px"
	 width="106.048px" height="106.048px" viewBox="0 0 106.048 106.048" style="enable-background:new 0 0 106.048 106.048;"
	 xml:space="preserve">
<g>
	<path style="fill:#010002;" d="M84.838,0H21.209C9.543,0,0,9.543,0,21.209v63.629c0,11.666,9.543,21.21,21.209,21.21h63.628
		c11.667,0,21.21-9.544,21.21-21.21V21.209C106.048,9.543,96.505,0,84.838,0z M56.059,35.498c3.448-5.328,10.573-6.851,15.896-3.396
		c5.328,3.451,6.846,10.566,3.402,15.899c-3.454,5.333-10.574,6.846-15.902,3.399C54.127,47.949,52.604,40.829,56.059,35.498z
		 M96.469,75.207c0.994,2.998,4.38,4.158,6.079,4.572h0.817c-0.082,4.976-2.102,9.48-5.375,12.77
		c-1.388-0.741-2.744-1.839-3.313-3.589c-0.85-2.589-0.632-6.965,4.055-7.384c0,0-7.716-6.814-12.702,2.801
		c-3.76,7.338-7.597,8.933-9.326,9.274h-1.496c-1.719-0.42-5.173-1.605-6.172-4.702c-0.86-2.584-0.632-6.959,4.054-7.379
		c0,0-7.73-6.819-12.702,2.802c-3.779,7.337-7.602,8.927-9.341,9.274h-1.229c-1.735-0.42-5.191-1.611-6.193-4.697
		c-0.844-2.589-0.626-6.965,4.067-7.384c0,0-7.741-6.814-12.705,2.802c-3.783,7.337-7.599,8.927-9.333,9.273h-1.504
		c-1.714-0.419-5.175-1.605-6.183-4.701c-0.844-2.584-0.616-6.96,4.078-7.379c0,0-7.754-6.82-12.704,2.801
		c-1.214,2.341-2.418,4.055-3.57,5.37c-1.908-2.868-3.027-6.302-3.086-9.974h0.849c1.691-0.336,5.445-1.9,9.173-9.056
		c4.867-9.373,12.456-2.734,12.456-2.734c-4.598,0.403-4.815,4.676-3.987,7.208c0.461,1.408,1.463,2.371,2.555,3.086l15.887-24.523
		l-14.243-9.199c-1.012-0.657-1.75-1.654-2.094-2.809L16.64,18.775c-0.774-2.656,0.756-5.429,3.415-6.203
		c2.672-0.723,5.435,0.764,6.204,3.42l6.123,21.161l12.684,8.215v-0.006l6.331,4.104l17.836,11.552L84.14,76.377
		c1.227-1.325,2.542-3.127,3.857-5.649c4.878-9.378,12.469-2.729,12.469-2.729C95.857,68.393,95.645,72.664,96.469,75.207z"/>
</g>
<g>
</g>
<g>
</g>
<g>
</g>
<g>
</g>
<g>
</g>
<g>
</g>
<g>
</g>
<g>
</g>
<g>
</g>
<g>
</g>
<g>
</g>
<g>
</g>
<g>
</g>
<g>
</g>
<g>
</g>
</svg>
