<?xml version="1.0" encoding="iso-8859-1"?>
<!-- Generator: Adobe Illustrator 16.0.0, SVG Export Plug-In . SVG Version: 6.00 Build 0)  -->
<!DOCTYPE svg PUBLIC "-//W3C//DTD SVG 1.1//EN" "http://www.w3.org/Graphics/SVG/1.1/DTD/svg11.dtd">
<svg version="1.1" id="Capa_1" xmlns="http://www.w3.org/2000/svg" xmlns:xlink="http://www.w3.org/1999/xlink" x="0px" y="0px"
	 width="106.048px" height="106.048px" viewBox="0 0 106.048 106.048" style="enable-background:new 0 0 106.048 106.048;"
	 xml:space="preserve">
<g>
	<path style="fill:#010002;" d="M78.438,20.293l3.304,9.942H70.697v-9.942H78.438z M106.048,21.209v63.629
		c0,11.666-9.543,21.21-21.21,21.21H21.209C9.543,106.048,0,96.504,0,84.838V21.209C0,9.543,9.543,0,21.209,0h63.628
		C96.505,0,106.048,9.543,106.048,21.209z M28.871,42.393H13.256v3.376l6.258,1.587h7.692
		C27.206,45.479,27.827,43.781,28.871,42.393z M35.493,53.433c3.353,0,6.071-2.716,6.071-6.076c0-3.348-2.718-6.071-6.071-6.071
		c-3.36,0-6.087,2.724-6.087,6.071C29.406,50.717,32.138,53.433,35.493,53.433z M34.965,85.636c-0.44-0.409-1.142-0.389-1.556,0.046
		l-0.067,0.073c-0.419,0.445-0.36,1.098,0.08,1.522c0.2,0.186,0.466,0.284,0.735,0.284c0.313,0,0.627-0.124,0.854-0.362
		C35.426,86.744,35.403,86.05,34.965,85.636z M37.117,83.367c-0.445-0.424-1.139-0.403-1.553,0.042l-0.075,0.072
		c-0.412,0.445-0.354,1.098,0.085,1.512c0.202,0.197,0.466,0.29,0.732,0.29c0.319,0,0.629-0.124,0.852-0.362
		C37.578,84.476,37.557,83.776,37.117,83.367z M39.263,81.073c-0.44-0.414-1.134-0.394-1.554,0.052l-0.062,0.067
		c-0.414,0.436-0.36,1.099,0.08,1.513c0.2,0.196,0.466,0.289,0.735,0.289c0.313,0,0.627-0.129,0.854-0.367
		C39.727,82.192,39.703,81.498,39.263,81.073z M39.879,80.432c0.202,0.196,0.466,0.285,0.732,0.285c0.319,0,0.629-0.125,0.852-0.363
		c0.419-0.435,0.398-1.139-0.042-1.553c-0.445-0.414-1.139-0.395-1.553,0.051l-0.075,0.073
		C39.379,79.354,39.439,80.018,39.879,80.432z M42.021,78.174c0.207,0.197,0.474,0.279,0.738,0.279c0.308,0,0.616-0.119,0.833-0.357
		c0.412-0.445,0.386-1.139-0.064-1.553c-0.44-0.404-1.139-0.384-1.548,0.062l-0.036,0.036C41.528,77.086,41.575,77.77,42.021,78.174
		z M42.308,91.569c0.212-0.569-0.075-1.206-0.642-1.413c-0.562-0.218-1.204,0.077-1.416,0.642l-0.036,0.108
		c-0.218,0.564,0.075,1.202,0.642,1.409c0.122,0.052,0.253,0.072,0.38,0.072c0.445,0,0.865-0.27,1.031-0.715L42.308,91.569z
		 M43.506,88.375c0.208-0.564-0.085-1.207-0.652-1.414c-0.562-0.207-1.204,0.088-1.411,0.652l-0.042,0.109
		c-0.207,0.564,0.086,1.206,0.653,1.413c0.122,0.052,0.253,0.073,0.375,0.073c0.445,0,0.864-0.28,1.027-0.726L43.506,88.375z
		 M44.7,85.19c0.212-0.554-0.075-1.202-0.642-1.409c-0.562-0.217-1.204,0.073-1.417,0.643l-0.036,0.104
		c-0.217,0.569,0.072,1.207,0.64,1.414c0.124,0.051,0.256,0.077,0.383,0.077c0.445,0,0.865-0.274,1.028-0.72L44.7,85.19z
		 M45.896,82.016c0.207-0.564-0.083-1.201-0.65-1.418c-0.564-0.207-1.198,0.082-1.411,0.652l-0.044,0.104
		c-0.204,0.569,0.086,1.206,0.653,1.413c0.122,0.052,0.256,0.073,0.378,0.073c0.445,0,0.865-0.28,1.028-0.715L45.896,82.016z
		 M47.09,78.837c0.212-0.569-0.072-1.207-0.642-1.425c-0.562-0.207-1.202,0.078-1.414,0.643l-0.039,0.109
		c-0.217,0.563,0.075,1.201,0.642,1.418c0.122,0.047,0.254,0.078,0.383,0.078c0.445,0,0.862-0.285,1.028-0.715L47.09,78.837z
		 M48.268,75.704c0.218-0.564-0.069-1.202-0.637-1.419c-0.562-0.218-1.204,0.072-1.416,0.632l-0.021,0.052
		c-0.217,0.569,0.081,1.181,0.647,1.398c0.117,0.046,0.249,0.066,0.37,0.066C47.662,76.434,48.097,76.149,48.268,75.704z
		 M50.202,90.757c0-0.601-0.492-1.098-1.096-1.098c-0.605,0-1.098,0.497-1.098,1.098v0.108c0,0.611,0.492,1.098,1.098,1.098
		c0.604,0,1.096-0.486,1.096-1.098V90.757z M50.202,87.158c0-0.602-0.492-1.098-1.096-1.098c-0.605,0-1.098,0.496-1.098,1.098v0.119
		c0,0.601,0.492,1.098,1.098,1.098c0.604,0,1.096-0.497,1.096-1.098V87.158z M50.202,83.559c0-0.605-0.492-1.107-1.096-1.107
		c-0.605,0-1.098,0.502-1.098,1.107v0.114c0,0.596,0.492,1.093,1.098,1.093c0.604,0,1.096-0.497,1.096-1.093V83.559z M50.202,80.018
		c0-0.606-0.492-1.098-1.096-1.098c-0.605,0-1.098,0.491-1.098,1.098v0.057c0,0.605,0.492,1.062,1.098,1.062
		C49.71,81.136,50.202,80.618,50.202,80.018z M83.963,47.356c0-3.348-2.729-6.071-6.073-6.071c-3.366,0-6.09,2.724-6.09,6.071
		c0,3.365,2.734,6.076,6.09,6.076C81.234,53.433,83.963,50.717,83.963,47.356z M92.792,33.549l-7.741-3.314l-4.406-13.256v-3.313
		H66.798v28.728h-4.023c-0.585-2.403-1.237-4.507-1.673-5.823c1.74-1.988,2.838-4.564,2.838-7.413v-4.164
		c0-6.234-5.096-11.329-11.324-11.329H24.583c-6.232,0-11.327,5.095-11.327,11.329v4.164c0,6.234,5.095,11.33,11.327,11.33h28.032
		c2.189,0,4.23-0.663,5.97-1.748c0.321,1.012,0.694,2.279,1.046,3.653h-17.53c1.046,1.388,1.665,3.086,1.665,4.963h16.911
		c0.477,2.899,0.653,5.792,0.062,7.899c-0.776,2.76-3.614,5.468-6.354,8.098c-2.941,2.802-5.98,5.701-7.094,9.124l2.899,0.948
		c0.875-2.688,3.641-5.318,6.302-7.86c3.045-2.91,6.183-5.914,7.183-9.486c0.678-2.444,0.533-5.595,0.066-8.723h5.847
		c0-4.567,3.713-8.277,8.29-8.277c3.211,0,5.986,1.843,7.363,4.528c0.497,0.953,0.808,2.03,0.88,3.171
		c0.011,0.184,0.042,0.38,0.042,0.578h6.628V33.549z M38.808,47.356c0-1.825-1.489-3.304-3.314-3.304
		c-1.838,0-3.329,1.479-3.329,3.304c0,1.833,1.491,3.313,3.329,3.313C37.318,50.67,38.808,49.184,38.808,47.356z M77.879,44.053
		c-1.828,0-3.314,1.479-3.314,3.304c0,1.833,1.486,3.313,3.314,3.313c1.833,0,3.314-1.48,3.314-3.313
		C81.193,45.531,79.712,44.053,77.879,44.053z"/>
</g>
<g>
</g>
<g>
</g>
<g>
</g>
<g>
</g>
<g>
</g>
<g>
</g>
<g>
</g>
<g>
</g>
<g>
</g>
<g>
</g>
<g>
</g>
<g>
</g>
<g>
</g>
<g>
</g>
<g>
</g>
</svg>
