<?xml version="1.0" encoding="iso-8859-1"?>
<!-- Generator: Adobe Illustrator 16.0.0, SVG Export Plug-In . SVG Version: 6.00 Build 0)  -->
<!DOCTYPE svg PUBLIC "-//W3C//DTD SVG 1.1//EN" "http://www.w3.org/Graphics/SVG/1.1/DTD/svg11.dtd">
<svg version="1.1" id="Capa_1" xmlns="http://www.w3.org/2000/svg" xmlns:xlink="http://www.w3.org/1999/xlink" x="0px" y="0px"
	 width="106.048px" height="106.048px" viewBox="0 0 106.048 106.048" style="enable-background:new 0 0 106.048 106.048;"
	 xml:space="preserve">
<g>
	<path style="fill:#010002;" d="M42.064,66.85l-0.572-0.332V21.326c0-3.183-2.579-5.764-5.761-5.764
		c-3.185,0-5.773,2.581-5.773,5.764v45.187l-0.567,0.326c-3.912,2.273-6.346,6.478-6.346,10.957c0,6.995,5.693,12.687,12.687,12.687
		c6.996,0,12.694-5.691,12.694-12.687C48.415,73.322,45.977,69.117,42.064,66.85z M35.721,85.874c-4.463,0-8.07-3.614-8.07-8.073
		c0-3.215,1.893-5.971,4.613-7.27V51.278h6.926v19.253c2.719,1.299,4.614,4.055,4.614,7.27
		C43.804,82.26,40.188,85.874,35.721,85.874z M84.838,0H21.209C9.543,0,0,9.543,0,21.209v63.629c0,11.666,9.543,21.21,21.209,21.21
		h63.628c11.667,0,21.21-9.544,21.21-21.21V21.209C106.048,9.543,96.505,0,84.838,0z M35.721,92.792
		c-8.264,0-14.988-6.731-14.988-14.991c0-5.08,2.641-9.844,6.918-12.593V21.3c0.023-4.442,3.627-8.044,8.075-8.044
		c4.44,0,8.055,3.602,8.07,8.044c0,0.011,0,0.021,0,0.026v43.877c4.275,2.744,6.916,7.513,6.916,12.598
		C50.712,86.061,43.993,92.792,35.721,92.792z M85.314,38.59H55.333v-4.611h29.981V38.59z"/>
</g>
<g>
</g>
<g>
</g>
<g>
</g>
<g>
</g>
<g>
</g>
<g>
</g>
<g>
</g>
<g>
</g>
<g>
</g>
<g>
</g>
<g>
</g>
<g>
</g>
<g>
</g>
<g>
</g>
<g>
</g>
</svg>
