<?xml version="1.0" encoding="iso-8859-1"?>
<!-- Generator: Adobe Illustrator 16.0.0, SVG Export Plug-In . SVG Version: 6.00 Build 0)  -->
<!DOCTYPE svg PUBLIC "-//W3C//DTD SVG 1.1//EN" "http://www.w3.org/Graphics/SVG/1.1/DTD/svg11.dtd">
<svg version="1.1" id="Capa_1" xmlns="http://www.w3.org/2000/svg" xmlns:xlink="http://www.w3.org/1999/xlink" x="0px" y="0px"
	 width="106.048px" height="106.048px" viewBox="0 0 106.048 106.048" style="enable-background:new 0 0 106.048 106.048;"
	 xml:space="preserve">
<g>
	<path style="fill:#010002;" d="M36.829,56.819c0,1.403-1.149,2.563-2.565,2.563c-1.417,0-2.556-1.171-2.556-2.563
		c0-1.419,1.139-2.573,2.556-2.573C35.68,54.246,36.829,55.4,36.829,56.819z M64.711,88.773l13.732-14.882H64.711V88.773z
		 M61.873,89.965H26.204V48.86h53.622v22.214H61.868v18.891H61.873z M39.721,56.819c0-3.019-2.434-5.471-5.447-5.471
		c-3.021,0-5.465,2.452-5.465,5.471c0,3.009,2.444,5.458,5.465,5.458C37.288,62.277,39.721,59.828,39.721,56.819z M106.048,21.209
		v63.629c0,11.666-9.543,21.21-21.21,21.21H21.209C9.543,106.048,0,96.504,0,84.838V21.209C0,9.543,9.543,0,21.209,0h63.628
		C96.505,0,106.048,9.543,106.048,21.209z M61.07,27.291c0,8.257,11.02,8.257,11.02,0c0-1.512-4.521-12.042-5.51-14.035
		C65.57,14.752,61.07,25.779,61.07,27.291z M46.649,36.379c0,8.256,11.02,8.256,11.02,0c0-1.51-4.511-12.042-5.51-14.046
		C51.162,23.829,46.649,34.869,46.649,36.379z M32.159,27.291c0,8.257,11.019,8.257,11.019,0c0-1.512-4.508-12.042-5.51-14.035
		C36.666,14.752,32.159,25.779,32.159,27.291z M82.648,46.046H23.4v46.746h41.461l0.414-0.456l17.367-18.828V46.046H82.648z"/>
</g>
<g>
</g>
<g>
</g>
<g>
</g>
<g>
</g>
<g>
</g>
<g>
</g>
<g>
</g>
<g>
</g>
<g>
</g>
<g>
</g>
<g>
</g>
<g>
</g>
<g>
</g>
<g>
</g>
<g>
</g>
</svg>
