<?xml version="1.0" encoding="iso-8859-1"?>
<!-- Generator: Adobe Illustrator 16.0.0, SVG Export Plug-In . SVG Version: 6.00 Build 0)  -->
<!DOCTYPE svg PUBLIC "-//W3C//DTD SVG 1.1//EN" "http://www.w3.org/Graphics/SVG/1.1/DTD/svg11.dtd">
<svg version="1.1" id="Capa_1" xmlns="http://www.w3.org/2000/svg" xmlns:xlink="http://www.w3.org/1999/xlink" x="0px" y="0px"
	 width="79.531px" height="79.532px" viewBox="0 0 79.531 79.532" style="enable-background:new 0 0 79.531 79.532;"
	 xml:space="preserve">
<g>
	<path style="fill:#010002;" d="M7.148,20.585v32.084H2.377C1.067,52.669,0,51.592,0,50.288V8.945L3.071,4.86
		c0.526-0.702,1.665-1.269,2.535-1.269h6.299c0.87,0,2.302,0,3.164,0h6.299c0.87,0,2.012,0.566,2.535,1.261l3.071,4.093h35.9
		c1.305,0,2.371,1.067,2.371,2.372v9.269H34.122l-3.076-4.088c-0.521-0.696-1.66-1.269-2.53-1.269h-6.304c-0.87,0-2.297,0-3.167,0
		h-6.299c-0.867,0-2.009,0.567-2.535,1.263L7.148,20.585z M77.159,32.213H41.265l-3.076-4.083c-0.52-0.689-1.659-1.256-2.524-1.256
		H29.36c-0.87,0-2.297,0-3.172,0h-6.294c-0.87,0-2.009,0.567-2.535,1.261l-3.071,4.083v41.354c0,1.301,1.067,2.367,2.367,2.367
		h60.499c1.31,0,2.377-1.066,2.377-2.367V34.6C79.536,33.285,78.47,32.213,77.159,32.213z"/>
</g>
<g>
</g>
<g>
</g>
<g>
</g>
<g>
</g>
<g>
</g>
<g>
</g>
<g>
</g>
<g>
</g>
<g>
</g>
<g>
</g>
<g>
</g>
<g>
</g>
<g>
</g>
<g>
</g>
<g>
</g>
</svg>
