<?xml version="1.0" encoding="iso-8859-1"?>
<!-- Generator: Adobe Illustrator 16.0.0, SVG Export Plug-In . SVG Version: 6.00 Build 0)  -->
<!DOCTYPE svg PUBLIC "-//W3C//DTD SVG 1.1//EN" "http://www.w3.org/Graphics/SVG/1.1/DTD/svg11.dtd">
<svg version="1.1" id="Capa_1" xmlns="http://www.w3.org/2000/svg" xmlns:xlink="http://www.w3.org/1999/xlink" x="0px" y="0px"
	 width="106.048px" height="106.048px" viewBox="0 0 106.048 106.048" style="enable-background:new 0 0 106.048 106.048;"
	 xml:space="preserve">
<g>
	<path style="fill:#010002;" d="M32.26,80.686h15.33l-0.886,5.137H32.26c-1.417,0-2.566-1.155-2.566-2.563
		C29.694,81.846,30.843,80.686,32.26,80.686z M0,84.838V21.209C0,9.543,9.543,0,21.209,0h63.628c11.667,0,21.21,9.543,21.21,21.209
		v63.629c0,11.666-9.543,21.21-21.21,21.21H21.209C9.543,106.048,0,96.504,0,84.838z M18.033,47.604
		c0,0.987,0.388,1.877,0.976,2.607l14.53,19.19H32.26c-2.833,0-5.137,2.304-5.137,5.142c0,1.885,1.064,3.459,2.581,4.35
		c-1.517,0.901-2.581,2.476-2.581,4.36c0,2.837,2.304,5.137,5.137,5.137h1.563v2.873h14.264c0.737,0.721,1.612,1.279,2.661,1.455
		c0.293,0.047,0.58,0.073,0.865,0.073c2.503,0,4.631-1.797,5.056-4.267l0.021-0.135h0.911c0.016,0.952,0.01,1.885,0.104,2.873h14.52
		v-2.873h1.563c2.833,0,5.137-2.3,5.137-5.137c0-1.885-1.066-3.459-2.579-4.36c1.513-0.891,2.579-2.465,2.579-4.35
		c0-2.838-2.304-5.142-5.137-5.142h-1.279l14.53-19.19c0.585-0.73,0.979-1.626,0.979-2.607V17.525c0-2.351-1.916-4.27-4.277-4.27
		c-2.34,0-4.267,1.913-4.267,4.27v17.37c1.036,0.223,2.02,0.663,2.807,1.432c2.258,2.211,2.319,5.854,0.114,8.116l-8.078,8.311
		l-1.108-1.077l8.094-8.282c1.62-1.675,1.579-4.347-0.078-5.981c-0.518-0.494-1.129-0.839-1.791-1.025
		c-0.694-0.194-1.43-0.204-2.123-0.062c-0.787,0.196-1.491,0.593-2.04,1.178c-4.806,4.93-9.605,9.846-14.406,14.775
		c-1.201,1.23-3.396,4.058-3.334,6.874c0.062,2.646-0.031,5.375,0.021,8.031c-0.632-0.513-1.388-0.891-2.247-1.041
		c-2.48-0.414-4.707,1.062-5.562,3.263H48.49c0-0.601,0-1.212,0.011-1.808c0.064-2.791-0.047-5.659,0.016-8.445
		c0.064-2.816-2.131-5.639-3.335-6.874c-4.797-4.929-9.598-9.846-14.4-14.775c-0.551-0.585-1.253-0.981-2.043-1.178
		c-0.693-0.148-1.426-0.138-2.125,0.057c-0.658,0.187-1.269,0.536-1.792,1.03c-1.654,1.626-1.693,4.301-0.075,5.981l8.091,8.282
		l-1.098,1.077l-8.081-8.311c-2.211-2.268-2.151-5.905,0.106-8.116c0.79-0.77,1.771-1.209,2.807-1.432v-17.37
		c0.005-2.356-1.916-4.27-4.259-4.27c-2.364,0-4.274,1.913-4.274,4.27v30.079H18.033z M76.356,74.544
		c0-1.419-1.149-2.568-2.568-2.568H59.507c0,0.036,0.011,0.067,0,0.104l-0.87,5.033h15.151
		C75.207,77.107,76.356,75.957,76.356,74.544z M76.356,83.254c0-1.419-1.149-2.568-2.568-2.568H58.026l-0.891,5.137h16.652
		C75.207,85.822,76.356,84.667,76.356,83.254z M49.508,89.146c0.398,0.549,0.986,0.922,1.66,1.041
		c1.269,0.212,2.731-0.705,2.969-2.098l2.838-16.451c0.238-1.397-0.699-2.729-2.097-2.967c-0.119-0.021-0.265-0.031-0.404-0.031
		c-1.269,0-2.351,0.896-2.563,2.134L49.078,87.22C48.956,87.893,49.111,88.576,49.508,89.146z M29.694,74.544
		c0,1.419,1.149,2.563,2.566,2.563h15.948l0.886-5.137H32.26C30.843,71.971,29.694,73.125,29.694,74.544z"/>
</g>
<g>
</g>
<g>
</g>
<g>
</g>
<g>
</g>
<g>
</g>
<g>
</g>
<g>
</g>
<g>
</g>
<g>
</g>
<g>
</g>
<g>
</g>
<g>
</g>
<g>
</g>
<g>
</g>
<g>
</g>
</svg>
