<?xml version="1.0" encoding="iso-8859-1"?>
<!-- Generator: Adobe Illustrator 16.0.0, SVG Export Plug-In . SVG Version: 6.00 Build 0)  -->
<!DOCTYPE svg PUBLIC "-//W3C//DTD SVG 1.1//EN" "http://www.w3.org/Graphics/SVG/1.1/DTD/svg11.dtd">
<svg version="1.1" id="Capa_1" xmlns="http://www.w3.org/2000/svg" xmlns:xlink="http://www.w3.org/1999/xlink" x="0px" y="0px"
	 width="79.536px" height="79.536px" viewBox="0 0 79.536 79.536" style="enable-background:new 0 0 79.536 79.536;"
	 xml:space="preserve">
<g>
	<path style="fill:#010002;" d="M79.536,11.009v57.519H71.36V24.669l-8.415,8.409h-7.089L71.36,17.572v-6.563H79.536z M49.597,15.76
		h-6.618L25.658,33.078h7.089l17.088-17.09L49.597,15.76z M34.502,15.76h-6.618L10.563,33.078h7.089l17.088-17.09L34.502,15.76z
		 M19.636,15.988l-0.233-0.228H12.78l-4.603,4.604v-9.354H0v57.519h8.177v-41.07L19.636,15.988z M64.695,15.76h-6.622L40.755,33.078
		h7.091l17.088-17.09L64.695,15.76z"/>
</g>
<g>
</g>
<g>
</g>
<g>
</g>
<g>
</g>
<g>
</g>
<g>
</g>
<g>
</g>
<g>
</g>
<g>
</g>
<g>
</g>
<g>
</g>
<g>
</g>
<g>
</g>
<g>
</g>
<g>
</g>
</svg>
