<?xml version="1.0" encoding="iso-8859-1"?>
<!-- Generator: Adobe Illustrator 16.0.0, SVG Export Plug-In . SVG Version: 6.00 Build 0)  -->
<!DOCTYPE svg PUBLIC "-//W3C//DTD SVG 1.1//EN" "http://www.w3.org/Graphics/SVG/1.1/DTD/svg11.dtd">
<svg version="1.1" id="Capa_1" xmlns="http://www.w3.org/2000/svg" xmlns:xlink="http://www.w3.org/1999/xlink" x="0px" y="0px"
	 width="106.048px" height="106.048px" viewBox="0 0 106.048 106.048" style="enable-background:new 0 0 106.048 106.048;"
	 xml:space="preserve">
<g>
	<path style="fill:#010002;" d="M75.104,29.751l2.874,8.649h-9.596v-8.649H75.104z M106.048,21.209v63.629
		c0,11.666-9.543,21.21-21.21,21.21H21.209C9.543,106.048,0,96.504,0,84.838V21.209C0,9.543,9.543,0,21.209,0h63.628
		C96.505,0,106.048,9.543,106.048,21.209z M18.462,47.307H62.51V20.233H18.462V47.307z M37.79,48.001
		c-2.921,0-5.282,2.361-5.282,5.271c0,2.92,2.361,5.281,5.282,5.281c2.91,0,5.271-2.361,5.271-5.281
		C43.061,50.362,40.7,48.001,37.79,48.001z M18.462,51.895l5.435,1.378h6.688c0-1.626,0.546-3.107,1.447-4.316H18.458v2.938H18.462z
		 M87.583,73.923L73.188,62.023v4.008H18.462v15.907h54.72v3.884L87.583,73.923z M74.622,58.554c2.91,0,5.276-2.361,5.276-5.281
		c0-2.91-2.366-5.271-5.276-5.271c-2.926,0-5.282,2.361-5.282,5.271C69.34,56.192,71.696,58.554,74.622,58.554z M87.583,41.28
		L80.856,38.4L77.02,26.872v-2.879H64.98v24.959H43.527c0.911,1.214,1.452,2.695,1.452,4.316h22.435
		c0-3.977,3.226-7.195,7.203-7.195c2.796,0,5.209,1.607,6.399,3.935c0.425,0.826,0.704,1.771,0.767,2.757
		c0.011,0.163,0.041,0.332,0.041,0.508h5.759V41.28L87.583,41.28z M77.501,53.272c0-1.585-1.289-2.879-2.879-2.879
		s-2.885,1.294-2.885,2.879c0,1.584,1.295,2.879,2.885,2.879S77.501,54.856,77.501,53.272z M34.9,53.272
		c0,1.584,1.294,2.879,2.89,2.879c1.579,0,2.879-1.295,2.879-2.879c0-1.585-1.3-2.879-2.879-2.879
		C36.195,50.394,34.9,51.688,34.9,53.272z"/>
</g>
<g>
</g>
<g>
</g>
<g>
</g>
<g>
</g>
<g>
</g>
<g>
</g>
<g>
</g>
<g>
</g>
<g>
</g>
<g>
</g>
<g>
</g>
<g>
</g>
<g>
</g>
<g>
</g>
<g>
</g>
</svg>
