<?xml version="1.0" encoding="iso-8859-1"?>
<!-- Generator: Adobe Illustrator 16.0.0, SVG Export Plug-In . SVG Version: 6.00 Build 0)  -->
<!DOCTYPE svg PUBLIC "-//W3C//DTD SVG 1.1//EN" "http://www.w3.org/Graphics/SVG/1.1/DTD/svg11.dtd">
<svg version="1.1" id="Capa_1" xmlns="http://www.w3.org/2000/svg" xmlns:xlink="http://www.w3.org/1999/xlink" x="0px" y="0px"
	 width="106.048px" height="106.048px" viewBox="0 0 106.048 106.048" style="enable-background:new 0 0 106.048 106.048;"
	 xml:space="preserve">
<g>
	<path style="fill:#010002;" d="M84.838,0H21.209C9.543,0,0,9.543,0,21.209v63.629c0,11.666,9.543,21.21,21.209,21.21h63.628
		c11.667,0,21.21-9.544,21.21-21.21V21.209C106.048,9.543,96.505,0,84.838,0z M42.277,103.396h-7.954V36.951H2.651v-7.954h39.625
		V103.396z M53.023,100.403c-4.396,0-7.953-3.562-7.953-7.953c0-2.589,1.256-4.878,3.182-6.323V17.253h9.546v68.869
		c1.916,1.45,3.18,3.729,3.18,6.317C60.978,96.841,57.415,100.403,53.023,100.403z M103.396,36.951H71.728v66.446h-7.954V28.997
		h39.623V36.951z"/>
</g>
<g>
</g>
<g>
</g>
<g>
</g>
<g>
</g>
<g>
</g>
<g>
</g>
<g>
</g>
<g>
</g>
<g>
</g>
<g>
</g>
<g>
</g>
<g>
</g>
<g>
</g>
<g>
</g>
<g>
</g>
</svg>
