<?xml version="1.0" encoding="iso-8859-1"?>
<!-- Generator: Adobe Illustrator 16.0.0, SVG Export Plug-In . SVG Version: 6.00 Build 0)  -->
<!DOCTYPE svg PUBLIC "-//W3C//DTD SVG 1.1//EN" "http://www.w3.org/Graphics/SVG/1.1/DTD/svg11.dtd">
<svg version="1.1" id="Capa_1" xmlns="http://www.w3.org/2000/svg" xmlns:xlink="http://www.w3.org/1999/xlink" x="0px" y="0px"
	 width="106.048px" height="106.048px" viewBox="0 0 106.048 106.048" style="enable-background:new 0 0 106.048 106.048;"
	 xml:space="preserve">
<g>
	<path style="fill:#010002;" d="M23.967,84.269l-1.812-42.264c-0.033-0.831,0.619-1.543,1.447-1.58
		c0.779-0.09,1.533,0.616,1.574,1.447l1.812,42.266c0.034,0.834-0.608,1.543-1.447,1.58h-0.062
		C24.666,85.719,23.993,85.076,23.967,84.269z M49.604,85.739c0.031,0,0.075,0,0.075,0c0.806,0,1.468-0.638,1.51-1.439l1.805-42.274
		c0.041-0.826-0.611-1.538-1.438-1.574c-0.924-0.116-1.543,0.611-1.587,1.442l-1.802,42.271
		C48.125,84.998,48.777,85.703,49.604,85.739z M35.468,16.311c-0.632,0.106-1.173,0.44-1.543,0.953
		c-0.36,0.515-0.502,1.134-0.404,1.761l4.652-0.774C37.966,16.974,36.767,16.093,35.468,16.311z M106.048,21.209v63.629
		c0,11.666-9.543,21.21-21.21,21.21H21.209C9.543,106.048,0,96.504,0,84.838V21.209C0,9.543,9.543,0,21.209,0h63.628
		C96.505,0,106.048,9.543,106.048,21.209z M77.661,43.876l1.228,8.352c0,3.84,4.262,4.762,4.262,4.762h4.277
		c0-1.808-0.818-6.242-0.818-6.242l-3.78-3.451L77.661,43.876z M80.199,68.775l-3.014-1.025c-1.036,0.793-1.409,1.615-1.119,2.476
		l1.512,1.729l2.279-0.756c0.817-0.27,1.107-0.787,0.859-1.522C80.634,69.423,80.468,69.112,80.199,68.775z M74.928,61.412
		l0.113,3.573l3.459-0.435c0.912-1.025,1.248-1.875,1.03-2.518c-0.176-0.518-0.585-0.941-1.247-1.273
		c-0.674-0.331-1.362-0.373-2.103-0.124C75.787,60.76,75.383,61.019,74.928,61.412z M13.971,31.294l46.748-7.768
		c-0.445-2.615-4.215-8.318-17.111-6.183l-2.439,0.414c-0.238-1.421-1.002-2.661-2.175-3.5c-1.183-0.842-2.581-1.155-4.018-0.932
		c-2.934,0.481-4.922,3.259-4.445,6.198l-2.369,0.396C15.255,22.063,13.538,28.687,13.971,31.294z M61.236,34.835H13.908
		l4.088,51.494c0,3.076,8.759,5.566,19.571,5.566c10.812,0,19.578-2.49,19.578-5.566L61.236,34.835z M63.608,33.854
		c0.187,0.119,1.926,1.548,2.092,1.719c0.544,0.572,0.476,3.796,0.725,3.796l1.905,1.3l0.787,3.141l3.169-2.225
		c0,0,1.43-6.993,0.808-7.484l-4.764-4.436c-1.211-0.72-5.727-3.774-5.727-3.774c0.166,0.489-5.064-1.215-7.788,0.217
		c-1.678,0.896-4.331,2.265-6.139,2.928c-1.805,0.657-2.913,2.708-4.604,3.583c2.217,0.055,3.998-0.966,6.113-1.149
		c1.618-0.137,3.511-0.026,5.033,0.329c1.346,0.329,2.651,0.986,4.049,1.261C60.698,33.352,62.376,33.083,63.608,33.854z
		 M72.504,63.649l-3.014-1.025c-1.02,0.787-1.408,1.615-1.108,2.476l1.513,1.739l2.268-0.761c0.828-0.28,1.098-0.793,0.859-1.527
		C72.939,64.291,72.773,63.991,72.504,63.649z M63.939,52.716c2.512,2.509,4.65,2.354,4.65,2.354c2.827-2.83,0-7.661,0-7.661h-4.65
		V52.716z M70.484,79.546l2.527-0.844l-1.274-3.827l-2.92,0.984l-0.756,2.703C68.62,79.055,69.418,79.391,70.484,79.546z
		 M84.518,87.66c-0.891-2.662-1.792-4.5-2.683-5.504c-1.471-1.637-3.283-2.093-5.437-1.367l-0.332,0.098
		c-1.015,0.906-1.854,2.222-2.568,3.931c-0.693,1.626-0.88,2.91-0.564,3.853c0.021,0.072,0.699,0.684,1.999,1.844
		c1.383,1.139,2.144,1.89,2.314,2.283l4.086-1.372c0.481-0.161,0.937-0.378,1.382-0.663c0.436-0.29,0.803-0.621,1.108-0.974
		c0.301-0.356,0.528-0.725,0.663-1.087C84.61,88.333,84.631,87.986,84.518,87.66z M87.117,72.747
		c1.439-0.626,2.257-0.968,2.475-1.051c0.513-0.306,0.87-0.958,1.046-1.932c0.176-0.979,0.114-1.916-0.196-2.827
		c-0.348-1.031-0.86-1.445-1.554-1.217l0.021,0.077c-0.119,0.042-0.756-0.108-1.88-0.455c-0.554-0.192-1.098-0.389-1.651-0.601
		c-0.782,0.259-1.273,1.035-1.455,2.324c-0.187,1.295-0.067,2.59,0.357,3.884c0.124,0.342,0.394,0.735,0.828,1.181l0.735,0.693
		L87.117,72.747z M92.14,80.105l-1.284-3.842l-2.91,0.983l-0.756,2.713c0.549,0.492,1.356,0.818,2.423,0.984L92.14,80.105z
		 M37.572,85.739c0.839,0,1.512-0.679,1.512-1.513V41.963c0-0.833-0.673-1.512-1.512-1.512c-0.826,0-1.512,0.679-1.512,1.512v42.264
		C36.061,85.061,36.747,85.739,37.572,85.739z"/>
</g>
<g>
</g>
<g>
</g>
<g>
</g>
<g>
</g>
<g>
</g>
<g>
</g>
<g>
</g>
<g>
</g>
<g>
</g>
<g>
</g>
<g>
</g>
<g>
</g>
<g>
</g>
<g>
</g>
<g>
</g>
</svg>
