<?xml version="1.0" encoding="iso-8859-1"?>
<!-- Generator: Adobe Illustrator 16.0.0, SVG Export Plug-In . SVG Version: 6.00 Build 0)  -->
<!DOCTYPE svg PUBLIC "-//W3C//DTD SVG 1.1//EN" "http://www.w3.org/Graphics/SVG/1.1/DTD/svg11.dtd">
<svg version="1.1" id="Capa_1" xmlns="http://www.w3.org/2000/svg" xmlns:xlink="http://www.w3.org/1999/xlink" x="0px" y="0px"
	 width="106.048px" height="106.048px" viewBox="0 0 106.048 106.048" style="enable-background:new 0 0 106.048 106.048;"
	 xml:space="preserve">
<g>
	<path style="fill:#010002;" d="M38.802,68.993c0,1.833-1.489,3.313-3.309,3.313c-1.838,0-3.329-1.48-3.329-3.313
		c0-1.823,1.491-3.314,3.329-3.314C37.313,65.679,38.802,67.17,38.802,68.993z M106.048,21.209v63.629
		c0,11.666-9.543,21.21-21.21,21.21H21.209C9.543,106.048,0,96.504,0,84.838V21.209C0,9.543,9.543,0,21.209,0h63.628
		C96.505,0,106.048,9.543,106.048,21.209z M13.256,62.127h50.684V30.976H13.256V62.127z M28.871,64.032H13.256v3.376l6.258,1.585
		h7.692C27.206,67.118,27.832,65.42,28.871,64.032z M41.56,68.993c0-3.345-2.719-6.069-6.066-6.069c-3.36,0-6.076,2.725-6.076,6.069
		c0,3.355,2.721,6.079,6.076,6.079C38.841,75.072,41.56,72.349,41.56,68.993z M83.953,68.993c0-3.345-2.729-6.069-6.074-6.069
		c-3.366,0-6.079,2.725-6.079,6.069c0,3.355,2.724,6.079,6.079,6.079C81.224,75.072,83.953,72.349,83.953,68.993z M92.792,55.188
		l-7.741-3.314l-4.417-13.256v-3.314H66.787v28.728H42.096c1.046,1.388,1.67,3.086,1.67,4.961h25.818
		c0-4.567,3.712-8.274,8.284-8.274c3.216,0,5.997,1.833,7.374,4.515c0.492,0.964,0.797,2.04,0.875,3.169
		c0.016,0.197,0.041,0.394,0.041,0.591h6.629V55.188H92.792z M70.697,41.932v9.942h11.039l-3.304-9.942H70.697z M77.879,65.679
		c-1.833,0-3.314,1.491-3.314,3.314c0,1.833,1.481,3.313,3.314,3.313s3.314-1.48,3.314-3.313
		C81.193,67.17,79.707,65.679,77.879,65.679z"/>
</g>
<g>
</g>
<g>
</g>
<g>
</g>
<g>
</g>
<g>
</g>
<g>
</g>
<g>
</g>
<g>
</g>
<g>
</g>
<g>
</g>
<g>
</g>
<g>
</g>
<g>
</g>
<g>
</g>
<g>
</g>
</svg>
