<?xml version="1.0" encoding="iso-8859-1"?>
<!-- Generator: Adobe Illustrator 16.0.0, SVG Export Plug-In . SVG Version: 6.00 Build 0)  -->
<!DOCTYPE svg PUBLIC "-//W3C//DTD SVG 1.1//EN" "http://www.w3.org/Graphics/SVG/1.1/DTD/svg11.dtd">
<svg version="1.1" id="Capa_1" xmlns="http://www.w3.org/2000/svg" xmlns:xlink="http://www.w3.org/1999/xlink" x="0px" y="0px"
	 width="79.536px" height="79.536px" viewBox="0 0 79.536 79.536" style="enable-background:new 0 0 79.536 79.536;"
	 xml:space="preserve">
<g>
	<path style="fill:#010002;" d="M39.769,2.651c20.464,0,37.116,16.65,37.116,37.111v37.122H2.651V39.763
		C2.651,19.302,19.307,2.651,39.769,2.651 M39.769,0C17.805,0,0,17.8,0,39.763v39.773h79.536V39.763C79.536,17.8,61.733,0,39.769,0
		L39.769,0z M39.769,7.954c-17.562,0-31.814,14.248-31.814,31.809v31.819l23.86-23.86v-7.954c0-4.391,3.562-7.954,7.954-7.954
		c4.391,0,7.953,3.562,7.953,7.954v7.954l23.861,23.86V39.763C71.583,22.201,57.332,7.954,39.769,7.954z"/>
</g>
<g>
</g>
<g>
</g>
<g>
</g>
<g>
</g>
<g>
</g>
<g>
</g>
<g>
</g>
<g>
</g>
<g>
</g>
<g>
</g>
<g>
</g>
<g>
</g>
<g>
</g>
<g>
</g>
<g>
</g>
</svg>
