<?xml version="1.0" encoding="iso-8859-1"?>
<!-- Generator: Adobe Illustrator 16.0.0, SVG Export Plug-In . SVG Version: 6.00 Build 0)  -->
<!DOCTYPE svg PUBLIC "-//W3C//DTD SVG 1.1//EN" "http://www.w3.org/Graphics/SVG/1.1/DTD/svg11.dtd">
<svg version="1.1" id="Capa_1" xmlns="http://www.w3.org/2000/svg" xmlns:xlink="http://www.w3.org/1999/xlink" x="0px" y="0px"
	 width="79.536px" height="79.536px" viewBox="0 0 79.536 79.536" style="enable-background:new 0 0 79.536 79.536;"
	 xml:space="preserve">
<g>
	<path style="fill:#010002;" d="M50.684,26.75H28.85L8.845,73.084h61.848L50.684,26.75z M41.767,70.79H37.77v-8.005h3.997V70.79z
		 M41.767,54.774H37.77v-8.006h3.997V54.774z M41.767,38.763H37.77v-8.005h3.997V38.763z M79.536,6.452v33.823H63.339
		c0.062-0.663,0.109-1.326,0.109-1.999c0-13.209-10.714-23.923-23.924-23.923c-13.204,0-23.92,10.714-23.92,23.923
		c0,0.673,0.049,1.336,0.101,1.999H0V6.452H79.536z"/>
</g>
<g>
</g>
<g>
</g>
<g>
</g>
<g>
</g>
<g>
</g>
<g>
</g>
<g>
</g>
<g>
</g>
<g>
</g>
<g>
</g>
<g>
</g>
<g>
</g>
<g>
</g>
<g>
</g>
<g>
</g>
</svg>
