<?xml version="1.0" encoding="iso-8859-1"?>
<!-- Generator: Adobe Illustrator 16.0.0, SVG Export Plug-In . SVG Version: 6.00 Build 0)  -->
<!DOCTYPE svg PUBLIC "-//W3C//DTD SVG 1.1//EN" "http://www.w3.org/Graphics/SVG/1.1/DTD/svg11.dtd">
<svg version="1.1" id="Capa_1" xmlns="http://www.w3.org/2000/svg" xmlns:xlink="http://www.w3.org/1999/xlink" x="0px" y="0px"
	 width="79.536px" height="79.536px" viewBox="0 0 79.536 79.536" style="enable-background:new 0 0 79.536 79.536;"
	 xml:space="preserve">
<g>
	<path style="fill:#010002;" d="M60.993,33.771V15.685h-8.052v18.087h-5.354V0h-13.43v33.771h-3.562V12.058H18.962v21.709h-7.684
		v6.032h56.98v-6.027H60.993z M41.953,3.026h4.241V5.96h-4.241V3.026z M41.953,7.65h4.241v2.934h-4.241V7.65z M35.548,3.026h4.241
		V5.96h-4.241V3.026z M35.548,7.65h4.241v2.934h-4.241V7.65z M26.284,14.566h2.592v3.461h-2.592V14.566z M20.663,14.566h2.61v3.461
		h-2.61V14.566z M68.258,79.536h-56.98l2.827-4.898l8.795-15.25c1.559-2.697,4.098-2.697,5.652,0c0,0,2.048,3.537,2.291,3.951
		c1.173-2.02,7.408-12.832,7.408-12.832c1.559-2.692,4.093-2.692,5.649,0l12.396,21.469c0.642-1.107,1.273-2.195,1.76-3.045
		c1.124-1.946,2.957-1.946,4.086,0c1.124,1.947,2.957,5.121,4.086,7.068L68.258,79.536z"/>
</g>
<g>
</g>
<g>
</g>
<g>
</g>
<g>
</g>
<g>
</g>
<g>
</g>
<g>
</g>
<g>
</g>
<g>
</g>
<g>
</g>
<g>
</g>
<g>
</g>
<g>
</g>
<g>
</g>
<g>
</g>
</svg>
