<?xml version="1.0" encoding="iso-8859-1"?>
<!-- Generator: Adobe Illustrator 16.0.0, SVG Export Plug-In . SVG Version: 6.00 Build 0)  -->
<!DOCTYPE svg PUBLIC "-//W3C//DTD SVG 1.1//EN" "http://www.w3.org/Graphics/SVG/1.1/DTD/svg11.dtd">
<svg version="1.1" id="Capa_1" xmlns="http://www.w3.org/2000/svg" xmlns:xlink="http://www.w3.org/1999/xlink" x="0px" y="0px"
	 width="79.536px" height="79.536px" viewBox="0 0 79.536 79.536" style="enable-background:new 0 0 79.536 79.536;"
	 xml:space="preserve">
<g>
	<path style="fill:#010002;" d="M68.569,64.897c0,0-0.047,1.817-1.005,2.874c-0.963,1.056-4.422,3.272-4.422,3.272l-11.211-8.73
		l0.373-16.85c1.3-1.139,2.775-2.222,4.707-2.625c2.962-0.611,16.213-3.221,22.524-7.514c0,0-6.514-6.561-6.799-8.223
		C62.128,3.366,50.042,1.025,32.68,3.49C15.447,5.939-5.227,14.105,1.199,55.229c0,0,4.052,6.628,10.97,7.772
		c2.18,0.357,4.878,0.503,7.625,0.549l28.617,3.366l9.776,9.9c4.137-0.067,15.685-1.968,11.925-8.508
		C69.501,67.228,69.02,66.052,68.569,64.897z M27.276,22.716l5.885,12.573l-1.214-13.008l3.611-0.336l2.201,23.519l-3.617,0.331
		l-5.844-12.474l1.209,12.904l-3.606,0.347l-2.198-23.52L27.276,22.716z M12.361,44.987c-0.471-0.839-0.829-1.709-1.062-2.631
		c-0.375-1.476-0.619-2.785-0.73-3.945L9.259,24.404l3.822-0.352l1.344,14.343c0.122,1.269,0.396,2.258,0.847,2.951
		c0.435,0.684,0.997,1,1.66,0.938c0.652-0.067,1.142-0.471,1.437-1.211c0.318-0.751,0.409-1.776,0.288-3.076l-1.336-14.349
		l3.821-0.362l1.315,14.022c0.127,1.393,0.14,2.713,0.021,3.966c-0.116,1.248-0.37,2.367-0.779,3.335
		c-0.391,0.968-0.841,1.662-1.341,2.087c-0.699,0.596-1.563,0.947-2.607,1.035c-0.606,0.058-1.279,0.047-1.994-0.051
		c-0.738-0.099-1.364-0.357-1.887-0.787C13.342,46.463,12.842,45.831,12.361,44.987z M36.783,61.355
		c2.237-1.522,4.28-3.666,5.44-4.572c1.092-0.839,3.187-3.583,5.059-5.971c-0.111,5.132-0.287,11.91-0.287,11.91L36.783,61.355z"/>
</g>
<g>
</g>
<g>
</g>
<g>
</g>
<g>
</g>
<g>
</g>
<g>
</g>
<g>
</g>
<g>
</g>
<g>
</g>
<g>
</g>
<g>
</g>
<g>
</g>
<g>
</g>
<g>
</g>
<g>
</g>
</svg>
