<?xml version="1.0" encoding="iso-8859-1"?>
<!-- Generator: Adobe Illustrator 16.0.0, SVG Export Plug-In . SVG Version: 6.00 Build 0)  -->
<!DOCTYPE svg PUBLIC "-//W3C//DTD SVG 1.1//EN" "http://www.w3.org/Graphics/SVG/1.1/DTD/svg11.dtd">
<svg version="1.1" id="Capa_1" xmlns="http://www.w3.org/2000/svg" xmlns:xlink="http://www.w3.org/1999/xlink" x="0px" y="0px"
	 width="79.536px" height="79.536px" viewBox="0 0 79.536 79.536" style="enable-background:new 0 0 79.536 79.536;"
	 xml:space="preserve">
<g>
	<path style="fill:#010002;" d="M41.073,26.533H38.23V0h2.843v2.19c2.319-0.922,4.505-1.421,6.534-1.421
		c0.611,0,1.336,0.106,2.206,0.318c0.86,0.197,1.797,0.43,2.775,0.741c1.025,0.308,1.947,0.58,2.833,0.758
		c0.849,0.225,1.59,0.319,2.18,0.319c1.129,0,2.123-0.218,3.045-0.608v11.997c-1.108,0.298-2.107,0.43-3.045,0.43
		c-0.59,0-1.331-0.085-2.18-0.285c-0.881-0.213-1.802-0.456-2.822-0.779c-0.989-0.282-1.957-0.531-2.869-0.759
		c-0.9-0.197-1.678-0.298-2.272-0.298c-0.316,0-0.782,0.07-1.435,0.228c-0.663,0.146-1.347,0.35-2.051,0.601
		c-0.72,0.259-1.336,0.497-1.908,0.704c-0.414,0.148-0.72,0.187-0.991,0.233V26.533z M73.395,35.589v43.947H50.166v-5.976H29.081
		v5.976H6.142V35.589h12.922v-6.908H60.48v6.908H73.395z M37.141,42.554h-5.028v13.789c0,1.983-0.075,3.393-0.228,4.236
		c-0.143,0.849-0.578,1.579-1.305,2.154c-0.725,0.574-1.802,0.875-3.239,0.875c-1.401,0-2.509-0.311-3.314-0.933
		c-0.816-0.61-1.326-1.435-1.543-2.454c-0.122-0.632-0.186-2.02-0.186-4.174V42.554h-5.031v13.298c0,2.785,0.163,4.898,0.497,6.317
		c0.228,0.968,0.696,1.89,1.411,2.77c0.715,0.881,1.686,1.585,2.92,2.149c1.219,0.538,3.024,0.818,5.414,0.818
		c1.968,0,3.576-0.259,4.785-0.767c1.23-0.508,2.206-1.181,2.941-2.04c0.738-0.839,1.232-1.885,1.501-3.128
		c0.27-1.227,0.404-3.345,0.404-6.328V42.554z M62.272,42.554h-4.681v16.647L47.4,42.554h-4.9v24.928h4.673V51.228l10.046,16.254
		h5.054V42.554z"/>
</g>
<g>
</g>
<g>
</g>
<g>
</g>
<g>
</g>
<g>
</g>
<g>
</g>
<g>
</g>
<g>
</g>
<g>
</g>
<g>
</g>
<g>
</g>
<g>
</g>
<g>
</g>
<g>
</g>
<g>
</g>
</svg>
