<?xml version="1.0" encoding="iso-8859-1"?>
<!-- Generator: Adobe Illustrator 16.0.0, SVG Export Plug-In . SVG Version: 6.00 Build 0)  -->
<!DOCTYPE svg PUBLIC "-//W3C//DTD SVG 1.1//EN" "http://www.w3.org/Graphics/SVG/1.1/DTD/svg11.dtd">
<svg version="1.1" id="Capa_1" xmlns="http://www.w3.org/2000/svg" xmlns:xlink="http://www.w3.org/1999/xlink" x="0px" y="0px"
	 width="79.536px" height="79.536px" viewBox="0 0 79.536 79.536" style="enable-background:new 0 0 79.536 79.536;"
	 xml:space="preserve">
<g>
	<path style="fill:#010002;" d="M52.027,79.08L69.39,60.253V32.785H10.147v46.751h41.466L52.027,79.08z M65.19,60.646L51.458,75.522
		V60.646H65.19z M12.951,35.604h53.627v22.215H48.62v18.885H12.951V35.604z M26.469,43.563c0-3.016-2.434-5.471-5.448-5.471
		c-3.021,0-5.465,2.455-5.465,5.471c0,3.009,2.444,5.458,5.465,5.458C24.035,49.021,26.469,46.572,26.469,43.563z M18.45,43.563
		c0-1.419,1.139-2.571,2.555-2.571c1.417,0,2.568,1.157,2.568,2.571c0,1.403-1.152,2.563-2.568,2.563
		C19.589,46.127,18.45,44.956,18.45,43.563z M38.906,9.077c1.002,2.009,5.51,12.536,5.51,14.046c0,8.256-11.02,8.256-11.02,0
		C33.396,21.613,37.909,10.574,38.906,9.077z M53.322,0c0.994,1.999,5.51,12.523,5.51,14.035c0,8.257-11.02,8.257-11.02,0
		C47.812,12.523,52.317,1.497,53.322,0z M24.415,0c1.007,1.999,5.51,12.523,5.51,14.035c0,8.257-11.019,8.257-11.019,0
		C18.906,12.523,23.413,1.497,24.415,0z"/>
</g>
<g>
</g>
<g>
</g>
<g>
</g>
<g>
</g>
<g>
</g>
<g>
</g>
<g>
</g>
<g>
</g>
<g>
</g>
<g>
</g>
<g>
</g>
<g>
</g>
<g>
</g>
<g>
</g>
<g>
</g>
</svg>
