<?xml version="1.0" encoding="iso-8859-1"?>
<!-- Generator: Adobe Illustrator 16.0.0, SVG Export Plug-In . SVG Version: 6.00 Build 0)  -->
<!DOCTYPE svg PUBLIC "-//W3C//DTD SVG 1.1//EN" "http://www.w3.org/Graphics/SVG/1.1/DTD/svg11.dtd">
<svg version="1.1" id="Capa_1" xmlns="http://www.w3.org/2000/svg" xmlns:xlink="http://www.w3.org/1999/xlink" x="0px" y="0px"
	 width="79.535px" height="79.535px" viewBox="0 0 79.535 79.535" style="enable-background:new 0 0 79.535 79.535;"
	 xml:space="preserve">
<g>
	<path style="fill:#010002;" d="M69.035,8.331l-10.454,9.738H20.949L10.504,8.331c0,0,5.196-7.262,13.769-8.217
		c8.389-0.935,11.301,4.215,15.5,4.411c4.189-0.196,7.12-5.346,15.493-4.411C63.847,1.068,69.035,8.331,69.035,8.331z
		 M75.363,70.825c0,0-2.273,8.71-12.702,8.71H16.894c-10.452,0-12.723-8.71-12.723-8.71C-2.65,40.676,18.129,24.318,18.129,24.318
		h43.284C61.413,24.323,82.188,40.681,75.363,70.825z M47.521,43.832c4.717,4.707,9.781-10.281,9.781-10.281
		C55.748,33.89,42.829,39.138,47.521,43.832z M39.885,46.079c1.986,1.988,6.926,0.368,4.306-6.563
		c-2.33-6.183,1.041-8.854,1.041-8.854C43.626,31.194,35.452,41.646,39.885,46.079z M33.49,52.475
		c1.988,1.982,6.936,0.356,4.306-6.582c-2.333-6.17,1.038-8.854,1.038-8.854C37.233,37.574,29.042,48.036,33.49,52.475z
		 M27.069,63.556c-0.854-0.865-1.077-2.04-1.613-1.497l-5.258,6.426c-0.59,0.596,0.927,3.139,2.167,1.885l6.193-5.214
		C29.094,64.627,27.921,64.404,27.069,63.556z M31.214,52.484c-2.333-6.183,1.046-8.854,1.046-8.854
		c-1.628,0.533-9.805,10.988-5.362,15.415C28.882,61.055,33.84,59.418,31.214,52.484z M47.101,58.476c0,0-2.688,3.371-8.854,1.03
		c-6.946-2.62-8.57,2.325-6.563,4.324C36.115,68.262,46.583,60.07,47.101,58.476z M53.692,51.895c0,0-2.677,3.36-8.865,1.02
		c-6.931-2.604-8.564,2.336-6.565,4.324C42.694,61.681,53.154,53.494,53.692,51.895z M60.088,45.504c0,0-2.698,3.382-8.854,1.031
		c-6.965-2.62-8.57,2.33-6.582,4.318C49.079,55.291,59.549,47.115,60.088,45.504z"/>
</g>
<g>
</g>
<g>
</g>
<g>
</g>
<g>
</g>
<g>
</g>
<g>
</g>
<g>
</g>
<g>
</g>
<g>
</g>
<g>
</g>
<g>
</g>
<g>
</g>
<g>
</g>
<g>
</g>
<g>
</g>
</svg>
