<?xml version="1.0" encoding="iso-8859-1"?>
<!-- Generator: Adobe Illustrator 16.0.0, SVG Export Plug-In . SVG Version: 6.00 Build 0)  -->
<!DOCTYPE svg PUBLIC "-//W3C//DTD SVG 1.1//EN" "http://www.w3.org/Graphics/SVG/1.1/DTD/svg11.dtd">
<svg version="1.1" id="Capa_1" xmlns="http://www.w3.org/2000/svg" xmlns:xlink="http://www.w3.org/1999/xlink" x="0px" y="0px"
	 width="79.536px" height="79.536px" viewBox="0 0 79.536 79.536" style="enable-background:new 0 0 79.536 79.536;"
	 xml:space="preserve">
<g>
	<path style="fill:#010002;" d="M67.932,6.612H11.606V0h56.325V6.612z M71.339,15.063v58.839c0,3.097-2.537,5.634-5.634,5.634
		H13.828c-3.091,0-5.631-2.537-5.631-5.634V15.063c0-3.097,2.54-5.632,5.631-5.632h51.877C68.802,9.427,71.339,11.967,71.339,15.063
		z M47.146,32.36c4.671,4.676,9.704-10.201,9.704-10.201C55.308,22.509,42.497,27.706,47.146,32.36z M39.576,34.598
		c1.968,1.962,6.866,0.365,4.267-6.522c-2.31-6.113,1.036-8.774,1.036-8.774C43.284,19.837,35.186,30.201,39.576,34.598z
		 M33.241,40.941c1.967,1.959,6.874,0.36,4.267-6.522c-2.312-6.121,1.035-8.782,1.035-8.782
		C36.946,26.157,28.829,36.539,33.241,40.941z M26.867,51.932c-0.849-0.86-1.067-2.024-1.59-1.497l-5.22,6.38
		c-0.583,0.596,0.919,3.102,2.154,1.874l6.139-5.178C28.875,52.987,27.721,52.765,26.867,51.932z M30.98,40.951
		c-2.312-6.131,1.036-8.782,1.036-8.782c-1.608,0.531-9.714,10.893-5.313,15.294C28.668,49.446,33.59,47.825,30.98,40.951z
		 M46.732,46.894c0,0-2.661,3.345-8.779,1.02c-6.882-2.594-8.495,2.314-6.507,4.293C35.838,56.587,46.215,48.478,46.732,46.894z
		 M53.268,40.355c0,0-2.651,3.348-8.793,1.018c-6.866-2.592-8.492,2.314-6.504,4.298C42.362,50.062,52.739,41.953,53.268,40.355z
		 M59.605,34.03c0,0-2.672,3.346-8.782,1.023c-6.897-2.597-8.492,2.312-6.524,4.28C48.7,43.734,59.077,35.615,59.605,34.03z"/>
</g>
<g>
</g>
<g>
</g>
<g>
</g>
<g>
</g>
<g>
</g>
<g>
</g>
<g>
</g>
<g>
</g>
<g>
</g>
<g>
</g>
<g>
</g>
<g>
</g>
<g>
</g>
<g>
</g>
<g>
</g>
</svg>
