<?xml version="1.0" encoding="iso-8859-1"?>
<!-- Generator: Adobe Illustrator 16.0.0, SVG Export Plug-In . SVG Version: 6.00 Build 0)  -->
<!DOCTYPE svg PUBLIC "-//W3C//DTD SVG 1.1//EN" "http://www.w3.org/Graphics/SVG/1.1/DTD/svg11.dtd">
<svg version="1.1" id="Capa_1" xmlns="http://www.w3.org/2000/svg" xmlns:xlink="http://www.w3.org/1999/xlink" x="0px" y="0px"
	 width="106.048px" height="106.048px" viewBox="0 0 106.048 106.048" style="enable-background:new 0 0 106.048 106.048;"
	 xml:space="preserve">
<g>
	<path style="fill:#010002;" d="M84.838,0H21.209C9.538,0,0,9.543,0,21.209v63.629c0,11.666,9.538,21.21,21.209,21.21h63.628
		c11.661,0,21.21-9.544,21.21-21.21V21.209C106.048,9.543,96.499,0,84.838,0z M91.031,34.98l-1.626,9.634l-9.176,3.405l-7.539-6.242
		l1.646-9.639l9.171-3.41L91.031,34.98z M81.421,61.604c-6.369,2.367-13.354,0.73-18.636-3.66L22.551,86.081l-9.295-13.298
		L54.691,43.81c-1.742-9.865,2.962-19.52,11.682-22.753c5.82-2.159,12.148-0.992,17.223,2.586l-14.085,5.211l-2.548,15.043
		l11.744,9.742l14.085-5.229C91.259,54.442,87.241,59.444,81.421,61.604z"/>
</g>
<g>
</g>
<g>
</g>
<g>
</g>
<g>
</g>
<g>
</g>
<g>
</g>
<g>
</g>
<g>
</g>
<g>
</g>
<g>
</g>
<g>
</g>
<g>
</g>
<g>
</g>
<g>
</g>
<g>
</g>
</svg>
