<?xml version="1.0" encoding="iso-8859-1"?>
<!-- Generator: Adobe Illustrator 16.0.0, SVG Export Plug-In . SVG Version: 6.00 Build 0)  -->
<!DOCTYPE svg PUBLIC "-//W3C//DTD SVG 1.1//EN" "http://www.w3.org/Graphics/SVG/1.1/DTD/svg11.dtd">
<svg version="1.1" id="Capa_1" xmlns="http://www.w3.org/2000/svg" xmlns:xlink="http://www.w3.org/1999/xlink" x="0px" y="0px"
	 width="106.048px" height="106.048px" viewBox="0 0 106.048 106.048" style="enable-background:new 0 0 106.048 106.048;"
	 xml:space="preserve">
<g>
	<path style="fill:#010002;" d="M27.773,35.26c-4.306,0-8.223,1.028-11.133,2.71v36.086c14.675-9.299,27.369-0.776,27.369,0.674
		V43.739C44.014,38.235,36.747,35.26,27.773,35.26z M40.213,57.689c-7.913-3.268-14.851-3.568-21.251-0.928l-0.393-0.963
		c6.659-2.754,13.877-2.444,22.038,0.928L40.213,57.689z M40.213,51.364c-7.923-3.283-14.864-3.573-21.251-0.922l-0.393-0.971
		c6.648-2.758,13.877-2.449,22.038,0.927L40.213,51.364z M40.213,45.034c-7.913-3.273-14.851-3.576-21.251-0.93l-0.393-0.966
		c6.659-2.744,13.877-2.439,22.038,0.935L40.213,45.034z M64.012,50.533l5.541,5.546l-2.703,1.098l-3.107,1.263l-2.097-2.097
		l0.621-1.532l0.627-1.569L64.012,50.533z M84.838,0H21.209C9.548,0,0,9.543,0,21.209v63.629c0,11.666,9.548,21.21,21.209,21.21
		h63.628c11.672,0,21.21-9.544,21.21-21.21V21.209C106.048,9.543,96.51,0,84.838,0z M78.987,77.382H51.841
		c-0.933,0.802-3.138,1.377-5.714,1.377c-2.589,0-4.795-0.569-5.716-1.377H13.256V40.374c0-3.278,0-5.421,0-5.543
		c17.865-7.757,30.914-0.147,33.192,2.048c1.577-1.462,13.122-8.261,28.148-3.658l-3.019,3.021
		c-2.097-0.603-4.412-0.981-6.887-0.981c-8.979,0-16.247,2.975-16.247,8.479V74.73c0-1.45,12.7-9.973,27.369-0.674V56.555
		l3.185-3.179v24.006H78.987z M50.893,51.364l-0.398-0.966c3.39-1.403,6.89-2.151,10.328-2.501l-0.445,1.098
		C57.218,49.371,54.008,50.064,50.893,51.364z M58.108,54.582l-0.455,1.108c-2.269,0.45-4.536,1.082-6.761,1.999L50.5,56.727
		C52.993,55.695,55.551,55.043,58.108,54.582z M50.893,45.034l-0.398-0.961c5.243-2.17,10.737-2.949,15.822-2.581l-0.969,0.979
		C60.667,42.276,55.675,43.056,50.893,45.034z M91.674,37.386L72.411,56.658l-4.961,2.02c-1.134,0.456-2.739,1.108-4.091,1.657
		c-0.383,0.155-0.818,0.331-1.129,0.456l-2.351,0.963c-1.419,0.575-2.134-0.113-1.543-1.554l0.952-2.345
		c0.135-0.307,0.301-0.741,0.467-1.119c0.559-1.361,1.206-2.978,1.656-4.096l2.02-4.956l19.263-19.271
		c1.191-1.188,2.827-1.478,3.656-0.652l5.976,5.989C93.154,34.571,92.854,36.205,91.674,37.386z"/>
</g>
<g>
</g>
<g>
</g>
<g>
</g>
<g>
</g>
<g>
</g>
<g>
</g>
<g>
</g>
<g>
</g>
<g>
</g>
<g>
</g>
<g>
</g>
<g>
</g>
<g>
</g>
<g>
</g>
<g>
</g>
</svg>
